<svg height="941" viewBox="0 0 1214 941" width="1214" xmlns="http://www.w3.org/2000/svg"><g fill="none" fill-rule="nonzero"><g transform="translate(151 170)"><g fill="#ccc" stroke="#757f97"><path d="m466-404h1v932h-1z" transform="matrix(0 -1 1 0 404.5 528.5)"/><path d="m534.5.5h1v582h-1z" transform="matrix(-1 0 0 -1 1070 583)"/><path d="m137.5.5h1v582h-1z" transform="matrix(-1 0 0 -1 276 583)"/><path d="m466-300h1v932h-1z" transform="matrix(0 -1 1 0 300.5 632.5)"/><path d="m466-196h1v932h-1z" transform="matrix(0 -1 1 0 196.5 736.5)"/><path d="m466-91.5h1v932h-1z" transform="matrix(0 -1 1 0 92 841)"/><path d="m466 12.5h1v932h-1z" transform="matrix(0 -1 1 0 -12 945)"/></g><g fill="#fff" transform="translate(26 25)"><path d="m262.296 12v-11.28h7.392v1.648h-5.36v3.072h5.04v1.648h-5.04v4.912zm14.032-6.352-1.168.112c-1.322673.13866736-1.984.81066064-1.984 2.016v4.224h-2v-7.824h1.904v1.376c.405335-.93867136 1.24266-1.45066624 2.512-1.536l.608-.048zm.976 6.352v-7.824h2v7.824zm-.112-11.456h2.208v1.968h-2.208zm11.04 7.904h-5.328c.064.72533696.282665 1.26399824.656 1.616.373335.3520018.906663.528 1.6.528.864004 0 1.65333-.2773306 2.368-.832l.576 1.376c-.362668.2986682-.818664.5386658-1.368.72s-1.101331.272-1.656.272c-1.280006 0-2.290663-.362663-3.032-1.088s-1.112-1.71732704-1.112-2.976c0-.800004.159998-1.50933024.48-2.128s.770664-1.09866496 1.352-1.44 1.239996-.512 1.976-.512c1.077339 0 1.927997.3466632 2.552 1.04s.936 1.64799392.936 2.864zm-3.44-3.056c-.533336 0-.962665.17066496-1.288.512s-.525333.8319968-.6 1.472h3.616c-.021333-.65066992-.181332-1.14399832-.48-1.48s-.714664-.504-1.248-.504zm9.616-1.408c.938671 0 1.637331.266664 2.096.8s.688 1.33866128.688 2.416v4.8h-2v-4.688c0-.60800304-.114666-1.05066528-.344-1.328s-.589331-.416-1.08-.416c-.576003 0-1.037332.18133152-1.384.544s-.52.84799696-.52 1.456v4.432h-2v-7.824h1.952v1.168c.266668-.43733552.623998-.77333216 1.072-1.008s.954664-.352 1.52-.352zm12.368-3.264v11.28h-1.984v-1.264c-.234668.4373355-.573331.7786654-1.016 1.024s-.946664.368-1.512.368c-.672003 0-1.271997-.170665-1.8-.512s-.938665-.8239969-1.232-1.448c-.293335-.62400312-.44-1.34132928-.44-2.152s.146665-1.51999696.44-2.128.701331-1.07733168 1.224-1.408 1.12533-.496 1.808-.496c.565336 0 1.066664.11733216 1.504.352s.773332.5653312 1.008.992v-4.608zm-3.984 9.856c.640003 0 1.133332-.2186645 1.48-.656.346668-.43733552.52-1.06132928.52-1.872s-.173332-1.43199784-.52-1.864-.834664-.648-1.464-.648c-.640003 0-1.135998.2133312-1.488.64s-.528 1.039996-.528 1.84c0 .81067072.175998 1.43999776.528 1.888.352002.4480022.842664.672 1.472.672zm8.112-9.856v1.456c0 .56533616-.095999 1.0746644-.288 1.528s-.517331.90399776-.976 1.352l-.816-.64c.256001-.27733472.453333-.53333216.592-.768s.229333-.47466544.272-.72h-1.024v-2.208zm4.784 11.408c-.693337 0-1.330664-.0853325-1.912-.256s-1.074665-.4159984-1.48-.736l.56-1.392c.832004.608003 1.786661.912 2.864.912.458669 0 .807999-.0746659 1.048-.224s.36-.3626653.36-.64c0-.23466784-.082666-.41599936-.248-.544s-.461331-.2453328-.888-.352l-1.28-.288c-.725337-.1600008-1.263998-.42133152-1.616-.784s-.528-.83199712-.528-1.408c0-.4800024.135999-.90399816.408-1.272s.650664-.65333232 1.136-.856 1.047997-.304 1.688-.304c.554669 0 1.090664.08533248 1.608.256s.973331.41066512 1.368.72l-.56 1.36c-.810671-.5866696-1.621329-.88-2.432-.88-.437336 0-.778665.0799992-1.024.24s-.368.38399856-.368.672c0 .2133344.077333.38933264.232.528s.402665.24533296.744.32l1.328.304c.778671.17066752 1.349332.43999816 1.712.808s.544.85066368.544 1.448c0 .725337-.29333 1.3013312-.88 1.728s-1.381328.64-2.384.64zm16.976-11.408h1.936v11.28h-1.552l-6.048-7.872v7.872h-1.92v-11.28h1.536l6.048 7.856zm7.552 3.264c1.098672 0 1.914664.266664 2.448.8s.8 1.35466112.8 2.464v4.752h-1.904v-1.2c-.181334.4160021-.466665.7413322-.856.976s-.839997.352-1.352.352c-.522669 0-.997331-.1066656-1.424-.32s-.762665-.5066648-1.008-.88-.368-.789331-.368-1.248c0-.57600288.146665-1.02933168.44-1.36s.770663-.57066592 1.432-.72c.595203-.13440067 1.393436-.20832013 2.394719-.22176002l.741281-.00223998v-.368c0-.533336-.114666-.91733216-.344-1.152s-.610664-.352-1.144-.352c-.416002 0-.850664.07199928-1.304.216s-.898664.34399872-1.336.6l-.56-1.376c.437336-.27733472.96533-.50666576 1.584-.688s1.205331-.272 1.76-.272zm-.464 6.704c.533336 0 .967998-.1786649 1.304-.536.336002-.35733512.504-.81866384.504-1.384v-.336h-.288c-.71467 0-1.269331.03199968-1.664.096s-.677332.1759992-.848.336-.256.37866528-.256.656c0 .34133504.117332.6213322.352.84s.533332.328.896.328zm15.04-6.704c.885338 0 1.546664.26399736 1.984.792s.656 1.33599456.656 2.424v4.8h-2v-4.72c0-.59733632-.101332-1.03199864-.304-1.304s-.527998-.408-.976-.408c-.533336 0-.949332.18133152-1.248.544s-.448.86933008-.448 1.52v4.368h-2v-4.72c0-.59733632-.098666-1.03199864-.296-1.304s-.525331-.408-.984-.408c-.522669 0-.933332.18133152-1.232.544s-.448.86933008-.448 1.52v4.368h-2v-7.824h1.952v1.104c.234668-.4266688.559998-.74933224.976-.968s.890664-.328 1.424-.328c1.184006 0 1.967998.49066176 2.352 1.472.245335-.45866896.597331-.81866536 1.056-1.08s.970664-.392 1.536-.392z"/><path d="m362.84 3.984c1.077339 0 1.927997.3466632 2.552 1.04s.936 1.64799392.936 2.864v.56h-5.328c.064.72533696.282665 1.26399824.656 1.616.373335.3520018.906663.528 1.6.528.864004 0 1.65333-.2773306 2.368-.832l.576 1.376c-.362668.2986682-.818664.5386658-1.368.72s-1.101331.272-1.656.272c-1.280006 0-2.290663-.362663-3.032-1.088s-1.112-1.71732704-1.112-2.976c0-.800004.159998-1.50933024.48-2.128s.770664-1.09866496 1.352-1.44 1.239996-.512 1.976-.512zm.048 1.408c-.533336 0-.962665.17066496-1.288.512s-.525333.8319968-.6 1.472h3.616c-.021333-.65066992-.181332-1.14399832-.48-1.48s-.714664-.504-1.248-.504z"/><path d="m9.84 12-1.136-2.64h-5.488l-1.136 2.64h-2.08l5.104-11.28h1.68l5.104 11.28zm-5.952-4.24h4.128l-2.064-4.8zm14.176-2.112-1.168.112c-1.3226733.13866736-1.984.81066064-1.984 2.016v4.224h-2v-7.824h1.904v1.376c.4053354-.93867136 1.2426603-1.45066624 2.512-1.536l.608-.048zm6.128 0-1.168.112c-1.3226733.13866736-1.984.81066064-1.984 2.016v4.224h-2v-7.824h1.904v1.376c.4053354-.93867136 1.2426603-1.45066624 2.512-1.536l.608-.048zm4.336-1.664c1.0986722 0 1.914664.266664 2.448.8s.8 1.35466112.8 2.464v4.752h-1.904v-1.2c-.1813342.4160021-.4666647.7413322-.856.976s-.8399974.352-1.352.352c-.5226693 0-.9973312-.1066656-1.424-.32s-.7626654-.5066648-1.008-.88-.368-.789331-.368-1.248c0-.57600288.1466652-1.02933168.44-1.36s.7706634-.57066592 1.432-.72c.595203-.13440067 1.3934359-.20832013 2.3947187-.22176002l.7412813-.00223998v-.368c0-.533336-.1146655-.91733216-.344-1.152s-.610664-.352-1.144-.352c-.4160021 0-.8506644.07199928-1.304.216s-.8986645.34399872-1.336.6l-.56-1.376c.4373355-.27733472.9653302-.50666576 1.584-.688s1.2053306-.272 1.76-.272zm-.464 6.704c.533336 0 .9679983-.1786649 1.304-.536.3360017-.35733512.504-.81866384.504-1.384v-.336h-.288c-.7146702 0-1.2693314.03199968-1.664.096s-.6773325.1759992-.848.336-.256.37866528-.256.656c0 .34133504.1173322.6213322.352.84s.5333315.328.896.328zm11.232-6.496h1.968l-4.704 10.688h-2.016l1.424-3.184-3.264-7.504h2.112l2.208 5.52zm7.44 7.808v-11.28h2.064v11.28zm8.864-8.016c.9386714 0 1.637331.266664 2.096.8s.688 1.33866128.688 2.416v4.8h-2v-4.688c0-.60800304-.1146655-1.05066528-.344-1.328s-.5893309-.416-1.08-.416c-.5760029 0-1.0373316.18133152-1.384.544s-.52.84799696-.52 1.456v4.432h-2v-7.824h1.952v1.168c.266668-.43733552.6239978-.77333216 1.072-1.008s.9546638-.352 1.52-.352zm12.368-3.264v11.28h-1.984v-1.264c-.2346678.4373355-.5733311.7786654-1.016 1.024s-.9466638.368-1.512.368c-.6720034 0-1.2719974-.170665-1.8-.512s-.9386652-.8239969-1.232-1.448c-.2933348-.62400312-.44-1.34132928-.44-2.152s.1466652-1.51999696.44-2.128.7013307-1.07733168 1.224-1.408 1.1253299-.496 1.808-.496c.5653362 0 1.0666645.11733216 1.504.352s.7733322.5653312 1.008.992v-4.608zm-3.984 9.856c.6400032 0 1.1333316-.2186645 1.48-.656.3466684-.43733552.52-1.06132928.52-1.872s-.1733316-1.43199784-.52-1.864-.8346635-.648-1.464-.648c-.6400032 0-1.1359982.2133312-1.488.64s-.528 1.039996-.528 1.84c0 .81067072.1759982 1.43999776.528 1.888.3520018.4480022.8426635.672 1.472.672zm12.912-2.128h-5.328c.0640003.72533696.2826648 1.26399824.656 1.616.3733352.3520018.9066632.528 1.6.528.8640043 0 1.6533298-.2773306 2.368-.832l.576 1.376c-.3626685.2986682-.8186639.5386658-1.368.72s-1.1013306.272-1.656.272c-1.2800064 0-2.290663-.362663-3.032-1.088s-1.112-1.71732704-1.112-2.976c0-.800004.1599984-1.50933024.48-2.128s.7706638-1.09866496 1.352-1.44 1.2399963-.512 1.976-.512c1.0773387 0 1.9279969.3466632 2.552 1.04s.936 1.64799392.936 2.864zm-3.44-3.056c-.533336 0-.962665.17066496-1.288.512s-.525333.8319968-.6 1.472h3.616c-.0213334-.65066992-.1813318-1.14399832-.48-1.48s-.714664-.504-1.248-.504zm9.44 2.576 3.296 4.032h-2.368l-2.08-2.608-2.064 2.608h-2.368l3.28-4.032-3.104-3.792h2.384l1.872 2.384 1.872-2.384h2.384z"/><path d="m251.312 198.72 1.68-.12c1.424007-.096 2.136-.879993 2.136-2.352v-12.168h3.096v12.144c0 1.504008-.395996 2.667996-1.188 3.492s-1.971992 1.284-3.54 1.38l-1.968.12zm15.648 2.472c-1.200006 0-2.251995-.247998-3.156-.744s-1.603998-1.207995-2.1-2.136-.744-2.007994-.744-3.24.247998-2.307995.744-3.228 1.195995-1.627998 2.1-2.124 1.955994-.744 3.156-.744 2.251995.247998 3.156.744 1.599998 1.203995 2.088 2.124.732 1.995994.732 3.228-.243998 2.311995-.732 3.24-1.183995 1.639998-2.088 2.136-1.955994.744-3.156.744zm-.024-2.328c.976005 0 1.719997-.319997 2.232-.96s.768-1.583994.768-2.832c0-1.232006-.255997-2.171997-.768-2.82s-1.247995-.972-2.208-.972-1.699997.323997-2.22.972-.78 1.587994-.78 2.82c0 1.248006.255997 2.191997.768 2.832s1.247995.96 2.208.96zm15.288-9.888c1.408007 0 2.455997.399996 3.144 1.2s1.032 2.007992 1.032 3.624v7.2h-3v-7.032c0-.912005-.171998-1.575998-.516-1.992s-.883996-.624-1.62-.624c-.864004 0-1.555997.271997-2.076.816s-.78 1.271995-.78 2.184v6.648h-3v-16.92h3v6.816c.400002-.624003.931997-1.099998 1.596-1.428s1.404-.492 2.22-.492zm14.04 0c1.408007 0 2.455997.399996 3.144 1.2.688003.8 1.032 2.007992 1.032 3.624v7.2h-3v-7.032c0-.912005-.171998-1.575998-.516-1.992s-.883996-.624-1.62-.624c-.864004 0-1.555997.271997-2.076.816s-.78 1.271995-.78 2.184v6.648h-3v-11.736h2.928v1.752c.400002-.656003.935997-1.159998 1.608-1.512s1.431996-.528 2.28-.528zm28.08-4.896h2.424v16.92h-2.736v-11.184l-4.464 8.448h-2.064l-4.488-8.328.024 11.064h-2.736v-16.92h2.448l5.808 11.064zm16.128 11.592h-7.992c.096 1.088005.423997 1.895997.984 2.424s1.359995.792 2.4.792c1.296006 0 2.479995-.415996 3.552-1.248l.864 2.064c-.544003.448002-1.227996.807999-2.052 1.08s-1.651996.408-2.484.408c-1.92001 0-3.435994-.543995-4.548-1.632s-1.668-2.575991-1.668-4.464c0-1.200006.239998-2.263995.72-3.192.480002-.928 1.155996-1.647997 2.028-2.16s1.859994-.768 2.964-.768c1.616008 0 2.891995.519995 3.828 1.56s1.404 2.471991 1.404 4.296zm-5.16-4.584c-.800004 0-1.443998.255997-1.932.768s-.787999 1.247995-.9 2.208h5.424c-.032-.976-.271998-1.715997-.72-2.22s-1.071996-.756-1.872-.756zm7.608 9.912v-16.92h3v16.92zm6.096 0v-16.92h3v16.92zm11.448.192c-1.200006 0-2.251995-.247998-3.156-.744s-1.603998-1.207995-2.1-2.136-.744-2.007994-.744-3.24.247998-2.307995.744-3.228 1.195995-1.627998 2.1-2.124 1.955994-.744 3.156-.744 2.251995.247998 3.156.744 1.599998 1.203995 2.088 2.124.732 1.995994.732 3.228-.243998 2.311995-.732 3.24-1.183995 1.639998-2.088 2.136-1.955994.744-3.156.744zm-.024-2.328c.976005 0 1.719997-.319997 2.232-.96s.768-1.583994.768-2.832c0-1.232006-.255997-2.171997-.768-2.82s-1.247995-.972-2.208-.972-1.699997.323997-2.22.972-.78 1.587994-.78 2.82c0 1.248006.255997 2.191997.768 2.832s1.247995.96 2.208.96zm16.2-7.392-1.752.168c-1.98401.208001-2.976 1.215991-2.976 3.024v6.336h-3v-11.736h2.856v2.064c.579051-1.340959 1.745842-2.101406 3.500407-2.281361l1.179593-.094639z"/><path d="m248.528 302.72 1.68-.12c1.424007-.096 2.136-.879993 2.136-2.352v-12.168h3.096v12.144c0 1.504008-.395996 2.667996-1.188 3.492s-1.971992 1.284-3.54 1.38l-1.968.12zm15.648 2.472c-1.200006 0-2.251995-.247998-3.156-.744s-1.603998-1.207995-2.1-2.136-.744-2.007994-.744-3.24.247998-2.307995.744-3.228 1.195995-1.627998 2.1-2.124 1.955994-.744 3.156-.744 2.251995.247998 3.156.744 1.599998 1.203995 2.088 2.124.732 1.995994.732 3.228-.243998 2.311995-.732 3.24-1.183995 1.639998-2.088 2.136-1.955994.744-3.156.744zm-.024-2.328c.976005 0 1.719997-.319997 2.232-.96s.768-1.583994.768-2.832c0-1.232006-.255997-2.171997-.768-2.82s-1.247995-.972-2.208-.972-1.699997.323997-2.22.972-.78 1.587994-.78 2.82c0 1.248006.255997 2.191997.768 2.832s1.247995.96 2.208.96zm13.512-9.888c1.648008 0 2.871996.399996 3.672 1.2.800004.8 1.2 2.031992 1.2 3.696v7.128h-2.856v-1.8c-.272001.624003-.699997 1.111998-1.284 1.464s-1.259996.528-2.028.528c-.784004 0-1.495997-.159998-2.136-.48s-1.143998-.759997-1.512-1.32-.552-1.183997-.552-1.872c0-.864004.219998-1.544.66-2.04.440002-.496002 1.155995-.855999 2.148-1.08.915697-.20677 2.151757-.318107 3.708211-.334012l.995789-.001988v-.552c0-.800004-.171998-1.375998-.516-1.728s-.915996-.528-1.716-.528c-.624003 0-1.275997.107999-1.956.324s-1.347997.515998-2.004.9l-.84-2.064c.656003-.416002 1.447995-.759999 2.376-1.032s1.807996-.408 2.64-.408zm-.696 10.056c.800004 0 1.451997-.267997 1.956-.804s.756-1.227996.756-2.076v-.504h-.432c-1.072005 0-1.903997.048-2.496.144s-1.015999.263999-1.272.504-.384.567998-.384.984c0 .512003.175998.931998.528 1.26s.799997.492 1.344.492zm15.432-10.056c1.408007 0 2.455997.399996 3.144 1.2.688003.8 1.032 2.007992 1.032 3.624v7.2h-3v-7.032c0-.912005-.171998-1.575998-.516-1.992s-.883996-.624-1.62-.624c-.864004 0-1.555997.271997-2.076.816s-.78 1.271995-.78 2.184v6.648h-3v-11.736h2.928v1.752c.400002-.656003.935997-1.159998 1.608-1.512s1.431996-.528 2.28-.528zm28.08-4.896h2.424v16.92h-2.736v-11.184l-4.464 8.448h-2.064l-4.488-8.328.024 11.064h-2.736v-16.92h2.448l5.808 11.064zm11.184 17.112c-1.232006 0-2.299995-.247998-3.204-.744s-1.595998-1.199995-2.076-2.112-.72-1.975994-.72-3.192.251997-2.291995.756-3.228 1.219995-1.659997 2.148-2.172 1.999994-.768 3.216-.768c.832004 0 1.643996.131999 2.436.396s1.427998.619998 1.908 1.068l-.864 2.112c-.496002-.400002-1.019997-.703999-1.572-.912s-1.099997-.312-1.644-.312c-1.040005 0-1.847997.323997-2.424.972s-.864 1.579994-.864 2.796c0 1.200006.287997 2.123997.864 2.772s1.383995.972 2.424.972c.544003 0 1.091997-.103999 1.644-.312s1.075998-.511998 1.572-.912l.864 2.088c-.512003.464002-1.167996.827999-1.968 1.092s-1.631996.396-2.496.396zm18-17.112h2.904v16.92h-2.328l-9.072-11.808v11.808h-2.88v-16.92h2.304l9.072 11.784zm16.584 11.592h-7.992c.096 1.088005.423997 1.895997.984 2.424s1.359995.792 2.4.792c1.296006 0 2.479995-.415996 3.552-1.248l.864 2.064c-.544003.448002-1.227996.807999-2.052 1.08s-1.651996.408-2.484.408c-1.92001 0-3.435994-.543995-4.548-1.632s-1.668-2.575991-1.668-4.464c0-1.200006.239998-2.263995.72-3.192.480002-.928 1.155996-1.647997 2.028-2.16s1.859994-.768 2.964-.768c1.616008 0 2.891995.519995 3.828 1.56s1.404 2.471991 1.404 4.296zm-5.16-4.584c-.800004 0-1.443998.255997-1.932.768s-.787999 1.247995-.9 2.208h5.424c-.032-.976-.271998-1.715997-.72-2.22s-1.071996-.756-1.872-.756zm7.608 9.912v-11.736h3v11.736zm-.168-17.184h3.312v2.952h-3.312zm6.264 17.184v-16.92h3v16.92z"/><path d="m45.304 198.504h3.672v2.496h-10.44v-2.496h3.672v-10.896l-2.904 1.752-1.224-2.256 5.016-3.024h2.208z"/><path d="m48.916 302.504v2.496h-11.376v-2.28l5.76-6.192c.6720034-.736004 1.1639984-1.411997 1.476-2.028s.468-1.227997.468-1.836c0-.768004-.2199978-1.347998-.66-1.74s-1.0839958-.588-1.932-.588c-1.5200076 0-3.0479923.583994-4.584 1.752l-1.032-2.256c.6720034-.592003 1.5319948-1.067998 2.58-1.428s2.0999947-.54 3.156-.54c1.6960085 0 3.039995.415996 4.032 1.248s1.488 1.951993 1.488 3.36c0 .976005-.2079979 1.892-.624 2.748-.4160021.856004-1.119995 1.811995-2.112 2.868l-4.152 4.416z"/><path d="m46.116 401.312c.992005.256001 1.7559973.739996 2.292 1.452s.804 1.595995.804 2.652c0 1.472007-.5399946 2.635996-1.62 3.492s-2.5479907 1.284-4.404 1.284c-1.1360057 0-2.2279948-.175998-3.276-.528s-1.9159966-.831997-2.604-1.44l1.032-2.256c1.4720074 1.168006 3.0479916 1.752 4.728 1.752 1.0720054 0 1.8719974-.211998 2.4-.636s.792-1.067996.792-1.932c0-.848004-.2679973-1.475998-.804-1.884s-1.3639944-.612-2.484-.612h-2.232v-2.448h1.824c2.192011 0 3.288-.823992 3.288-2.472 0-.768004-.2359976-1.359998-.708-1.776s-1.1399957-.624-2.004-.624c-.7520038 0-1.5159961.147999-2.292.444s-1.5319963.731997-2.268 1.308l-1.032-2.256c.6720034-.608003 1.5319948-1.087998 2.58-1.44s2.1159946-.528 3.204-.528c1.6640083 0 2.991995.403996 3.984 1.212.992.808004 1.488 1.899993 1.488 3.276-.0160001.944005-.2599976 1.763997-.732 2.46s-1.1239958 1.195998-1.956 1.5z"/><path d="m47.176 496.08v11.208h2.376v2.4h-2.376v3.312h-3.024v-3.312h-7.344v-2.28l7.872-11.328zm-3.024 5.752-4 5h4z"/><path d="m43 77.912c2.00001 0 3.5279947.7359926 4.584 2.208s1.584 3.607986 1.584 6.408c0 2.8160141-.5279947 4.9679926-1.584 6.456s-2.58399 2.232-4.584 2.232-3.5279947-.7399926-4.584-2.22-1.584-3.6359858-1.584-6.468c0-2.800014.5279947-4.9359926 1.584-6.408s2.58399-2.208 4.584-2.208zm0 2.424c-1.0880054 0-1.8799975.4919951-2.376 1.476s-.744 2.5559892-.744 4.716c0 2.1760109.2479975 3.763995.744 4.764s1.2879946 1.5 2.376 1.5 1.88-.499995 2.376-1.5c.4960025-1.000005.744-2.5879891.744-4.764 0-2.1600108-.2479975-3.7319951-.744-4.716-.496-.9840049-1.2879946-1.476-2.376-1.476z"/><path d="m234.084 407.72 1.68-.12c1.424007-.096 2.136-.879993 2.136-2.352v-12.168h3.096v12.144c0 1.504008-.395996 2.667996-1.188 3.492s-1.971992 1.284-3.54 1.38l-1.968.12zm20.592-3.048h-7.992c.096 1.088005.423997 1.895997.984 2.424s1.359995.792 2.4.792c1.296006 0 2.479995-.415996 3.552-1.248l.864 2.064c-.544003.448002-1.227996.807999-2.052 1.08s-1.651996.408-2.484.408c-1.92001 0-3.435994-.543995-4.548-1.632s-1.668-2.575991-1.668-4.464c0-1.200006.239998-2.263995.72-3.192.480002-.928 1.155996-1.647997 2.028-2.16s1.859994-.768 2.964-.768c1.616008 0 2.891995.519995 3.828 1.56s1.404 2.471991 1.404 4.296zm-5.16-4.584c-.800004 0-1.443998.255997-1.932.768s-.787999 1.247995-.9 2.208h5.424c-.032-.976-.271998-1.715997-.72-2.22s-1.071996-.756-1.872-.756zm11.424-1.824h3.096v2.256h-3.096v9.48h-3v-9.48h-2.256v-2.256h2.256c0-1.680008.435996-2.943996 1.308-3.792.817504-.795004 2.060383-1.259531 3.72867-1.393594l1.51533-.094406.192 2.232-1.128.048c-.944005.048-1.615998.259998-2.016.636s-.6.979996-.6 1.812zm8.592 0h3.096v2.256h-3.096v9.48h-3v-9.48h-2.256v-2.256h2.256c0-1.680008.435996-2.943996 1.308-3.792.817504-.795004 2.060383-1.259531 3.72867-1.393594l1.51533-.094406.192 2.232-1.128.048c-.944005.048-1.615998.259998-2.016.636s-.6.979996-.6 1.812zm12.504 2.208-1.752.168c-1.98401.208001-2.976 1.215991-2.976 3.024v6.336h-3v-11.736h2.856v2.064c.579051-1.340959 1.745842-2.101406 3.500407-2.281361l1.179593-.094639zm11.76 4.2h-7.992c.096 1.088005.423997 1.895997.984 2.424s1.359995.792 2.4.792c1.296006 0 2.479995-.415996 3.552-1.248l.864 2.064c-.544003.448002-1.227996.807999-2.052 1.08s-1.651996.408-2.484.408c-1.92001 0-3.435994-.543995-4.548-1.632s-1.668-2.575991-1.668-4.464c0-1.200006.239998-2.263995.72-3.192.480002-.928 1.155996-1.647997 2.028-2.16s1.859994-.768 2.964-.768c1.616008 0 2.891995.519995 3.828 1.56s1.404 2.471991 1.404 4.296zm-5.16-4.584c-.800004 0-1.443998.255997-1.932.768s-.787999 1.247995-.9 2.208h5.424c-.032-.976-.271998-1.715997-.72-2.22s-1.071996-.756-1.872-.756zm15.84-1.8h2.952l-7.056 16.032h-3.024l2.136-4.776-4.896-11.256h3.168l3.312 8.28zm22.872-5.208h3.024v16.92h-3.024v-7.344h-8.664v7.344h-3.048v-16.92h3.048v7.08h8.664zm14.64 5.208h2.952l-7.056 16.032h-3.024l2.136-4.776-4.896-11.256h3.168l3.312 8.28zm18.336-.312c1.328007 0 2.319997.395996 2.976 1.188s.984 2.003992.984 3.636v7.2h-3v-7.08c0-.896004-.151998-1.547998-.456-1.956s-.791997-.612-1.464-.612c-.800004 0-1.423998.271997-1.872.816s-.672 1.303995-.672 2.28v6.552h-3v-7.08c0-.896004-.147999-1.547998-.444-1.956s-.787997-.612-1.476-.612c-.784004 0-1.399998.271997-1.848.816s-.672 1.303995-.672 2.28v6.552h-3v-11.736h2.928v1.656c.352002-.640003.839997-1.123998 1.464-1.452s1.335996-.492 2.136-.492c1.776009 0 2.951997.735993 3.528 2.208.368002-.688003.895997-1.227998 1.584-1.62s1.455996-.588 2.304-.588zm12.048 0c1.648008 0 2.871996.399996 3.672 1.2.800004.8 1.2 2.031992 1.2 3.696v7.128h-2.856v-1.8c-.272001.624003-.699997 1.111998-1.284 1.464s-1.259996.528-2.028.528c-.784004 0-1.495997-.159998-2.136-.48s-1.143998-.759997-1.512-1.32-.552-1.183997-.552-1.872c0-.864004.219998-1.544.66-2.04.440002-.496002 1.155995-.855999 2.148-1.08.915697-.20677 2.151757-.318107 3.708211-.334012l.995789-.001988v-.552c0-.800004-.171998-1.375998-.516-1.728s-.915996-.528-1.716-.528c-.624003 0-1.275997.107999-1.956.324s-1.347997.515998-2.004.9l-.84-2.064c.656003-.416002 1.447995-.759999 2.376-1.032s1.807996-.408 2.64-.408zm-.696 10.056c.800004 0 1.451997-.267997 1.956-.804s.756-1.227996.756-2.076v-.504h-.432c-1.072005 0-1.903997.048-2.496.144s-1.015999.263999-1.272.504-.384.567998-.384.984c0 .512003.175998.931998.528 1.26s.799997.492 1.344.492zm15.432-10.056c1.408007 0 2.455997.399996 3.144 1.2.688003.8 1.032 2.007992 1.032 3.624v7.2h-3v-7.032c0-.912005-.171998-1.575998-.516-1.992s-.883996-.624-1.62-.624c-.864004 0-1.555997.271997-2.076.816s-.78 1.271995-.78 2.184v6.648h-3v-11.736h2.928v1.752c.400002-.656003.935997-1.159998 1.608-1.512s1.431996-.528 2.28-.528z"/><path d="m650.84 12-1.136-2.64h-5.488l-1.136 2.64h-2.08l5.104-11.28h1.68l5.104 11.28zm-5.952-4.24h4.128l-2.064-4.8zm11.904 4.368c-.693337 0-1.330664-.0853325-1.912-.256s-1.074665-.4159984-1.48-.736l.56-1.392c.832004.608003 1.786661.912 2.864.912.458669 0 .807999-.0746659 1.048-.224s.36-.3626653.36-.64c0-.23466784-.082666-.41599936-.248-.544s-.461331-.2453328-.888-.352l-1.28-.288c-.725337-.1600008-1.263998-.42133152-1.616-.784s-.528-.83199712-.528-1.408c0-.4800024.135999-.90399816.408-1.272s.650664-.65333232 1.136-.856 1.047997-.304 1.688-.304c.554669 0 1.090664.08533248 1.608.256s.973331.41066512 1.368.72l-.56 1.36c-.810671-.5866696-1.621329-.88-2.432-.88-.437336 0-.778665.0799992-1.024.24s-.368.38399856-.368.672c0 .2133344.077333.38933264.232.528s.402665.24533296.744.32l1.328.304c.778671.17066752 1.349332.43999816 1.712.808s.544.85066368.544 1.448c0 .725337-.29333 1.3013312-.88 1.728s-1.381328.64-2.384.64zm8.88-1.504c.234668 0 .479999-.0159998.736-.048l-.096 1.488c-.320002.0320002-.613332.048-.88.048-1.098672 0-1.909331-.2533308-2.432-.76s-.784-1.2613283-.784-2.264v-3.408h-1.504v-1.504h1.504v-2.336h2v2.336h2.064v1.504h-2.064v3.376c0 1.0453386.485328 1.568 1.456 1.568zm7.056-4.976-1.168.112c-1.322673.13866736-1.984.81066064-1.984 2.016v4.224h-2v-7.824h1.904v1.376c.405335-.93867136 1.24266-1.45066624 2.512-1.536l.608-.048zm4.544 6.48c-.800004 0-1.50133-.1653317-2.104-.496s-1.069332-.8053302-1.4-1.424c-.330668-.61866976-.496-1.33866256-.496-2.16s.165332-1.5386636.496-2.152.79733-1.08533168 1.4-1.416 1.303996-.496 2.104-.496 1.50133.16533168 2.104.496 1.066665.8026636 1.392 1.416.488 1.33066256.488 2.152-.162665 1.54133024-.488 2.16c-.325335.6186698-.78933 1.0933317-1.392 1.424s-1.303996.496-2.104.496zm-.016-1.552c.65067 0 1.146665-.2133312 1.488-.64s.512-1.05599584.512-1.888c0-.82133744-.170665-1.44799784-.512-1.88s-.831997-.648-1.472-.648-1.133332.21599784-1.48.648-.52 1.05866256-.52 1.88c0 .83200416.170665 1.4613312.512 1.888s.831997.64 1.472.64zm5.648 1.424v-11.28h2v11.28zm7.632.128c-.800004 0-1.50133-.1653317-2.104-.496s-1.069332-.8053302-1.4-1.424c-.330668-.61866976-.496-1.33866256-.496-2.16s.165332-1.5386636.496-2.152.79733-1.08533168 1.4-1.416 1.303996-.496 2.104-.496 1.50133.16533168 2.104.496 1.066665.8026636 1.392 1.416.488 1.33066256.488 2.152-.162665 1.54133024-.488 2.16c-.325335.6186698-.78933 1.0933317-1.392 1.424s-1.303996.496-2.104.496zm-.016-1.552c.65067 0 1.146665-.2133312 1.488-.64s.512-1.05599584.512-1.888c0-.82133744-.170665-1.44799784-.512-1.88s-.831997-.648-1.472-.648-1.133332.21599784-1.48.648-.52 1.05866256-.52 1.88c0 .83200416.170665 1.4613312.512 1.888s.831997.64 1.472.64zm13.264-6.4v7.104c0 1.2266728-.338663 2.1546635-1.016 2.784s-1.677327.944-3 .944c-.68267 0-1.338664-.0879991-1.968-.264s-1.178664-.4239984-1.648-.744l.56-1.408c.970672.5866696 1.973328.88 3.008.88 1.386674 0 2.08-.6826598 2.08-2.048v-1.024c-.234668.4373355-.575998.7759988-1.024 1.016s-.959997.36-1.536.36c-.68267 0-1.287997-.162665-1.816-.488s-.941332-.7813304-1.24-1.368-.448-1.26399616-.448-2.032.146665-1.44799704.44-2.04.706664-1.05066504 1.24-1.376 1.14133-.488 1.824-.488c.576003 0 1.087998.1199988 1.536.36s.789332.57866448 1.024 1.016v-1.184zm-4.016 6.048c.640003 0 1.138665-.2079979 1.496-.624.357335-.41600208.536-.98666304.536-1.712 0-.73600368-.178665-1.31199792-.536-1.728s-.855997-.624-1.496-.624c-.629336 0-1.125332.20799792-1.488.624s-.544.99199632-.544 1.728c0 .71467024.181332 1.28266456.544 1.704.362668.4213354.858664.632 1.488.632zm6.08 1.776v-7.824h2v7.824zm-.112-11.456h2.208v1.968h-2.208zm7.744 11.584c-.821337 0-1.53333-.1653317-2.136-.496s-1.063998-.799997-1.384-1.408c-.320002-.60800304-.48-1.31732928-.48-2.128s.167998-1.52799688.504-2.152.81333-1.10666496 1.432-1.448 1.333329-.512 2.144-.512c.554669 0 1.095997.08799912 1.624.264s.951998.41333184 1.272.712l-.576 1.408c-.330668-.266668-.679998-.46933264-1.048-.608s-.733332-.208-1.096-.208c-.693337 0-1.231998.21599784-1.616.648s-.576 1.05332928-.576 1.864c0 .800004.191998 1.41599784.576 1.848.384002.4320022.922663.648 1.616.648.362668 0 .727998-.0693326 1.096-.208s.717332-.341332 1.048-.608l.576 1.392c-.341335.3093349-.778664.5519991-1.312.728s-1.087997.264-1.664.264zm7.6-8.144c1.098672 0 1.914664.266664 2.448.8s.8 1.35466112.8 2.464v4.752h-1.904v-1.2c-.181334.4160021-.466665.7413322-.856.976s-.839997.352-1.352.352c-.522669 0-.997331-.1066656-1.424-.32s-.762665-.5066648-1.008-.88-.368-.789331-.368-1.248c0-.57600288.146665-1.02933168.44-1.36s.770663-.57066592 1.432-.72c.595203-.13440067 1.393436-.20832013 2.394719-.22176002l.741281-.00223998v-.368c0-.533336-.114666-.91733216-.344-1.152s-.610664-.352-1.144-.352c-.416002 0-.850664.07199928-1.304.216s-.898664.34399872-1.336.6l-.56-1.376c.437336-.27733472.96533-.50666576 1.584-.688s1.205331-.272 1.76-.272zm-.464 6.704c.533336 0 .967998-.1786649 1.304-.536.336002-.35733512.504-.81866384.504-1.384v-.336h-.288c-.71467 0-1.269331.03199968-1.664.096s-.677332.1759992-.848.336-.256.37866528-.256.656c0 .34133504.117332.6213322.352.84s.533332.328.896.328zm5.744 1.312v-11.28h2v11.28zm12.4.144c-.864004 0-1.674663-.1173322-2.432-.352s-1.397331-.5653312-1.92-.992l.688-1.504c.544003.41600208 1.11733.719999 1.72.912s1.255996.288 1.96.288c.778671 0 1.378665-.1359986 1.8-.408.421335-.27200136.632-.65333088.632-1.144 0-.4266688-.194665-.75199888-.584-.976-.350402-.20160101-.910317-.39455938-1.679759-.57887978l-.264241-.06112022c-.938671-.20266768-1.70133-.437332-2.288-.704s-1.029332-.60799792-1.328-1.024-.448-.9439968-.448-1.584c0-.66133664.181332-1.25333072.544-1.776s.874663-.9306652 1.536-1.224 1.423996-.44 2.288-.44c.789337 0 1.54133.1199988 2.256.36s1.301331.56799792 1.76.984l-.688 1.504c-1.002672-.800004-2.111994-1.2-3.328-1.2-.725337 0-1.298665.1466652-1.72.44s-.632.70133072-.632 1.224c0 .43733552.186665.77333216.56 1.008.336002.21120106.883677.40943939 1.643039.59471979l.260961.06128021c.949338.2133344 1.719997.45066536 2.312.712s1.045332.59466464 1.36 1 .472.91733024.472 1.536c0 .67200336-.178665 1.2613308-.536 1.768s-.874663.8959986-1.552 1.168-1.474662.408-2.392.408zm6.208-.144v-7.824h2v7.824zm-.112-11.456h2.208v1.968h-2.208zm11.792 3.632v7.104c0 1.2266728-.338663 2.1546635-1.016 2.784s-1.677327.944-3 .944c-.68267 0-1.338664-.0879991-1.968-.264s-1.178664-.4239984-1.648-.744l.56-1.408c.970672.5866696 1.973328.88 3.008.88 1.386674 0 2.08-.6826598 2.08-2.048v-1.024c-.234668.4373355-.575998.7759988-1.024 1.016s-.959997.36-1.536.36c-.68267 0-1.287997-.162665-1.816-.488s-.941332-.7813304-1.24-1.368-.448-1.26399616-.448-2.032.146665-1.44799704.44-2.04.706664-1.05066504 1.24-1.376 1.14133-.488 1.824-.488c.576003 0 1.087998.1199988 1.536.36s.789332.57866448 1.024 1.016v-1.184zm-4.016 6.048c.640003 0 1.138665-.2079979 1.496-.624.357335-.41600208.536-.98666304.536-1.712 0-.73600368-.178665-1.31199792-.536-1.728s-.855997-.624-1.496-.624c-.629336 0-1.125332.20799792-1.488.624s-.544.99199632-.544 1.728c0 .71467024.181332 1.28266456.544 1.704.362668.4213354.858664.632 1.488.632zm10.624-6.24c.938671 0 1.637331.266664 2.096.8s.688 1.33866128.688 2.416v4.8h-2v-4.688c0-.60800304-.114666-1.05066528-.344-1.328s-.589331-.416-1.08-.416c-.576003 0-1.037332.18133152-1.384.544s-.52.84799696-.52 1.456v4.432h-2v-7.824h1.952v1.168c.266668-.43733552.623998-.77333216 1.072-1.008s.954664-.352 1.52-.352z"/><g transform="translate(654 184)"><path d="m36.4351406 20.6679687c-.4843774.3671894-1.1093711.5507813-1.875.5507813-.898442 0-1.6874966-.3437466-2.3671875-1.03125s-1.0195312-1.5507761-1.0195312-2.5898438c0-.7031285.0644525-1.4648396.1933593-2.2851562.118991-.7572153.3927495-1.8073166.8212829-3.1503314l.3210187-.9988017c.3625655-1.1593956.5950777-2.07126622.6975422-2.73563253.1210944-.78516017.1816406-1.51366851.1816406-2.18554687 0-3.11720309-1.0898328-4.67578125-3.2695312-4.67578125-1.0156301 0-1.8124971.31054377-2.390625.93164062-.5781279.62109686-.8671875 1.47069774-.8671875 2.54882813 0 .95192784.216344 2.14681344.6490379 3.58468786l.1126808.36453089c.4687524 1.48438245.703125 2.67187055.703125 3.56249995 0 1.2187561-.4355425 2.2636676-1.3066406 3.1347657s-1.9160095 1.3066406-3.1347656 1.3066406-2.2636675-.4355425-3.1347657-1.3066406c-.8710981-.8710981-1.3066406-1.9160096-1.3066406-3.1347657 0-1.218756.4355425-2.2636675 1.3066406-3.13476558.8710982-.8710981 1.9160096-1.30664062 3.1347657-1.30664062.8203166 0 1.5624967.19921676 2.2265625.59765625-.4609398-1.36719434-.6914063-2.58983836-.6914063-3.66796875 0-1.4609448.425777-2.63476119 1.2773438-3.52148438.8515667-.88672318 1.9921803-1.33007812 3.421875-1.33007812 1.4921949 0 2.6503865.537104 3.4746093 1.61132812.8242229 1.07422413 1.2363282 2.55272497 1.2363282 4.43554688 0 .65625328-.0605463 1.36913678-.1816407 2.13867187l-.0685096.37971607c-.1352161.67377036-.3755992 1.55209296-.7211534 2.63498296l-.3244164 1.0097231c-.3747697 1.1995675-.6166892 2.1530082-.7257643 2.8603435-.1289069.8359417-.1933594 1.6132777-.1933594 2.3320312 0 .6796909.1914044 1.2265605.5742188 1.640625.3828144.4140646.8398411.6210938 1.3710937.6210938.8046915 0 1.4296853-.1523422 1.875-.4570313zm-12.5507812-5.0390625c.8203166 0 1.5253877-.2988251 2.1152343-.8964843.5898467-.5976593.8847657-1.3222614.8847657-2.1738282 0-.8515667-.2929658-1.5761688-.8789063-2.1738281-.5859404-.59765921-1.2929646-.89648435-2.1210937-.89648435-.8281292 0-1.5351533.30077824-2.1210938.90234375-.5859404.6015655-.8789062 1.3242145-.8789062 2.1679687 0 .8515668.2929658 1.5761689.8789062 2.1738282.5859405.5976592 1.2929646.8964843 2.1210938.8964843zm21.6170625 1.3710938v-16.92h3.096v14.376h7.896v2.544zm23.352-5.328h-7.992c.0960005 1.0880054.4239972 1.8959974.984 2.424s1.3599948.792 2.4.792c1.2960065 0 2.4799946-.4159958 3.552-1.248l.864 2.064c-.5440027.4480022-1.2279959.8079986-2.052 1.08s-1.6519959.408-2.484.408c-1.9200096 0-3.4359945-.5439946-4.548-1.632-1.1120056-1.0880054-1.668-2.5759906-1.668-4.464 0-1.200006.2399976-2.26399536.72-3.192.4800024-.928 1.1559956-1.64799744 2.028-2.16.8720043-.51200256 1.8599945-.768 2.964-.768 1.6160081 0 2.8919953.5199948 3.828 1.56s1.404 2.47199088 1.404 4.296zm-5.16-4.584c-.800004 0-1.4439976.25599744-1.932.768-.4880025.51200256-.7879995 1.2479952-.9 2.208h5.424c-.0320002-.976-.2719978-1.71599748-.72-2.22-.4480023-.50400252-1.071996-.756-1.872-.756z"/><path d="m76.6534219 4.976c1.200006 0 2.2519955.24799752 3.156.744s1.5999975 1.2039954 2.088 2.124c.4880024.9200046.732 1.99599384.732 3.228 0 1.2320062-.2439976 2.3119954-.732 3.24-.4880025.9280046-1.1839955 1.6399975-2.088 2.136s-1.955994.744-3.156.744-2.2519955-.2479975-3.156-.744-1.6039975-1.2079954-2.1-2.136-.744-2.0079938-.744-3.24c0-1.23200616.2479975-2.3079954.744-3.228s1.1959955-1.62799752 2.1-2.124 1.955994-.744 3.156-.744zm0 2.304c-.9600048 0-1.6999974.32399676-2.22.972s-.78 1.58799384-.78 2.82c0 1.2480062.2559974 2.1919968.768 2.832.5120025.6400032 1.2479952.96 2.208.96.9760049 0 1.7199974-.3199968 2.232-.96.5120025-.6400032.768-1.5839938.768-2.832 0-1.23200616-.2559975-2.17199676-.768-2.82-.5120026-.64800324-1.2479952-.972-2.208-.972z"/><path d="m29.7070781 115.09375h-8.5898437v-1.394531c.9062545-.500003 1.5781228-1.072263 2.015625-1.716797.4375022-.644535.65625-1.517573.65625-2.619141 0-1.117193-.3789025-2.021481-1.1367188-2.71289-.7578163-.69141-1.7226504-1.03711-2.8945312-1.03711-1.1796934 0-2.1484337.3457-2.90625 1.03711-.7578163.691409-1.1367188 1.595697-1.1367188 2.71289 0 1.101568.2187478 1.974606.65625 2.619141.4375022.644534 1.1093705 1.216794 2.015625 1.716797v1.394531h-8.58984373v-1.394531h6.66796873c-1.4531322-1.01563-2.1796875-2.460928-2.1796875-4.335938 0-1.50782.5234323-2.742182 1.5703125-3.703125 1.0468803-.960942 2.3476485-1.441406 3.9023438-1.441406 1.5468827 0 2.8437447.480464 3.890625 1.441406 1.0468802.960943 1.5703125 2.195305 1.5703125 3.703125 0 1.87501-.7265553 3.320308-2.1796875 4.335938h6.6679687zm0 5.90625h-19.91015623v-1.394531h19.91015623zm9.124875 0v-16.92h3.096v14.376h7.896v2.544zm13.056 0v-11.736h3v11.736zm-.168-17.184h3.312v2.952h-3.312zm13.008 5.16c1.0240051 0 1.9279961.247998 2.712.744s1.3959978 1.199995 1.836 2.112.66 1.975994.66 3.192-.2199978 2.291995-.66 3.228-1.055996 1.659997-1.848 2.172c-.7920039.512003-1.6919949.768-2.7.768-.8480042 0-1.6039967-.183998-2.268-.552s-1.1719982-.879997-1.524-1.536v1.896h-2.952v-16.92h3v6.888c.3520018-.640003.8559967-1.131998 1.512-1.476s1.3999959-.516 2.232-.516zm-.792 9.888c.9440047 0 1.6799974-.335997 2.208-1.008.5280027-.672003.792-1.615994.792-2.832 0-1.200006-.2599974-2.119997-.78-2.76s-1.2599952-.96-2.22-.96-1.6999974.323997-2.22.972-.78 1.579994-.78 2.796.2599974 2.151997.78 2.808 1.2599952.984 2.22.984zm16.2-7.392-1.752.168c-1.9840099.208001-2.976 1.215991-2.976 3.024v6.336h-3v-11.736h2.856v2.064c.5790505-1.340959 1.745842-2.101406 3.500407-2.281361l1.179593-.094639z"/><path d="m86.6399531 108.976c1.6480083 0 2.871996.399996 3.672 1.2.800004.8 1.2 2.031992 1.2 3.696v7.128h-2.856v-1.8c-.2720013.624003-.6999971 1.111998-1.284 1.464s-1.2599961.528-2.028.528c-.7840039 0-1.4959968-.159998-2.136-.48s-1.1439981-.759997-1.512-1.32c-.3680018-.560003-.552-1.183997-.552-1.872 0-.864004.2199978-1.544.66-2.04.4400022-.496002 1.1559951-.855999 2.148-1.08.9156969-.20677 2.1517566-.318107 3.7082114-.334012l.9957886-.001988v-.552c0-.800004-.1719983-1.375998-.516-1.728s-.915996-.528-1.716-.528c-.6240031 0-1.2759966.107999-1.956.324s-1.3479967.515998-2.004.9l-.84-2.064c.6560033-.416002 1.4479954-.759999 2.376-1.032.9280047-.272001 1.8079959-.408 2.64-.408zm2.432 6.672-.8512715.002101c-.9876569.011208-1.7684658.067244-2.3424458.168112-.6457274.113476-1.108201.312055-1.3874345.595744-.2792335.28369-.4188482.671393-.4188482 1.163121 0 .605204.1919702 1.101653.5759163 1.489362.383946.387709.8725973.58156 1.4659685.58156.8726048 0 1.5837669-.316782 2.1335079-.950355s.8246073-1.451531.8246073-2.4539z"/><path d="m17.1019531 210.566406c-.7421912 0-1.3847629.134765-1.9277344.404297-.5429714.269533-.9960919.597654-1.359375.984375-.3113854.331475-.6615102.756216-1.050382 1.274234l-.1976648.266782c-.7265662 1.000005-1.3046854 1.648436-1.734375 1.945312 1.0234426.46094 1.828122 1.14648 2.4140625 2.056641.5859404.910161.8789062 1.904291.8789062 2.982422 0 1.515632-.5410102 2.814447-1.6230469 3.896484-1.0820366 1.082037-2.3808517 1.623047-3.89648433 1.623047-1.51563257 0-2.81444771-.54101-3.89648437-1.623047s-1.62304688-2.380852-1.62304688-3.896484c0-1.078131.29101272-2.070308.87304688-2.976563.58203416-.906254 1.38476051-1.585935 2.40820312-2.039062-.38942502-.281252-.90865105-.858724-1.55769162-1.732433l-.16496463-.224599c-.47656488-.64844-.89452945-1.166013-1.25390625-1.552734-.35937679-.386721-.81054416-.714842-1.35351562-.984375-.54297146-.269532-1.18554316-.404297-1.92773437-.404297v-1.441406c.94531722 0 1.76562152.173826 2.46093749.521484.69531598.347658 1.26952899.759764 1.72265625 1.236328.3883948.408485.81409291.920279 1.27710384 1.535395l.23461491.316168c.73437868 1.000005 1.29101374 1.621093 1.66992188 1.863281.37890814.242189.7558575.363281 1.13085937.363281.36718934 0 .74218559-.121092 1.125-.363281.35336713-.223559.85650603-.769966 1.50942983-1.639237l.1663514-.224044c.5468778-.757816 1.0468728-1.374998 1.5-1.851563.4531273-.476564 1.0292934-.88867 1.7285156-1.236328.6992223-.347658 1.5214797-.521484 2.4667969-.521484zm-8.49609373 14.0625c1.12500563 0 2.08593353-.404293 2.88281253-1.21289.796879-.808598 1.1953125-1.787104 1.1953125-2.935547 0-1.148438-.3984335-2.126949-1.1953125-2.935547s-1.7578069-1.212891-2.88281253-1.212891c-1.12500562 0-2.08593351.404293-2.8828125 1.212891-.79687898.808598-1.1953125 1.787109-1.1953125 2.935547 0 1.148443.39843352 2.126949 1.1953125 2.935547.79687899.808597 1.75780688 1.21289 2.8828125 1.21289zm21.66356253 1.371094v-14.376h-5.52v-2.544h14.136v2.544h-5.52v14.376zm15.504-12.024c1.6480082 0 2.871996.399996 3.672 1.2.800004.8 1.2 2.031992 1.2 3.696v7.128h-2.856v-1.8c-.2720014.624003-.6999971 1.111998-1.284 1.464s-1.2599962.528-2.028.528c-.7840039 0-1.4959968-.159998-2.136-.48s-1.1439982-.759997-1.512-1.32c-.3680019-.560003-.552-1.183997-.552-1.872 0-.864004.2199978-1.544.66-2.04.4400022-.496002 1.155995-.855999 2.148-1.08.9156969-.20677 2.1517566-.318107 3.7082114-.334012l.9957886-.001988v-.552c0-.800004-.1719983-1.375998-.516-1.728s-.915996-.528-1.716-.528c-.6240031 0-1.2759966.107999-1.956.324s-1.3479967.515998-2.004.9l-.84-2.064c.6560033-.416002 1.4479953-.759999 2.376-1.032.9280046-.272001 1.8079958-.408 2.64-.408zm-.696 10.056c.800004 0 1.4519975-.267997 1.956-.804s.756-1.227996.756-2.076v-.504h-.432c-1.0720054 0-1.9039971.048-2.496.144-.592003.096-1.0159987.263999-1.272.504s-.384.567998-.384.984c0 .512003.1759982.931998.528 1.26.3520017.328002.7999973.492 1.344.492zm19.392-9.768v11.736h-2.928v-1.8c-.3680019.640003-.8639969 1.131998-1.488 1.476s-1.3279961.516-2.112.516c-2.8800144 0-4.32-1.615984-4.32-4.848v-7.08h3v7.104c0 .832004.1679983 1.447998.504 1.848s.8639964.6 1.584.6c.8320041 0 1.4999975-.275997 2.004-.828s.756-1.283995.756-2.196v-6.528zm10.848 2.208-1.752.168c-1.9840099.208001-2.976 1.215991-2.976 3.024v6.336h-3v-11.736h2.856v2.064c.5790505-1.340959 1.745842-2.101406 3.5004069-2.281361l1.1795931-.094639zm12.24-2.208v11.736h-2.928v-1.8c-.3680019.640003-.8639969 1.131998-1.488 1.476s-1.3279961.516-2.112.516c-2.8800144 0-4.32-1.615984-4.32-4.848v-7.08h3v7.104c0 .832004.1679983 1.447998.504 1.848s.8639964.6 1.584.6c.8320041 0 1.4999975-.275997 2.004-.828s.756-1.283995.756-2.196v-6.528zm7.44 11.928c-1.0400052 0-1.9959957-.127999-2.868-.384-.8720044-.256001-1.611997-.623998-2.22-1.104l.84-2.088c1.2480062.912005 2.6799919 1.368 4.296 1.368.6880034 0 1.2119982-.111999 1.572-.336s.54-.543998.54-.96c0-.352002-.1239988-.623999-.372-.816-.2480013-.192001-.6919968-.367999-1.332-.528l-1.92-.432c-1.0880055-.240001-1.8959974-.631997-2.424-1.176-.5280027-.544003-.792-1.247996-.792-2.112 0-.720004.2039979-1.355997.612-1.908.408002-.552003.9759963-.979998 1.704-1.284.7280036-.304002 1.5719952-.456 2.532-.456.8320041 0 1.6359961.127999 2.412.384s1.459997.616 2.052 1.08l-.84 2.04c-1.2160061-.880004-2.4319939-1.32-3.648-1.32-.6560033 0-1.1679982.119999-1.536.36-.3680019.240001-.552.575998-.552 1.008 0 .320002.1159988.583999.348.792.2320011.208001.6039974.367999 1.116.48l1.992.456c1.1680058.256001 2.0239973.659997 2.568 1.212s.816 1.275996.816 2.172c0 1.088005-.4399956 1.951997-1.32 2.592s-2.0719925.96-3.576.96z"/></g></g></g><path d="m433.47 111-1.988-4.62h-9.604l-1.988 4.62h-3.64l8.932-19.74h2.94l8.932 19.74zm-10.416-7.42h7.224l-3.612-8.4zm20.832 7.644c-1.213339 0-2.328662-.149332-3.346-.448s-1.880663-.727997-2.59-1.288l.98-2.436c1.456007 1.064005 3.126657 1.596 5.012 1.596.802671 0 1.413998-.130665 1.834-.392s.63-.634664.63-1.12c0-.410669-.144665-.727999-.434-.952s-.80733-.429332-1.554-.616l-2.24-.504c-1.26934-.280001-2.211997-.73733-2.828-1.372s-.924-1.455995-.924-2.464c0-.840004.237998-1.5819968.714-2.226s1.138662-1.1433316 1.988-1.498 1.833994-.532 2.954-.532c.970672 0 1.908662.1493318 2.814.448s1.70333.718664 2.394 1.26l-.98 2.38c-1.418674-1.026672-2.837326-1.54-4.256-1.54-.765337 0-1.362665.1399986-1.792.42-.429335.280001-.644.671997-.644 1.176 0 .373335.135332.681332.406.924s.704664.429333 1.302.56l2.324.532c1.362673.298668 2.36133.769997 2.996 1.414s.952 1.488661.952 2.534c0 1.26934-.513328 2.27733-1.54 3.024s-2.417325 1.12-4.172 1.12zm15.54-2.632c.410669 0 .839998-.028 1.288-.084l-.168 2.604c-.560003.056-1.073331.084-1.54.084-1.922676 0-3.341329-.443329-4.256-1.33s-1.372-2.207325-1.372-3.962v-5.964h-2.632v-2.632h2.632v-4.088h3.5v4.088h3.612v2.632h-3.612v5.908c0 1.829342.849325 2.744 2.548 2.744zm12.348-8.708-2.044.196c-2.314678.242668-3.472 1.418656-3.472 3.528v7.392h-3.5v-13.692h3.332v2.408c.679781-1.5742301 2.053858-2.4627037 4.12227-2.6654444l1.33773-.1065556zm7.952 11.34c-1.400007 0-2.627328-.28933-3.682-.868s-1.87133-1.409328-2.45-2.492-.868-2.342659-.868-3.78.28933-2.692661.868-3.766c.57867-1.0733387 1.395328-1.8993304 2.45-2.478s2.281993-.868 3.682-.868 2.627328.2893304 3.682.868 1.866664 1.4046613 2.436 2.478c.569336 1.073339.854 2.328659.854 3.766s-.284664 2.697328-.854 3.78-1.381328 1.91333-2.436 2.492-2.281993.868-3.682.868zm-.028-2.716c1.138672 0 2.006664-.37333 2.604-1.12s.896-1.847993.896-3.304c0-1.437341-.298664-2.533996-.896-3.29s-1.455994-1.134-2.576-1.134-1.98333.377996-2.59 1.134-.91 1.852659-.91 3.29c0 1.456007.298664 2.55733.896 3.304s1.455994 1.12 2.576 1.12zm9.884 2.492v-19.74h3.5v19.74zm13.356.224c-1.400007 0-2.627328-.28933-3.682-.868s-1.87133-1.409328-2.45-2.492-.868-2.342659-.868-3.78.28933-2.692661.868-3.766c.57867-1.0733387 1.395328-1.8993304 2.45-2.478s2.281993-.868 3.682-.868 2.627328.2893304 3.682.868 1.866664 1.4046613 2.436 2.478c.569336 1.073339.854 2.328659.854 3.766s-.284664 2.697328-.854 3.78-1.381328 1.91333-2.436 2.492-2.281993.868-3.682.868zm-.028-2.716c1.138672 0 2.006664-.37333 2.604-1.12s.896-1.847993.896-3.304c0-1.437341-.298664-2.533996-.896-3.29s-1.455994-1.134-2.576-1.134-1.98333.377996-2.59 1.134-.91 1.852659-.91 3.29c0 1.456007.298664 2.55733.896 3.304s1.455994 1.12 2.576 1.12zm23.212-11.2v12.432c0 2.146677-.592661 3.770661-1.778 4.872s-2.935322 1.652-5.25 1.652c-1.194673 0-2.342661-.153998-3.444-.462s-2.062663-.741997-2.884-1.302l.98-2.464c1.698675 1.026672 3.453324 1.54 5.264 1.54 2.426679 0 3.64-1.194655 3.64-3.584v-1.792c-.410669.765337-1.007996 1.357998-1.792 1.778s-1.679995.63-2.688.63c-1.194673 0-2.253995-.284664-3.178-.854s-1.647331-1.367328-2.17-2.394-.784-2.211993-.784-3.556.256664-2.533995.77-3.57c.513336-1.0360052 1.236662-1.8386638 2.17-2.408s1.997327-.854 3.192-.854c1.008005 0 1.903996.2099979 2.688.63s1.381331 1.0126628 1.792 1.778v-2.072zm-7.028 10.584c1.120006 0 1.992664-.363996 2.618-1.092s.938-1.72666.938-2.996c0-1.288006-.312664-2.295996-.938-3.024s-1.497994-1.092-2.618-1.092c-1.101339 0-1.96933.363996-2.604 1.092s-.952 1.735994-.952 3.024c0 1.250673.31733 2.244663.952 2.982s1.502661 1.106 2.604 1.106zm10.64 3.108v-13.692h3.5v13.692zm-.196-20.048h3.864v3.444h-3.864zm13.552 20.272c-1.437341 0-2.683328-.28933-3.738-.868s-1.861997-1.399995-2.422-2.464-.84-2.305326-.84-3.724.293997-2.673995.882-3.766c.588003-1.0920055 1.423328-1.9366637 2.506-2.534s2.333326-.896 3.752-.896c.970672 0 1.917995.1539985 2.842.462s1.665997.7233307 2.226 1.246l-1.008 2.464c-.57867-.466669-1.189997-.821332-1.834-1.064-.644003-.2426679-1.28333-.364-1.918-.364-1.213339 0-2.155997.377996-2.828 1.134s-1.008 1.843326-1.008 3.262c0 1.400007.335997 2.477996 1.008 3.234s1.614661 1.134 2.828 1.134c.63467 0 1.273997-.121332 1.918-.364s1.25533-.597331 1.834-1.064l1.008 2.436c-.597336.541336-1.362662.965998-2.296 1.274s-1.903995.462-2.912.462zm13.3-14.252c1.922676 0 3.350662.466662 4.284 1.4s1.4 2.370657 1.4 4.312v8.316h-3.332v-2.1c-.317335.728004-.816663 1.297331-1.498 1.708s-1.469996.616-2.366.616c-.914671 0-1.74533-.186665-2.492-.56s-1.334665-.886663-1.764-1.54-.644-1.381329-.644-2.184c0-1.008005.256664-1.80133.77-2.38s1.348661-.998665 2.506-1.26c1.074672-.242668 2.527563-.372667 4.358712-.39l1.129288-.002v-.644c0-.933338-.200665-1.605331-.602-2.016-.401335-.4106687-1.068662-.616-2.002-.616-.728004 0-1.488663.1259987-2.282.378-.793337.252001-1.572663.601998-2.338 1.05l-.98-2.408c.765337-.4853358 1.689328-.8866651 2.772-1.204s2.109328-.476 3.08-.476zm-.812 11.732c.933338 0 1.693997-.312664 2.282-.938s.882-1.432662.882-2.422v-.588h-.504c-1.250673 0-2.22133.055999-2.912.168s-1.185332.307999-1.484.588-.448.662664-.448 1.148c0 .597336.205331 1.087331.616 1.47s.93333.574 1.568.574zm10.052 2.296v-19.74h3.5v19.74zm21.7.252c-1.512008 0-2.93066-.205331-4.256-.616s-2.445329-.98933-3.36-1.736l1.204-2.632c.952005.728004 1.955328 1.259998 3.01 1.596s2.197994.504 3.43.504c1.362673 0 2.412663-.237998 3.15-.714s1.106-1.143329 1.106-2.002c0-.74667-.340663-1.315998-1.022-1.708-.63267-.364002-1.655636-.711903-3.068927-1.043714l-.333073-.076286c-1.642675-.354668-2.977328-.765331-4.004-1.232s-1.801331-1.063996-2.324-1.792c-.522669-.7280036-.784-1.6519944-.784-2.772 0-1.1573391.31733-2.1933288.952-3.108s1.530661-1.6286641 2.688-2.142 2.491992-.77 4.004-.77c1.38134 0 2.697327.2099979 3.948.63s2.277329.9939964 3.08 1.722l-1.204 2.632c-1.754675-1.400007-3.695989-2.1-5.824-2.1-1.26934 0-2.272663.2566641-3.01.77s-1.106 1.2273288-1.106 2.142c0 .7653372.326663 1.3533313.98 1.764.60667.3813352 1.60766.7385226 3.002999 1.0715711l.329001.0764289c1.661342.373335 3.009995.788664 4.046 1.246s1.829331 1.040663 2.38 1.75.826 1.605328.826 2.688c0 1.176006-.312664 2.207329-.938 3.094s-1.530661 1.567998-2.716 2.044-2.580659.714-4.186.714zm10.864-.252v-13.692h3.5v13.692zm-.196-20.048h3.864v3.444h-3.864zm20.636 6.356v12.432c0 2.146677-.592661 3.770661-1.778 4.872s-2.935322 1.652-5.25 1.652c-1.194673 0-2.342661-.153998-3.444-.462s-2.062663-.741997-2.884-1.302l.98-2.464c1.698675 1.026672 3.453324 1.54 5.264 1.54 2.426679 0 3.64-1.194655 3.64-3.584v-1.792c-.410669.765337-1.007996 1.357998-1.792 1.778s-1.679995.63-2.688.63c-1.194673 0-2.253995-.284664-3.178-.854s-1.647331-1.367328-2.17-2.394-.784-2.211993-.784-3.556.256664-2.533995.77-3.57c.513336-1.0360052 1.236662-1.8386638 2.17-2.408s1.997327-.854 3.192-.854c1.008005 0 1.903996.2099979 2.688.63s1.381331 1.0126628 1.792 1.778v-2.072zm-7.028 10.584c1.120006 0 1.992664-.363996 2.618-1.092s.938-1.72666.938-2.996c0-1.288006-.312664-2.295996-.938-3.024s-1.497994-1.092-2.618-1.092c-1.101339 0-1.96933.363996-2.604 1.092s-.952 1.735994-.952 3.024c0 1.250673.31733 2.244663.952 2.982s1.502661 1.106 2.604 1.106zm18.592-10.92c1.642675 0 2.865329.466662 3.668 1.4s1.204 2.342657 1.204 4.228v8.4h-3.5v-8.204c0-1.064005-.200665-1.838664-.602-2.324-.401335-.4853358-1.031329-.728-1.89-.728-1.008005 0-1.81533.31733-2.422.952s-.91 1.483995-.91 2.548v7.756h-3.5v-13.692h3.416v2.044c.466669-.7653372 1.091996-1.3533313 1.876-1.764s1.670662-.616 2.66-.616zm13.468 14.252c-1.213339 0-2.328662-.149332-3.346-.448s-1.880663-.727997-2.59-1.288l.98-2.436c1.456007 1.064005 3.126657 1.596 5.012 1.596.802671 0 1.413998-.130665 1.834-.392s.63-.634664.63-1.12c0-.410669-.144665-.727999-.434-.952s-.80733-.429332-1.554-.616l-2.24-.504c-1.26934-.280001-2.211997-.73733-2.828-1.372s-.924-1.455995-.924-2.464c0-.840004.237998-1.5819968.714-2.226s1.138662-1.1433316 1.988-1.498 1.833994-.532 2.954-.532c.970672 0 1.908662.1493318 2.814.448s1.70333.718664 2.394 1.26l-.98 2.38c-1.418674-1.026672-2.837326-1.54-4.256-1.54-.765337 0-1.362665.1399986-1.792.42-.429335.280001-.644.671997-.644 1.176 0 .373335.135332.681332.406.924s.704664.429333 1.302.56l2.324.532c1.362673.298668 2.36133.769997 2.996 1.414s.952 1.488661.952 2.534c0 1.26934-.513328 2.27733-1.54 3.024s-2.417325 1.12-4.172 1.12zm20.58-13.916h3.612v2.632h-3.612v11.06h-3.5v-11.06h-2.632v-2.632h2.632c0-1.9600098.508662-3.4346617 1.526-4.424.96082-.934375 2.425289-1.4774609 4.393449-1.6292716l1.724551-.1067284.224 2.604-1.316.056c-1.101339.0560003-1.885331.3033311-2.352.742s-.7 1.1433285-.7 2.114zm11.816 13.916c-1.400007 0-2.627328-.28933-3.682-.868s-1.87133-1.409328-2.45-2.492-.868-2.342659-.868-3.78.28933-2.692661.868-3.766c.57867-1.0733387 1.395328-1.8993304 2.45-2.478s2.281993-.868 3.682-.868 2.627328.2893304 3.682.868 1.866664 1.4046613 2.436 2.478c.569336 1.073339.854 2.328659.854 3.766s-.284664 2.697328-.854 3.78-1.381328 1.91333-2.436 2.492-2.281993.868-3.682.868zm-.028-2.716c1.138672 0 2.006664-.37333 2.604-1.12s.896-1.847993.896-3.304c0-1.437341-.298664-2.533996-.896-3.29s-1.455994-1.134-2.576-1.134-1.98333.377996-2.59 1.134-.91 1.852659-.91 3.29c0 1.456007.298664 2.55733.896 3.304s1.455994 1.12 2.576 1.12zm18.9-8.624-2.044.196c-2.314678.242668-3.472 1.418656-3.472 3.528v7.392h-3.5v-13.692h3.332v2.408c.679781-1.5742301 2.053858-2.4627037 4.12227-2.6654444l1.33773-.1065556zm9.604 11.116v-19.74h12.936v2.884h-9.38v5.376h8.82v2.884h-8.82v8.596zm24.556-11.116-2.044.196c-2.314678.242668-3.472 1.418656-3.472 3.528v7.392h-3.5v-13.692h3.332v2.408c.679781-1.5742301 2.053858-2.4627037 4.12227-2.6654444l1.33773-.1065556zm1.708 11.116v-13.692h3.5v13.692zm-.196-20.048h3.864v3.444h-3.864zm19.32 13.832h-9.324c.112001 1.26934.494663 2.211997 1.148 2.828s1.586661.924 2.8.924c1.512008 0 2.893327-.485328 4.144-1.456l1.008 2.408c-.63467.522669-1.432662.942665-2.394 1.26s-1.927328.476-2.898.476c-2.240011 0-4.00866-.63466-5.306-1.904s-1.946-3.005322-1.946-5.208c0-1.400007.279997-2.641328.84-3.724.560003-1.0826721 1.348662-1.9226637 2.366-2.52s2.169994-.896 3.458-.896c1.885343 0 3.373995.6066606 4.466 1.82 1.092005 1.213339 1.638 2.883989 1.638 5.012zm-6.02-5.348c-.933338 0-1.684664.2986637-2.254.896-.569336.597336-.919333 1.455994-1.05 2.576h6.328c-.037334-1.138672-.317331-2.001997-.84-2.59-.522669-.5880029-1.250662-.882-2.184-.882zm16.828-2.464c1.642675 0 2.865329.466662 3.668 1.4s1.204 2.342657 1.204 4.228v8.4h-3.5v-8.204c0-1.064005-.200665-1.838664-.602-2.324-.401335-.4853358-1.031329-.728-1.89-.728-1.008005 0-1.81533.31733-2.422.952s-.91 1.483995-.91 2.548v7.756h-3.5v-13.692h3.416v2.044c.466669-.7653372 1.091996-1.3533313 1.876-1.764s1.670662-.616 2.66-.616zm21.644-5.712v19.74h-3.472v-2.212c-.410669.765337-1.003329 1.362665-1.778 1.792s-1.656662.644-2.646.644c-1.176006 0-2.225995-.298664-3.15-.896s-1.642664-1.441995-2.156-2.534-.77-2.347326-.77-3.766.256664-2.659995.77-3.724c.513336-1.0640053 1.227329-1.8853304 2.142-2.464s1.969327-.868 3.164-.868c.989338 0 1.866663.2053313 2.632.616s1.353331.9893296 1.764 1.736v-8.064zm-6.972 17.248c1.120006 0 1.98333-.382663 2.59-1.148s.91-1.857326.91-3.276-.30333-2.505996-.91-3.262-1.460661-1.134-2.562-1.134c-1.120006 0-1.987997.37333-2.604 1.12s-.924 1.819993-.924 3.22c0 1.418674.307997 2.519996.924 3.304s1.474661 1.176 2.576 1.176zm15.624 2.716c-1.213339 0-2.328662-.149332-3.346-.448s-1.880663-.727997-2.59-1.288l.98-2.436c1.456007 1.064005 3.126657 1.596 5.012 1.596.802671 0 1.413998-.130665 1.834-.392s.63-.634664.63-1.12c0-.410669-.144665-.727999-.434-.952s-.80733-.429332-1.554-.616l-2.24-.504c-1.26934-.280001-2.211997-.73733-2.828-1.372s-.924-1.455995-.924-2.464c0-.840004.237998-1.5819968.714-2.226s1.138662-1.1433316 1.988-1.498 1.833994-.532 2.954-.532c.970672 0 1.908662.1493318 2.814.448s1.70333.718664 2.394 1.26l-.98 2.38c-1.418674-1.026672-2.837326-1.54-4.256-1.54-.765337 0-1.362665.1399986-1.792.42-.429335.280001-.644.671997-.644 1.176 0 .373335.135332.681332.406.924s.704664.429333 1.302.56l2.324.532c1.362673.298668 2.36133.769997 2.996 1.414s.952 1.488661.952 2.534c0 1.26934-.513328 2.27733-1.54 3.024s-2.417325 1.12-4.172 1.12z" fill="#fff"/><rect height="583" rx="3" stroke="#757f97" stroke-width="2" width="934" x="151" y="169"/></g></svg>