<svg height="941" viewBox="0 0 1214 941" width="1214" xmlns="http://www.w3.org/2000/svg"><g fill="none" fill-rule="nonzero"><path d="m191.872 513.736v2.208h-2.24v-1.456c0-.554669.095999-1.058664.288-1.512s.517331-.909331.976-1.368l.816.64c-.256001.277335-.453333.533332-.592.768s-.229333.474665-.272.72zm3.072 0v2.208h-2.24v-1.456c0-.554669.095999-1.058664.288-1.512s.517331-.909331.976-1.368l.816.64c-.256001.277335-.453333.533332-.592.768s-.229333.474665-.272.72zm4.736 9.264v-9.584h-3.68v-1.696h9.424v1.696h-3.68v9.584zm10.336-8.016c1.098672 0 1.914664.266664 2.448.8s.8 1.354661.8 2.464v4.752h-1.904v-1.2c-.181334.416002-.466665.741332-.856.976s-.839997.352-1.352.352c-.522669 0-.997331-.106666-1.424-.32s-.762665-.506665-1.008-.88-.368-.789331-.368-1.248c0-.576003.146665-1.029332.44-1.36s.770663-.570666 1.432-.72c.595203-.134401 1.393436-.20832 2.394719-.22176l.741281-.00224v-.368c0-.533336-.114666-.917332-.344-1.152s-.610664-.352-1.144-.352c-.416002 0-.850664.071999-1.304.216s-.898664.343999-1.336.6l-.56-1.376c.437336-.277335.96533-.506666 1.584-.688s1.205331-.272 1.76-.272zm-.464 6.704c.533336 0 .967998-.178665 1.304-.536s.504-.818664.504-1.384v-.336h-.288c-.71467 0-1.269331.032-1.664.096s-.677332.175999-.848.336-.256.378665-.256.656c0 .341335.117332.621332.352.84s.533332.328.896.328zm10.24-6.704c.68267 0 1.285331.165332 1.808.496s.930665.799997 1.224 1.408.44 1.317329.44 2.128-.146665 1.527997-.44 2.152-.703997 1.106665-1.232 1.448-1.127997.512-1.8.512c-.565336 0-1.069331-.122665-1.512-.368s-.781332-.586664-1.016-1.024v1.264h-1.968v-11.28h2v4.592c.234668-.426669.570664-.754666 1.008-.984s.933331-.344 1.488-.344zm-.528 6.592c.629336 0 1.119998-.223998 1.472-.672s.528-1.077329.528-1.888c0-.800004-.173332-1.413331-.52-1.84s-.839997-.64-1.48-.64-1.133332.215998-1.48.648-.52 1.053329-.52 1.864.173332 1.434664.52 1.872.839997.656 1.48.656zm7.712-9.856v1.456c0 .565336-.095999 1.074664-.288 1.528s-.517331.903998-.976 1.352l-.816-.64c.256001-.277335.453333-.533332.592-.768s.229333-.474665.272-.72h-1.024v-2.208zm3.072 0v1.456c0 .565336-.095999 1.074664-.288 1.528s-.517331.903998-.976 1.352l-.816-.64c.256001-.277335.453333-.533332.592-.768s.229333-.474665.272-.72h-1.024v-2.208zm10.784 3.264c.938671 0 1.637331.266664 2.096.8s.688 1.338661.688 2.416v4.8h-2v-4.688c0-.608003-.114666-1.050665-.344-1.328s-.589331-.416-1.08-.416c-.576003 0-1.037332.181332-1.384.544s-.52.847997-.52 1.456v4.432h-2v-11.28h2v4.544c.266668-.416002.621331-.733332 1.064-.952s.936-.328 1.48-.328zm8.176 0c1.098672 0 1.914664.266664 2.448.8s.8 1.354661.8 2.464v4.752h-1.904v-1.2c-.181334.416002-.466665.741332-.856.976s-.839997.352-1.352.352c-.522669 0-.997331-.106666-1.424-.32s-.762665-.506665-1.008-.88-.368-.789331-.368-1.248c0-.576003.146665-1.029332.44-1.36s.770663-.570666 1.432-.72c.595203-.134401 1.393436-.20832 2.394719-.22176l.741281-.00224v-.368c0-.533336-.114666-.917332-.344-1.152s-.610664-.352-1.144-.352c-.416002 0-.850664.071999-1.304.216s-.898664.343999-1.336.6l-.56-1.376c.437336-.277335.96533-.506666 1.584-.688s1.205331-.272 1.76-.272zm-.464 6.704c.533336 0 .967998-.178665 1.304-.536s.504-.818664.504-1.384v-.336h-.288c-.71467 0-1.269331.032-1.664.096s-.677332.175999-.848.336-.256.378665-.256.656c0 .341335.117332.621332.352.84s.533332.328.896.328zm8.624 1.44c-.693337 0-1.330664-.085332-1.912-.256s-1.074665-.415998-1.48-.736l.56-1.392c.832004.608003 1.786661.912 2.864.912.458669 0 .807999-.074666 1.048-.224s.36-.362665.36-.64c0-.234668-.082666-.415999-.248-.544s-.461331-.245333-.888-.352l-1.28-.288c-.725337-.160001-1.263998-.421332-1.616-.784s-.528-.831997-.528-1.408c0-.480002.135999-.903998.408-1.272s.650664-.653332 1.136-.856 1.047997-.304 1.688-.304c.554669 0 1.090664.085332 1.608.256s.973331.410665 1.368.72l-.56 1.36c-.810671-.58667-1.621329-.88-2.432-.88-.437336 0-.778665.079999-1.024.24s-.368.383999-.368.672c0 .213334.077333.389333.232.528s.402665.245333.744.32l1.328.304c.778671.170668 1.349332.439998 1.712.808s.544.850664.544 1.448c0 .725337-.29333 1.301331-.88 1.728s-1.381328.64-2.384.64zm9.424-8.144c.938671 0 1.637331.266664 2.096.8s.688 1.338661.688 2.416v4.8h-2v-4.688c0-.608003-.114666-1.050665-.344-1.328s-.589331-.416-1.08-.416c-.576003 0-1.037332.181332-1.384.544s-.52.847997-.52 1.456v4.432h-2v-11.28h2v4.544c.266668-.416002.621331-.733332 1.064-.952s.936-.328 1.48-.328zm11.68 4.464h-5.328c.064.725337.282665 1.263998.656 1.616s.906663.528 1.6.528c.864004 0 1.65333-.277331 2.368-.832l.576 1.376c-.362668.298668-.818664.538666-1.368.72s-1.101331.272-1.656.272c-1.280006 0-2.290663-.362663-3.032-1.088s-1.112-1.717327-1.112-2.976c0-.800004.159998-1.50933.48-2.128s.770664-1.098665 1.352-1.44 1.239996-.512 1.976-.512c1.077339 0 1.927997.346663 2.552 1.04s.936 1.647994.936 2.864zm-3.44-3.056c-.533336 0-.962665.170665-1.288.512s-.525333.831997-.6 1.472h3.616c-.021333-.65067-.181332-1.143998-.48-1.48s-.714664-.504-1.248-.504zm7.952 6.736c-.693337 0-1.330664-.085332-1.912-.256s-1.074665-.415998-1.48-.736l.56-1.392c.832004.608003 1.786661.912 2.864.912.458669 0 .807999-.074666 1.048-.224s.36-.362665.36-.64c0-.234668-.082666-.415999-.248-.544s-.461331-.245333-.888-.352l-1.28-.288c-.725337-.160001-1.263998-.421332-1.616-.784s-.528-.831997-.528-1.408c0-.480002.135999-.903998.408-1.272s.650664-.653332 1.136-.856 1.047997-.304 1.688-.304c.554669 0 1.090664.085332 1.608.256s.973331.410665 1.368.72l-.56 1.36c-.810671-.58667-1.621329-.88-2.432-.88-.437336 0-.778665.079999-1.024.24s-.368.383999-.368.672c0 .213334.077333.389333.232.528s.402665.245333.744.32l1.328.304c.778671.170668 1.349332.439998 1.712.808s.544.850664.544 1.448c0 .725337-.29333 1.301331-.88 1.728s-1.381328.64-2.384.64zm13.216-1.504c.234668 0 .479999-.016.736-.048l-.096 1.488c-.320002.032-.613332.048-.88.048-1.098672 0-1.909331-.253331-2.432-.76s-.784-1.261328-.784-2.264v-3.408h-1.504v-1.504h1.504v-2.336h2v2.336h2.064v1.504h-2.064v3.376c0 1.045339.485328 1.568 1.456 1.568zm5.472 1.504c-.800004 0-1.50133-.165332-2.104-.496s-1.069332-.80533-1.4-1.424-.496-1.338663-.496-2.16.165332-1.538664.496-2.152.79733-1.085332 1.4-1.416 1.303996-.496 2.104-.496 1.50133.165332 2.104.496 1.066665.802664 1.392 1.416.488 1.330663.488 2.152-.162665 1.54133-.488 2.16-.78933 1.093332-1.392 1.424-1.303996.496-2.104.496zm-.016-1.552c.65067 0 1.146665-.213331 1.488-.64s.512-1.055996.512-1.888c0-.821337-.170665-1.447998-.512-1.88s-.831997-.648-1.472-.648-1.133332.215998-1.48.648-.52 1.058663-.52 1.88c0 .832004.170665 1.461331.512 1.888s.831997.64 1.472.64zm15.28-.24h2.448v1.664h-6.96v-1.664h2.448v-7.264l-1.936 1.168-.816-1.504 3.344-2.016h1.472z" fill="#4c7ef3"/><path d="m165.344 353.736v2.208h-2.24v-1.456c0-.554669.095999-1.058664.288-1.512s.517331-.909331.976-1.368l.816.64c-.256001.277335-.453333.533332-.592.768s-.229333.474665-.272.72zm3.072 0v2.208h-2.24v-1.456c0-.554669.095999-1.058664.288-1.512s.517331-.909331.976-1.368l.816.64c-.256001.277335-.453333.533332-.592.768s-.229333.474665-.272.72zm9.024 3.44c.65067.181334 1.154665.511998 1.512.992s.536 1.066663.536 1.76c0 .960005-.343997 1.711997-1.032 2.256s-1.634661.816-2.84.816h-5.12v-11.28h4.96c1.173339 0 2.09333.258664 2.76.776s1 1.239995 1 2.168c0 .597336-.157332 1.114664-.472 1.552s-.749331.757332-1.304.96zm-4.928-.704h2.608c1.418674 0 2.128-.527995 2.128-1.584 0-.533336-.175998-.927999-.528-1.184s-.88533-.384-1.6-.384h-2.608zm2.88 4.928c.74667 0 1.290665-.133332 1.632-.4s.512-.682664.512-1.248-.173332-.986665-.52-1.264-.887996-.416-1.624-.416h-2.88v3.328zm9.216-6.416c1.098672 0 1.914664.266664 2.448.8s.8 1.354661.8 2.464v4.752h-1.904v-1.2c-.181334.416002-.466665.741332-.856.976s-.839997.352-1.352.352c-.522669 0-.997331-.106666-1.424-.32s-.762665-.506665-1.008-.88-.368-.789331-.368-1.248c0-.576003.146665-1.029332.44-1.36s.770663-.570666 1.432-.72c.595203-.134401 1.393436-.20832 2.394719-.22176l.741281-.00224v-.368c0-.533336-.114666-.917332-.344-1.152s-.610664-.352-1.144-.352c-.416002 0-.850664.071999-1.304.216s-.898664.343999-1.336.6l-.56-1.376c.437336-.277335.96533-.506666 1.584-.688s1.205331-.272 1.76-.272zm-.464 6.704c.533336 0 .967998-.178665 1.304-.536s.504-.818664.504-1.384v-.336h-.288c-.71467 0-1.269331.032-1.664.096s-.677332.175999-.848.336-.256.378665-.256.656c0 .341335.117332.621332.352.84s.533332.328.896.328zm9.744-.064c.234668 0 .479999-.016.736-.048l-.096 1.488c-.320002.032-.613332.048-.88.048-1.098672 0-1.909331-.253331-2.432-.76s-.784-1.261328-.784-2.264v-3.408h-1.504v-1.504h1.504v-2.336h2v2.336h2.064v1.504h-2.064v3.376c0 1.045339.485328 1.568 1.456 1.568zm3.968-9.904v1.456c0 .565336-.095999 1.074664-.288 1.528s-.517331.903998-.976 1.352l-.816-.64c.256001-.277335.453333-.533332.592-.768s.229333-.474665.272-.72h-1.024v-2.208zm3.072 0v1.456c0 .565336-.095999 1.074664-.288 1.528s-.517331.903998-.976 1.352l-.816-.64c.256001-.277335.453333-.533332.592-.768s.229333-.474665.272-.72h-1.024v-2.208zm10.784 3.264c.938671 0 1.637331.266664 2.096.8s.688 1.338661.688 2.416v4.8h-2v-4.688c0-.608003-.114666-1.050665-.344-1.328s-.589331-.416-1.08-.416c-.576003 0-1.037332.181332-1.384.544s-.52.847997-.52 1.456v4.432h-2v-11.28h2v4.544c.266668-.416002.621331-.733332 1.064-.952s.936-.328 1.48-.328zm8.176 0c1.098672 0 1.914664.266664 2.448.8s.8 1.354661.8 2.464v4.752h-1.904v-1.2c-.181334.416002-.466665.741332-.856.976s-.839997.352-1.352.352c-.522669 0-.997331-.106666-1.424-.32s-.762665-.506665-1.008-.88-.368-.789331-.368-1.248c0-.576003.146665-1.029332.44-1.36s.770663-.570666 1.432-.72c.595203-.134401 1.393436-.20832 2.394719-.22176l.741281-.00224v-.368c0-.533336-.114666-.917332-.344-1.152s-.610664-.352-1.144-.352c-.416002 0-.850664.071999-1.304.216s-.898664.343999-1.336.6l-.56-1.376c.437336-.277335.96533-.506666 1.584-.688s1.205331-.272 1.76-.272zm-.464 6.704c.533336 0 .967998-.178665 1.304-.536s.504-.818664.504-1.384v-.336h-.288c-.71467 0-1.269331.032-1.664.096s-.677332.175999-.848.336-.256.378665-.256.656c0 .341335.117332.621332.352.84s.533332.328.896.328zm8.624 1.44c-.693337 0-1.330664-.085332-1.912-.256s-1.074665-.415998-1.48-.736l.56-1.392c.832004.608003 1.786661.912 2.864.912.458669 0 .807999-.074666 1.048-.224s.36-.362665.36-.64c0-.234668-.082666-.415999-.248-.544s-.461331-.245333-.888-.352l-1.28-.288c-.725337-.160001-1.263998-.421332-1.616-.784s-.528-.831997-.528-1.408c0-.480002.135999-.903998.408-1.272s.650664-.653332 1.136-.856 1.047997-.304 1.688-.304c.554669 0 1.090664.085332 1.608.256s.973331.410665 1.368.72l-.56 1.36c-.810671-.58667-1.621329-.88-2.432-.88-.437336 0-.778665.079999-1.024.24s-.368.383999-.368.672c0 .213334.077333.389333.232.528s.402665.245333.744.32l1.328.304c.778671.170668 1.349332.439998 1.712.808s.544.850664.544 1.448c0 .725337-.29333 1.301331-.88 1.728s-1.381328.64-2.384.64zm9.424-8.144c.938671 0 1.637331.266664 2.096.8s.688 1.338661.688 2.416v4.8h-2v-4.688c0-.608003-.114666-1.050665-.344-1.328s-.589331-.416-1.08-.416c-.576003 0-1.037332.181332-1.384.544s-.52.847997-.52 1.456v4.432h-2v-11.28h2v4.544c.266668-.416002.621331-.733332 1.064-.952s.936-.328 1.48-.328zm11.68 4.464h-5.328c.064.725337.282665 1.263998.656 1.616s.906663.528 1.6.528c.864004 0 1.65333-.277331 2.368-.832l.576 1.376c-.362668.298668-.818664.538666-1.368.72s-1.101331.272-1.656.272c-1.280006 0-2.290663-.362663-3.032-1.088s-1.112-1.717327-1.112-2.976c0-.800004.159998-1.50933.48-2.128s.770664-1.098665 1.352-1.44 1.239996-.512 1.976-.512c1.077339 0 1.927997.346663 2.552 1.04s.936 1.647994.936 2.864zm-3.44-3.056c-.533336 0-.962665.170665-1.288.512s-.525333.831997-.6 1.472h3.616c-.021333-.65067-.181332-1.143998-.48-1.48s-.714664-.504-1.248-.504zm7.952 6.736c-.693337 0-1.330664-.085332-1.912-.256s-1.074665-.415998-1.48-.736l.56-1.392c.832004.608003 1.786661.912 2.864.912.458669 0 .807999-.074666 1.048-.224s.36-.362665.36-.64c0-.234668-.082666-.415999-.248-.544s-.461331-.245333-.888-.352l-1.28-.288c-.725337-.160001-1.263998-.421332-1.616-.784s-.528-.831997-.528-1.408c0-.480002.135999-.903998.408-1.272s.650664-.653332 1.136-.856 1.047997-.304 1.688-.304c.554669 0 1.090664.085332 1.608.256s.973331.410665 1.368.72l-.56 1.36c-.810671-.58667-1.621329-.88-2.432-.88-.437336 0-.778665.079999-1.024.24s-.368.383999-.368.672c0 .213334.077333.389333.232.528s.402665.245333.744.32l1.328.304c.778671.170668 1.349332.439998 1.712.808s.544.850664.544 1.448c0 .725337-.29333 1.301331-.88 1.728s-1.381328.64-2.384.64zm13.216-1.504c.234668 0 .479999-.016.736-.048l-.096 1.488c-.320002.032-.613332.048-.88.048-1.098672 0-1.909331-.253331-2.432-.76s-.784-1.261328-.784-2.264v-3.408h-1.504v-1.504h1.504v-2.336h2v2.336h2.064v1.504h-2.064v3.376c0 1.045339.485328 1.568 1.456 1.568zm5.472 1.504c-.800004 0-1.50133-.165332-2.104-.496s-1.069332-.80533-1.4-1.424-.496-1.338663-.496-2.16.165332-1.538664.496-2.152.79733-1.085332 1.4-1.416 1.303996-.496 2.104-.496 1.50133.165332 2.104.496 1.066665.802664 1.392 1.416.488 1.330663.488 2.152-.162665 1.54133-.488 2.16-.78933 1.093332-1.392 1.424-1.303996.496-2.104.496zm-.016-1.552c.65067 0 1.146665-.213331 1.488-.64s.512-1.055996.512-1.888c0-.821337-.170665-1.447998-.512-1.88s-.831997-.648-1.472-.648-1.133332.215998-1.48.648-.52 1.058663-.52 1.88c0 .832004.170665 1.461331.512 1.888s.831997.64 1.472.64zm15.28-.24h2.448v1.664h-6.96v-1.664h2.448v-7.264l-1.936 1.168-.816-1.504 3.344-2.016h1.472zm13.136-6.352c.68267 0 1.285331.165332 1.808.496s.930665.799997 1.224 1.408.44 1.317329.44 2.128-.146665 1.527997-.44 2.152-.703997 1.106665-1.232 1.448-1.127997.512-1.8.512c-.565336 0-1.069331-.122665-1.512-.368s-.781332-.586664-1.016-1.024v1.264h-1.968v-11.28h2v4.592c.234668-.426669.570664-.754666 1.008-.984s.933331-.344 1.488-.344zm-.528 6.592c.629336 0 1.119998-.223998 1.472-.672s.528-1.077329.528-1.888c0-.800004-.173332-1.413331-.52-1.84s-.839997-.64-1.48-.64-1.133332.215998-1.48.648-.52 1.053329-.52 1.864.173332 1.434664.52 1.872.839997.656 1.48.656zm12.832-6.4v7.824h-1.952v-1.2c-.245335.426669-.575998.754666-.992.984s-.885331.344-1.408.344c-1.92001 0-2.88-1.077323-2.88-3.232v-4.72h2v4.736c0 .554669.111999.965332.336 1.232s.575998.4 1.056.4c.554669 0 .999998-.183998 1.336-.552s.504-.855997.504-1.464v-4.352zm6.08 6.448c.234668 0 .479999-.016.736-.048l-.096 1.488c-.320002.032-.613332.048-.88.048-1.098672 0-1.909331-.253331-2.432-.76s-.784-1.261328-.784-2.264v-3.408h-1.504v-1.504h1.504v-2.336h2v2.336h2.064v1.504h-2.064v3.376c0 1.045339.485328 1.568 1.456 1.568zm-174.496 15.36c.885338 0 1.546664.263997 1.984.792s.656 1.335995.656 2.424v4.8h-2v-4.72c0-.597336-.101332-1.031999-.304-1.304s-.527998-.408-.976-.408c-.533336 0-.949332.181332-1.248.544s-.448.86933-.448 1.52v4.368h-2v-4.72c0-.597336-.098666-1.031999-.296-1.304s-.525331-.408-.984-.408c-.522669 0-.933332.181332-1.232.544s-.448.86933-.448 1.52v4.368h-2v-7.824h1.952v1.104c.234668-.426669.559998-.749332.976-.968s.890664-.328 1.424-.328c1.184006 0 1.967998.490662 2.352 1.472.245335-.458669.597331-.818665 1.056-1.08s.970664-.392 1.536-.392zm8.24 8.144c-.800004 0-1.50133-.165332-2.104-.496s-1.069332-.80533-1.4-1.424-.496-1.338663-.496-2.16.165332-1.538664.496-2.152.79733-1.085332 1.4-1.416 1.303996-.496 2.104-.496 1.50133.165332 2.104.496 1.066665.802664 1.392 1.416.488 1.330663.488 2.152-.162665 1.54133-.488 2.16-.78933 1.093332-1.392 1.424-1.303996.496-2.104.496zm-.016-1.552c.65067 0 1.146665-.213331 1.488-.64s.512-1.055996.512-1.888c0-.821337-.170665-1.447998-.512-1.88s-.831997-.648-1.472-.648-1.133332.215998-1.48.648-.52 1.058663-.52 1.88c0 .832004.170665 1.461331.512 1.888s.831997.64 1.472.64zm11.136-6.384h1.968l-3.424 7.808h-1.744l-3.392-7.808h2.112l2.208 5.52zm9.792 4.256h-5.328c.064.725337.282665 1.263998.656 1.616s.906663.528 1.6.528c.864004 0 1.65333-.277331 2.368-.832l.576 1.376c-.362668.298668-.818664.538666-1.368.72s-1.101331.272-1.656.272c-1.280006 0-2.290663-.362663-3.032-1.088s-1.112-1.717327-1.112-2.976c0-.800004.159998-1.50933.48-2.128s.770664-1.098665 1.352-1.44 1.239996-.512 1.976-.512c1.077339 0 1.927997.346663 2.552 1.04s.936 1.647994.936 2.864zm-3.44-3.056c-.533336 0-.962665.170665-1.288.512s-.525333.831997-.6 1.472h3.616c-.021333-.65067-.181332-1.143998-.48-1.48s-.714664-.504-1.248-.504zm7.952 6.736c-.693337 0-1.330664-.085332-1.912-.256s-1.074665-.415998-1.48-.736l.56-1.392c.832004.608003 1.786661.912 2.864.912.458669 0 .807999-.074666 1.048-.224s.36-.362665.36-.64c0-.234668-.082666-.415999-.248-.544s-.461331-.245333-.888-.352l-1.28-.288c-.725337-.160001-1.263998-.421332-1.616-.784s-.528-.831997-.528-1.408c0-.480002.135999-.903998.408-1.272s.650664-.653332 1.136-.856 1.047997-.304 1.688-.304c.554669 0 1.090664.085332 1.608.256s.973331.410665 1.368.72l-.56 1.36c-.810671-.58667-1.621329-.88-2.432-.88-.437336 0-.778665.079999-1.024.24s-.368.383999-.368.672c0 .213334.077333.389333.232.528s.402665.245333.744.32l1.328.304c.778671.170668 1.349332.439998 1.712.808s.544.850664.544 1.448c0 .725337-.29333 1.301331-.88 1.728s-1.381328.64-2.384.64zm13.216-1.504c.234668 0 .479999-.016.736-.048l-.096 1.488c-.320002.032-.613332.048-.88.048-1.098672 0-1.909331-.253331-2.432-.76s-.784-1.261328-.784-2.264v-3.408h-1.504v-1.504h1.504v-2.336h2v2.336h2.064v1.504h-2.064v3.376c0 1.045339.485328 1.568 1.456 1.568zm5.472 1.504c-.800004 0-1.50133-.165332-2.104-.496s-1.069332-.80533-1.4-1.424-.496-1.338663-.496-2.16.165332-1.538664.496-2.152.79733-1.085332 1.4-1.416 1.303996-.496 2.104-.496 1.50133.165332 2.104.496 1.066665.802664 1.392 1.416.488 1.330663.488 2.152-.162665 1.54133-.488 2.16-.78933 1.093332-1.392 1.424-1.303996.496-2.104.496zm-.016-1.552c.65067 0 1.146665-.213331 1.488-.64s.512-1.055996.512-1.888c0-.821337-.170665-1.447998-.512-1.88s-.831997-.648-1.472-.648-1.133332.215998-1.48.648-.52 1.058663-.52 1.88c0 .832004.170665 1.461331.512 1.888s.831997.64 1.472.64zm17.696-.24v1.664h-7.584v-1.52l3.84-4.128c.448002-.490669.775999-.941331.984-1.352s.312-.818665.312-1.224c0-.512003-.146665-.898665-.44-1.16s-.722664-.392-1.288-.392c-1.013338 0-2.031995.389329-3.056 1.168l-.688-1.504c.448002-.394669 1.02133-.711999 1.72-.952s1.399996-.36 2.104-.36c1.130672 0 2.026663.277331 2.688.832s.992 1.301329.992 2.24c0 .65067-.138665 1.26133-.416 1.832s-.746663 1.207996-1.408 1.912l-2.768 2.944zm9.12 1.792c-.693337 0-1.330664-.085332-1.912-.256s-1.074665-.415998-1.48-.736l.56-1.392c.832004.608003 1.786661.912 2.864.912.458669 0 .807999-.074666 1.048-.224s.36-.362665.36-.64c0-.234668-.082666-.415999-.248-.544s-.461331-.245333-.888-.352l-1.28-.288c-.725337-.160001-1.263998-.421332-1.616-.784s-.528-.831997-.528-1.408c0-.480002.135999-.903998.408-1.272s.650664-.653332 1.136-.856 1.047997-.304 1.688-.304c.554669 0 1.090664.085332 1.608.256s.973331.410665 1.368.72l-.56 1.36c-.810671-.58667-1.621329-.88-2.432-.88-.437336 0-.778665.079999-1.024.24s-.368.383999-.368.672c0 .213334.077333.389333.232.528s.402665.245333.744.32l1.328.304c.778671.170668 1.349332.439998 1.712.808s.544.850664.544 1.448c0 .725337-.29333 1.301331-.88 1.728s-1.381328.64-2.384.64zm4.88-.128v-7.824h2v7.824zm-.112-11.456h2.208v1.968h-2.208zm8.72 3.44c.938671 0 1.637331.266664 2.096.8s.688 1.338661.688 2.416v4.8h-2v-4.688c0-.608003-.114666-1.050665-.344-1.328s-.589331-.416-1.08-.416c-.576003 0-1.037332.181332-1.384.544s-.52.847997-.52 1.456v4.432h-2v-7.824h1.952v1.168c.266668-.437336.623998-.773332 1.072-1.008s.954664-.352 1.52-.352zm8.384 8.144c-.821337 0-1.53333-.165332-2.136-.496s-1.063998-.799997-1.384-1.408-.48-1.317329-.48-2.128.167998-1.527997.504-2.152.81333-1.106665 1.432-1.448 1.333329-.512 2.144-.512c.554669 0 1.095997.087999 1.624.264s.951998.413332 1.272.712l-.576 1.408c-.330668-.266668-.679998-.469333-1.048-.608s-.733332-.208-1.096-.208c-.693337 0-1.231998.215998-1.616.648s-.576 1.053329-.576 1.864c0 .800004.191998 1.415998.576 1.848s.922663.648 1.616.648c.362668 0 .727998-.069333 1.096-.208s.717332-.341332 1.048-.608l.576 1.392c-.341335.309335-.778664.551999-1.312.728s-1.087997.264-1.664.264zm11.104-3.68h-5.328c.064.725337.282665 1.263998.656 1.616s.906663.528 1.6.528c.864004 0 1.65333-.277331 2.368-.832l.576 1.376c-.362668.298668-.818664.538666-1.368.72s-1.101331.272-1.656.272c-1.280006 0-2.290663-.362663-3.032-1.088s-1.112-1.717327-1.112-2.976c0-.800004.159998-1.50933.48-2.128s.770664-1.098665 1.352-1.44 1.239996-.512 1.976-.512c1.077339 0 1.927997.346663 2.552 1.04s.936 1.647994.936 2.864zm-3.44-3.056c-.533336 0-.962665.170665-1.288.512s-.525333.831997-.6 1.472h3.616c-.021333-.65067-.181332-1.143998-.48-1.48s-.714664-.504-1.248-.504zm11.472-2.656v2.208h-2.24v-1.456c0-.554669.095999-1.058664.288-1.512s.517331-.909331.976-1.368l.816.64c-.256001.277335-.453333.533332-.592.768s-.229333.474665-.272.72zm3.072 0v2.208h-2.24v-1.456c0-.554669.095999-1.058664.288-1.512s.517331-.909331.976-1.368l.816.64c-.256001.277335-.453333.533332-.592.768s-.229333.474665-.272.72zm4.736 9.264v-9.584h-3.68v-1.696h9.424v1.696h-3.68v9.584zm10.336-8.016c1.098672 0 1.914664.266664 2.448.8s.8 1.354661.8 2.464v4.752h-1.904v-1.2c-.181334.416002-.466665.741332-.856.976s-.839997.352-1.352.352c-.522669 0-.997331-.106666-1.424-.32s-.762665-.506665-1.008-.88-.368-.789331-.368-1.248c0-.576003.146665-1.029332.44-1.36s.770663-.570666 1.432-.72c.595203-.134401 1.393436-.20832 2.394719-.22176l.741281-.00224v-.368c0-.533336-.114666-.917332-.344-1.152s-.610664-.352-1.144-.352c-.416002 0-.850664.071999-1.304.216s-.898664.343999-1.336.6l-.56-1.376c.437336-.277335.96533-.506666 1.584-.688s1.205331-.272 1.76-.272zm-.464 6.704c.533336 0 .967998-.178665 1.304-.536s.504-.818664.504-1.384v-.336h-.288c-.71467 0-1.269331.032-1.664.096s-.677332.175999-.848.336-.256.378665-.256.656c0 .341335.117332.621332.352.84s.533332.328.896.328zm10.24-6.704c.68267 0 1.285331.165332 1.808.496s.930665.799997 1.224 1.408.44 1.317329.44 2.128-.146665 1.527997-.44 2.152-.703997 1.106665-1.232 1.448-1.127997.512-1.8.512c-.565336 0-1.069331-.122665-1.512-.368s-.781332-.586664-1.016-1.024v1.264h-1.968v-11.28h2v4.592c.234668-.426669.570664-.754666 1.008-.984s.933331-.344 1.488-.344zm-.528 6.592c.629336 0 1.119998-.223998 1.472-.672s.528-1.077329.528-1.888c0-.800004-.173332-1.413331-.52-1.84s-.839997-.64-1.48-.64-1.133332.215998-1.48.648-.52 1.053329-.52 1.864.173332 1.434664.52 1.872.839997.656 1.48.656zm7.712-9.856v1.456c0 .565336-.095999 1.074664-.288 1.528s-.517331.903998-.976 1.352l-.816-.64c.256001-.277335.453333-.533332.592-.768s.229333-.474665.272-.72h-1.024v-2.208zm3.072 0v1.456c0 .565336-.095999 1.074664-.288 1.528s-.517331.903998-.976 1.352l-.816-.64c.256001-.277335.453333-.533332.592-.768s.229333-.474665.272-.72h-1.024v-2.208zm6.24 11.28v-7.824h2v7.824zm-.112-11.456h2.208v1.968h-2.208zm7.056 11.584c-.693337 0-1.330664-.085332-1.912-.256s-1.074665-.415998-1.48-.736l.56-1.392c.832004.608003 1.786661.912 2.864.912.458669 0 .807999-.074666 1.048-.224s.36-.362665.36-.64c0-.234668-.082666-.415999-.248-.544s-.461331-.245333-.888-.352l-1.28-.288c-.725337-.160001-1.263998-.421332-1.616-.784s-.528-.831997-.528-1.408c0-.480002.135999-.903998.408-1.272s.650664-.653332 1.136-.856 1.047997-.304 1.688-.304c.554669 0 1.090664.085332 1.608.256s.973331.410665 1.368.72l-.56 1.36c-.810671-.58667-1.621329-.88-2.432-.88-.437336 0-.778665.079999-1.024.24s-.368.383999-.368.672c0 .213334.077333.389333.232.528s.402665.245333.744.32l1.328.304c.778671.170668 1.349332.439998 1.712.808s.544.850664.544 1.448c0 .725337-.29333 1.301331-.88 1.728s-1.381328.64-2.384.64zm-92.448 13.856c1.098672 0 1.914664.266664 2.448.8s.8 1.354661.8 2.464v4.752h-1.904v-1.2c-.181334.416002-.466665.741332-.856.976s-.839997.352-1.352.352c-.522669 0-.997331-.106666-1.424-.32s-.762665-.506665-1.008-.88-.368-.789331-.368-1.248c0-.576003.146665-1.029332.44-1.36s.770663-.570666 1.432-.72c.595203-.134401 1.393436-.20832 2.394719-.22176l.741281-.00224v-.368c0-.533336-.114666-.917332-.344-1.152s-.610664-.352-1.144-.352c-.416002 0-.850664.071999-1.304.216s-.898664.343999-1.336.6l-.56-1.376c.437336-.277335.96533-.506666 1.584-.688s1.205331-.272 1.76-.272zm-.464 6.704c.533336 0 .967998-.178665 1.304-.536s.504-.818664.504-1.384v-.336h-.288c-.71467 0-1.269331.032-1.664.096s-.677332.175999-.848.336-.256.378665-.256.656c0 .341335.117332.621332.352.84s.533332.328.896.328zm5.744 1.312v-11.28h2v11.28zm9.216-6.352-1.168.112c-1.322673.138667-1.984.810661-1.984 2.016v4.224h-2v-7.824h1.904v1.376c.405335-.938671 1.24266-1.450666 2.512-1.536l.608-.048zm7.84 2.8h-5.328c.064.725337.282665 1.263998.656 1.616s.906663.528 1.6.528c.864004 0 1.65333-.277331 2.368-.832l.576 1.376c-.362668.298668-.818664.538666-1.368.72s-1.101331.272-1.656.272c-1.280006 0-2.290663-.362663-3.032-1.088s-1.112-1.717327-1.112-2.976c0-.800004.159998-1.50933.48-2.128s.770664-1.098665 1.352-1.44 1.239996-.512 1.976-.512c1.077339 0 1.927997.346663 2.552 1.04s.936 1.647994.936 2.864zm-3.44-3.056c-.533336 0-.962665.170665-1.288.512s-.525333.831997-.6 1.472h3.616c-.021333-.65067-.181332-1.143998-.48-1.48s-.714664-.504-1.248-.504zm8.432-1.408c1.098672 0 1.914664.266664 2.448.8s.8 1.354661.8 2.464v4.752h-1.904v-1.2c-.181334.416002-.466665.741332-.856.976s-.839997.352-1.352.352c-.522669 0-.997331-.106666-1.424-.32s-.762665-.506665-1.008-.88-.368-.789331-.368-1.248c0-.576003.146665-1.029332.44-1.36s.770663-.570666 1.432-.72c.595203-.134401 1.393436-.20832 2.394719-.22176l.741281-.00224v-.368c0-.533336-.114666-.917332-.344-1.152s-.610664-.352-1.144-.352c-.416002 0-.850664.071999-1.304.216s-.898664.343999-1.336.6l-.56-1.376c.437336-.277335.96533-.506666 1.584-.688s1.205331-.272 1.76-.272zm-.464 6.704c.533336 0 .967998-.178665 1.304-.536s.504-.818664.504-1.384v-.336h-.288c-.71467 0-1.269331.032-1.664.096s-.677332.175999-.848.336-.256.378665-.256.656c0 .341335.117332.621332.352.84s.533332.328.896.328zm13.296-9.968v11.28h-1.984v-1.264c-.234668.437336-.573331.778665-1.016 1.024s-.946664.368-1.512.368c-.672003 0-1.271997-.170665-1.8-.512s-.938665-.823997-1.232-1.448-.44-1.341329-.44-2.152.146665-1.519997.44-2.128.701331-1.077332 1.224-1.408 1.12533-.496 1.808-.496c.565336 0 1.066664.117332 1.504.352s.773332.565331 1.008.992v-4.608zm-3.984 9.856c.640003 0 1.133332-.218664 1.48-.656s.52-1.061329.52-1.872-.173332-1.431998-.52-1.864-.834664-.648-1.464-.648c-.640003 0-1.135998.213331-1.488.64s-.528 1.039996-.528 1.84c0 .810671.175998 1.439998.528 1.888s.842664.672 1.472.672zm11.536-6.384h1.968l-4.704 10.688h-2.016l1.424-3.184-3.264-7.504h2.112l2.208 5.52zm11.264 6.432c.234668 0 .479999-.016.736-.048l-.096 1.488c-.320002.032-.613332.048-.88.048-1.098672 0-1.909331-.253331-2.432-.76s-.784-1.261328-.784-2.264v-3.408h-1.504v-1.504h1.504v-2.336h2v2.336h2.064v1.504h-2.064v3.376c0 1.045339.485328 1.568 1.456 1.568zm6.448-6.64c.938671 0 1.637331.266664 2.096.8s.688 1.338661.688 2.416v4.8h-2v-4.688c0-.608003-.114666-1.050665-.344-1.328s-.589331-.416-1.08-.416c-.576003 0-1.037332.181332-1.384.544s-.52.847997-.52 1.456v4.432h-2v-11.28h2v4.544c.266668-.416002.621331-.733332 1.064-.952s.936-.328 1.48-.328zm11.68 4.464h-5.328c.064.725337.282665 1.263998.656 1.616s.906663.528 1.6.528c.864004 0 1.65333-.277331 2.368-.832l.576 1.376c-.362668.298668-.818664.538666-1.368.72s-1.101331.272-1.656.272c-1.280006 0-2.290663-.362663-3.032-1.088s-1.112-1.717327-1.112-2.976c0-.800004.159998-1.50933.48-2.128s.770664-1.098665 1.352-1.44 1.239996-.512 1.976-.512c1.077339 0 1.927997.346663 2.552 1.04s.936 1.647994.936 2.864zm-3.44-3.056c-.533336 0-.962665.170665-1.288.512s-.525333.831997-.6 1.472h3.616c-.021333-.65067-.181332-1.143998-.48-1.48s-.714664-.504-1.248-.504zm10.224.256-1.168.112c-1.322673.138667-1.984.810661-1.984 2.016v4.224h-2v-7.824h1.904v1.376c.405335-.938671 1.24266-1.450666 2.512-1.536l.608-.048zm7.84 2.8h-5.328c.064.725337.282665 1.263998.656 1.616s.906663.528 1.6.528c.864004 0 1.65333-.277331 2.368-.832l.576 1.376c-.362668.298668-.818664.538666-1.368.72s-1.101331.272-1.656.272c-1.280006 0-2.290663-.362663-3.032-1.088s-1.112-1.717327-1.112-2.976c0-.800004.159998-1.50933.48-2.128s.770664-1.098665 1.352-1.44 1.239996-.512 1.976-.512c1.077339 0 1.927997.346663 2.552 1.04s.936 1.647994.936 2.864zm-3.44-3.056c-.533336 0-.962665.170665-1.288.512s-.525333.831997-.6 1.472h3.616c-.021333-.65067-.181332-1.143998-.48-1.48s-.714664-.504-1.248-.504zm4.896 4.4h2.24v2.208h-2.24z" fill="#fa4359"/><path d="m67.504 215.736v2.208h-2.24v-1.456c0-.554669.095999-1.058664.288-1.512s.517331-.909331.976-1.368l.816.64c-.2560013.277335-.4533326.533332-.592.768s-.2293331.474665-.272.72zm3.072 0v2.208h-2.24v-1.456c0-.554669.095999-1.058664.288-1.512s.517331-.909331.976-1.368l.816.64c-.2560013.277335-.4533326.533332-.592.768s-.2293331.474665-.272.72zm7.2 9.408c-1.1093389 0-2.0773292-.237331-2.904-.712s-1.4613311-1.149329-1.904-2.024-.664-1.893328-.664-3.056.2213311-2.178662.664-3.048 1.0773292-1.541331 1.904-2.016 1.7946611-.712 2.904-.712c.7573371 0 1.4719966.117332 2.144.352s1.237331.565331 1.696.992l-.688 1.504c-.5120026-.405335-1.0186642-.701332-1.52-.888s-1.0346638-.28-1.6-.28c-1.0880054 0-1.927997.351996-2.52 1.056s-.888 1.717327-.888 3.04c0 1.33334.295997 2.351996.888 3.056s1.4319946 1.056 2.52 1.056c.5653362 0 1.0986642-.093332 1.6-.28s1.0079974-.482665 1.52-.888l.688 1.504c-.458669.426669-1.0239966.757332-1.696.992s-1.3866629.352-2.144.352zm8.912-8.16c1.0986722 0 1.914664.266664 2.448.8s.8 1.354661.8 2.464v4.752h-1.904v-1.2c-.1813342.416002-.4666647.741332-.856.976s-.8399974.352-1.352.352c-.5226693 0-.9973312-.106666-1.424-.32s-.7626654-.506665-1.008-.88-.368-.789331-.368-1.248c0-.576003.1466652-1.029332.44-1.36s.7706634-.570666 1.432-.72c.595203-.134401 1.3934359-.20832 2.3947187-.22176l.7412813-.00224v-.368c0-.533336-.1146655-.917332-.344-1.152s-.610664-.352-1.144-.352c-.4160021 0-.8506644.071999-1.304.216s-.8986645.343999-1.336.6l-.56-1.376c.4373355-.277335.9653302-.506666 1.584-.688s1.2053306-.272 1.76-.272zm-.464 6.704c.533336 0 .9679983-.178665 1.304-.536s.504-.818664.504-1.384v-.336h-.288c-.7146702 0-1.2693314.032-1.664.096s-.6773325.175999-.848.336-.256.378665-.256.656c0 .341335.1173322.621332.352.84s.5333315.328.896.328zm9.744-.064c.2346678 0 .4799987-.016.736-.048l-.096 1.488c-.3200016.032-.613332.048-.88.048-1.0986722 0-1.9093307-.253331-2.432-.76s-.784-1.261328-.784-2.264v-3.408h-1.504v-1.504h1.504v-2.336h2v2.336h2.064v1.504h-2.064v3.376c0 1.045339.4853285 1.568 1.456 1.568zm3.968-9.904v1.456c0 .565336-.095999 1.074664-.288 1.528s-.517331.903998-.976 1.352l-.816-.64c.2560013-.277335.4533326-.533332.592-.768s.2293331-.474665.272-.72h-1.024v-2.208zm3.072 0v1.456c0 .565336-.095999 1.074664-.288 1.528s-.517331.903998-.976 1.352l-.816-.64c.256001-.277335.453333-.533332.592-.768s.229333-.474665.272-.72h-1.024v-2.208zm10.784 3.264c.938671 0 1.637331.266664 2.096.8s.688 1.338661.688 2.416v4.8h-2v-4.688c0-.608003-.114666-1.050665-.344-1.328s-.589331-.416-1.08-.416c-.576003 0-1.037332.181332-1.384.544s-.52.847997-.52 1.456v4.432h-2v-11.28h2v4.544c.266668-.416002.621331-.733332 1.064-.952s.936-.328 1.48-.328zm8.176 0c1.098672 0 1.914664.266664 2.448.8s.8 1.354661.8 2.464v4.752h-1.904v-1.2c-.181334.416002-.466665.741332-.856.976s-.839997.352-1.352.352c-.522669 0-.997331-.106666-1.424-.32s-.762665-.506665-1.008-.88-.368-.789331-.368-1.248c0-.576003.146665-1.029332.44-1.36s.770663-.570666 1.432-.72c.595203-.134401 1.393436-.20832 2.394719-.22176l.741281-.00224v-.368c0-.533336-.114666-.917332-.344-1.152s-.610664-.352-1.144-.352c-.416002 0-.850664.071999-1.304.216s-.898664.343999-1.336.6l-.56-1.376c.437336-.277335.96533-.506666 1.584-.688s1.205331-.272 1.76-.272zm-.464 6.704c.533336 0 .967998-.178665 1.304-.536s.504-.818664.504-1.384v-.336h-.288c-.71467 0-1.269331.032-1.664.096s-.677332.175999-.848.336-.256.378665-.256.656c0 .341335.117332.621332.352.84s.533332.328.896.328zm8.624 1.44c-.693337 0-1.330664-.085332-1.912-.256s-1.074665-.415998-1.48-.736l.56-1.392c.832004.608003 1.786661.912 2.864.912.458669 0 .807999-.074666 1.048-.224s.36-.362665.36-.64c0-.234668-.082666-.415999-.248-.544s-.461331-.245333-.888-.352l-1.28-.288c-.725337-.160001-1.263998-.421332-1.616-.784s-.528-.831997-.528-1.408c0-.480002.135999-.903998.408-1.272s.650664-.653332 1.136-.856 1.047997-.304 1.688-.304c.554669 0 1.090664.085332 1.608.256s.973331.410665 1.368.72l-.56 1.36c-.810671-.58667-1.621329-.88-2.432-.88-.437336 0-.778665.079999-1.024.24s-.368.383999-.368.672c0 .213334.077333.389333.232.528s.402665.245333.744.32l1.328.304c.778671.170668 1.349332.439998 1.712.808s.544.850664.544 1.448c0 .725337-.29333 1.301331-.88 1.728s-1.381328.64-2.384.64zm9.424-8.144c.938671 0 1.637331.266664 2.096.8s.688 1.338661.688 2.416v4.8h-2v-4.688c0-.608003-.114666-1.050665-.344-1.328s-.589331-.416-1.08-.416c-.576003 0-1.037332.181332-1.384.544s-.52.847997-.52 1.456v4.432h-2v-11.28h2v4.544c.266668-.416002.621331-.733332 1.064-.952s.936-.328 1.48-.328zm11.68 4.464h-5.328c.064.725337.282665 1.263998.656 1.616s.906663.528 1.6.528c.864004 0 1.65333-.277331 2.368-.832l.576 1.376c-.362668.298668-.818664.538666-1.368.72s-1.101331.272-1.656.272c-1.280006 0-2.290663-.362663-3.032-1.088s-1.112-1.717327-1.112-2.976c0-.800004.159998-1.50933.48-2.128s.770664-1.098665 1.352-1.44 1.239996-.512 1.976-.512c1.077339 0 1.927997.346663 2.552 1.04s.936 1.647994.936 2.864zm-3.44-3.056c-.533336 0-.962665.170665-1.288.512s-.525333.831997-.6 1.472h3.616c-.021333-.65067-.181332-1.143998-.48-1.48s-.714664-.504-1.248-.504zm7.952 6.736c-.693337 0-1.330664-.085332-1.912-.256s-1.074665-.415998-1.48-.736l.56-1.392c.832004.608003 1.786661.912 2.864.912.458669 0 .807999-.074666 1.048-.224s.36-.362665.36-.64c0-.234668-.082666-.415999-.248-.544s-.461331-.245333-.888-.352l-1.28-.288c-.725337-.160001-1.263998-.421332-1.616-.784s-.528-.831997-.528-1.408c0-.480002.135999-.903998.408-1.272s.650664-.653332 1.136-.856 1.047997-.304 1.688-.304c.554669 0 1.090664.085332 1.608.256s.973331.410665 1.368.72l-.56 1.36c-.810671-.58667-1.621329-.88-2.432-.88-.437336 0-.778665.079999-1.024.24s-.368.383999-.368.672c0 .213334.077333.389333.232.528s.402665.245333.744.32l1.328.304c.778671.170668 1.349332.439998 1.712.808s.544.850664.544 1.448c0 .725337-.29333 1.301331-.88 1.728s-1.381328.64-2.384.64zm13.216-1.504c.234668 0 .479999-.016.736-.048l-.096 1.488c-.320002.032-.613332.048-.88.048-1.098672 0-1.909331-.253331-2.432-.76s-.784-1.261328-.784-2.264v-3.408h-1.504v-1.504h1.504v-2.336h2v2.336h2.064v1.504h-2.064v3.376c0 1.045339.485328 1.568 1.456 1.568zm5.472 1.504c-.800004 0-1.50133-.165332-2.104-.496s-1.069332-.80533-1.4-1.424-.496-1.338663-.496-2.16.165332-1.538664.496-2.152.79733-1.085332 1.4-1.416 1.303996-.496 2.104-.496 1.50133.165332 2.104.496 1.066665.802664 1.392 1.416.488 1.330663.488 2.152-.162665 1.54133-.488 2.16-.78933 1.093332-1.392 1.424-1.303996.496-2.104.496zm-.016-1.552c.65067 0 1.146665-.213331 1.488-.64s.512-1.055996.512-1.888c0-.821337-.170665-1.447998-.512-1.88s-.831997-.648-1.472-.648-1.133332.215998-1.48.648-.52 1.058663-.52 1.88c0 .832004.170665 1.461331.512 1.888s.831997.64 1.472.64zm17.696-.24v1.664h-7.584v-1.52l3.84-4.128c.448002-.490669.775999-.941331.984-1.352s.312-.818665.312-1.224c0-.512003-.146665-.898665-.44-1.16s-.722664-.392-1.288-.392c-1.013338 0-2.031995.389329-3.056 1.168l-.688-1.504c.448002-.394669 1.02133-.711999 1.72-.952s1.399996-.36 2.104-.36c1.130672 0 2.026663.277331 2.688.832s.992 1.301329.992 2.24c0 .65067-.138665 1.26133-.416 1.832s-.746663 1.207996-1.408 1.912l-2.768 2.944zm1.728-.544h2.24v2.208h-2.24zm8.656 2.208v-11.28h2.064v11.28zm8.32-1.376c.234668 0 .479999-.016.736-.048l-.096 1.488c-.320002.032-.613332.048-.88.048-1.098672 0-1.909331-.253331-2.432-.76s-.784-1.261328-.784-2.264v-3.408h-1.504v-1.504h1.504v-2.336h2v2.336h2.064v1.504h-2.064v3.376c0 1.045339.485328 1.568 1.456 1.568zm10.784-6.64c.938671 0 1.637331.266664 2.096.8s.688 1.338661.688 2.416v4.8h-2v-4.688c0-.608003-.114666-1.050665-.344-1.328s-.589331-.416-1.08-.416c-.576003 0-1.037332.181332-1.384.544s-.52.847997-.52 1.456v4.432h-2v-11.28h2v4.544c.266668-.416002.621331-.733332 1.064-.952s.936-.328 1.48-.328zm4.816 8.016v-7.824h2v7.824zm-.112-11.456h2.208v1.968h-2.208zm8.176 10.08c.234668 0 .479999-.016.736-.048l-.096 1.488c-.320002.032-.613332.048-.88.048-1.098672 0-1.909331-.253331-2.432-.76s-.784-1.261328-.784-2.264v-3.408h-1.504v-1.504h1.504v-2.336h2v2.336h2.064v1.504h-2.064v3.376c0 1.045339.485328 1.568 1.456 1.568zm4.784 1.504c-.693337 0-1.330664-.085332-1.912-.256s-1.074665-.415998-1.48-.736l.56-1.392c.832004.608003 1.786661.912 2.864.912.458669 0 .807999-.074666 1.048-.224s.36-.362665.36-.64c0-.234668-.082666-.415999-.248-.544s-.461331-.245333-.888-.352l-1.28-.288c-.725337-.160001-1.263998-.421332-1.616-.784s-.528-.831997-.528-1.408c0-.480002.135999-.903998.408-1.272s.650664-.653332 1.136-.856 1.047997-.304 1.688-.304c.554669 0 1.090664.085332 1.608.256s.973331.410665 1.368.72l-.56 1.36c-.810671-.58667-1.621329-.88-2.432-.88-.437336 0-.778665.079999-1.024.24s-.368.383999-.368.672c0 .213334.077333.389333.232.528s.402665.245333.744.32l1.328.304c.778671.170668 1.349332.439998 1.712.808s.544.850664.544 1.448c0 .725337-.29333 1.301331-.88 1.728s-1.381328.64-2.384.64zm12.576-8.144c1.098672 0 1.914664.266664 2.448.8s.8 1.354661.8 2.464v4.752h-1.904v-1.2c-.181334.416002-.466665.741332-.856.976s-.839997.352-1.352.352c-.522669 0-.997331-.106666-1.424-.32s-.762665-.506665-1.008-.88-.368-.789331-.368-1.248c0-.576003.146665-1.029332.44-1.36s.770663-.570666 1.432-.72c.595203-.134401 1.393436-.20832 2.394719-.22176l.741281-.00224v-.368c0-.533336-.114666-.917332-.344-1.152s-.610664-.352-1.144-.352c-.416002 0-.850664.071999-1.304.216s-.898664.343999-1.336.6l-.56-1.376c.437336-.277335.96533-.506666 1.584-.688s1.205331-.272 1.76-.272zm-.464 6.704c.533336 0 .967998-.178665 1.304-.536s.504-.818664.504-1.384v-.336h-.288c-.71467 0-1.269331.032-1.664.096s-.677332.175999-.848.336-.256.378665-.256.656c0 .341335.117332.621332.352.84s.533332.328.896.328zm13.648 1.44c-.821337 0-1.53333-.165332-2.136-.496s-1.063998-.799997-1.384-1.408-.48-1.317329-.48-2.128.167998-1.527997.504-2.152.81333-1.106665 1.432-1.448 1.333329-.512 2.144-.512c.554669 0 1.095997.087999 1.624.264s.951998.413332 1.272.712l-.576 1.408c-.330668-.266668-.679998-.469333-1.048-.608s-.733332-.208-1.096-.208c-.693337 0-1.231998.215998-1.616.648s-.576 1.053329-.576 1.864c0 .800004.191998 1.415998.576 1.848s.922663.648 1.616.648c.362668 0 .727998-.069333 1.096-.208s.717332-.341332 1.048-.608l.576 1.392c-.341335.309335-.778664.551999-1.312.728s-1.087997.264-1.664.264zm7.808 0c-.800004 0-1.50133-.165332-2.104-.496s-1.069332-.80533-1.4-1.424-.496-1.338663-.496-2.16.165332-1.538664.496-2.152.79733-1.085332 1.4-1.416 1.303996-.496 2.104-.496 1.50133.165332 2.104.496 1.066665.802664 1.392 1.416.488 1.330663.488 2.152-.162665 1.54133-.488 2.16-.78933 1.093332-1.392 1.424-1.303996.496-2.104.496zm-.016-1.552c.65067 0 1.146665-.213331 1.488-.64s.512-1.055996.512-1.888c0-.821337-.170665-1.447998-.512-1.88s-.831997-.648-1.472-.648-1.133332.215998-1.48.648-.52 1.058663-.52 1.88c0 .832004.170665 1.461331.512 1.888s.831997.64 1.472.64zm5.648 1.424v-11.28h2v11.28zm4.064 0v-11.28h2v11.28zm4.064 0v-7.824h2v7.824zm-.112-11.456h2.208v1.968h-2.208zm7.056 11.584c-.693337 0-1.330664-.085332-1.912-.256s-1.074665-.415998-1.48-.736l.56-1.392c.832004.608003 1.786661.912 2.864.912.458669 0 .807999-.074666 1.048-.224s.36-.362665.36-.64c0-.234668-.082666-.415999-.248-.544s-.461331-.245333-.888-.352l-1.28-.288c-.725337-.160001-1.263998-.421332-1.616-.784s-.528-.831997-.528-1.408c0-.480002.135999-.903998.408-1.272s.650664-.653332 1.136-.856 1.047997-.304 1.688-.304c.554669 0 1.090664.085332 1.608.256s.973331.410665 1.368.72l-.56 1.36c-.810671-.58667-1.621329-.88-2.432-.88-.437336 0-.778665.079999-1.024.24s-.368.383999-.368.672c0 .213334.077333.389333.232.528s.402665.245333.744.32l1.328.304c.778671.170668 1.349332.439998 1.712.808s.544.850664.544 1.448c0 .725337-.29333 1.301331-.88 1.728s-1.381328.64-2.384.64zm4.88-.128v-7.824h2v7.824zm-.112-11.456h2.208v1.968h-2.208zm7.744 11.584c-.800004 0-1.50133-.165332-2.104-.496s-1.069332-.80533-1.4-1.424-.496-1.338663-.496-2.16.165332-1.538664.496-2.152.79733-1.085332 1.4-1.416 1.303996-.496 2.104-.496 1.50133.165332 2.104.496 1.066665.802664 1.392 1.416.488 1.330663.488 2.152-.162665 1.54133-.488 2.16-.78933 1.093332-1.392 1.424-1.303996.496-2.104.496zm-.016-1.552c.65067 0 1.146665-.213331 1.488-.64s.512-1.055996.512-1.888c0-.821337-.170665-1.447998-.512-1.88s-.831997-.648-1.472-.648-1.133332.215998-1.48.648-.52 1.058663-.52 1.88c0 .832004.170665 1.461331.512 1.888s.831997.64 1.472.64zm10.192-6.592c.938671 0 1.637331.266664 2.096.8s.688 1.338661.688 2.416v4.8h-2v-4.688c0-.608003-.114666-1.050665-.344-1.328s-.589331-.416-1.08-.416c-.576003 0-1.037332.181332-1.384.544s-.52.847997-.52 1.456v4.432h-2v-7.824h1.952v1.168c.266668-.437336.623998-.773332 1.072-1.008s.954664-.352 1.52-.352zm-232.048 26.464h-5.328c.0640003.725337.2826648 1.263998.656 1.616s.9066632.528 1.6.528c.8640043 0 1.6533298-.277331 2.368-.832l.576 1.376c-.3626685.298668-.8186639.538666-1.368.72s-1.1013306.272-1.656.272c-1.2800064 0-2.290663-.362663-3.032-1.088s-1.112-1.717327-1.112-2.976c0-.800004.1599984-1.50933.48-2.128s.7706638-1.098665 1.352-1.44 1.2399963-.512 1.976-.512c1.0773387 0 1.9279969.346663 2.552 1.04s.936 1.647994.936 2.864zm-3.44-3.056c-.533336 0-.962665.170665-1.288.512s-.525333.831997-.6 1.472h3.616c-.0213334-.65067-.1813318-1.143998-.48-1.48s-.714664-.504-1.248-.504zm10.56-1.2h1.968l-3.424 7.808h-1.744l-3.392-7.808h2.112l2.208 5.52zm9.792 4.256h-5.328c.0640003.725337.2826648 1.263998.656 1.616s.9066632.528 1.6.528c.8640043 0 1.6533298-.277331 2.368-.832l.576 1.376c-.362668.298668-.818664.538666-1.368.72-.5493361.181334-1.1013306.272-1.656.272-1.2800064 0-2.290663-.362663-3.032-1.088s-1.112-1.717327-1.112-2.976c0-.800004.1599984-1.50933.48-2.128s.7706638-1.098665 1.352-1.44 1.2399963-.512 1.976-.512c1.0773387 0 1.9279969.346663 2.552 1.04.624003.693337.936 1.647994.936 2.864zm-3.44-3.056c-.533336 0-.962665.170665-1.288.512s-.525333.831997-.6 1.472h3.616c-.0213334-.65067-.1813318-1.143998-.48-1.48s-.714664-.504-1.248-.504zm9.616-1.408c.938671 0 1.637331.266664 2.096.8s.688 1.338661.688 2.416v4.8h-2v-4.688c0-.608003-.114666-1.050665-.344-1.328s-.589331-.416-1.08-.416c-.576003 0-1.037332.181332-1.384.544s-.52.847997-.52 1.456v4.432h-2v-7.824h1.952v1.168c.266668-.437336.623998-.773332 1.072-1.008s.954664-.352 1.52-.352zm13.152 6.64c.234668 0 .479999-.016.736-.048l-.096 1.488c-.320002.032-.613332.048-.88.048-1.098672 0-1.909331-.253331-2.432-.76s-.784-1.261328-.784-2.264v-3.408h-1.504v-1.504h1.504v-2.336h2v2.336h2.064v1.504h-2.064v3.376c0 1.045339.485328 1.568 1.456 1.568zm6.448-6.64c.938671 0 1.637331.266664 2.096.8s.688 1.338661.688 2.416v4.8h-2v-4.688c0-.608003-.114666-1.050665-.344-1.328s-.589331-.416-1.08-.416c-.576003 0-1.037332.181332-1.384.544s-.52.847997-.52 1.456v4.432h-2v-11.28h2v4.544c.266668-.416002.621331-.733332 1.064-.952s.936-.328 1.48-.328zm8.384 8.144c-.800004 0-1.50133-.165332-2.104-.496s-1.069332-.80533-1.4-1.424-.496-1.338663-.496-2.16.165332-1.538664.496-2.152.79733-1.085332 1.4-1.416 1.303996-.496 2.104-.496 1.50133.165332 2.104.496 1.066665.802664 1.392 1.416.488 1.330663.488 2.152-.162665 1.54133-.488 2.16-.78933 1.093332-1.392 1.424-1.303996.496-2.104.496zm-.016-1.552c.65067 0 1.146665-.213331 1.488-.64s.512-1.055996.512-1.888c0-.821337-.170665-1.447998-.512-1.88s-.831997-.648-1.472-.648-1.133332.215998-1.48.648-.52 1.058663-.52 1.88c0 .832004.170665 1.461331.512 1.888s.831997.64 1.472.64zm12.832-6.4v7.824h-1.952v-1.2c-.245335.426669-.575998.754666-.992.984s-.885331.344-1.408.344c-1.92001 0-2.88-1.077323-2.88-3.232v-4.72h2v4.736c0 .554669.111999.965332.336 1.232s.575998.4 1.056.4c.554669 0 .999998-.183998 1.336-.552s.504-.855997.504-1.464v-4.352zm9.696 0v7.104c0 1.226673-.338663 2.154664-1.016 2.784s-1.677327.944-3 .944c-.68267 0-1.338664-.087999-1.968-.264s-1.178664-.423998-1.648-.744l.56-1.408c.970672.58667 1.973328.88 3.008.88 1.386674 0 2.08-.68266 2.08-2.048v-1.024c-.234668.437336-.575998.775999-1.024 1.016s-.959997.36-1.536.36c-.68267 0-1.287997-.162665-1.816-.488s-.941332-.78133-1.24-1.368-.448-1.263996-.448-2.032.146665-1.447997.44-2.04.706664-1.050665 1.24-1.376 1.14133-.488 1.824-.488c.576003 0 1.087998.119999 1.536.36s.789332.578664 1.024 1.016v-1.184zm-4.016 6.048c.640003 0 1.138665-.207998 1.496-.624s.536-.986663.536-1.712c0-.736004-.178665-1.311998-.536-1.728s-.855997-.624-1.496-.624c-.629336 0-1.125332.207998-1.488.624s-.544.991996-.544 1.728c0 .71467.181332 1.282665.544 1.704s.858664.632 1.488.632zm10.624-6.24c.938671 0 1.637331.266664 2.096.8s.688 1.338661.688 2.416v4.8h-2v-4.688c0-.608003-.114666-1.050665-.344-1.328s-.589331-.416-1.08-.416c-.576003 0-1.037332.181332-1.384.544s-.52.847997-.52 1.456v4.432h-2v-11.28h2v4.544c.266668-.416002.621331-.733332 1.064-.952s.936-.328 1.48-.328zm13.696 0c.938671 0 1.637331.266664 2.096.8s.688 1.338661.688 2.416v4.8h-2v-4.688c0-.608003-.114666-1.050665-.344-1.328s-.589331-.416-1.08-.416c-.576003 0-1.037332.181332-1.384.544s-.52.847997-.52 1.456v4.432h-2v-7.824h1.952v1.168c.266668-.437336.623998-.773332 1.072-1.008s.954664-.352 1.52-.352zm8.384 8.144c-.800004 0-1.50133-.165332-2.104-.496s-1.069332-.80533-1.4-1.424-.496-1.338663-.496-2.16.165332-1.538664.496-2.152.79733-1.085332 1.4-1.416 1.303996-.496 2.104-.496 1.50133.165332 2.104.496 1.066665.802664 1.392 1.416.488 1.330663.488 2.152-.162665 1.54133-.488 2.16-.78933 1.093332-1.392 1.424-1.303996.496-2.104.496zm-.016-1.552c.65067 0 1.146665-.213331 1.488-.64s.512-1.055996.512-1.888c0-.821337-.170665-1.447998-.512-1.88s-.831997-.648-1.472-.648-1.133332.215998-1.48.648-.52 1.058663-.52 1.88c0 .832004.170665 1.461331.512 1.888s.831997.64 1.472.64zm13.552 1.552c-.800004 0-1.50133-.165332-2.104-.496s-1.069332-.80533-1.4-1.424-.496-1.338663-.496-2.16.165332-1.538664.496-2.152.79733-1.085332 1.4-1.416 1.303996-.496 2.104-.496 1.50133.165332 2.104.496 1.066665.802664 1.392 1.416.488 1.330663.488 2.152-.162665 1.54133-.488 2.16-.78933 1.093332-1.392 1.424-1.303996.496-2.104.496zm-.016-1.552c.65067 0 1.146665-.213331 1.488-.64s.512-1.055996.512-1.888c0-.821337-.170665-1.447998-.512-1.88s-.831997-.648-1.472-.648-1.133332.215998-1.48.648-.52 1.058663-.52 1.88c0 .832004.170665 1.461331.512 1.888s.831997.64 1.472.64zm9.648.048c.234668 0 .479999-.016.736-.048l-.096 1.488c-.320002.032-.613332.048-.88.048-1.098672 0-1.909331-.253331-2.432-.76s-.784-1.261328-.784-2.264v-3.408h-1.504v-1.504h1.504v-2.336h2v2.336h2.064v1.504h-2.064v3.376c0 1.045339.485328 1.568 1.456 1.568zm6.448-6.64c.938671 0 1.637331.266664 2.096.8s.688 1.338661.688 2.416v4.8h-2v-4.688c0-.608003-.114666-1.050665-.344-1.328s-.589331-.416-1.08-.416c-.576003 0-1.037332.181332-1.384.544s-.52.847997-.52 1.456v4.432h-2v-11.28h2v4.544c.266668-.416002.621331-.733332 1.064-.952s.936-.328 1.48-.328zm11.68 4.464h-5.328c.064.725337.282665 1.263998.656 1.616s.906663.528 1.6.528c.864004 0 1.65333-.277331 2.368-.832l.576 1.376c-.362668.298668-.818664.538666-1.368.72s-1.101331.272-1.656.272c-1.280006 0-2.290663-.362663-3.032-1.088s-1.112-1.717327-1.112-2.976c0-.800004.159998-1.50933.48-2.128s.770664-1.098665 1.352-1.44 1.239996-.512 1.976-.512c1.077339 0 1.927997.346663 2.552 1.04s.936 1.647994.936 2.864zm-3.44-3.056c-.533336 0-.962665.170665-1.288.512s-.525333.831997-.6 1.472h3.616c-.021333-.65067-.181332-1.143998-.48-1.48s-.714664-.504-1.248-.504zm10.224.256-1.168.112c-1.322673.138667-1.984.810661-1.984 2.016v4.224h-2v-7.824h1.904v1.376c.405335-.938671 1.24266-1.450666 2.512-1.536l.608-.048zm13.152 6.352h-2.48l-3.36-3.568v3.568h-2v-11.28h2v6.88l3.152-3.408h2.432l-3.52 3.744zm7.6-3.552h-5.328c.064.725337.282665 1.263998.656 1.616s.906663.528 1.6.528c.864004 0 1.65333-.277331 2.368-.832l.576 1.376c-.362668.298668-.818664.538666-1.368.72s-1.101331.272-1.656.272c-1.280006 0-2.290663-.362663-3.032-1.088s-1.112-1.717327-1.112-2.976c0-.800004.159998-1.50933.48-2.128s.770664-1.098665 1.352-1.44 1.239996-.512 1.976-.512c1.077339 0 1.927997.346663 2.552 1.04s.936 1.647994.936 2.864zm-3.44-3.056c-.533336 0-.962665.170665-1.288.512s-.525333.831997-.6 1.472h3.616c-.021333-.65067-.181332-1.143998-.48-1.48s-.714664-.504-1.248-.504zm10.56-1.2h1.968l-4.704 10.688h-2.016l1.424-3.184-3.264-7.504h2.112l2.208 5.52zm11.808-.208c.938671 0 1.637331.266664 2.096.8s.688 1.338661.688 2.416v4.8h-2v-4.688c0-.608003-.114666-1.050665-.344-1.328s-.589331-.416-1.08-.416c-.576003 0-1.037332.181332-1.384.544s-.52.847997-.52 1.456v4.432h-2v-11.28h2v4.544c.266668-.416002.621331-.733332 1.064-.952s.936-.328 1.48-.328zm8.176 0c1.098672 0 1.914664.266664 2.448.8s.8 1.354661.8 2.464v4.752h-1.904v-1.2c-.181334.416002-.466665.741332-.856.976s-.839997.352-1.352.352c-.522669 0-.997331-.106666-1.424-.32s-.762665-.506665-1.008-.88-.368-.789331-.368-1.248c0-.576003.146665-1.029332.44-1.36s.770663-.570666 1.432-.72c.595203-.134401 1.393436-.20832 2.394719-.22176l.741281-.00224v-.368c0-.533336-.114666-.917332-.344-1.152s-.610664-.352-1.144-.352c-.416002 0-.850664.071999-1.304.216s-.898664.343999-1.336.6l-.56-1.376c.437336-.277335.96533-.506666 1.584-.688s1.205331-.272 1.76-.272zm-.464 6.704c.533336 0 .967998-.178665 1.304-.536s.504-.818664.504-1.384v-.336h-.288c-.71467 0-1.269331.032-1.664.096s-.677332.175999-.848.336-.256.378665-.256.656c0 .341335.117332.621332.352.84s.533332.328.896.328zm8.624 1.44c-.693337 0-1.330664-.085332-1.912-.256s-1.074665-.415998-1.48-.736l.56-1.392c.832004.608003 1.786661.912 2.864.912.458669 0 .807999-.074666 1.048-.224s.36-.362665.36-.64c0-.234668-.082666-.415999-.248-.544s-.461331-.245333-.888-.352l-1.28-.288c-.725337-.160001-1.263998-.421332-1.616-.784s-.528-.831997-.528-1.408c0-.480002.135999-.903998.408-1.272s.650664-.653332 1.136-.856 1.047997-.304 1.688-.304c.554669 0 1.090664.085332 1.608.256s.973331.410665 1.368.72l-.56 1.36c-.810671-.58667-1.621329-.88-2.432-.88-.437336 0-.778665.079999-1.024.24s-.368.383999-.368.672c0 .213334.077333.389333.232.528s.402665.245333.744.32l1.328.304c.778671.170668 1.349332.439998 1.712.808s.544.850664.544 1.448c0 .725337-.29333 1.301331-.88 1.728s-1.381328.64-2.384.64zm9.424-8.144c.938671 0 1.637331.266664 2.096.8s.688 1.338661.688 2.416v4.8h-2v-4.688c0-.608003-.114666-1.050665-.344-1.328s-.589331-.416-1.08-.416c-.576003 0-1.037332.181332-1.384.544s-.52.847997-.52 1.456v4.432h-2v-11.28h2v4.544c.266668-.416002.621331-.733332 1.064-.952s.936-.328 1.48-.328zm11.68 4.464h-5.328c.064.725337.282665 1.263998.656 1.616s.906663.528 1.6.528c.864004 0 1.65333-.277331 2.368-.832l.576 1.376c-.362668.298668-.818664.538666-1.368.72s-1.101331.272-1.656.272c-1.280006 0-2.290663-.362663-3.032-1.088s-1.112-1.717327-1.112-2.976c0-.800004.159998-1.50933.48-2.128s.770664-1.098665 1.352-1.44 1.239996-.512 1.976-.512c1.077339 0 1.927997.346663 2.552 1.04s.936 1.647994.936 2.864zm-3.44-3.056c-.533336 0-.962665.170665-1.288.512s-.525333.831997-.6 1.472h3.616c-.021333-.65067-.181332-1.143998-.48-1.48s-.714664-.504-1.248-.504zm7.952 6.736c-.693337 0-1.330664-.085332-1.912-.256s-1.074665-.415998-1.48-.736l.56-1.392c.832004.608003 1.786661.912 2.864.912.458669 0 .807999-.074666 1.048-.224s.36-.362665.36-.64c0-.234668-.082666-.415999-.248-.544s-.461331-.245333-.888-.352l-1.28-.288c-.725337-.160001-1.263998-.421332-1.616-.784s-.528-.831997-.528-1.408c0-.480002.135999-.903998.408-1.272s.650664-.653332 1.136-.856 1.047997-.304 1.688-.304c.554669 0 1.090664.085332 1.608.256s.973331.410665 1.368.72l-.56 1.36c-.810671-.58667-1.621329-.88-2.432-.88-.437336 0-.778665.079999-1.024.24s-.368.383999-.368.672c0 .213334.077333.389333.232.528s.402665.245333.744.32l1.328.304c.778671.170668 1.349332.439998 1.712.808s.544.850664.544 1.448c0 .725337-.29333 1.301331-.88 1.728s-1.381328.64-2.384.64zm-211.456 20.496c.234668 0 .479999-.016.736-.048l-.096 1.488c-.320002.032-.613332.048-.88.048-1.098672 0-1.909331-.253331-2.432-.76s-.784-1.261328-.784-2.264v-3.408h-1.504v-1.504h1.504v-2.336h2v2.336h2.064v1.504h-2.064v3.376c0 1.045339.485328 1.568 1.456 1.568zm5.472 1.504c-.800004 0-1.50133-.165332-2.104-.496s-1.069332-.80533-1.4-1.424-.496-1.338663-.496-2.16.165332-1.538664.496-2.152.79733-1.085332 1.4-1.416 1.303996-.496 2.104-.496 1.50133.165332 2.104.496 1.066665.802664 1.392 1.416.488 1.330663.488 2.152-.162665 1.54133-.488 2.16-.78933 1.093332-1.392 1.424-1.303996.496-2.104.496zm-.016-1.552c.65067 0 1.146665-.213331 1.488-.64s.512-1.055996.512-1.888c0-.821337-.170665-1.447998-.512-1.88s-.831997-.648-1.472-.648-1.133332.215998-1.48.648-.52 1.058663-.52 1.88c0 .832004.170665 1.461331.512 1.888s.831997.64 1.472.64zm17.696-.24v1.664h-7.584v-1.52l3.84-4.128c.448002-.490669.775999-.941331.984-1.352s.312-.818665.312-1.224c0-.512003-.146665-.898665-.44-1.16s-.722664-.392-1.288-.392c-1.013338 0-2.031995.389329-3.056 1.168l-.688-1.504c.448002-.394669 1.02133-.711999 1.72-.952s1.399996-.36 2.104-.36c1.130672 0 2.026663.277331 2.688.832s.992 1.301329.992 2.24c0 .65067-.138665 1.26133-.416 1.832s-.746663 1.207996-1.408 1.912l-2.768 2.944zm1.728-.544h2.24v2.208h-2.24zm12.48 2.352c-.864004 0-1.674663-.117332-2.432-.352s-1.397331-.565331-1.92-.992l.688-1.504c.544003.416002 1.11733.719999 1.72.912s1.255996.288 1.96.288c.778671 0 1.378665-.135999 1.8-.408s.632-.653331.632-1.144c0-.426669-.194665-.751999-.584-.976-.350402-.201601-.910317-.394559-1.679759-.57888l-.264241-.06112c-.938671-.202668-1.70133-.437332-2.288-.704s-1.029332-.607998-1.328-1.024-.448-.943997-.448-1.584c0-.661337.181332-1.253331.544-1.776s.874663-.930665 1.536-1.224 1.423996-.44 2.288-.44c.789337 0 1.54133.119999 2.256.36s1.301331.567998 1.76.984l-.688 1.504c-1.002672-.800004-2.111994-1.2-3.328-1.2-.725337 0-1.298665.146665-1.72.44s-.632.701331-.632 1.224c0 .437336.186665.773332.56 1.008.336002.211201.883677.409439 1.643039.59472l.260961.06128c.949338.213334 1.719997.450665 2.312.712s1.045332.594665 1.36 1 .472.91733.472 1.536c0 .672003-.178665 1.261331-.536 1.768s-.874663.895999-1.552 1.168-1.474662.408-2.392.408zm9.776-.016c-.800004 0-1.50133-.165332-2.104-.496s-1.069332-.80533-1.4-1.424-.496-1.338663-.496-2.16.165332-1.538664.496-2.152.79733-1.085332 1.4-1.416 1.303996-.496 2.104-.496 1.50133.165332 2.104.496 1.066665.802664 1.392 1.416.488 1.330663.488 2.152-.162665 1.54133-.488 2.16-.78933 1.093332-1.392 1.424-1.303996.496-2.104.496zm-.016-1.552c.65067 0 1.146665-.213331 1.488-.64s.512-1.055996.512-1.888c0-.821337-.170665-1.447998-.512-1.88s-.831997-.648-1.472-.648-1.133332.215998-1.48.648-.52 1.058663-.52 1.88c0 .832004.170665 1.461331.512 1.888s.831997.64 1.472.64zm9.984 1.424v-7.824h2v7.824zm-.112-11.456h2.208v1.968h-2.208zm8.176 10.08c.234668 0 .479999-.016.736-.048l-.096 1.488c-.320002.032-.613332.048-.88.048-1.098672 0-1.909331-.253331-2.432-.76s-.784-1.261328-.784-2.264v-3.408h-1.504v-1.504h1.504v-2.336h2v2.336h2.064v1.504h-2.064v3.376c0 1.045339.485328 1.568 1.456 1.568zm10.784-6.64c.938671 0 1.637331.266664 2.096.8s.688 1.338661.688 2.416v4.8h-2v-4.688c0-.608003-.114666-1.050665-.344-1.328s-.589331-.416-1.08-.416c-.576003 0-1.037332.181332-1.384.544s-.52.847997-.52 1.456v4.432h-2v-7.824h1.952v1.168c.266668-.437336.623998-.773332 1.072-1.008s.954664-.352 1.52-.352zm11.68 4.464h-5.328c.064.725337.282665 1.263998.656 1.616s.906663.528 1.6.528c.864004 0 1.65333-.277331 2.368-.832l.576 1.376c-.362668.298668-.818664.538666-1.368.72s-1.101331.272-1.656.272c-1.280006 0-2.290663-.362663-3.032-1.088s-1.112-1.717327-1.112-2.976c0-.800004.159998-1.50933.48-2.128s.770664-1.098665 1.352-1.44 1.239996-.512 1.976-.512c1.077339 0 1.927997.346663 2.552 1.04s.936 1.647994.936 2.864zm-3.44-3.056c-.533336 0-.962665.170665-1.288.512s-.525333.831997-.6 1.472h3.616c-.021333-.65067-.181332-1.143998-.48-1.48s-.714664-.504-1.248-.504zm11.936 3.056h-5.328c.064.725337.282665 1.263998.656 1.616s.906663.528 1.6.528c.864004 0 1.65333-.277331 2.368-.832l.576 1.376c-.362668.298668-.818664.538666-1.368.72s-1.101331.272-1.656.272c-1.280006 0-2.290663-.362663-3.032-1.088s-1.112-1.717327-1.112-2.976c0-.800004.159998-1.50933.48-2.128s.770664-1.098665 1.352-1.44 1.239996-.512 1.976-.512c1.077339 0 1.927997.346663 2.552 1.04s.936 1.647994.936 2.864zm-3.44-3.056c-.533336 0-.962665.170665-1.288.512s-.525333.831997-.6 1.472h3.616c-.021333-.65067-.181332-1.143998-.48-1.48s-.714664-.504-1.248-.504zm12.624-4.672v11.28h-1.984v-1.264c-.234668.437336-.573331.778665-1.016 1.024s-.946664.368-1.512.368c-.672003 0-1.271997-.170665-1.8-.512s-.938665-.823997-1.232-1.448-.44-1.341329-.44-2.152.146665-1.519997.44-2.128.701331-1.077332 1.224-1.408 1.12533-.496 1.808-.496c.565336 0 1.066664.117332 1.504.352s.773332.565331 1.008.992v-4.608zm-3.984 9.856c.640003 0 1.133332-.218664 1.48-.656s.52-1.061329.52-1.872-.173332-1.431998-.52-1.864-.834664-.648-1.464-.648c-.640003 0-1.135998.213331-1.488.64s-.528 1.039996-.528 1.84c0 .810671.175998 1.439998.528 1.888s.842664.672 1.472.672zm8.928 1.552c-.693337 0-1.330664-.085332-1.912-.256s-1.074665-.415998-1.48-.736l.56-1.392c.832004.608003 1.786661.912 2.864.912.458669 0 .807999-.074666 1.048-.224s.36-.362665.36-.64c0-.234668-.082666-.415999-.248-.544s-.461331-.245333-.888-.352l-1.28-.288c-.725337-.160001-1.263998-.421332-1.616-.784s-.528-.831997-.528-1.408c0-.480002.135999-.903998.408-1.272s.650664-.653332 1.136-.856 1.047997-.304 1.688-.304c.554669 0 1.090664.085332 1.608.256s.973331.410665 1.368.72l-.56 1.36c-.810671-.58667-1.621329-.88-2.432-.88-.437336 0-.778665.079999-1.024.24s-.368.383999-.368.672c0 .213334.077333.389333.232.528s.402665.245333.744.32l1.328.304c.778671.170668 1.349332.439998 1.712.808s.544.850664.544 1.448c0 .725337-.29333 1.301331-.88 1.728s-1.381328.64-2.384.64zm13.216-1.504c.234668 0 .479999-.016.736-.048l-.096 1.488c-.320002.032-.613332.048-.88.048-1.098672 0-1.909331-.253331-2.432-.76s-.784-1.261328-.784-2.264v-3.408h-1.504v-1.504h1.504v-2.336h2v2.336h2.064v1.504h-2.064v3.376c0 1.045339.485328 1.568 1.456 1.568zm5.472 1.504c-.800004 0-1.50133-.165332-2.104-.496s-1.069332-.80533-1.4-1.424-.496-1.338663-.496-2.16.165332-1.538664.496-2.152.79733-1.085332 1.4-1.416 1.303996-.496 2.104-.496 1.50133.165332 2.104.496 1.066665.802664 1.392 1.416.488 1.330663.488 2.152-.162665 1.54133-.488 2.16-.78933 1.093332-1.392 1.424-1.303996.496-2.104.496zm-.016-1.552c.65067 0 1.146665-.213331 1.488-.64s.512-1.055996.512-1.888c0-.821337-.170665-1.447998-.512-1.88s-.831997-.648-1.472-.648-1.133332.215998-1.48.648-.52 1.058663-.52 1.88c0 .832004.170665 1.461331.512 1.888s.831997.64 1.472.64zm19.28-6.592c.885338 0 1.546664.263997 1.984.792s.656 1.335995.656 2.424v4.8h-2v-4.72c0-.597336-.101332-1.031999-.304-1.304s-.527998-.408-.976-.408c-.533336 0-.949332.181332-1.248.544s-.448.86933-.448 1.52v4.368h-2v-4.72c0-.597336-.098666-1.031999-.296-1.304s-.525331-.408-.984-.408c-.522669 0-.933332.181332-1.232.544s-.448.86933-.448 1.52v4.368h-2v-7.824h1.952v1.104c.234668-.426669.559998-.749332.976-.968s.890664-.328 1.424-.328c1.184006 0 1.967998.490662 2.352 1.472.245335-.458669.597331-.818665 1.056-1.08s.970664-.392 1.536-.392zm8.24 8.144c-.800004 0-1.50133-.165332-2.104-.496s-1.069332-.80533-1.4-1.424-.496-1.338663-.496-2.16.165332-1.538664.496-2.152.79733-1.085332 1.4-1.416 1.303996-.496 2.104-.496 1.50133.165332 2.104.496 1.066665.802664 1.392 1.416.488 1.330663.488 2.152-.162665 1.54133-.488 2.16-.78933 1.093332-1.392 1.424-1.303996.496-2.104.496zm-.016-1.552c.65067 0 1.146665-.213331 1.488-.64s.512-1.055996.512-1.888c0-.821337-.170665-1.447998-.512-1.88s-.831997-.648-1.472-.648-1.133332.215998-1.48.648-.52 1.058663-.52 1.88c0 .832004.170665 1.461331.512 1.888s.831997.64 1.472.64zm11.136-6.384h1.968l-3.424 7.808h-1.744l-3.392-7.808h2.112l2.208 5.52zm9.792 4.256h-5.328c.064.725337.282665 1.263998.656 1.616s.906663.528 1.6.528c.864004 0 1.65333-.277331 2.368-.832l.576 1.376c-.362668.298668-.818664.538666-1.368.72s-1.101331.272-1.656.272c-1.280006 0-2.290663-.362663-3.032-1.088s-1.112-1.717327-1.112-2.976c0-.800004.159998-1.50933.48-2.128s.770664-1.098665 1.352-1.44 1.239996-.512 1.976-.512c1.077339 0 1.927997.346663 2.552 1.04s.936 1.647994.936 2.864zm-3.44-3.056c-.533336 0-.962665.170665-1.288.512s-.525333.831997-.6 1.472h3.616c-.021333-.65067-.181332-1.143998-.48-1.48s-.714664-.504-1.248-.504zm13.408 5.232c.234668 0 .479999-.016.736-.048l-.096 1.488c-.320002.032-.613332.048-.88.048-1.098672 0-1.909331-.253331-2.432-.76s-.784-1.261328-.784-2.264v-3.408h-1.504v-1.504h1.504v-2.336h2v2.336h2.064v1.504h-2.064v3.376c0 1.045339.485328 1.568 1.456 1.568zm5.472 1.504c-.800004 0-1.50133-.165332-2.104-.496s-1.069332-.80533-1.4-1.424-.496-1.338663-.496-2.16.165332-1.538664.496-2.152.79733-1.085332 1.4-1.416 1.303996-.496 2.104-.496 1.50133.165332 2.104.496 1.066665.802664 1.392 1.416.488 1.330663.488 2.152-.162665 1.54133-.488 2.16-.78933 1.093332-1.392 1.424-1.303996.496-2.104.496zm-.016-1.552c.65067 0 1.146665-.213331 1.488-.64s.512-1.055996.512-1.888c0-.821337-.170665-1.447998-.512-1.88s-.831997-.648-1.472-.648-1.133332.215998-1.48.648-.52 1.058663-.52 1.88c0 .832004.170665 1.461331.512 1.888s.831997.64 1.472.64zm15.488-4.368c.661337.170668 1.170665.493331 1.528.968s.536 1.063996.536 1.768c0 .981338-.359996 1.75733-1.08 2.328s-1.69866.856-2.936.856c-.757337 0-1.48533-.117332-2.184-.352s-1.277331-.554665-1.736-.96l.688-1.504c.981338.778671 2.031994 1.168 3.152 1.168.71467 0 1.247998-.141332 1.6-.424s.528-.711997.528-1.288c0-.565336-.178665-.983999-.536-1.256s-.90933-.408-1.656-.408h-1.488v-1.632h1.216c1.461341 0 2.192-.549328 2.192-1.648 0-.512003-.157332-.906665-.472-1.184s-.759997-.416-1.336-.416c-.501336 0-1.010664.098666-1.528.296s-1.021331.487998-1.512.872l-.688-1.504c.448002-.405335 1.02133-.725332 1.72-.96s1.410663-.352 2.136-.352c1.109339 0 1.994663.269331 2.656.808s.992 1.266662.992 2.184c-.010667.629336-.173332 1.175998-.488 1.64s-.749331.797332-1.304 1zm3.92 3.584h2.24v2.208h-2.24z" fill="#ffc107"/><path d="m384.257407 673.76c1.666675 0 2.939996.613327 3.82 1.84.880005 1.226673 1.32 3.006655 1.32 5.34 0 2.346678-.439995 4.139994-1.32 5.38-.880004 1.240006-2.153325 1.86-3.82 1.86s-2.939995-.616661-3.82-1.85c-.880004-1.23334-1.32-3.029988-1.32-5.39 0-2.333345.439996-4.113327 1.32-5.34.880005-1.226673 2.153325-1.84 3.82-1.84zm0 2.02c-.906671 0-1.566664.409996-1.98 1.23-.413335.820004-.62 2.129991-.62 3.93 0 1.813342.206665 3.136662.62 3.97.413336.833338 1.073329 1.25 1.98 1.25.906672 0 1.566665-.416662 1.98-1.25.413336-.833338.62-2.156658.62-3.97 0-1.800009-.206664-3.109996-.62-3.93-.413335-.820004-1.073328-1.23-1.98-1.23z" fill="#fff"/><path d="m368.3 495v-11.98h-4.6v-2.12h11.78v2.12h-4.6v11.98zm12.92-10.02c1.37334 0 2.39333.33333 3.06 1s1 1.693326 1 3.08v5.94h-2.38v-1.5c-.226668.520003-.583331.926665-1.07 1.22s-1.049997.44-1.69.44c-.653337 0-1.246664-.133332-1.78-.4s-.953332-.633331-1.26-1.1-.46-.986664-.46-1.56c0-.720004.183331-1.286665.55-1.7s.963329-.713332 1.79-.9c.757782-.171112 1.778837-.263796 3.063193-.278056l.856807-.001944v-.46c0-.66667-.143332-1.146665-.43-1.44s-.76333-.44-1.43-.44c-.520003 0-1.06333.089999-1.63.27s-1.123331.429998-1.67.75l-.7-1.72c.546669-.346668 1.206663-.633332 1.98-.86s1.506663-.34 2.2-.34zm-.58 8.38c.66667 0 1.209998-.223331 1.63-.67s.63-1.02333.63-1.73v-.42h-.36c-.893338 0-1.586664.04-2.08.12s-.846666.219999-1.06.42-.32.473332-.32.82c0 .426669.146665.776665.44 1.05s.666664.41 1.12.41z" fill="#4c7ef3"/><path d="m390.32 480.9v5.74c.293335-.533336.713331-.943332 1.26-1.23s1.166663-.43 1.86-.43c.853338 0 1.606663.206665 2.26.62s1.163331.999996 1.53 1.76c.366668.760004.55 1.646662.55 2.66s-.183332 1.909996-.55 2.69c-.366669.780004-.879997 1.383331-1.54 1.81s-1.409996.64-2.25.64c-.70667 0-1.336664-.153332-1.89-.46s-.976665-.733331-1.27-1.28v1.58h-2.46v-14.1zm2.46 6.02c-.800004 0-1.416665.269997-1.85.81-.433336.540003-.65 1.316662-.65 2.33s.216664 1.793331.65 2.34c.433335.546669 1.049996.82 1.85.82.786671 0 1.399998-.279997 1.84-.84s.66-1.346662.66-2.36c0-1.000005-.216665-1.766664-.65-2.3-.433336-.533336-1.049996-.8-1.85-.8z" fill="#4c7ef3"/><path d="m375.28 349.72c.813337.226668 1.443331.639997 1.89 1.24s.67 1.333329.67 2.2c0 1.200006-.429996 2.139997-1.29 2.82s-2.043326 1.02-3.55 1.02h-6.4v-14.1h6.2c1.466674 0 2.616663.32333 3.45.97s1.25 1.549994 1.25 2.71c0 .74667-.196665 1.393331-.59 1.94s-.936663.946665-1.63 1.2zm-6.16-.88h3.26c1.773342 0 2.66-.659993 2.66-1.98 0-.66667-.219998-1.159998-.66-1.48s-1.106662-.48-2-.48h-3.26zm3.6 6.16c.933338 0 1.613331-.166665 2.04-.5s.64-.85333.64-1.56-.216665-1.233332-.65-1.58-1.109995-.52-2.03-.52h-3.6v4.16zm11.52-8.02c1.37334 0 2.39333.33333 3.06 1s1 1.693326 1 3.08v5.94h-2.38v-1.5c-.226668.520003-.583331.926665-1.07 1.22s-1.049997.44-1.69.44c-.653337 0-1.246664-.133332-1.78-.4s-.953332-.633331-1.26-1.1-.46-.986664-.46-1.56c0-.720004.183331-1.286665.55-1.7.366668-.413335.963329-.713332 1.79-.9.757782-.171112 1.778837-.263796 3.063193-.278056l.856807-.001944v-.46c0-.66667-.143332-1.146665-.43-1.44s-.76333-.44-1.43-.44c-.520003 0-1.063331.089999-1.63.27s-1.123331.429998-1.67.75l-.7-1.72c.546669-.346668 1.206663-.633332 1.98-.86s1.506663-.34 2.2-.34zm-.58 8.38c.66667 0 1.209998-.223331 1.63-.67s.63-1.02333.63-1.73v-.42h-.36c-.893338 0-1.586664.04-2.08.12s-.846666.219999-1.06.42-.32.473332-.32.82c0 .426669.146665.776665.44 1.05s.666664.41 1.12.41zm12.18-.08c.293335 0 .599998-.02.92-.06l-.12 1.86c-.400002.04-.766665.06-1.1.06-1.37334 0-2.386663-.316664-3.04-.95s-.98-1.57666-.98-2.83v-4.26h-1.88v-1.88h1.88v-2.92h2.5v2.92h2.58v1.88h-2.58v4.22c0 1.306673.606661 1.96 1.82 1.96z" fill="#fa4359"/><path d="m373.05 219.18c-1.386674 0-2.596662-.296664-3.63-.89s-1.826664-1.436661-2.38-2.53-.83-2.366659-.83-3.82.276664-2.723328.83-3.81 1.346662-1.926664 2.38-2.52 2.243326-.89 3.63-.89c.946671 0 1.839996.146665 2.68.44s1.546664.706664 2.12 1.24l-.86 1.88c-.640003-.506669-1.27333-.876666-1.9-1.11s-1.29333-.35-2-.35c-1.360007 0-2.409996.439996-3.15 1.32s-1.11 2.146658-1.11 3.8c0 1.666675.369996 2.939996 1.11 3.82s1.789993 1.32 3.15 1.32c.70667 0 1.37333-.116665 2-.35.62667-.233334 1.259997-.603331 1.9-1.11l.86 1.88c-.573336.533336-1.279996.946665-2.12 1.24s-1.733329.44-2.68.44zm11.14-10.2c1.37334 0 2.39333.33333 3.06 1s1 1.693326 1 3.08v5.94h-2.38v-1.5c-.226668.520003-.583331.926665-1.07 1.22s-1.049997.44-1.69.44c-.653337 0-1.246664-.133332-1.78-.4s-.953332-.633331-1.26-1.1-.46-.986664-.46-1.56c0-.720004.183332-1.286665.55-1.7.366669-.413335.963329-.713332 1.79-.9.757782-.171112 1.778837-.263796 3.063193-.278056l.856807-.001944v-.46c0-.66667-.143332-1.146665-.43-1.44s-.76333-.44-1.43-.44c-.520003 0-1.063331.089999-1.63.27s-1.123331.429998-1.67.75l-.7-1.72c.546669-.346668 1.206663-.633332 1.98-.86s1.506663-.34 2.2-.34zm-.58 8.38c.66667 0 1.209998-.223331 1.63-.67s.63-1.02333.63-1.73v-.42h-.36c-.893338 0-1.586664.04-2.08.12s-.846666.219999-1.06.42-.32.473332-.32.82c0 .426669.146665.776665.44 1.05s.666664.41 1.12.41zm12.18-.08c.293335 0 .599998-.02.92-.06l-.12 1.86c-.400002.04-.766665.06-1.1.06-1.37334 0-2.386663-.316663-3.04-.95-.653337-.633336-.98-1.57666-.98-2.83v-4.26h-1.88v-1.88h1.88v-2.92h2.5v2.92h2.58v1.88h-2.58v4.22c0 1.306673.606661 1.96 1.82 1.96z" fill="#ffc107"/><path d="m480.177407 685.92h3.06v2.08h-8.7v-2.08h3.06v-9.08l-2.42 1.46-1.02-1.88 4.18-2.52h1.84z" fill="#fff"/><path d="m567.69 752.76c.826671.226668 1.463331.639997 1.91 1.24s.67 1.333329.67 2.2c0 1.240006-.466662 2.209997-1.4 2.91s-2.226658 1.05-3.88 1.05-2.946662-.349997-3.88-1.05-1.4-1.669994-1.4-2.91c0-.866671.226664-1.60333.68-2.21s1.093329-1.016666 1.92-1.23c-.70667-.266668-1.259998-.683331-1.66-1.25s-.6-1.229996-.6-1.99c0-1.173339.439996-2.099997 1.32-2.78s2.086659-1.02 3.62-1.02 2.739996.339997 3.62 1.02 1.32 1.606661 1.32 2.78c0 .773337-.199998 1.446664-.6 2.02s-.946663.979999-1.64 1.22zm-2.7-5.02c-1.666675 0-2.5.679993-2.5 2.04 0 .680003.209998 1.196665.63 1.55s1.043329.53 1.87.53 1.449998-.176665 1.87-.53.63-.869997.63-1.55c0-1.360007-.833325-2.04-2.5-2.04zm0 10.4c1.906676 0 2.86-.713326 2.86-2.14s-.953324-2.14-2.86-2.14-2.86.713326-2.86 2.14.953324 2.14 2.86 2.14zm16.94-.22v2.08h-9.48v-1.9l4.8-5.16c.560003-.613336.969999-1.176664 1.23-1.69s.39-1.023331.39-1.53c0-.640003-.183332-1.123332-.55-1.45-.366669-.326668-.90333-.49-1.61-.49-1.266673 0-2.539994.486662-3.82 1.46l-.86-1.88c.560003-.493336 1.276662-.889999 2.15-1.19.873338-.300002 1.749996-.45 2.63-.45 1.41334 0 2.533329.346663 3.36 1.04s1.24 1.626661 1.24 2.8c0 .813337-.173332 1.576663-.52 2.29s-.933329 1.509996-1.76 2.39l-3.46 3.68z" fill="#fa4359"/><path d="m473.18 752.76c.826671.213334 1.463331.616664 1.91 1.21s.67 1.329996.67 2.21c0 1.226673-.449996 2.196663-1.35 2.91s-2.123326 1.07-3.67 1.07c-.946671 0-1.856662-.146665-2.73-.44s-1.596664-.693331-2.17-1.2l.86-1.88c1.226673.973338 2.539993 1.46 3.94 1.46.893338 0 1.559998-.176665 2-.53s.66-.889996.66-1.61c0-.70667-.223331-1.229998-.67-1.57s-1.136662-.51-2.07-.51h-1.86v-2.04h1.52c1.826676 0 2.74-.68666 2.74-2.06 0-.640003-.196665-1.133332-.59-1.48s-.949996-.52-1.67-.52c-.62667 0-1.26333.123332-1.91.37s-1.276664.609998-1.89 1.09l-.86-1.88c.560003-.506669 1.276662-.906665 2.15-1.2s1.763329-.44 2.67-.44c1.386674 0 2.493329.336663 3.32 1.01s1.24 1.583328 1.24 2.73c-.013333.786671-.216665 1.469997-.61 2.05s-.936663.996665-1.63 1.25z" fill="#4c7ef3"/><path d="m483 745.76c1.666675 0 2.939996.613327 3.82 1.84s1.32 3.006655 1.32 5.34c0 2.346678-.439996 4.139994-1.32 5.38s-2.153325 1.86-3.82 1.86-2.939996-.616661-3.82-1.85-1.32-3.029988-1.32-5.39c0-2.333345.439996-4.113327 1.32-5.34s2.153325-1.84 3.82-1.84zm0 2.02c-.906671 0-1.566665.409996-1.98 1.23s-.62 2.129991-.62 3.93c0 1.813342.206665 3.136663.62 3.97.413335.833338 1.073329 1.25 1.98 1.25s1.566665-.416662 1.98-1.25c.413335-.833337.62-2.156658.62-3.97 0-1.800009-.206665-3.109996-.62-3.93s-1.073329-1.23-1.98-1.23z" fill="#4c7ef3"/><path d="m654.92 757.92h3.06v2.08h-8.7v-2.08h3.06v-9.08l-2.42 1.46-1.02-1.88 4.18-2.52h1.84zm12 0h3.06v2.08h-8.7v-2.08h3.06v-9.08l-2.42 1.46-1.02-1.88 4.18-2.52h1.84z" fill="#ffc107"/><path d="m677.64 745.72c.840004 0 1.659996.143332 2.46.43s1.49333.689997 2.08 1.21l-.86 1.88c-1.240006-.973338-2.433328-1.46-3.58-1.46-1.026672 0-1.826664.436662-2.4 1.31s-.873333 2.136658-.9 3.79c.306668-.600003.766664-1.069998 1.38-1.41s1.299996-.51 2.06-.51c.826671 0 1.566663.189998 2.22.57s1.163331.91333 1.53 1.6c.366668.68667.55 1.469996.55 2.35 0 .906671-.199998 1.716663-.6 2.43s-.959996 1.269998-1.68 1.67-1.533329.6-2.44.6c-1.786676 0-3.163329-.603327-4.13-1.81-.966672-1.206673-1.45-2.929989-1.45-5.17 0-1.546674.229998-2.883328.69-4.01s1.123329-1.986664 1.99-2.58 1.893327-.89 3.08-.89zm-.32 7.28c-.733337 0-1.329998.236664-1.79.71s-.69 1.089996-.69 1.85c0 .773337.229998 1.396664.69 1.87s1.06333.71 1.81.71c.733337 0 1.316665-.233331 1.75-.7.433336-.466669.65-1.093329.65-1.88 0-.773337-.219998-1.393331-.66-1.86s-1.026663-.7-1.76-.7z" fill="#ffc107"/><path d="m377.68 546.76c.826671.213334 1.463331.616664 1.91 1.21s.67 1.329996.67 2.21c0 1.226673-.449996 2.196663-1.35 2.91s-2.123326 1.07-3.67 1.07c-.946671 0-1.856662-.146665-2.73-.44s-1.596664-.693331-2.17-1.2l.86-1.88c1.226673.973338 2.539993 1.46 3.94 1.46.893338 0 1.559998-.176665 2-.53s.66-.889996.66-1.61c0-.70667-.223331-1.229998-.67-1.57s-1.136662-.51-2.07-.51h-1.86v-2.04h1.52c1.826676 0 2.74-.68666 2.74-2.06 0-.640003-.196665-1.133332-.59-1.48s-.949996-.52-1.67-.52c-.62667 0-1.26333.123332-1.91.37s-1.276664.609998-1.89 1.09l-.86-1.88c.560003-.506669 1.276662-.906665 2.15-1.2s1.763329-.44 2.67-.44c1.386674 0 2.493329.336663 3.32 1.01s1.24 1.583328 1.24 2.73c-.013333.786671-.216665 1.469997-.61 2.05s-.936663.996665-1.63 1.25z" fill="#4c7ef3"/><path d="m387.5 539.76c1.666675 0 2.939996.613327 3.82 1.84s1.32 3.006655 1.32 5.34c0 2.346678-.439996 4.139994-1.32 5.38s-2.153325 1.86-3.82 1.86-2.939996-.616661-3.82-1.85-1.32-3.029988-1.32-5.39c0-2.333345.439996-4.113327 1.32-5.34s2.153325-1.84 3.82-1.84zm0 2.02c-.906671 0-1.566665.409996-1.98 1.23s-.62 2.129991-.62 3.93c0 1.813342.206665 3.136663.62 3.97.413335.833338 1.073329 1.25 1.98 1.25s1.566665-.416662 1.98-1.25c.413335-.833337.62-2.156658.62-3.97 0-1.800009-.206665-3.109996-.62-3.93s-1.073329-1.23-1.98-1.23z" fill="#4c7ef3"/><path d="m378.19 408.76c.826671.226668 1.463331.639997 1.91 1.24s.67 1.333329.67 2.2c0 1.240006-.466662 2.209996-1.4 2.91-.933338.700003-2.226658 1.05-3.88 1.05s-2.946662-.349997-3.88-1.05c-.933338-.700004-1.4-1.669994-1.4-2.91 0-.866671.226664-1.60333.68-2.21s1.093329-1.016666 1.92-1.23c-.70667-.266668-1.259998-.683331-1.66-1.25s-.6-1.229996-.6-1.99c0-1.173339.439996-2.099997 1.32-2.78s2.086659-1.02 3.62-1.02 2.739996.339997 3.62 1.02 1.32 1.606661 1.32 2.78c0 .773337-.199998 1.446664-.6 2.02s-.946663.979999-1.64 1.22zm-2.7-5.02c-1.666675 0-2.5.679993-2.5 2.04 0 .680003.209998 1.196665.63 1.55s1.043329.53 1.87.53 1.449998-.176665 1.87-.53.63-.869997.63-1.55c0-1.360007-.833325-2.04-2.5-2.04zm0 10.4c1.906676 0 2.86-.713326 2.86-2.14s-.953324-2.14-2.86-2.14-2.86.713326-2.86 2.14.953324 2.14 2.86 2.14zm16.94-.22v2.08h-9.48v-1.9l4.8-5.16c.560003-.613336.969999-1.176664 1.23-1.69s.39-1.023331.39-1.53c0-.640003-.183332-1.123332-.55-1.45-.366669-.326668-.90333-.49-1.61-.49-1.266673 0-2.539994.486662-3.82 1.46l-.86-1.88c.560003-.493336 1.276662-.889998 2.15-1.19.873338-.300001 1.749996-.45 2.63-.45 1.41334 0 2.533329.346663 3.36 1.04s1.24 1.626661 1.24 2.8c0 .813337-.173332 1.576663-.52 2.29s-.933329 1.509996-1.76 2.39l-3.46 3.68z" fill="#fa4359"/><path d="m371.42 275.92h3.06v2.08h-8.7v-2.08h3.06v-9.08l-2.42 1.46-1.02-1.88 4.18-2.52h1.84zm12 0h3.06v2.08h-8.7v-2.08h3.06v-9.08l-2.42 1.46-1.02-1.88 4.18-2.52h1.84z" fill="#ffc107"/><path d="m394.14 263.72c.840004 0 1.659996.143332 2.46.43s1.49333.689997 2.08 1.21l-.86 1.88c-1.240006-.973338-2.433328-1.46-3.58-1.46-1.026672 0-1.826664.436662-2.4 1.31s-.873333 2.136658-.9 3.79c.306668-.600003.766664-1.069998 1.38-1.41s1.299996-.51 2.06-.51c.826671 0 1.566663.189998 2.22.57s1.163331.91333 1.53 1.6c.366668.68667.55 1.469996.55 2.35 0 .906671-.199998 1.716663-.6 2.43s-.959996 1.269998-1.68 1.67-1.533329.6-2.44.6c-1.786676 0-3.163329-.603327-4.13-1.81-.966672-1.206673-1.45-2.929989-1.45-5.17 0-1.546674.229998-2.883328.69-4.01s1.123329-1.986664 1.99-2.58 1.893327-.89 3.08-.89zm-.32 7.28c-.733337 0-1.329998.236664-1.79.71s-.69 1.089996-.69 1.85c0 .773337.229998 1.396664.69 1.87s1.06333.71 1.81.71c.733337 0 1.316664-.233331 1.75-.7.433335-.466669.65-1.093329.65-1.88 0-.773337-.219998-1.393331-.66-1.86s-1.026663-.7-1.76-.7z" fill="#ffc107"/><path d="m901.257407 793h-566v-153h566zm-564-151v149h562v-149z" fill="#757f97"/><path d="m427 578h-90v-121h90zm-2-119h-86v117h86z" fill="#757f97"/><path d="m427 440h-90v-121h90zm-2-119h-86v117h86z" fill="#757f97"/><path d="m427 302h-90v-121h90zm-2-119h-86v117h86z" fill="#757f97"/><path d="m576.187407 685.92v2.08h-9.48v-1.9l4.8-5.16c.560003-.613336.969999-1.176664 1.23-1.69.260002-.513336.39-1.023331.39-1.53 0-.640003-.183331-1.123332-.55-1.45-.366668-.326668-.903329-.49-1.61-.49-1.266673 0-2.539993.486662-3.82 1.46l-.86-1.88c.560003-.493336 1.276663-.889999 2.15-1.19.873338-.300002 1.749996-.45 2.63-.45 1.413341 0 2.53333.346663 3.36 1.04.826671.693337 1.24 1.626661 1.24 2.8 0 .813337-.173331 1.576663-.52 2.29-.346668.713337-.933329 1.509996-1.76 2.39l-3.46 3.68z" fill="#fff"/><path d="m667.437407 680.76c.826671.213334 1.463332.616664 1.91 1.21.446669.593336.67 1.329996.67 2.21 0 1.226673-.449995 2.196663-1.35 2.91-.900004.713337-2.123325 1.07-3.67 1.07-.946671 0-1.856662-.146665-2.73-.44-.873337-.293335-1.596663-.693331-2.17-1.2l.86-1.88c1.226673.973338 2.539993 1.46 3.94 1.46.893338 0 1.559998-.176665 2-.53.440003-.353335.66-.889996.66-1.61 0-.70667-.223331-1.229998-.67-1.57-.446668-.340002-1.136662-.51-2.07-.51h-1.86v-2.04h1.52c1.826676 0 2.74-.68666 2.74-2.06 0-.640003-.196664-1.133332-.59-1.48-.393335-.346668-.949996-.52-1.67-.52-.626669 0-1.26333.123332-1.91.37-.646669.246668-1.276663.609998-1.89 1.09l-.86-1.88c.560003-.506669 1.276663-.906665 2.15-1.2.873338-.293335 1.763329-.44 2.67-.44 1.386674 0 2.49333.336663 3.32 1.01.826671.673337 1.24 1.583328 1.24 2.73-.013333.786671-.216664 1.469997-.61 2.05-.393335.580003-.936663.996665-1.63 1.25z" fill="#fff"/><path d="m761.737407 673.9v9.34h1.98v2h-1.98v2.76h-2.52v-2.76h-6.12v-1.9l6.56-9.44zm-2.52 3.96-3.72 5.38h3.72z" fill="#fff"/><path d="m855.017407 678.98c.880005 0 1.656664.189998 2.33.57.673337.380002 1.193332.909997 1.56 1.59.366669.680003.55 1.459996.55 2.34 0 .933338-.213331 1.75333-.64 2.46-.426668.70667-1.029996 1.253331-1.81 1.64-.780003.386669-1.696661.58-2.75.58-.880004 0-1.749995-.149998-2.61-.45-.860004-.300001-1.569997-.696664-2.13-1.19l.86-1.88c1.280007.973338 2.58666 1.46 3.92 1.46.880005 0 1.553331-.219998 2.02-.66s.7-1.066663.7-1.88c0-.786671-.236664-1.409998-.71-1.87-.473335-.460002-1.116662-.69-1.93-.69-.546669 0-1.06333.103332-1.55.31-.486669.206668-.923331.503331-1.31.89h-1.54v-8.3h8.84v2h-6.32v3.8c.680004-.480002 1.52-.72 2.52-.72z" fill="#fff"/><g fill="#757f97"><path d="m335.758296 715.499113-.001776 1.999999 565.242592.501775.001775-1.999999z"/><path d="m337.005719 516.494313-.011406 1.999968 89.673243.511406.011406-1.999968z"/><path d="m337.005719 378.494313-.011406 1.999968 89.673243.511406.011406-1.999968z"/><path d="m337.005719 240.494313-.011406 1.999968 89.673243.511406.011406-1.999968z"/><path d="m431.757407 640.5h-2v152h2z"/><path d="m525.257407 640.5h-2v152h2z"/><path d="m619.257407 640.5h-2v152h2z"/><path d="m713.257407 640.5h-2v152h2z"/><path d="m807.257407 640.5h-2v152h2z"/></g><circle cx="478.5" cy="618.5" fill="#4c7ef3" r="5.5" transform="matrix(0 1 -1 0 1097 140)"/><circle cx="571.5" cy="618.5" fill="#fa4359" r="5.5" transform="matrix(0 1 -1 0 1190 47)"/><path d="m412 487h6c.552285 0 1-.447715 1-1s-.447715-1-1-1h-6c-.552285 0-1 .447715-1 1s.447715 1 1 1zm12 0h6c.552285 0 1-.447715 1-1s-.447715-1-1-1h-6c-.552285 0-1 .447715-1 1s.447715 1 1 1zm12 0h6c.552285 0 1-.447715 1-1s-.447715-1-1-1h-6c-.552285 0-1 .447715-1 1s.447715 1 1 1zm12 0h6c.552285 0 1-.447715 1-1s-.447715-1-1-1h-6c-.552285 0-1 .447715-1 1s.447715 1 1 1zm12 0h6c.552285 0 1-.447715 1-1s-.447715-1-1-1h-6c-.552285 0-1 .447715-1 1s.447715 1 1 1zm12 0h6c.552285 0 1-.447715 1-1s-.447715-1-1-1h-6c-.552285 0-1 .447715-1 1s.447715 1 1 1zm5.242593 4.757407v6c0 .552285.447715 1 1 1 .552284 0 1-.447715 1-1v-6c0-.552284-.447716-1-1-1-.552285 0-1 .447716-1 1zm0 12v6c0 .552285.447715 1 1 1 .552284 0 1-.447715 1-1v-6c0-.552284-.447716-1-1-1-.552285 0-1 .447716-1 1zm0 12v6c0 .552285.447715 1 1 1 .552284 0 1-.447715 1-1v-6c0-.552284-.447716-1-1-1-.552285 0-1 .447716-1 1zm0 12v6c0 .552285.447715 1 1 1 .552284 0 1-.447715 1-1v-6c0-.552284-.447716-1-1-1-.552285 0-1 .447716-1 1zm0 12v6c0 .552285.447715 1 1 1 .552284 0 1-.447715 1-1v-6c0-.552284-.447716-1-1-1-.552285 0-1 .447716-1 1zm0 12v6c0 .552285.447715 1 1 1 .552284 0 1-.447715 1-1v-6c0-.552284-.447716-1-1-1-.552285 0-1 .447716-1 1zm0 12v6c0 .552285.447715 1 1 1 .552284 0 1-.447715 1-1v-6c0-.552284-.447716-1-1-1-.552285 0-1 .447716-1 1zm0 12v6c0 .552285.447715 1 1 1 .552284 0 1-.447715 1-1v-6c0-.552284-.447716-1-1-1-.552285 0-1 .447716-1 1zm0 12v6c0 .552285.447715 1 1 1 .552284 0 1-.447715 1-1v-6c0-.552284-.447716-1-1-1-.552285 0-1 .447716-1 1zm0 12v6c0 .552285.447715 1 1 1 .552284 0 1-.447715 1-1v-6c0-.552284-.447716-1-1-1-.552285 0-1 .447716-1 1zm0 12v.570718c0 .552285.447715 1 1 1 .552284 0 1-.447715 1-1v-.570718c0-.552284-.447716-1-1-1-.552285 0-1 .447716-1 1z" fill="#4c7ef3"/><path d="m412 349h6c.552285 0 1-.447715 1-1s-.447715-1-1-1h-6c-.552285 0-1 .447715-1 1s.447715 1 1 1zm12 0h6c.552285 0 1-.447715 1-1s-.447715-1-1-1h-6c-.552285 0-1 .447715-1 1s.447715 1 1 1zm12 0h6c.552285 0 1-.447715 1-1s-.447715-1-1-1h-6c-.552285 0-1 .447715-1 1s.447715 1 1 1zm12 0h6c.552285 0 1-.447715 1-1s-.447715-1-1-1h-6c-.552285 0-1 .447715-1 1s.447715 1 1 1zm12 0h6c.552285 0 1-.447715 1-1s-.447715-1-1-1h-6c-.552285 0-1 .447715-1 1s.447715 1 1 1zm12 0h6c.552285 0 1-.447715 1-1s-.447715-1-1-1h-6c-.552285 0-1 .447715-1 1s.447715 1 1 1zm12 0h6c.552285 0 1-.447715 1-1s-.447715-1-1-1h-6c-.552285 0-1 .447715-1 1s.447715 1 1 1zm12 0h6c.552285 0 1-.447715 1-1s-.447715-1-1-1h-6c-.552285 0-1 .447715-1 1s.447715 1 1 1zm12 0h.242593v-1h-1v5.757407c0 .552285.447715 1 1 1 .552284 0 1-.447715 1-1v-6.757407h-1.242593c-.552285 0-1 .447715-1 1s.447715 1 1 1zm-.757407 10.757407v6c0 .552285.447715 1 1 1 .552284 0 1-.447715 1-1v-6c0-.552284-.447716-1-1-1-.552285 0-1 .447716-1 1zm0 12v6c0 .552285.447715 1 1 1 .552284 0 1-.447715 1-1v-6c0-.552284-.447716-1-1-1-.552285 0-1 .447716-1 1zm0 12v6c0 .552285.447715 1 1 1 .552284 0 1-.447715 1-1v-6c0-.552284-.447716-1-1-1-.552285 0-1 .447716-1 1zm0 12v6c0 .552285.447715 1 1 1 .552284 0 1-.447715 1-1v-6c0-.552284-.447716-1-1-1-.552285 0-1 .447716-1 1zm0 12v6c0 .552285.447715 1 1 1 .552284 0 1-.447715 1-1v-6c0-.552284-.447716-1-1-1-.552285 0-1 .447716-1 1zm0 12v6c0 .552285.447715 1 1 1 .552284 0 1-.447715 1-1v-6c0-.552284-.447716-1-1-1-.552285 0-1 .447716-1 1zm0 12v6c0 .552285.447715 1 1 1 .552284 0 1-.447715 1-1v-6c0-.552284-.447716-1-1-1-.552285 0-1 .447716-1 1zm0 12v6c0 .552285.447715 1 1 1 .552284 0 1-.447715 1-1v-6c0-.552284-.447716-1-1-1-.552285 0-1 .447716-1 1zm0 12v6c0 .552285.447715 1 1 1 .552284 0 1-.447715 1-1v-6c0-.552284-.447716-1-1-1-.552285 0-1 .447716-1 1zm0 12v6c0 .552285.447715 1 1 1 .552284 0 1-.447715 1-1v-6c0-.552284-.447716-1-1-1-.552285 0-1 .447716-1 1zm0 12v6c0 .552285.447715 1 1 1 .552284 0 1-.447715 1-1v-6c0-.552284-.447716-1-1-1-.552285 0-1 .447716-1 1zm0 12v6c0 .552285.447715 1 1 1 .552284 0 1-.447715 1-1v-6c0-.552284-.447716-1-1-1-.552285 0-1 .447716-1 1zm0 12v6c0 .552285.447715 1 1 1 .552284 0 1-.447715 1-1v-6c0-.552284-.447716-1-1-1-.552285 0-1 .447716-1 1zm0 12v6c0 .552285.447715 1 1 1 .552284 0 1-.447715 1-1v-6c0-.552284-.447716-1-1-1-.552285 0-1 .447716-1 1zm0 12v6c0 .552285.447715 1 1 1 .552284 0 1-.447715 1-1v-6c0-.552284-.447716-1-1-1-.552285 0-1 .447716-1 1zm0 12v6c0 .552285.447715 1 1 1 .552284 0 1-.447715 1-1v-6c0-.552284-.447716-1-1-1-.552285 0-1 .447716-1 1zm0 12v6c0 .552285.447715 1 1 1 .552284 0 1-.447715 1-1v-6c0-.552284-.447716-1-1-1-.552285 0-1 .447716-1 1zm0 12v6c0 .552285.447715 1 1 1 .552284 0 1-.447715 1-1v-6c0-.552284-.447716-1-1-1-.552285 0-1 .447716-1 1zm0 12v6c0 .552285.447715 1 1 1 .552284 0 1-.447715 1-1v-6c0-.552284-.447716-1-1-1-.552285 0-1 .447716-1 1zm0 12v6c0 .552285.447715 1 1 1 .552284 0 1-.447715 1-1v-6c0-.552284-.447716-1-1-1-.552285 0-1 .447716-1 1zm0 12v6c0 .552285.447715 1 1 1 .552284 0 1-.447715 1-1v-6c0-.552284-.447716-1-1-1-.552285 0-1 .447716-1 1zm0 12v6c0 .552285.447715 1 1 1 .552284 0 1-.447715 1-1v-6c0-.552284-.447716-1-1-1-.552285 0-1 .447716-1 1zm6.257407 7.742593h6c.552285 0 1-.447715 1-1s-.447715-1-1-1h-6c-.552285 0-1 .447715-1 1s.447715 1 1 1zm12 0h6c.552285 0 1-.447715 1-1s-.447715-1-1-1h-6c-.552285 0-1 .447715-1 1s.447715 1 1 1zm12 0h6c.552285 0 1-.447715 1-1s-.447715-1-1-1h-6c-.552285 0-1 .447715-1 1s.447715 1 1 1zm12 0h6c.552285 0 1-.447715 1-1s-.447715-1-1-1h-6c-.552285 0-1 .447715-1 1s.447715 1 1 1zm12 0h2.5c.552285 0 1-.447715 1-1s-.447715-1-1-1h-2.5c-.552285 0-1 .447715-1 1s.447715 1 1 1z" fill="#fa4359"/><circle cx="665.5" cy="618.5" fill="#ffc107" r="5.5" transform="matrix(0 1 -1 0 1284 -47)"/><path d="m412 213h6c.552285 0 1-.447715 1-1s-.447715-1-1-1h-6c-.552285 0-1 .447715-1 1s.447715 1 1 1zm12 0h6c.552285 0 1-.447715 1-1s-.447715-1-1-1h-6c-.552285 0-1 .447715-1 1s.447715 1 1 1zm12 0h6c.552285 0 1-.447715 1-1s-.447715-1-1-1h-6c-.552285 0-1 .447715-1 1s.447715 1 1 1zm12 0h6c.552285 0 1-.447715 1-1s-.447715-1-1-1h-6c-.552285 0-1 .447715-1 1s.447715 1 1 1zm12 0h6c.552285 0 1-.447715 1-1s-.447715-1-1-1h-6c-.552285 0-1 .447715-1 1s.447715 1 1 1zm12 0h6c.552285 0 1-.447715 1-1s-.447715-1-1-1h-6c-.552285 0-1 .447715-1 1s.447715 1 1 1zm12 0h6c.552285 0 1-.447715 1-1s-.447715-1-1-1h-6c-.552285 0-1 .447715-1 1s.447715 1 1 1zm12 0h6c.552285 0 1-.447715 1-1s-.447715-1-1-1h-6c-.552285 0-1 .447715-1 1s.447715 1 1 1zm12 0h6c.552285 0 1-.447715 1-1s-.447715-1-1-1h-6c-.552285 0-1 .447715-1 1s.447715 1 1 1zm12 0h6c.552285 0 1-.447715 1-1s-.447715-1-1-1h-6c-.552285 0-1 .447715-1 1s.447715 1 1 1zm12 0h6c.552285 0 1-.447715 1-1s-.447715-1-1-1h-6c-.552285 0-1 .447715-1 1s.447715 1 1 1zm12 0h6c.552285 0 1-.447715 1-1s-.447715-1-1-1h-6c-.552285 0-1 .447715-1 1s.447715 1 1 1zm12 0h6c.552285 0 1-.447715 1-1s-.447715-1-1-1h-6c-.552285 0-1 .447715-1 1s.447715 1 1 1zm12 0h6c.552285 0 1-.447715 1-1s-.447715-1-1-1h-6c-.552285 0-1 .447715-1 1s.447715 1 1 1zm12 0h6c.552285 0 1-.447715 1-1s-.447715-1-1-1h-6c-.552285 0-1 .447715-1 1s.447715 1 1 1zm12 0h6c.552285 0 1-.447715 1-1s-.447715-1-1-1h-6c-.552285 0-1 .447715-1 1s.447715 1 1 1zm7.304282 2.695718v6c0 .552284.447716 1 1 1 .552285 0 1-.447716 1-1v-6c0-.552285-.447715-1-1-1-.552284 0-1 .447715-1 1zm0 12v6c0 .552284.447716 1 1 1 .552285 0 1-.447716 1-1v-6c0-.552285-.447715-1-1-1-.552284 0-1 .447715-1 1zm0 12v6c0 .552284.447716 1 1 1 .552285 0 1-.447716 1-1v-6c0-.552285-.447715-1-1-1-.552284 0-1 .447715-1 1zm0 12v6c0 .552284.447716 1 1 1 .552285 0 1-.447716 1-1v-6c0-.552285-.447715-1-1-1-.552284 0-1 .447715-1 1zm0 12v6c0 .552284.447716 1 1 1 .552285 0 1-.447716 1-1v-6c0-.552285-.447715-1-1-1-.552284 0-1 .447715-1 1zm0 12v6c0 .552284.447716 1 1 1 .552285 0 1-.447716 1-1v-6c0-.552285-.447715-1-1-1-.552284 0-1 .447715-1 1zm0 12v6c0 .552284.447716 1 1 1 .552285 0 1-.447716 1-1v-6c0-.552285-.447715-1-1-1-.552284 0-1 .447715-1 1zm0 12v6c0 .552284.447716 1 1 1 .552285 0 1-.447716 1-1v-6c0-.552285-.447715-1-1-1-.552284 0-1 .447715-1 1zm0 12v6c0 .552284.447716 1 1 1 .552285 0 1-.447716 1-1v-6c0-.552285-.447715-1-1-1-.552284 0-1 .447715-1 1zm0 12v6c0 .552284.447716 1 1 1 .552285 0 1-.447716 1-1v-6c0-.552285-.447715-1-1-1-.552284 0-1 .447715-1 1zm0 12v6c0 .552284.447716 1 1 1 .552285 0 1-.447716 1-1v-6c0-.552285-.447715-1-1-1-.552284 0-1 .447715-1 1zm0 12v6c0 .552284.447716 1 1 1 .552285 0 1-.447716 1-1v-6c0-.552285-.447715-1-1-1-.552284 0-1 .447715-1 1zm0 12v6c0 .552284.447716 1 1 1 .552285 0 1-.447716 1-1v-6c0-.552285-.447715-1-1-1-.552284 0-1 .447715-1 1zm0 12v6c0 .552284.447716 1 1 1 .552285 0 1-.447716 1-1v-6c0-.552285-.447715-1-1-1-.552284 0-1 .447715-1 1zm0 12v6c0 .552284.447716 1 1 1 .552285 0 1-.447716 1-1v-6c0-.552285-.447715-1-1-1-.552284 0-1 .447715-1 1zm0 12v6c0 .552284.447716 1 1 1 .552285 0 1-.447716 1-1v-6c0-.552285-.447715-1-1-1-.552284 0-1 .447715-1 1zm0 12v6c0 .552284.447716 1 1 1 .552285 0 1-.447716 1-1v-6c0-.552285-.447715-1-1-1-.552284 0-1 .447715-1 1zm0 12v6c0 .552284.447716 1 1 1 .552285 0 1-.447716 1-1v-6c0-.552285-.447715-1-1-1-.552284 0-1 .447715-1 1zm0 12v6c0 .552284.447716 1 1 1 .552285 0 1-.447716 1-1v-6c0-.552285-.447715-1-1-1-.552284 0-1 .447715-1 1zm0 12v6c0 .552284.447716 1 1 1 .552285 0 1-.447716 1-1v-6c0-.552285-.447715-1-1-1-.552284 0-1 .447715-1 1zm0 12v6c0 .552284.447716 1 1 1 .552285 0 1-.447716 1-1v-6c0-.552285-.447715-1-1-1-.552284 0-1 .447715-1 1zm0 12v6c0 .552284.447716 1 1 1 .552285 0 1-.447716 1-1v-6c0-.552285-.447715-1-1-1-.552284 0-1 .447715-1 1zm0 12v6c0 .552284.447716 1 1 1 .552285 0 1-.447716 1-1v-6c0-.552285-.447715-1-1-1-.552284 0-1 .447715-1 1zm0 12v6c0 .552284.447716 1 1 1 .552285 0 1-.447716 1-1v-6c0-.552285-.447715-1-1-1-.552284 0-1 .447715-1 1zm0 12v6c0 .552284.447716 1 1 1 .552285 0 1-.447716 1-1v-6c0-.552285-.447715-1-1-1-.552284 0-1 .447715-1 1zm0 12v6c0 .552284.447716 1 1 1 .552285 0 1-.447716 1-1v-6c0-.552285-.447715-1-1-1-.552284 0-1 .447715-1 1zm0 12v6c0 .552284.447716 1 1 1 .552285 0 1-.447716 1-1v-6c0-.552285-.447715-1-1-1-.552284 0-1 .447715-1 1zm0 12v6c0 .552284.447716 1 1 1 .552285 0 1-.447716 1-1v-6c0-.552285-.447715-1-1-1-.552284 0-1 .447715-1 1zm0 12v6c0 .552284.447716 1 1 1 .552285 0 1-.447716 1-1v-6c0-.552285-.447715-1-1-1-.552284 0-1 .447715-1 1zm0 12v6c0 .552284.447716 1 1 1 .552285 0 1-.447716 1-1v-6c0-.552285-.447715-1-1-1-.552284 0-1 .447715-1 1zm0 12v6c0 .552284.447716 1 1 1 .552285 0 1-.447716 1-1v-6c0-.552285-.447715-1-1-1-.552284 0-1 .447715-1 1zm0 12v6c0 .552284.447716 1 1 1 .552285 0 1-.447716 1-1v-6c0-.552285-.447715-1-1-1-.552284 0-1 .447715-1 1zm0 12v6c0 .552284.447716 1 1 1 .552285 0 1-.447716 1-1v-6c0-.552285-.447715-1-1-1-.552284 0-1 .447715-1 1zm0 12v6c0 .552284.447716 1 1 1 .552285 0 1-.447716 1-1v-6c0-.552285-.447715-1-1-1-.552284 0-1 .447715-1 1zm6.195718 7.804282h6c.552285 0 1-.447715 1-1s-.447715-1-1-1h-6c-.552285 0-1 .447715-1 1s.447715 1 1 1zm12 0h6c.552285 0 1-.447715 1-1s-.447715-1-1-1h-6c-.552285 0-1 .447715-1 1s.447715 1 1 1zm12 0h6c.552285 0 1-.447715 1-1s-.447715-1-1-1h-6c-.552285 0-1 .447715-1 1s.447715 1 1 1zm12 0h6c.552285 0 1-.447715 1-1s-.447715-1-1-1h-6c-.552285 0-1 .447715-1 1s.447715 1 1 1zm12 0h6c.552285 0 1-.447715 1-1s-.447715-1-1-1h-6c-.552285 0-1 .447715-1 1s.447715 1 1 1z" fill="#ffc107"/><path d="m551.966 111.252c-1.941343 0-3.635326-.415329-5.082-1.246s-2.557329-2.011326-3.332-3.542-1.162-3.313323-1.162-5.348c0-2.0346768.387329-3.8126591 1.162-5.334s1.885326-2.6973292 3.332-3.528 3.140657-1.246 5.082-1.246c1.32534 0 2.575994.2053313 3.752.616s2.165329.9893296 2.968 1.736l-1.204 2.632c-.896004-.7093369-1.782662-1.2273317-2.66-1.554s-1.810662-.49-2.8-.49c-1.90401 0-3.373995.6159938-4.41 1.848s-1.554 3.0053218-1.554 5.32c0 2.333345.517995 4.115994 1.554 5.348s2.50599 1.848 4.41 1.848c.989338 0 1.922662-.163332 2.8-.49s1.763996-.844663 2.66-1.554l1.204 2.632c-.802671.74667-1.791994 1.325331-2.968 1.736s-2.42666.616-3.752.616zm9.716-.252v-19.74h3.5v19.74zm19.684-13.692v13.692h-3.416v-2.1c-.429335.74667-1.007996 1.320665-1.736 1.722s-1.549329.602-2.464.602c-3.360017 0-5.04-1.885314-5.04-5.656v-8.26h3.5v8.288c0 .970672.195998 1.689331.588 2.156s1.007996.7 1.848.7c.970672 0 1.749997-.321997 2.338-.966s.882-1.497995.882-2.562v-7.616zm8.68 13.916c-1.213339 0-2.328662-.149332-3.346-.448s-1.880663-.727997-2.59-1.288l.98-2.436c1.456007 1.064005 3.126657 1.596 5.012 1.596.802671 0 1.413998-.130665 1.834-.392s.63-.634664.63-1.12c0-.410669-.144665-.727999-.434-.952s-.80733-.429332-1.554-.616l-2.24-.504c-1.26934-.280001-2.211997-.73733-2.828-1.372s-.924-1.455995-.924-2.464c0-.840004.237998-1.5819968.714-2.226s1.138662-1.1433316 1.988-1.498 1.833994-.532 2.954-.532c.970672 0 1.908662.1493318 2.814.448s1.70333.718664 2.394 1.26l-.98 2.38c-1.418674-1.026672-2.837326-1.54-4.256-1.54-.765337 0-1.362665.1399986-1.792.42-.429335.280001-.644.671997-.644 1.176 0 .373335.135332.681332.406.924s.704664.429333 1.302.56l2.324.532c1.362673.298668 2.36133.769997 2.996 1.414s.952 1.488661.952 2.534c0 1.26934-.513328 2.27733-1.54 3.024s-2.417325 1.12-4.172 1.12zm15.54-2.632c.410669 0 .839998-.028 1.288-.084l-.168 2.604c-.560003.056-1.073331.084-1.54.084-1.922676 0-3.341329-.443329-4.256-1.33s-1.372-2.207325-1.372-3.962v-5.964h-2.632v-2.632h2.632v-4.088h3.5v4.088h3.612v2.632h-3.612v5.908c0 1.829342.849325 2.744 2.548 2.744zm15.344-3.808h-9.324c.112001 1.26934.494663 2.211997 1.148 2.828s1.586661.924 2.8.924c1.512008 0 2.893327-.485328 4.144-1.456l1.008 2.408c-.63467.522669-1.432662.942665-2.394 1.26s-1.927328.476-2.898.476c-2.240011 0-4.00866-.63466-5.306-1.904s-1.946-3.005322-1.946-5.208c0-1.400007.279997-2.641328.84-3.724.560003-1.0826721 1.348662-1.9226637 2.366-2.52s2.169994-.896 3.458-.896c1.885343 0 3.373995.6066606 4.466 1.82 1.092005 1.213339 1.638 2.883989 1.638 5.012zm-6.02-5.348c-.933338 0-1.684664.2986637-2.254.896-.569336.597336-.919333 1.455994-1.05 2.576h6.328c-.037334-1.138672-.317331-2.001997-.84-2.59-.522669-.5880029-1.250662-.882-2.184-.882zm17.892.448-2.044.196c-2.314678.242668-3.472 1.418656-3.472 3.528v7.392h-3.5v-13.692h3.332v2.408c.679781-1.5742301 2.053858-2.4627037 4.12227-2.6654444l1.33773-.1065556zm1.708 11.116v-13.692h3.5v13.692zm-.196-20.048h3.864v3.444h-3.864zm15.26 6.02c1.642675 0 2.865329.466662 3.668 1.4s1.204 2.342657 1.204 4.228v8.4h-3.5v-8.204c0-1.064005-.200665-1.838664-.602-2.324-.401335-.4853358-1.031329-.728-1.89-.728-1.008005 0-1.81533.31733-2.422.952s-.91 1.483995-.91 2.548v7.756h-3.5v-13.692h3.416v2.044c.466669-.7653372 1.091996-1.3533313 1.876-1.764s1.670662-.616 2.66-.616z" fill="#fff"/><path d="m663.378 96.972c1.008005 0 1.903996.2099979 2.688.63s1.381331 1.0126628 1.792 1.778v-2.072h3.472v12.432c0 2.146677-.592661 3.770661-1.778 4.872s-2.935322 1.652-5.25 1.652c-1.194673 0-2.342661-.153998-3.444-.462s-2.062663-.741997-2.884-1.302l.98-2.464c1.698675 1.026672 3.453324 1.54 5.264 1.54 2.426679 0 3.64-1.194655 3.64-3.584v-1.792c-.410669.765337-1.007996 1.357998-1.792 1.778s-1.679995.63-2.688.63c-1.194673 0-2.253995-.284664-3.178-.854s-1.647331-1.367328-2.17-2.394-.784-2.211993-.784-3.556.256664-2.533995.77-3.57c.513336-1.0360052 1.236662-1.8386638 2.17-2.408s1.997327-.854 3.192-.854zm.924 2.716c-1.101339 0-1.96933.363996-2.604 1.092s-.952 1.735994-.952 3.024c0 1.250673.31733 2.244663.952 2.982s1.502661 1.106 2.604 1.106c1.120006 0 1.992664-.363996 2.618-1.092s.938-1.72666.938-2.996c0-1.288006-.312664-2.295996-.938-3.024s-1.497994-1.092-2.618-1.092z" fill="#fff"/></g></svg>