<svg height="941" viewBox="0 0 1214 941" width="1214" xmlns="http://www.w3.org/2000/svg"><g fill="none" fill-rule="nonzero"><g transform="translate(324 238)"><path d="m49.2574074 302.76c1.666675 0 2.9399956.613327 3.82 1.84s1.32 3.006655 1.32 5.34c0 2.346678-.4399956 4.139994-1.32 5.38s-2.153325 1.86-3.82 1.86-2.9399956-.616661-3.82-1.85c-.8800044-1.23334-1.32-3.029988-1.32-5.39 0-2.333345.4399956-4.113327 1.32-5.34s2.153325-1.84 3.82-1.84zm0 2.02c-.9066712 0-1.5666646.409996-1.98 1.23s-.62 2.129991-.62 3.93c0 1.813342.2066646 3.136662.62 3.97.4133354.833337 1.0733288 1.25 1.98 1.25s1.5666646-.416663 1.98-1.25c.4133354-.833338.62-2.156658.62-3.97 0-1.800009-.2066646-3.109996-.62-3.93s-1.0733288-1.23-1.98-1.23z" fill="#fff"/><path d="m89.76 40.38v6.76c-.6400032.3200016-1.4166621.5733324-2.33.76s-1.8433286.28-2.79.28c-1.4533406 0-2.713328-.2899971-3.78-.87s-1.8833305-1.4133279-2.45-2.5-.85-2.3766592-.85-3.87c0-1.4800074.2833305-2.7633279.85-3.85s1.3733281-1.9199971 2.42-2.5 2.2766596-.87 3.69-.87c.9866716 0 1.913329.1433319 2.78.43s1.5866638.696664 2.16 1.23l-.86 1.86c-.6533366-.5066692-1.2966635-.8699989-1.93-1.09s-1.3299962-.33-2.09-.33c-1.4533406 0-2.5499963.4299957-3.29 1.29s-1.11 2.1366582-1.11 3.83c0 3.466684 1.5199848 5.2 4.56 5.2.9066712 0 1.8133288-.1266654 2.72-.38v-3.54h-3.04v-1.84zm6.88-2.4c1.3733402 0 2.39333.33333 3.06 1s1 1.6933264 1 3.08v5.94h-2.38v-1.5c-.2266678.5200026-.5833309.9266652-1.07 1.22s-1.0499968.44-1.69.44c-.6533366 0-1.246664-.133332-1.78-.4s-.9533318-.633331-1.26-1.1-.46-.9866638-.46-1.56c0-.7200036.1833315-1.2866646.55-1.7s.9633292-.7133324 1.79-.9c.7577816-.171112 1.7788371-.2637964 3.063193-.2780556l.856807-.0019444v-.46c0-.66667-.1433319-1.1466652-.43-1.44s-.76333-.44-1.43-.44c-.5200026 0-1.0633305.0899991-1.63.27s-1.1233306.4299984-1.67.75l-.7-1.72c.5466694-.3466684 1.2066628-.6333322 1.98-.86s1.5066632-.34 2.2-.34zm-.58 8.38c.66667 0 1.2099979-.2233311 1.63-.67s.63-1.0233298.63-1.73v-.42h-.36c-.8933378 0-1.5866642.0399996-2.08.12s-.8466656.219999-1.06.42-.32.4733316-.32.82c0 .4266688.1466652.7766653.44 1.05s.6666644.41 1.12.41zm13.62-6.3-1.46.14c-1.653342.1733342-2.48 1.0133258-2.48 2.52v5.28h-2.5v-9.78h2.38v1.72c.506669-1.1733392 1.553325-1.8133328 3.14-1.92l.76-.06zm1.22 7.94v-14.1h2.5v14.1zm5.08 0v-9.78h2.5v9.78zm-.14-14.32h2.76v2.46h-2.76zm9.68 14.48c-1.026672 0-1.916663-.2066646-2.67-.62s-1.33-.9999962-1.73-1.76c-.400002-.7600038-.6-1.6466616-.6-2.66s.209998-1.9099961.63-2.69 1.016663-1.3833312 1.79-1.81 1.666662-.64 2.68-.64c.693337 0 1.369997.1099989 2.03.33s1.189998.5166648 1.59.89l-.72 1.76c-.413335-.333335-.849998-.5866658-1.31-.76s-.916664-.26-1.37-.26c-.866671 0-1.539998.2699973-2.02.81s-.72 1.3166616-.72 2.33c0 1.000005.239998 1.7699973.72 2.31s1.153329.81 2.02.81c.453336 0 .909998-.0866658 1.37-.26s.896665-.426665 1.31-.76l.72 1.74c-.426669.3866686-.97333.6899989-1.64.91s-1.359996.33-2.08.33z" fill="#fff"/><path d="m443.02 48.18c-1.37334 0-2.563328-.2933304-3.57-.88s-1.783331-1.4266612-2.33-2.52-.82-2.373326-.82-3.84.269997-2.7433279.81-3.83 1.316662-1.9233304 2.33-2.51 2.20666-.88 3.58-.88 2.563328.2933304 3.57.88 1.779997 1.4233279 2.32 2.51.81 2.363326.81 3.83-.273331 2.7466612-.82 3.84-1.323328 1.9333304-2.33 2.52-2.189993.88-3.55.88zm0-2.06c1.29334 0 2.30333-.4466622 3.03-1.34s1.09-2.173325 1.09-3.84-.36333-2.9433289-1.09-3.83-1.73666-1.33-3.03-1.33c-1.306673 0-2.32333.4433289-3.05 1.33s-1.09 2.163325-1.09 3.83.36333 2.9466622 1.09 3.84 1.743327 1.34 3.05 1.34zm14.76-8.14c1.173339 0 2.046664.33333 2.62 1s.86 1.6733266.86 3.02v6h-2.5v-5.86c0-.7600038-.143332-1.3133316-.43-1.66s-.736664-.52-1.35-.52c-.720004 0-1.296664.2266644-1.73.68-.433335.4533356-.65 1.0599962-.65 1.82v5.54h-2.5v-9.78h2.44v1.46c.333335-.5466694.779997-.9666652 1.34-1.26s1.19333-.44 1.9-.44zm6.02 10.02v-9.78h2.5v9.78zm-.14-14.32h2.76v2.46h-2.76zm9.68 14.48c-1 0-1.876663-.2066646-2.63-.62s-1.336665-1.0066628-1.75-1.78-.62-1.6733282-.62-2.7.206665-1.9233295.62-2.69.996663-1.3566646 1.75-1.77 1.63-.62 2.63-.62 1.876663.2066646 2.63.62 1.333331 1.0033295 1.74 1.77.61 1.6633282.61 2.69-.203331 1.9266628-.61 2.7-.986663 1.3666646-1.74 1.78-1.63.62-2.63.62zm-.02-1.94c.813337 0 1.433331-.266664 1.86-.8s.64-1.3199948.64-2.36c0-1.0266718-.213331-1.8099973-.64-2.35s-1.039996-.81-1.84-.81-1.416664.2699973-1.85.81c-.433335.5400027-.65 1.3233282-.65 2.35 0 1.0400052.213331 1.826664.64 2.36s1.039996.8 1.84.8zm12.74-8.24c1.173339 0 2.046664.33333 2.62 1s.86 1.6733266.86 3.02v6h-2.5v-5.86c0-.7600038-.143332-1.3133316-.43-1.66s-.736664-.52-1.35-.52c-.720004 0-1.296664.2266644-1.73.68-.433335.4533356-.65 1.0599962-.65 1.82v5.54h-2.5v-9.78h2.44v1.46c.333335-.5466694.779997-.9666652 1.34-1.26s1.19333-.44 1.9-.44z" fill="#fff"/><path d="m145.177407 314.92h3.06v2.08h-8.7v-2.08h3.06v-9.08l-2.42 1.46-1.02-1.88 4.18-2.52h1.84z" fill="#fff"/><path d="m237.46 381.84 5.36 7.16h-3l-3.82-5.28-3.84 5.28h-3l5.38-7.18-5.18-6.92h3l3.64 5.06 3.66-5.06h3z" fill="#4c7ef3"/><path d="m15.87 171.42v2.76h-2.8v-1.82c0-.693337.1199988-1.32333.36-1.89.2400012-.566669.6466638-1.136664 1.22-1.71l1.02.8c-.3200016.346668-.5666658.666665-.74.96s-.2866664.593332-.34.9zm3.84 0v2.76h-2.8v-1.82c0-.693337.1199988-1.32333.36-1.89.2400012-.566669.6466638-1.136664 1.22-1.71l1.02.8c-.3200016.346668-.5666658.666665-.74.96s-.2866664.593332-.34.9zm14.36 3.96v6.76c-.6400032.320002-1.4166621.573332-2.33.76s-1.8433286.28-2.79.28c-1.4533406 0-2.713328-.289997-3.78-.87s-1.8833305-1.413328-2.45-2.5-.85-2.376659-.85-3.87c0-1.480007.2833305-2.763328.85-3.85s1.3733281-1.919997 2.42-2.5 2.2766596-.87 3.69-.87c.9866716 0 1.913329.143332 2.78.43s1.5866638.696664 2.16 1.23l-.86 1.86c-.6533366-.506669-1.2966635-.869999-1.93-1.09s-1.3299962-.33-2.09-.33c-1.4533406 0-2.5499963.429996-3.29 1.29s-1.11 2.136658-1.11 3.83c0 3.466684 1.5199848 5.2 4.56 5.2.9066712 0 1.8133288-.126665 2.72-.38v-3.54h-3.04v-1.84zm6.88-2.4c1.3733402 0 2.39333.33333 3.06 1s1 1.693326 1 3.08v5.94h-2.38v-1.5c-.2266678.520003-.5833309.926665-1.07 1.22s-1.0499968.44-1.69.44c-.6533366 0-1.246664-.133332-1.78-.4s-.9533318-.633331-1.26-1.1-.46-.986664-.46-1.56c0-.720004.1833315-1.286665.55-1.7s.9633292-.713332 1.79-.9c.7577816-.171112 1.7788371-.263796 3.063193-.278056l.856807-.001944v-.46c0-.66667-.1433319-1.146665-.43-1.44s-.76333-.44-1.43-.44c-.5200026 0-1.0633305.089999-1.63.27s-1.1233306.429998-1.67.75l-.7-1.72c.5466694-.346668 1.2066628-.633332 1.98-.86s1.5066632-.34 2.2-.34zm-.58 8.38c.66667 0 1.2099979-.223331 1.63-.67s.63-1.02333.63-1.73v-.42h-.36c-.8933378 0-1.5866642.04-2.08.12s-.8466656.219999-1.06.42-.32.473332-.32.82c0 .426669.1466652.776665.44 1.05s.6666644.41 1.12.41zm13.62-6.3-1.46.14c-1.6533416.173334-2.48 1.013326-2.48 2.52v5.28h-2.5v-9.78h2.38v1.72c.4785209-1.108154 1.4386969-1.740576 2.8805544-1.897284l1.0194456-.082716zm1.22 7.94v-14.1h2.5v14.1zm5.08 0v-9.78h2.5v9.78zm-.14-14.32h2.76v2.46h-2.76zm9.68 14.48c-1.0266718 0-1.9166629-.206665-2.67-.62s-1.33-.999996-1.73-1.76c-.400002-.760004-.6-1.646662-.6-2.66s.2099979-1.909996.63-2.69 1.0166628-1.383331 1.79-1.81 1.6666616-.64 2.68-.64c.6933368 0 1.3699967.109999 2.03.33s1.189998.516665 1.59.89l-.72 1.76c-.4133354-.333335-.8499977-.586666-1.31-.76s-.9166644-.26-1.37-.26c-.866671 0-1.5399976.269997-2.02.81s-.72 1.316662-.72 2.33c0 1.000005.2399976 1.769997.72 2.31s1.153329.81 2.02.81c.4533356 0 .9099977-.086666 1.37-.26s.8966646-.426665 1.31-.76l.72 1.74c-.4266688.386669-.97333.689999-1.64.91s-1.3599964.33-2.08.33zm7.88-14.26v1.82c0 .70667-.1199988 1.343331-.36 1.91-.2400012.56667-.6466638 1.129997-1.22 1.69l-1.02-.8c.3200016-.346668.5666658-.666665.74-.96s.2866664-.593332.34-.9h-1.28v-2.76zm3.84 0v1.82c0 .70667-.1199988 1.343331-.36 1.91-.2400012.56667-.6466638 1.129997-1.22 1.69l-1.02-.8c.3200016-.346668.5666658-.666665.74-.96s.2866664-.593332.34-.9h-1.28v-2.76zm13.48 4.08c1.1733392 0 2.0466638.33333 2.62 1s.86 1.673327.86 3.02v6h-2.5v-5.86c0-.760004-.1433319-1.313332-.43-1.66s-.7366636-.52-1.35-.52c-.7200036 0-1.2966645.226664-1.73.68s-.65 1.059996-.65 1.82v5.54h-2.5v-14.1h2.5v5.68c.333335-.520003.7766639-.916665 1.33-1.19s1.17-.41 1.85-.41zm10.22 0c1.37334 0 2.39333.33333 3.06 1s1 1.693326 1 3.08v5.94h-2.38v-1.5c-.226668.520003-.583331.926665-1.07 1.22s-1.049997.44-1.69.44c-.653337 0-1.246664-.133332-1.78-.4s-.953332-.633331-1.26-1.1-.46-.986664-.46-1.56c0-.720004.183331-1.286665.55-1.7.366668-.413335.963329-.713332 1.79-.9.757782-.171112 1.778837-.263796 3.063193-.278056l.856807-.001944v-.46c0-.66667-.143332-1.146665-.43-1.44s-.76333-.44-1.43-.44c-.520003 0-1.063331.089999-1.63.27-.56667.180001-1.123331.429998-1.67.75l-.7-1.72c.546669-.346668 1.206663-.633332 1.98-.86s1.506663-.34 2.2-.34zm-.58 8.38c.66667 0 1.209998-.223331 1.63-.67s.63-1.02333.63-1.73v-.42h-.36c-.893338 0-1.586664.04-2.08.12s-.846666.219999-1.06.42-.32.473332-.32.82c0 .426669.146665.776665.44 1.05s.666664.41 1.12.41zm10.78 1.8c-.866671 0-1.66333-.106666-2.39-.32s-1.343331-.519998-1.85-.92l.7-1.74c1.040005.760004 2.233327 1.14 3.58 1.14.573336 0 1.009998-.093332 1.31-.28.300001-.186668.45-.453332.45-.8 0-.293335-.103332-.519999-.31-.68s-.576664-.306666-1.11-.44l-1.6-.36c-.906671-.200001-1.579998-.526664-2.02-.98s-.66-1.039996-.66-1.76c0-.600003.169998-1.129998.51-1.59s.81333-.816665 1.42-1.07 1.309996-.38 2.11-.38c.693337 0 1.36333.106666 2.01.32s1.216664.513331 1.71.9l-.7 1.7c-1.013338-.733337-2.026662-1.1-3.04-1.1-.546669 0-.973332.099999-1.28.3s-.46.479998-.46.84c0 .266668.096666.486666.29.66s.503331.306666.93.4l1.66.38c.973338.213334 1.686664.549998 2.14 1.01s.68 1.06333.68 1.81c0 .906671-.366663 1.626664-1.1 2.16s-1.72666.8-2.98.8zm11.78-10.18c1.173339 0 2.046664.33333 2.62 1s.86 1.673327.86 3.02v6h-2.5v-5.86c0-.760004-.143332-1.313332-.43-1.66s-.736664-.52-1.35-.52c-.720004 0-1.296665.226664-1.73.68-.433336.453336-.65 1.059996-.65 1.82v5.54h-2.5v-14.1h2.5v5.68c.333335-.520003.776664-.916665 1.33-1.19s1.17-.41 1.85-.41zm14.6 5.58h-6.66c.08.906671.353331 1.579998.82 2.02s1.133329.66 2 .66c1.080005 0 2.066662-.346663 2.96-1.04l.72 1.72c-.453336.373335-1.02333.673332-1.71.9s-1.376663.34-2.07.34c-1.600008 0-2.863329-.453329-3.79-1.36s-1.39-2.146659-1.39-3.72c0-1.000005.199998-1.886663.6-2.66.4-.773337.96333-1.373331 1.69-1.8s1.549995-.64 2.47-.64c1.346673 0 2.409996.433329 3.19 1.3s1.17 2.059992 1.17 3.58zm-4.3-3.82c-.66667 0-1.203331.213331-1.61.64s-.656666 1.039996-.75 1.84h4.52c-.026667-.813337-.226665-1.429998-.6-1.85s-.89333-.63-1.56-.63zm9.94 8.42c-.866671 0-1.66333-.106666-2.39-.32s-1.343331-.519998-1.85-.92l.7-1.74c1.040005.760004 2.233327 1.14 3.58 1.14.573336 0 1.009998-.093332 1.31-.28.300001-.186668.45-.453332.45-.8 0-.293335-.103332-.519999-.31-.68s-.576664-.306666-1.11-.44l-1.6-.36c-.906671-.200001-1.579998-.526664-2.02-.98s-.66-1.039996-.66-1.76c0-.600003.169998-1.129998.51-1.59s.81333-.816665 1.42-1.07 1.309996-.38 2.11-.38c.693337 0 1.36333.106666 2.01.32s1.216664.513331 1.71.9l-.7 1.7c-1.013338-.733337-2.026662-1.1-3.04-1.1-.546669 0-.973332.099999-1.28.3s-.46.479998-.46.84c0 .266668.096666.486666.29.66s.503331.306666.93.4l1.66.38c.973338.213334 1.686664.549998 2.14 1.01s.68 1.06333.68 1.81c0 .906671-.366663 1.626664-1.1 2.16s-1.72666.8-2.98.8zm16.52-1.88c.293335 0 .599998-.02.92-.06l-.12 1.86c-.400002.04-.766665.06-1.1.06-1.37334 0-2.386663-.316663-3.04-.95-.653337-.633336-.98-1.57666-.98-2.83v-4.26h-1.88v-1.88h1.88v-2.92h2.5v2.92h2.58v1.88h-2.58v4.22c0 1.306673.606661 1.96 1.82 1.96zm6.84 1.88c-1 0-1.876663-.206665-2.63-.62s-1.336665-1.006663-1.75-1.78-.62-1.673328-.62-2.7.206665-1.923329.62-2.69c.413335-.76667.996663-1.356665 1.75-1.77s1.63-.62 2.63-.62 1.876663.206665 2.63.62 1.333331 1.00333 1.74 1.77c.406669.766671.61 1.663328.61 2.69s-.203331 1.926663-.61 2.7-.986663 1.366665-1.74 1.78-1.63.62-2.63.62zm-.02-1.94c.813337 0 1.433331-.266664 1.86-.8s.64-1.319995.64-2.36c0-1.026672-.213331-1.809997-.64-2.35s-1.039996-.81-1.84-.81-1.416665.269997-1.85.81c-.433336.540003-.65 1.323328-.65 2.35 0 1.040005.213331 1.826664.64 2.36s1.039996.8 1.84.8zm22.12-.3v2.08h-9.48v-1.9l4.8-5.16c.560003-.613336.969999-1.176664 1.23-1.69s.39-1.023331.39-1.53c0-.640003-.183332-1.123332-.55-1.45-.366669-.326668-.90333-.49-1.61-.49-1.266673 0-2.539994.486662-3.82 1.46l-.86-1.88c.560003-.493336 1.276662-.889998 2.15-1.19.873338-.300001 1.749996-.45 2.63-.45 1.41334 0 2.533329.346663 3.36 1.04s1.24 1.626661 1.24 2.8c0 .813337-.173332 1.576663-.52 2.29s-.933329 1.509996-1.76 2.39l-3.46 3.68z" fill="#4c7ef3"/><path d="m176.95 441.9h2.46l-4.98 14.1h-2.1l-3.54-10.14-3.56 10.14h-2.1l-4.96-14.1h2.6l3.5 10.5 3.68-10.5h1.82l3.58 10.56zm9.92 4.08c1.173339 0 2.046664.33333 2.62 1s.86 1.673327.86 3.02v6h-2.5v-5.86c0-.760004-.143332-1.313332-.43-1.66s-.736664-.52-1.35-.52c-.720004 0-1.296664.226664-1.73.68-.433335.453336-.65 1.059996-.65 1.82v5.54h-2.5v-14.1h2.5v5.68c.333335-.520003.776664-.916665 1.33-1.19s1.17-.41 1.85-.41zm10.22 0c1.37334 0 2.39333.33333 3.06 1s1 1.693326 1 3.08v5.94h-2.38v-1.5c-.226668.520003-.583331.926665-1.07 1.22s-1.049997.44-1.69.44c-.653337 0-1.246664-.133332-1.78-.4s-.953332-.633331-1.26-1.1-.46-.986664-.46-1.56c0-.720004.183332-1.286665.55-1.7.366669-.413335.963329-.713332 1.79-.9.757782-.171112 1.778837-.263796 3.063193-.278056l.856807-.001944v-.46c0-.66667-.143332-1.146665-.43-1.44s-.76333-.44-1.43-.44c-.520003 0-1.06333.089999-1.63.27-.566669.180001-1.123331.429998-1.67.75l-.7-1.72c.546669-.346668 1.206663-.633332 1.98-.86s1.506663-.34 2.2-.34zm-.58 8.38c.66667 0 1.209998-.223331 1.63-.67s.63-1.02333.63-1.73v-.42h-.36c-.893338 0-1.586664.04-2.08.12s-.846666.219999-1.06.42-.32.473332-.32.82c0 .426669.146665.776665.44 1.05s.666664.41 1.12.41zm12.18-.08c.293335 0 .599998-.02.92-.06l-.12 1.86c-.400002.04-.766665.06-1.1.06-1.37334 0-2.386663-.316664-3.04-.95s-.98-1.57666-.98-2.83v-4.26h-1.88v-1.88h1.88v-2.92h2.5v2.92h2.58v1.88h-2.58v4.22c0 1.306673.606661 1.96 1.82 1.96zm17.32-8.06v8.88c0 1.533341-.423329 2.693329-1.27 3.48s-2.096658 1.18-3.75 1.18c-.853338 0-1.673329-.109999-2.46-.33s-1.47333-.529998-2.06-.93l.7-1.76c1.213339.733337 2.46666 1.1 3.76 1.1 1.733342 0 2.6-.853325 2.6-2.56v-1.28c-.293335.546669-.719997.969998-1.28 1.27-.560003.300001-1.199996.45-1.92.45-.853338 0-1.609997-.203331-2.27-.61s-1.176665-.976663-1.55-1.71-.56-1.579995-.56-2.54.183332-1.809996.55-2.55c.366669-.740004.88333-1.313331 1.55-1.72s1.426662-.61 2.28-.61c.720004 0 1.359997.149998 1.92.45s.986665.723331 1.28 1.27v-1.48zm-5.02 7.56c.800004 0 1.423331-.259997 1.87-.78s.67-1.233329.67-2.14c0-.920005-.223331-1.639997-.67-2.16s-1.069996-.78-1.87-.78c-.786671 0-1.406664.259997-1.86.78s-.68 1.239995-.68 2.16c0 .893338.226664 1.603331.68 2.13s1.073329.79 1.86.79zm12.06 2.38c-1 0-1.876663-.206665-2.63-.62s-1.336665-1.006663-1.75-1.78-.62-1.673328-.62-2.7.206665-1.92333.62-2.69c.413335-.766671.996663-1.356665 1.75-1.77s1.63-.62 2.63-.62 1.876663.206665 2.63.62 1.333331 1.003329 1.74 1.77c.406669.76667.61 1.663328.61 2.69s-.203331 1.926663-.61 2.7-.986663 1.366665-1.74 1.78-1.63.62-2.63.62zm-.02-1.94c.813337 0 1.433331-.266664 1.86-.8s.64-1.319995.64-2.36c0-1.026672-.213331-1.809997-.64-2.35s-1.039996-.81-1.84-.81-1.416664.269997-1.85.81c-.433335.540003-.65 1.323328-.65 2.35 0 1.040005.213331 1.826664.64 2.36s1.039996.8 1.84.8zm15.64-2.66h-6.66c.08.906671.353331 1.579998.82 2.02s1.133329.66 2 .66c1.080005 0 2.066662-.346663 2.96-1.04l.72 1.72c-.453336.373335-1.02333.673332-1.71.9s-1.376663.34-2.07.34c-1.600008 0-2.863329-.453329-3.79-1.36s-1.39-2.146659-1.39-3.72c0-1.000005.199998-1.886663.6-2.66.4-.773337.96333-1.373331 1.69-1.8s1.549995-.64 2.47-.64c1.346673 0 2.409996.433329 3.19 1.3s1.17 2.059992 1.17 3.58zm-4.3-3.82c-.66667 0-1.203331.213331-1.61.64s-.656666 1.039996-.75 1.84h4.52c-.026667-.813337-.226665-1.429998-.6-1.85s-.89333-.63-1.56-.63zm9.94 8.42c-.866671 0-1.66333-.106666-2.39-.32s-1.343331-.519998-1.85-.92l.7-1.74c1.040005.760004 2.233327 1.14 3.58 1.14.573336 0 1.009999-.093332 1.31-.28.300002-.186668.45-.453332.45-.8 0-.293335-.103332-.519999-.31-.68s-.576664-.306666-1.11-.44l-1.6-.36c-.906671-.200001-1.579998-.526664-2.02-.98s-.66-1.039996-.66-1.76c0-.600003.169998-1.129998.51-1.59s.81333-.816665 1.42-1.07 1.309996-.38 2.11-.38c.693337 0 1.36333.106666 2.01.32s1.216664.513331 1.71.9l-.7 1.7c-1.013338-.733337-2.026662-1.1-3.04-1.1-.546669 0-.973332.099999-1.28.3s-.46.479998-.46.84c0 .266668.096666.486666.29.66s.503331.306666.93.4l1.66.38c.973338.213334 1.686664.549998 2.14 1.01s.68 1.06333.68 1.81c0 .906671-.366663 1.626664-1.1 2.16s-1.72666.8-2.98.8zm17.2-10.18c1.173339 0 2.046664.33333 2.62 1s.86 1.673327.86 3.02v6h-2.5v-5.86c0-.760004-.143332-1.313332-.43-1.66s-.736664-.52-1.35-.52c-.720004 0-1.296664.226664-1.73.68-.433335.453336-.65 1.059996-.65 1.82v5.54h-2.5v-14.1h2.5v5.68c.333335-.520003.776664-.916665 1.33-1.19s1.17-.41 1.85-.41zm14.6 5.58h-6.66c.08.906671.353331 1.579998.82 2.02s1.133329.66 2 .66c1.080005 0 2.066662-.346663 2.96-1.04l.72 1.72c-.453336.373335-1.02333.673332-1.71.9s-1.376663.34-2.07.34c-1.600008 0-2.863329-.453329-3.79-1.36s-1.39-2.146659-1.39-3.72c0-1.000005.199998-1.886663.6-2.66.4-.773337.96333-1.373331 1.69-1.8s1.549995-.64 2.47-.64c1.346673 0 2.409996.433329 3.19 1.3s1.17 2.059992 1.17 3.58zm-4.3-3.82c-.66667 0-1.203331.213331-1.61.64s-.656666 1.039996-.75 1.84h4.52c-.026667-.813337-.226665-1.429998-.6-1.85s-.89333-.63-1.56-.63zm12.78.32-1.46.14c-1.653342.173334-2.48 1.013326-2.48 2.52v5.28h-2.5v-9.78h2.38v1.72c.478521-1.108154 1.438697-1.740576 2.880554-1.897284l1.019446-.082716zm9.8 3.5h-6.66c.08.906671.353331 1.579998.82 2.02s1.133329.66 2 .66c1.080005 0 2.066662-.346663 2.96-1.04l.72 1.72c-.453336.373335-1.02333.673332-1.71.9s-1.376663.34-2.07.34c-1.600008 0-2.863329-.453329-3.79-1.36s-1.39-2.146659-1.39-3.72c0-1.000005.199998-1.886663.6-2.66.4-.773337.96333-1.373331 1.69-1.8s1.549995-.64 2.47-.64c1.346673 0 2.409996.433329 3.19 1.3s1.17 2.059992 1.17 3.58zm-4.3-3.82c-.66667 0-1.203331.213331-1.61.64s-.656666 1.039996-.75 1.84h4.52c-.026667-.813337-.226665-1.429998-.6-1.85s-.89333-.63-1.56-.63zm8.68 3.28c0-.733337.133332-1.353331.4-1.86.228573-.434288.545305-.902856.950203-1.405713l.209797-.254287c.386669-.466669.673332-.859998.86-1.18s.28-.679998.28-1.08c0-.453336-.159998-.809999-.48-1.07s-.766664-.39-1.34-.39-1.176663.126665-1.81.38c-.633336.253335-1.256664.613331-1.87 1.08l-.84-1.88c.546669-.493336 1.253329-.886665 2.12-1.18s1.733329-.44 2.6-.44c.813337 0 1.53333.136665 2.16.41s1.116665.659998 1.47 1.16.53 1.069997.53 1.71c0 .693337-.166665 1.299997-.5 1.82s-.81333 1.09333-1.44 1.72l-.384376.420001c-.35875.4-.640623.739998-.845624 1.019999-.273335.373335-.443333.799998-.51 1.28l-.08.54h-1.48zm-.62 4.98v-2.76h2.8v2.76z" fill="#4c7ef3"/><path d="m374.61 171.42v2.76h-2.8v-1.82c0-.693337.119999-1.32333.36-1.89.240001-.566669.646664-1.136664 1.22-1.71l1.02.8c-.320002.346668-.566666.666665-.74.96s-.286666.593332-.34.9zm3.84 0v2.76h-2.8v-1.82c0-.693337.119999-1.32333.36-1.89.240001-.566669.646664-1.136664 1.22-1.71l1.02.8c-.320002.346668-.566666.666665-.74.96s-.286666.593332-.34.9zm8.88 11.76c-1.37334 0-2.563328-.29333-3.57-.88s-1.783331-1.426661-2.33-2.52-.82-2.373326-.82-3.84.269997-2.743328.81-3.83 1.316662-1.92333 2.33-2.51 2.20666-.88 3.58-.88 2.563328.29333 3.57.88 1.779997 1.423328 2.32 2.51.81 2.363326.81 3.83-.273331 2.746661-.82 3.84-1.323328 1.93333-2.33 2.52-2.189993.88-3.55.88zm0-2.06c1.29334 0 2.30333-.446662 3.03-1.34s1.09-2.173325 1.09-3.84-.36333-2.943329-1.09-3.83-1.73666-1.33-3.03-1.33c-1.306673 0-2.32333.443329-3.05 1.33s-1.09 2.163325-1.09 3.83.36333 2.946662 1.09 3.84 1.743327 1.34 3.05 1.34zm14.76-8.14c1.173339 0 2.046664.33333 2.62 1s.86 1.673327.86 3.02v6h-2.5v-5.86c0-.760004-.143332-1.313332-.43-1.66s-.736664-.52-1.35-.52c-.720004 0-1.296664.226664-1.73.68-.433335.453336-.65 1.059996-.65 1.82v5.54h-2.5v-9.78h2.44v1.46c.333335-.546669.779997-.966665 1.34-1.26s1.19333-.44 1.9-.44zm6.02 10.02v-9.78h2.5v9.78zm-.14-14.32h2.76v2.46h-2.76zm9.68 14.48c-1 0-1.876663-.206665-2.63-.62s-1.336665-1.006663-1.75-1.78-.62-1.673328-.62-2.7.206665-1.923329.62-2.69c.413335-.76667.996663-1.356665 1.75-1.77s1.63-.62 2.63-.62 1.876663.206665 2.63.62 1.333331 1.00333 1.74 1.77c.406669.766671.61 1.663328.61 2.69s-.203331 1.926663-.61 2.7-.986663 1.366665-1.74 1.78-1.63.62-2.63.62zm-.02-1.94c.813337 0 1.433331-.266664 1.86-.8s.64-1.319995.64-2.36c0-1.026672-.213331-1.809997-.64-2.35s-1.039996-.81-1.84-.81-1.416664.269997-1.85.81c-.433335.540003-.65 1.323328-.65 2.35 0 1.040005.213331 1.826664.64 2.36s1.039996.8 1.84.8zm12.74-8.24c1.173339 0 2.046664.33333 2.62 1s.86 1.673327.86 3.02v6h-2.5v-5.86c0-.760004-.143332-1.313332-.43-1.66s-.736664-.52-1.35-.52c-.720004 0-1.296664.226664-1.73.68-.433335.453336-.65 1.059996-.65 1.82v5.54h-2.5v-9.78h2.44v1.46c.333335-.546669.779997-.966665 1.34-1.26s1.19333-.44 1.9-.44zm8.6-4.08v1.82c0 .70667-.119999 1.343331-.36 1.91-.240001.56667-.646664 1.129997-1.22 1.69l-1.02-.8c.320002-.346668.566666-.666665.74-.96s.286666-.593332.34-.9h-1.28v-2.76zm3.84 0v1.82c0 .70667-.119999 1.343331-.36 1.91-.240001.56667-.646664 1.129997-1.22 1.69l-1.02-.8c.320002-.346668.566666-.666665.74-.96s.286666-.593332.34-.9h-1.28v-2.76zm13.48 4.08c1.173339 0 2.046664.33333 2.62 1s.86 1.673327.86 3.02v6h-2.5v-5.86c0-.760004-.143332-1.313332-.43-1.66s-.736664-.52-1.35-.52c-.720004 0-1.296664.226664-1.73.68-.433335.453336-.65 1.059996-.65 1.82v5.54h-2.5v-14.1h2.5v5.68c.333335-.520003.776664-.916665 1.33-1.19s1.17-.41 1.85-.41zm10.22 0c1.37334 0 2.39333.33333 3.06 1s1 1.693326 1 3.08v5.94h-2.38v-1.5c-.226668.520003-.583331.926665-1.07 1.22s-1.049997.44-1.69.44c-.653337 0-1.246664-.133332-1.78-.4s-.953332-.633331-1.26-1.1-.46-.986664-.46-1.56c0-.720004.183332-1.286665.55-1.7.366669-.413335.963329-.713332 1.79-.9.757782-.171112 1.778837-.263796 3.063193-.278056l.856807-.001944v-.46c0-.66667-.143332-1.146665-.43-1.44s-.76333-.44-1.43-.44c-.520003 0-1.06333.089999-1.63.27-.566669.180001-1.123331.429998-1.67.75l-.7-1.72c.546669-.346668 1.206663-.633332 1.98-.86s1.506663-.34 2.2-.34zm-.58 8.38c.66667 0 1.209998-.223331 1.63-.67s.63-1.02333.63-1.73v-.42h-.36c-.893338 0-1.586664.04-2.08.12s-.846666.219999-1.06.42-.32.473332-.32.82c0 .426669.146665.776665.44 1.05s.666664.41 1.12.41zm10.78 1.8c-.866671 0-1.66333-.106666-2.39-.32s-1.343331-.519998-1.85-.92l.7-1.74c1.040005.760004 2.233327 1.14 3.58 1.14.573336 0 1.009999-.093332 1.31-.28.300002-.186668.45-.453332.45-.8 0-.293335-.103332-.519999-.31-.68s-.576664-.306666-1.11-.44l-1.6-.36c-.906671-.200001-1.579998-.526664-2.02-.98s-.66-1.039996-.66-1.76c0-.600003.169998-1.129998.51-1.59s.81333-.816665 1.42-1.07 1.309996-.38 2.11-.38c.693337 0 1.36333.106666 2.01.32s1.216664.513331 1.71.9l-.7 1.7c-1.013338-.733337-2.026662-1.1-3.04-1.1-.546669 0-.973332.099999-1.28.3s-.46.479998-.46.84c0 .266668.096666.486666.29.66s.503331.306666.93.4l1.66.38c.973338.213334 1.686664.549998 2.14 1.01s.68 1.06333.68 1.81c0 .906671-.366663 1.626664-1.1 2.16s-1.72666.8-2.98.8zm11.78-10.18c1.173339 0 2.046664.33333 2.62 1s.86 1.673327.86 3.02v6h-2.5v-5.86c0-.760004-.143332-1.313332-.43-1.66s-.736664-.52-1.35-.52c-.720004 0-1.296664.226664-1.73.68-.433335.453336-.65 1.059996-.65 1.82v5.54h-2.5v-14.1h2.5v5.68c.333335-.520003.776664-.916665 1.33-1.19s1.17-.41 1.85-.41zm14.6 5.58h-6.66c.08.906671.353331 1.579998.82 2.02s1.133329.66 2 .66c1.080005 0 2.066662-.346663 2.96-1.04l.72 1.72c-.453336.373335-1.02333.673332-1.71.9s-1.376663.34-2.07.34c-1.600008 0-2.863329-.453329-3.79-1.36s-1.39-2.146659-1.39-3.72c0-1.000005.199998-1.886663.6-2.66.4-.773337.96333-1.373331 1.69-1.8s1.549995-.64 2.47-.64c1.346673 0 2.409996.433329 3.19 1.3s1.17 2.059992 1.17 3.58zm-4.3-3.82c-.66667 0-1.203331.213331-1.61.64s-.656666 1.039996-.75 1.84h4.52c-.026667-.813337-.226665-1.429998-.6-1.85s-.89333-.63-1.56-.63zm9.94 8.42c-.866671 0-1.66333-.106666-2.39-.32s-1.343331-.519998-1.85-.92l.7-1.74c1.040005.760004 2.233327 1.14 3.58 1.14.573336 0 1.009999-.093332 1.31-.28.300002-.186668.45-.453332.45-.8 0-.293335-.103332-.519999-.31-.68s-.576664-.306666-1.11-.44l-1.6-.36c-.906671-.200001-1.579998-.526664-2.02-.98s-.66-1.039996-.66-1.76c0-.600003.169998-1.129998.51-1.59s.81333-.816665 1.42-1.07 1.309996-.38 2.11-.38c.693337 0 1.36333.106666 2.01.32s1.216664.513331 1.71.9l-.7 1.7c-1.013338-.733337-2.026662-1.1-3.04-1.1-.546669 0-.973332.099999-1.28.3s-.46.479998-.46.84c0 .266668.096666.486666.29.66s.503331.306666.93.4l1.66.38c.973338.213334 1.686664.549998 2.14 1.01s.68 1.06333.68 1.81c0 .906671-.366663 1.626664-1.1 2.16s-1.72666.8-2.98.8zm16.52-1.88c.293335 0 .599998-.02.92-.06l-.12 1.86c-.400002.04-.766665.06-1.1.06-1.37334 0-2.386663-.316663-3.04-.95-.653337-.633336-.98-1.57666-.98-2.83v-4.26h-1.88v-1.88h1.88v-2.92h2.5v2.92h2.58v1.88h-2.58v4.22c0 1.306673.606661 1.96 1.82 1.96zm6.84 1.88c-1 0-1.876663-.206665-2.63-.62s-1.336665-1.006663-1.75-1.78-.62-1.673328-.62-2.7.206665-1.923329.62-2.69c.413335-.76667.996663-1.356665 1.75-1.77s1.63-.62 2.63-.62 1.876663.206665 2.63.62 1.333331 1.00333 1.74 1.77c.406669.766671.61 1.663328.61 2.69s-.203331 1.926663-.61 2.7-.986663 1.366665-1.74 1.78-1.63.62-2.63.62zm-.02-1.94c.813337 0 1.433331-.266664 1.86-.8s.64-1.319995.64-2.36c0-1.026672-.213331-1.809997-.64-2.35s-1.039996-.81-1.84-.81-1.416664.269997-1.85.81c-.433335.540003-.65 1.323328-.65 2.35 0 1.040005.213331 1.826664.64 2.36s1.039996.8 1.84.8zm22.12-.3v2.08h-9.48v-1.9l4.8-5.16c.560003-.613336.969999-1.176664 1.23-1.69s.39-1.023331.39-1.53c0-.640003-.183331-1.123332-.55-1.45-.366668-.326668-.90333-.49-1.61-.49-1.266673 0-2.539994.486662-3.82 1.46l-.86-1.88c.560003-.493336 1.276662-.889998 2.15-1.19.873338-.300001 1.749996-.45 2.63-.45 1.41334 0 2.533329.346663 3.36 1.04s1.24 1.626661 1.24 2.8c0 .813337-.173332 1.576663-.52 2.29s-.933329 1.509996-1.76 2.39l-3.46 3.68z" fill="#4c7ef3"/><path d="m45.74 120-1.42-3.3h-6.86l-1.42 3.3h-2.6l6.38-14.1h2.1l6.38 14.1zm-7.44-5.3h5.16l-2.58-6zm11.28 5.3v-14.1h2.5v14.1zm5.08 0v-14.1h2.5v14.1zm5.08 0v-9.78h2.5v9.78zm-.14-14.32h2.76v2.46h-2.76zm14.2 4.54v9.78h-2.44v-1.5c-.3066682.533336-.7199974.943332-1.24 1.23s-1.1066634.43-1.76.43c-2.400012 0-3.6-1.346653-3.6-4.04v-5.9h2.5v5.92c0 .693337.1399986 1.206665.42 1.54s.719997.5 1.32.5c.6933368 0 1.2499979-.229998 1.67-.69s.63-1.069996.63-1.83v-5.44zm14.22-.24c1.1066722 0 1.9333306.329997 2.48.99s.82 1.669993.82 3.03v6h-2.5v-5.9c0-.74667-.1266654-1.289998-.38-1.63s-.6599972-.51-1.22-.51c-.66667 0-1.1866648.226664-1.56.68s-.56 1.086663-.56 1.9v5.46h-2.5v-5.9c0-.74667-.1233321-1.289998-.37-1.63s-.6566638-.51-1.23-.51c-.6533366 0-1.1666648.226664-1.54.68s-.56 1.086663-.56 1.9v5.46h-2.5v-9.78h2.44v1.38c.2933348-.533336.6999974-.936665 1.22-1.21s1.11333-.41 1.78-.41c1.4800074 0 2.4599976.613327 2.94 1.84.3066682-.573336.7466638-1.023332 1.32-1.35s1.2133298-.49 1.92-.49zm16.26 10.2c-1.080005 0-2.093329-.146665-3.04-.44s-1.7466634-.706664-2.4-1.24l.86-1.88c.680003.520003 1.396663.899999 2.15 1.14s1.569996.36 2.45.36c.973338 0 1.723331-.169998 2.25-.51s.79-.816664.79-1.43c0-.533336-.243331-.939999-.73-1.22-.442426-.254547-1.152062-.498071-2.128924-.730578l-.301076-.069422c-1.173339-.253335-2.126663-.546665-2.86-.88s-1.286665-.759997-1.66-1.28c-.3733352-.520003-.56-1.179996-.56-1.98 0-.826671.2266644-1.566663.68-2.22.453336-.653337 1.093329-1.163331 1.92-1.53.826671-.366668 1.779995-.55 2.86-.55.986672 0 1.926662.149999 2.82.45.893338.300002 1.626664.709997 2.2 1.23l-.86 1.88c-1.25334-1.000005-2.639992-1.5-4.16-1.5-.906671 0-1.623331.183332-2.15.55-.526669.366669-.79.876663-.79 1.53 0 .546669.233331.966665.7 1.26.42778.26889 1.130042.520971 2.106804.75625l.273196.06375c1.186673.266668 2.149996.563332 2.89.89s1.306665.743331 1.7 1.25.59 1.146663.59 1.92c0 .840004-.223331 1.576664-.67 2.21-.446669.633337-1.093329 1.119998-1.94 1.46s-1.843328.51-2.99.51zm11.96-10.2c1.37334 0 2.39333.33333 3.06 1s1 1.693326 1 3.08v5.94h-2.38v-1.5c-.226668.520003-.583331.926665-1.07 1.22s-1.049997.44-1.69.44c-.653337 0-1.246664-.133332-1.78-.4s-.953332-.633331-1.26-1.1-.46-.986664-.46-1.56c0-.720004.183331-1.286665.55-1.7.366668-.413335.963329-.713332 1.79-.9.757782-.171112 1.778837-.263796 3.063193-.278056l.856807-.001944v-.46c0-.66667-.143332-1.146665-.43-1.44s-.76333-.44-1.43-.44c-.520003 0-1.063331.089999-1.63.27-.56667.180001-1.123331.429998-1.67.75l-.7-1.72c.546669-.346668 1.206663-.633332 1.98-.86s1.506663-.34 2.2-.34zm-.58 8.38c.66667 0 1.209998-.223331 1.63-.67s.63-1.02333.63-1.73v-.42h-.36c-.893338 0-1.586664.04-2.08.12s-.846666.219999-1.06.42-.32.473332-.32.82c0 .426669.146665.776665.44 1.05s.666664.41 1.12.41zm12.18-.08c.293335 0 .599998-.02.92-.06l-.12 1.86c-.400002.04-.766665.06-1.1.06-1.37334 0-2.386663-.316663-3.04-.95-.653337-.633336-.98-1.57666-.98-2.83v-4.26h-1.88v-1.88h1.88v-2.92h2.5v2.92h2.58v1.88h-2.58v4.22c0 1.306673.606661 1.96 1.82 1.96zm2.38 1.72v-9.78h2.5v9.78zm-.14-14.32h2.76v2.46h-2.76zm12.08 4.56h2.46l-4.28 9.76h-2.18l-4.24-9.76h2.64l2.76 6.9zm12.64-.02v9.78h-2.44v-1.5c-.306668.533336-.719997.943332-1.24 1.23s-1.106663.43-1.76.43c-2.400012 0-3.6-1.346653-3.6-4.04v-5.9h2.5v5.92c0 .693337.139999 1.206665.42 1.54s.719997.5 1.32.5c.693337 0 1.249998-.229998 1.67-.69s.63-1.069996.63-1.83v-5.44zm14.22-.24c1.106672 0 1.933331.329997 2.48.99s.82 1.669993.82 3.03v6h-2.5v-5.9c0-.74667-.126665-1.289998-.38-1.63s-.659997-.51-1.22-.51c-.66667 0-1.186665.226664-1.56.68s-.56 1.086663-.56 1.9v5.46h-2.5v-5.9c0-.74667-.123332-1.289998-.37-1.63s-.656664-.51-1.23-.51c-.653337 0-1.166665.226664-1.54.68s-.56 1.086663-.56 1.9v5.46h-2.5v-9.78h2.44v1.38c.293335-.533336.699997-.936665 1.22-1.21s1.11333-.41 1.78-.41c1.480007 0 2.459998.613327 2.94 1.84.306668-.573336.746664-1.023332 1.32-1.35s1.21333-.49 1.92-.49z" fill="#fff"/><path d="m420.03 120-1.42-3.3h-6.86l-1.42 3.3h-2.6l6.38-14.1h2.1l6.38 14.1zm-7.44-5.3h5.16l-2.58-6zm11.28 5.3v-14.1h2.5v14.1zm5.08 0v-14.1h2.5v14.1zm5.08 0v-9.78h2.5v9.78zm-.14-14.32h2.76v2.46h-2.76zm14.2 4.54v9.78h-2.44v-1.5c-.306668.533336-.719997.943332-1.24 1.23s-1.106663.43-1.76.43c-2.400012 0-3.6-1.346653-3.6-4.04v-5.9h2.5v5.92c0 .693337.139999 1.206665.42 1.54s.719997.5 1.32.5c.693337 0 1.249998-.229998 1.67-.69s.63-1.069996.63-1.83v-5.44zm14.22-.24c1.106672 0 1.933331.329997 2.48.99s.82 1.669993.82 3.03v6h-2.5v-5.9c0-.74667-.126665-1.289998-.38-1.63s-.659997-.51-1.22-.51c-.66667 0-1.186665.226664-1.56.68s-.56 1.086663-.56 1.9v5.46h-2.5v-5.9c0-.74667-.123332-1.289998-.37-1.63s-.656664-.51-1.23-.51c-.653337 0-1.166665.226664-1.54.68s-.56 1.086663-.56 1.9v5.46h-2.5v-9.78h2.44v1.38c.293335-.533336.699997-.936665 1.22-1.21s1.11333-.41 1.78-.41c1.480007 0 2.459998.613327 2.94 1.84.306668-.573336.746664-1.023332 1.32-1.35s1.21333-.49 1.92-.49zm17.88 10.2c-1.386674 0-2.596662-.296664-3.63-.89-1.033339-.593336-1.826664-1.436661-2.38-2.53s-.83-2.366659-.83-3.82.276664-2.723328.83-3.81 1.346661-1.926664 2.38-2.52c1.033338-.593336 2.243326-.89 3.63-.89.946671 0 1.839996.146665 2.68.44s1.546664.706664 2.12 1.24l-.86 1.88c-.640003-.506669-1.27333-.876665-1.9-1.11-.62667-.233334-1.29333-.35-2-.35-1.360007 0-2.409996.439996-3.15 1.32s-1.11 2.146658-1.11 3.8c0 1.666675.369996 2.939996 1.11 3.82s1.789993 1.32 3.15 1.32c.70667 0 1.37333-.116665 2-.35.62667-.233334 1.259997-.603331 1.9-1.11l.86 1.88c-.573336.533336-1.279996.946665-2.12 1.24s-1.733329.44-2.68.44zm15.52-4.62h-6.66c.08.906671.353331 1.579998.82 2.02s1.133329.66 2 .66c1.080005 0 2.066662-.346663 2.96-1.04l.72 1.72c-.453336.373335-1.02333.673332-1.71.9s-1.376663.34-2.07.34c-1.600008 0-2.863329-.453329-3.79-1.36s-1.39-2.146659-1.39-3.72c0-1.000005.199998-1.886663.6-2.66.4-.773337.96333-1.373331 1.69-1.8s1.549995-.64 2.47-.64c1.346673 0 2.409996.433329 3.19 1.3s1.17 2.059992 1.17 3.58zm-4.3-3.82c-.66667 0-1.203331.213331-1.61.64s-.656666 1.039996-.75 1.84h4.52c-.026667-.813337-.226665-1.429998-.6-1.85s-.89333-.63-1.56-.63zm11.96-1.76c.840004 0 1.589997.213331 2.25.64s1.173331 1.029996 1.54 1.81c.366668.780004.55 1.676662.55 2.69s-.183332 1.899996-.55 2.66c-.366669.760004-.876663 1.346665-1.53 1.76s-1.406662.62-2.26.62c-.693337 0-1.313331-.146665-1.86-.44s-.966665-.699997-1.26-1.22v5.1h-2.5v-13.38h2.46v1.48c.293335-.546669.716664-.969998 1.27-1.27.553336-.300001 1.18333-.45 1.89-.45zm-.66 8.24c.786671 0 1.399998-.269997 1.84-.81s.66-1.303328.66-2.29c0-1.013338-.219998-1.799997-.66-2.36s-1.053329-.84-1.84-.84c-.800004 0-1.416665.273331-1.85.82-.433336.546669-.65 1.326662-.65 2.34 0 1.000005.216664 1.773331.65 2.32.433335.546669 1.049996.82 1.85.82z" fill="#fff"/><path d="m513.97 109.98c1.37334 0 2.39333.33333 3.06 1s1 1.693326 1 3.08v5.94h-2.38v-1.5c-.226668.520003-.583331.926665-1.07 1.22s-1.049997.44-1.69.44c-.653337 0-1.246664-.133332-1.78-.4s-.953332-.633331-1.26-1.1-.46-.986664-.46-1.56c0-.720004.183331-1.286665.55-1.7.366668-.413335.963329-.713332 1.79-.9.757782-.171112 1.778837-.263796 3.063193-.278056l.856807-.001944v-.46c0-.66667-.143332-1.146665-.43-1.44s-.76333-.44-1.43-.44c-.520003 0-1.063331.089999-1.63.27-.56667.180001-1.123331.429998-1.67.75l-.7-1.72c.546669-.346668 1.206663-.633332 1.98-.86s1.506663-.34 2.2-.34zm1.68 5.56h-.36c-.893338 0-1.586664.04-2.08.12s-.846666.219999-1.06.42-.32.473332-.32.82c0 .426669.146665.776665.44 1.05s.666664.41 1.12.41c.66667 0 1.209998-.223331 1.63-.67s.63-1.02333.63-1.73z" fill="#fff"/><path d="m566.257407 422h-565.99999959v-153h565.99999959zm-563.99999959-151v149h561.99999959v-149z" fill="#757f97"/><path d="m206.257407 153h-205.99999959v-153h205.99999959zm-2-151h-201.99999959v149h201.99999959z" fill="#757f97"/><path d="m566 153h-206v-153h206zm-2-151h-202v149h202z" fill="#757f97"/><path d="m241.187407 314.92v2.08h-9.48v-1.9l4.8-5.16c.560003-.613336.969999-1.176664 1.23-1.69.260002-.513336.39-1.023331.39-1.53 0-.640003-.183331-1.123332-.55-1.45-.366668-.326668-.903329-.49-1.61-.49-1.266673 0-2.539993.486662-3.82 1.46l-.86-1.88c.560003-.493336 1.276663-.889998 2.15-1.19.873338-.300001 1.749996-.45 2.63-.45 1.413341 0 2.53333.346663 3.36 1.04.826671.693337 1.24 1.626661 1.24 2.8 0 .813337-.173331 1.576663-.52 2.29-.346668.713337-.933329 1.509996-1.76 2.39l-3.46 3.68z" fill="#fff"/><path d="m332.437407 309.76c.826671.213334 1.463332.616664 1.91 1.21.446669.593336.67 1.329996.67 2.21 0 1.226673-.449995 2.196663-1.35 2.91-.900004.713337-2.123325 1.07-3.67 1.07-.946671 0-1.856662-.146665-2.73-.44-.873337-.293335-1.596663-.693331-2.17-1.2l.86-1.88c1.226673.973338 2.539993 1.46 3.94 1.46.893338 0 1.559998-.176665 2-.53.440003-.353335.66-.889996.66-1.61 0-.70667-.223331-1.229998-.67-1.57-.446668-.340002-1.136662-.51-2.07-.51h-1.86v-2.04h1.52c1.826676 0 2.74-.68666 2.74-2.06 0-.640003-.196664-1.133332-.59-1.48-.393335-.346668-.949996-.52-1.67-.52-.626669 0-1.26333.123332-1.91.37-.646669.246668-1.276663.609998-1.89 1.09l-.86-1.88c.560003-.506669 1.276663-.906665 2.15-1.2.873338-.293335 1.763329-.44 2.67-.44 1.386674 0 2.49333.336663 3.32 1.01.826671.673337 1.24 1.583328 1.24 2.73-.013333.786671-.216664 1.469997-.61 2.05-.393335.580003-.936663.996665-1.63 1.25z" fill="#fff"/><path d="m428.717407 312.24v2h-1.98v2.76h-2.52v-2.76h-6.12v-1.9l6.56-9.44h2.08v9.34zm-8.22 0 3.72-5.38v5.38z" fill="#fff"/><path d="m520.017407 307.98c.880005 0 1.656664.189998 2.33.57.673337.380002 1.193332.909997 1.56 1.59.366669.680003.55 1.459996.55 2.34 0 .933338-.213331 1.75333-.64 2.46-.426668.70667-1.029996 1.253331-1.81 1.64-.780003.386669-1.696661.58-2.75.58-.880004 0-1.749995-.149998-2.61-.45-.860004-.300001-1.569997-.696664-2.13-1.19l.86-1.88c1.280007.973338 2.58666 1.46 3.92 1.46.880005 0 1.553331-.219998 2.02-.66s.7-1.066663.7-1.88c0-.786671-.236664-1.409998-.71-1.87-.473335-.460002-1.116662-.69-1.93-.69-.546669 0-1.06333.103332-1.55.31-.486669.206668-.923331.503331-1.31.89h-1.54v-8.3h8.84v2h-6.32v3.8c.680004-.480002 1.52-.72 2.52-.72z" fill="#fff"/><g fill="#757f97"><path d="m.75829552 344.499113-.00177543 1.999999 565.24259191.501775.001775-1.999999z"/><path d="m.75987054 75.4975429-.00492021 1.999994 205.24258667.5049202.00492-1.999994z"/><path d="m360.502463 75.4975429-.00492 1.999994 205.242586.5049202.004921-1.999994z"/><path d="m96.7574074 269.5h-2v152h2z"/><path d="m190.257407 269.5h-2v152h2z"/><path d="m284.257407 269.5h-2v152h2z"/><path d="m378.257407 269.5h-2v152h2z"/><path d="m472.257407 269.5h-2v152h2z"/></g><path d="m104 194.929688v26.071324l133.257407.134863-.000407 16.578125 6.000407.000844-7 14-7-14 5.999593-.000844.000407-14.580148-133.257407-.134864v-28.0693z" fill="#4c7ef3"/><path d="m231.257407 194.929688v26.070906l227 .134864-.000407 16.578542 6.000407.000844-7 14-7-14 5.999593-.000844.000407-14.57973-227-.134864v-28.069718z" fill="#4c7ef3" transform="matrix(-1 0 0 1 693.514814 0)"/></g><path d="m563.576 111.3c-1.941343 0-3.635326-.415329-5.082-1.246s-2.557329-2.011326-3.332-3.542-1.162-3.313323-1.162-5.348c0-2.0346768.387329-3.8126591 1.162-5.334s1.885326-2.6973292 3.332-3.528 3.140657-1.246 5.082-1.246c1.32534 0 2.575994.2053313 3.752.616s2.165329.9893296 2.968 1.736l-1.204 2.632c-.896004-.7093369-1.782662-1.2273317-2.66-1.554s-1.810662-.49-2.8-.49c-1.90401 0-3.373995.6159938-4.41 1.848s-1.554 3.0053218-1.554 5.32c0 2.333345.517995 4.115994 1.554 5.348s2.50599 1.848 4.41 1.848c.989338 0 1.922662-.163332 2.8-.49s1.763996-.844663 2.66-1.554l1.204 2.632c-.802671.74667-1.791994 1.325331-2.968 1.736s-2.42666.616-3.752.616zm15.96-.028c-1.400007 0-2.627328-.28933-3.682-.868s-1.87133-1.409328-2.45-2.492-.868-2.342659-.868-3.78.28933-2.692661.868-3.766c.57867-1.0733387 1.395328-1.8993304 2.45-2.478s2.281993-.868 3.682-.868 2.627328.2893304 3.682.868 1.866664 1.4046613 2.436 2.478c.569336 1.073339.854 2.328659.854 3.766s-.284664 2.697328-.854 3.78-1.381328 1.91333-2.436 2.492-2.281993.868-3.682.868zm-.028-2.716c1.138672 0 2.006664-.37333 2.604-1.12s.896-1.847993.896-3.304c0-1.437341-.298664-2.533996-.896-3.29s-1.455994-1.134-2.576-1.134-1.98333.377996-2.59 1.134-.91 1.852659-.91 3.29c0 1.456007.298664 2.55733.896 3.304s1.455994 1.12 2.576 1.12zm9.884 2.492v-19.74h3.5v19.74zm7.112 0v-19.74h3.5v19.74zm7.112 0v-13.692h3.5v13.692zm-.196-20.048h3.864v3.444h-3.864zm12.348 20.272c-1.213339 0-2.328662-.149332-3.346-.448s-1.880663-.727997-2.59-1.288l.98-2.436c1.456007 1.064005 3.126657 1.596 5.012 1.596.802671 0 1.413998-.130665 1.834-.392s.63-.634664.63-1.12c0-.410669-.144665-.727999-.434-.952s-.80733-.429332-1.554-.616l-2.24-.504c-1.26934-.280001-2.211997-.73733-2.828-1.372s-.924-1.455995-.924-2.464c0-.840004.237998-1.5819968.714-2.226s1.138662-1.1433316 1.988-1.498 1.833994-.532 2.954-.532c.970672 0 1.908662.1493318 2.814.448s1.70333.718664 2.394 1.26l-.98 2.38c-1.418674-1.026672-2.837326-1.54-4.256-1.54-.765337 0-1.362665.1399986-1.792.42-.429335.280001-.644.671997-.644 1.176 0 .373335.135332.681332.406.924s.704664.429333 1.302.56l2.324.532c1.362673.298668 2.36133.769997 2.996 1.414s.952 1.488661.952 2.534c0 1.26934-.513328 2.27733-1.54 3.024s-2.417325 1.12-4.172 1.12zm8.54-.224v-13.692h3.5v13.692zm-.196-20.048h3.864v3.444h-3.864zm13.552 20.272c-1.400007 0-2.627328-.28933-3.682-.868s-1.87133-1.409328-2.45-2.492-.868-2.342659-.868-3.78.28933-2.692661.868-3.766c.57867-1.0733387 1.395328-1.8993304 2.45-2.478s2.281993-.868 3.682-.868 2.627328.2893304 3.682.868 1.866664 1.4046613 2.436 2.478c.569336 1.073339.854 2.328659.854 3.766s-.284664 2.697328-.854 3.78-1.381328 1.91333-2.436 2.492-2.281993.868-3.682.868zm-.028-2.716c1.138672 0 2.006664-.37333 2.604-1.12s.896-1.847993.896-3.304c0-1.437341-.298664-2.533996-.896-3.29s-1.455994-1.134-2.576-1.134-1.98333.377996-2.59 1.134-.91 1.852659-.91 3.29c0 1.456007.298664 2.55733.896 3.304s1.455994 1.12 2.576 1.12zm17.836-11.536c1.642675 0 2.865329.466662 3.668 1.4s1.204 2.342657 1.204 4.228v8.4h-3.5v-8.204c0-1.064005-.200665-1.838664-.602-2.324s-1.031329-.728-1.89-.728c-1.008005 0-1.81533.31733-2.422.952s-.91 1.483995-.91 2.548v7.756h-3.5v-13.692h3.416v2.044c.466669-.7653372 1.091996-1.3533313 1.876-1.764s1.670662-.616 2.66-.616z" fill="#fff"/></g></svg>