<svg height="941" viewBox="0 0 1214 941" width="1214" xmlns="http://www.w3.org/2000/svg"><g fill="none" fill-rule="nonzero"><g transform="translate(155 365)"><path d="m66.344 80.72h4.16c1.8453426 0 3.2773282.4933284 4.296 1.48s1.528 2.3706578 1.528 4.152-.5093282 3.167995-1.528 4.16-2.4506574 1.488-4.296 1.488h-4.16zm4.032 9.6c2.592013 0 3.888-1.3226534 3.888-3.968 0-2.6346798-1.295987-3.952-3.888-3.952h-1.968v7.92zm11.216-6.336c1.0986722 0 1.914664.266664 2.448.8s.8 1.3546611.8 2.464v4.752h-1.904v-1.2c-.1813342.4160021-.4666647.7413322-.856.976s-.8399974.352-1.352.352c-.5226693 0-.9973312-.1066656-1.424-.32s-.7626654-.5066648-1.008-.88-.368-.789331-.368-1.248c0-.5760029.1466652-1.0293317.44-1.36s.7706634-.5706659 1.432-.72c.595203-.1344007 1.3934359-.2083201 2.3947187-.22176l.7412813-.00224v-.368c0-.533336-.1146655-.9173322-.344-1.152s-.610664-.352-1.144-.352c-.4160021 0-.8506644.0719993-1.304.216s-.8986645.3439987-1.336.6l-.56-1.376c.4373355-.2773347.9653302-.5066658 1.584-.688s1.2053306-.272 1.76-.272zm-.464 6.704c.533336 0 .9679983-.1786649 1.304-.536s.504-.8186638.504-1.384v-.336h-.288c-.7146702 0-1.2693314.0319997-1.664.096s-.6773325.1759992-.848.336-.256.3786653-.256.656c0 .341335.1173322.6213322.352.84s.5333315.328.896.328zm9.744-.064c.2346678 0 .4799987-.0159998.736-.048l-.096 1.488c-.3200016.0320002-.613332.048-.88.048-1.0986722 0-1.9093307-.2533308-2.432-.76s-.784-1.2613283-.784-2.264v-3.408h-1.504v-1.504h1.504v-2.336h2v2.336h2.064v1.504h-2.064v3.376c0 1.0453386.4853285 1.568 1.456 1.568zm5.264-6.64c1.0986722 0 1.914664.266664 2.448.8s.8 1.3546611.8 2.464v4.752h-1.904v-1.2c-.1813342.4160021-.4666647.7413322-.856.976s-.8399974.352-1.352.352c-.5226693 0-.9973312-.1066656-1.424-.32s-.7626654-.5066648-1.008-.88-.368-.789331-.368-1.248c0-.5760029.1466652-1.0293317.44-1.36s.7706634-.5706659 1.432-.72c.595203-.1344007 1.3934359-.2083201 2.3947187-.22176l.7412813-.00224v-.368c0-.533336-.1146655-.9173322-.344-1.152s-.610664-.352-1.144-.352c-.4160021 0-.8506644.0719993-1.304.216s-.8986645.3439987-1.336.6l-.56-1.376c.4373355-.2773347.9653302-.5066658 1.584-.688s1.2053306-.272 1.76-.272zm-.464 6.704c.533336 0 .9679983-.1786649 1.304-.536s.504-.8186638.504-1.384v-.336h-.288c-.7146702 0-1.2693314.0319997-1.664.096s-.6773325.1759992-.848.336-.256.3786653-.256.656c0 .341335.1173322.6213322.352.84s.5333315.328.896.328zm5.568-6.512h2.24v2.208h-2.24zm0 5.616h2.24v2.208h-2.24zm10.544-7.056v2.208h-2.24v-1.456c0-.5546694.095999-1.0586644.288-1.512s.517331-.909331.976-1.368l.816.64c-.256001.2773347-.453333.5333322-.592.768s-.229333.4746654-.272.72zm3.072 0v2.208h-2.24v-1.456c0-.5546694.095999-1.0586644.288-1.512s.517331-.909331.976-1.368l.816.64c-.256001.2773347-.453333.5333322-.592.768s-.229333.4746654-.272.72zm5.472 9.392c-.821337 0-1.53333-.1653317-2.136-.496s-1.063998-.799997-1.384-1.408-.48-1.3173293-.48-2.128.167998-1.5279969.504-2.152.81333-1.106665 1.432-1.448 1.333329-.512 2.144-.512c.554669 0 1.095997.0879991 1.624.264s.951998.4133318 1.272.712l-.576 1.408c-.330668-.266668-.679998-.4693326-1.048-.608s-.733332-.208-1.096-.208c-.693337 0-1.231998.2159978-1.616.648s-.576 1.0533293-.576 1.864c0 .800004.191998 1.4159978.576 1.848s.922663.648 1.616.648c.362668 0 .727998-.0693326 1.096-.208s.717332-.341332 1.048-.608l.576 1.392c-.341335.3093349-.778664.5519991-1.312.728s-1.087997.264-1.664.264zm7.6-8.144c1.098672 0 1.914664.266664 2.448.8s.8 1.3546611.8 2.464v4.752h-1.904v-1.2c-.181334.4160021-.466665.7413322-.856.976s-.839997.352-1.352.352c-.522669 0-.997331-.1066656-1.424-.32s-.762665-.5066648-1.008-.88-.368-.789331-.368-1.248c0-.5760029.146665-1.0293317.44-1.36s.770663-.5706659 1.432-.72c.595203-.1344007 1.393436-.2083201 2.394719-.22176l.741281-.00224v-.368c0-.533336-.114666-.9173322-.344-1.152s-.610664-.352-1.144-.352c-.416002 0-.850664.0719993-1.304.216s-.898664.3439987-1.336.6l-.56-1.376c.437336-.2773347.96533-.5066658 1.584-.688s1.205331-.272 1.76-.272zm-.464 6.704c.533336 0 .967998-.1786649 1.304-.536s.504-.8186638.504-1.384v-.336h-.288c-.71467 0-1.269331.0319997-1.664.096s-.677332.1759992-.848.336-.256.3786653-.256.656c0 .341335.117332.6213322.352.84s.533332.328.896.328zm9.744-.064c.234668 0 .479999-.0159998.736-.048l-.096 1.488c-.320002.0320002-.613332.048-.88.048-1.098672 0-1.909331-.2533308-2.432-.76s-.784-1.2613283-.784-2.264v-3.408h-1.504v-1.504h1.504v-2.336h2v2.336h2.064v1.504h-2.064v3.376c0 1.0453386.485328 1.568 1.456 1.568zm4.784 1.504c-.693337 0-1.330664-.0853325-1.912-.256s-1.074665-.4159984-1.48-.736l.56-1.392c.832004.608003 1.786661.912 2.864.912.458669 0 .807999-.0746659 1.048-.224s.36-.3626653.36-.64c0-.2346678-.082666-.4159994-.248-.544s-.461331-.2453328-.888-.352l-1.28-.288c-.725337-.1600008-1.263998-.4213315-1.616-.784s-.528-.8319971-.528-1.408c0-.4800024.135999-.9039982.408-1.272s.650664-.6533323 1.136-.856 1.047997-.304 1.688-.304c.554669 0 1.090664.0853325 1.608.256s.973331.4106651 1.368.72l-.56 1.36c-.810671-.5866696-1.621329-.88-2.432-.88-.437336 0-.778665.0799992-1.024.24s-.368.3839986-.368.672c0 .2133344.077333.3893326.232.528s.402665.245333.744.32l1.328.304c.778671.1706675 1.349332.4399982 1.712.808s.544.8506637.544 1.448c0 .725337-.29333 1.3013312-.88 1.728s-1.381328.64-2.384.64zm6.944-11.408v1.456c0 .5653362-.095999 1.0746644-.288 1.528s-.517331.9039978-.976 1.352l-.816-.64c.256001-.2773347.453333-.5333322.592-.768s.229333-.4746654.272-.72h-1.024v-2.208zm3.072 0v1.456c0 .5653362-.095999 1.0746644-.288 1.528s-.517331.9039978-.976 1.352l-.816-.64c.256001-.2773347.453333-.5333322.592-.768s.229333-.4746654.272-.72h-1.024v-2.208z" fill="#fff"/><path d="m82.66 4.98c1.1733392 0 2.0466638.33333 2.62 1s.86 1.6733266.86 3.02v6h-2.5v-5.86c0-.7600038-.1433319-1.3133316-.43-1.66s-.7366636-.52-1.35-.52c-.7200036 0-1.2966645.2266644-1.73.68s-.65 1.0599962-.65 1.82v5.54h-2.5v-9.78h2.44v1.46c.333335-.5466694.7799972-.9666652 1.34-1.26s1.1933298-.44 1.9-.44zm10.48 10.18c-1 0-1.8766629-.2066646-2.63-.62s-1.3366646-1.0066628-1.75-1.78-.62-1.6733282-.62-2.7.2066646-1.9233295.62-2.69.9966629-1.3566646 1.75-1.77 1.63-.62 2.63-.62 1.8766629.2066646 2.63.62 1.3333313 1.0033295 1.74 1.77.61 1.6633282.61 2.69-.2033313 1.9266628-.61 2.7-.9866629 1.3666646-1.74 1.78-1.63.62-2.63.62zm-.02-1.94c.8133374 0 1.4333312-.266664 1.86-.8s.64-1.3199948.64-2.36c0-1.0266718-.2133312-1.8099973-.64-2.35s-1.039996-.81-1.84-.81-1.4166645.2699973-1.85.81-.65 1.3233282-.65 2.35c0 1.0400052.2133312 1.826664.64 2.36s1.039996.8 1.84.8zm16.5-12.32v14.1h-2.48v-1.58c-.293335.5466694-.716664.9733318-1.27 1.28s-1.18333.46-1.89.46c-.84 0-1.589997-.2133312-2.25-.64s-1.173332-1.0299961-1.54-1.81c-.3666685-.7800039-.55-1.6766616-.55-2.69s.1833315-1.8999962.55-2.66c.366668-.7600038.876663-1.3466646 1.53-1.76s1.406662-.62 2.26-.62c.70667 0 1.333331.1466652 1.88.44s.966665.706664 1.26 1.24v-5.76zm-4.98 12.32c.800004 0 1.416664-.2733306 1.85-.82.433335-.5466694.65-1.3266616.65-2.34s-.216665-1.7899973-.65-2.33c-.433336-.5400027-1.043329-.81-1.83-.81-.800004 0-1.419998.266664-1.86.8s-.66 1.299995-.66 2.3c0 1.0133384.219998 1.7999972.66 2.36s1.053329.84 1.84.84zm16.14-2.66h-6.66c.08.9066712.353331 1.5799978.82 2.02s1.133329.66 2 .66c1.080005 0 2.066662-.3466632 2.96-1.04l.72 1.72c-.453336.3733352-1.02333.6733322-1.71.9s-1.376663.34-2.07.34c-1.600008 0-2.863329-.4533288-3.79-1.36s-1.39-2.1466588-1.39-3.72c0-1.000005.199998-1.8866628.6-2.66.4-.7733372.96333-1.3733312 1.69-1.8s1.549995-.64 2.47-.64c1.346673 0 2.409996.433329 3.19 1.3s1.17 2.0599924 1.17 3.58zm-4.3-3.82c-.66667 0-1.203331.2133312-1.61.64s-.656666 1.039996-.75 1.84h4.52c-.026667-.8133374-.226665-1.4299979-.6-1.85s-.89333-.63-1.56-.63zm5.28 9.76v-1.5h9.52v1.5z" fill="#4c7ef3"/><path d="m137.02 4.98c1.37334 0 2.39333.33333 3.06 1s1 1.6933264 1 3.08v5.94h-2.38v-1.5c-.226668.5200026-.583331.9266652-1.07 1.22s-1.049997.44-1.69.44c-.653337 0-1.246664-.133332-1.78-.4s-.953332-.633331-1.26-1.1-.46-.9866638-.46-1.56c0-.7200036.183331-1.2866646.55-1.7.366668-.4133354.963329-.7133324 1.79-.9.757782-.17111197 1.778837-.26379644 3.063193-.27805557l.856807-.00194443v-.46c0-.66667-.143332-1.1466652-.43-1.44s-.76333-.44-1.43-.44c-.520003 0-1.063331.0899991-1.63.27-.56667.1800009-1.123331.4299984-1.67.75l-.7-1.72c.546669-.3466684 1.206663-.6333322 1.98-.86s1.506663-.34 2.2-.34zm1.68 5.56-.650371.0014815c-.75457.0079011-1.351108.047407-1.789629.1185185-.493336.0800004-.846666.219999-1.06.42s-.32.4733316-.32.82c0 .4266688.146665.7766653.44 1.05s.666664.41 1.12.41c.66667 0 1.209998-.2233311 1.63-.67s.63-1.0233298.63-1.73z" fill="#4c7ef3"/><path d="m63.48 166v-11.28h2.064v9.584h5.264v1.696zm8.704 0v-7.824h2v7.824zm-.112-11.456h2.208v1.968h-2.208zm8.72 3.44c.9386714 0 1.637331.266664 2.096.8s.688 1.338661.688 2.416v4.8h-2v-4.688c0-.608003-.1146655-1.050665-.344-1.328s-.5893309-.416-1.08-.416c-.5760029 0-1.0373316.181332-1.384.544s-.52.847997-.52 1.456v4.432h-2v-7.824h1.952v1.168c.266668-.437336.6239978-.773332 1.072-1.008s.9546638-.352 1.52-.352zm12.656 8.016h-2.48l-3.36-3.568v3.568h-2v-11.28h2v6.88l3.152-3.408h2.432l-3.52 3.744zm.56-7.824h2.24v2.208h-2.24zm0 5.616h2.24v2.208h-2.24zm13.024-5.808c.938671 0 1.637331.266664 2.096.8s.688 1.338661.688 2.416v4.8h-2v-4.688c0-.608003-.114666-1.050665-.344-1.328s-.589331-.416-1.08-.416c-.576003 0-1.037332.181332-1.384.544s-.52.847997-.52 1.456v4.432h-2v-7.824h1.952v1.168c.266668-.437336.623998-.773332 1.072-1.008s.954664-.352 1.52-.352zm8.384 8.144c-.800004 0-1.50133-.165332-2.104-.496s-1.069332-.80533-1.4-1.424-.496-1.338663-.496-2.16.165332-1.538664.496-2.152.79733-1.085332 1.4-1.416 1.303996-.496 2.104-.496 1.50133.165332 2.104.496 1.066665.802664 1.392 1.416.488 1.330663.488 2.152-.162665 1.54133-.488 2.16-.78933 1.093332-1.392 1.424-1.303996.496-2.104.496zm-.016-1.552c.65067 0 1.146665-.213331 1.488-.64s.512-1.055996.512-1.888c0-.821337-.170665-1.447998-.512-1.88s-.831997-.648-1.472-.648-1.133332.215998-1.48.648-.52 1.058663-.52 1.88c0 .832004.170665 1.461331.512 1.888s.831997.64 1.472.64zm13.2-9.856v11.28h-1.984v-1.264c-.234668.437336-.573331.778665-1.016 1.024s-.946664.368-1.512.368c-.672003 0-1.271997-.170665-1.8-.512s-.938665-.823997-1.232-1.448-.44-1.341329-.44-2.152.146665-1.519997.44-2.128.701331-1.077332 1.224-1.408 1.12533-.496 1.808-.496c.565336 0 1.066664.117332 1.504.352s.773332.565331 1.008.992v-4.608zm-3.984 9.856c.640003 0 1.133332-.218664 1.48-.656s.52-1.061329.52-1.872-.173332-1.431998-.52-1.864-.834664-.648-1.464-.648c-.640003 0-1.135998.213331-1.488.64s-.528 1.039996-.528 1.84c0 .810671.175998 1.439998.528 1.888s.842664.672 1.472.672zm12.912-2.128h-5.328c.064.725337.282665 1.263998.656 1.616s.906663.528 1.6.528c.864004 0 1.65333-.277331 2.368-.832l.576 1.376c-.362668.298668-.818664.538666-1.368.72s-1.101331.272-1.656.272c-1.280006 0-2.290663-.362663-3.032-1.088s-1.112-1.717327-1.112-2.976c0-.800004.159998-1.50933.48-2.128s.770664-1.098665 1.352-1.44 1.239996-.512 1.976-.512c1.077339 0 1.927997.346663 2.552 1.04s.936 1.647994.936 2.864zm-3.44-3.056c-.533336 0-.962665.170665-1.288.512s-.525333.831997-.6 1.472h3.616c-.021333-.65067-.181332-1.143998-.48-1.48s-.714664-.504-1.248-.504zm4.224 7.808v-1.2h7.616v1.2z" fill="#fff"/><path d="m2 0v4.592c.23466784-.4266688.57066448-.75466552 1.008-.984s.93333056-.344 1.488-.344c.68267008 0 1.28533072.16533168 1.808.496s.9306652.79999696 1.224 1.408.44 1.31732928.44 2.128-.1466652 1.52799688-.44 2.152c-.2933348.6240031-.70399736 1.106665-1.232 1.448s-1.12799664.512-1.8.512c-.56533616 0-1.06933112-.1226654-1.512-.368s-.78133216-.5866645-1.016-1.024v1.264h-1.968v-11.28zm1.968 4.816c-.6400032 0-1.1333316.21599784-1.48.648s-.52 1.05332928-.52 1.864.1733316 1.43466448.52 1.872.8399968.656 1.48.656c.62933648 0 1.11999824-.22399776 1.472-.672s.528-1.07732928.528-1.888c0-.800004-.1733316-1.4133312-.52-1.84s-.8399968-.64-1.48-.64z" fill="#fff" transform="translate(147.16 154.72)"/><g fill="#757f97"><path d="m195 117h-172v-62h172zm-2-60h-168v58h168z"/><path d="m218 216h-218v-185h218zm-2-183h-214v181h214z"/><path d="m195 191h-172v-62h172zm-2-60h-168v58h168z"/></g></g><g transform="translate(499 397)"><path d="m62.272 48.72h4.16c1.8453426 0 3.2773282.4933284 4.296 1.48s1.528 2.3706578 1.528 4.152-.5093282 3.167995-1.528 4.16-2.4506574 1.488-4.296 1.488h-4.16zm4.032 9.6c2.592013 0 3.888-1.3226534 3.888-3.968 0-2.6346798-1.295987-3.952-3.888-3.952h-1.968v7.92zm11.216-6.336c1.0986722 0 1.914664.266664 2.448.8s.8 1.3546611.8 2.464v4.752h-1.904v-1.2c-.1813342.4160021-.4666647.7413322-.856.976s-.8399974.352-1.352.352c-.5226693 0-.9973312-.1066656-1.424-.32s-.7626654-.5066648-1.008-.88-.368-.789331-.368-1.248c0-.5760029.1466652-1.0293317.44-1.36s.7706634-.5706659 1.432-.72c.595203-.1344007 1.3934359-.2083201 2.3947187-.22176l.7412813-.00224v-.368c0-.533336-.1146655-.9173322-.344-1.152s-.610664-.352-1.144-.352c-.4160021 0-.8506644.0719993-1.304.216s-.8986645.3439987-1.336.6l-.56-1.376c.4373355-.2773347.9653302-.5066658 1.584-.688s1.2053306-.272 1.76-.272zm-.464 6.704c.533336 0 .9679983-.1786649 1.304-.536s.504-.8186638.504-1.384v-.336h-.288c-.7146702 0-1.2693314.0319997-1.664.096s-.6773325.1759992-.848.336-.256.3786653-.256.656c0 .341335.1173322.6213322.352.84s.5333315.328.896.328zm9.744-.064c.2346678 0 .4799987-.0159998.736-.048l-.096 1.488c-.3200016.0320002-.613332.048-.88.048-1.0986722 0-1.9093307-.2533308-2.432-.76s-.784-1.2613283-.784-2.264v-3.408h-1.504v-1.504h1.504v-2.336h2v2.336h2.064v1.504h-2.064v3.376c0 1.0453386.4853285 1.568 1.456 1.568zm5.264-6.64c1.0986722 0 1.914664.266664 2.448.8s.8 1.3546611.8 2.464v4.752h-1.904v-1.2c-.1813342.4160021-.4666647.7413322-.856.976s-.8399974.352-1.352.352c-.5226693 0-.9973312-.1066656-1.424-.32s-.7626654-.5066648-1.008-.88-.368-.789331-.368-1.248c0-.5760029.1466652-1.0293317.44-1.36s.7706634-.5706659 1.432-.72c.595203-.1344007 1.3934359-.2083201 2.3947187-.22176l.7412813-.00224v-.368c0-.533336-.1146655-.9173322-.344-1.152s-.610664-.352-1.144-.352c-.4160021 0-.8506644.0719993-1.304.216s-.8986645.3439987-1.336.6l-.56-1.376c.4373355-.2773347.9653302-.5066658 1.584-.688s1.2053306-.272 1.76-.272zm-.464 6.704c.533336 0 .9679983-.1786649 1.304-.536s.504-.8186638.504-1.384v-.336h-.288c-.7146702 0-1.2693314.0319997-1.664.096s-.6773325.1759992-.848.336-.256.3786653-.256.656c0 .341335.1173322.6213322.352.84s.5333315.328.896.328zm5.568-6.512h2.24v2.208h-2.24zm0 5.616h2.24v2.208h-2.24zm10.544-7.056v2.208h-2.24v-1.456c0-.5546694.095999-1.0586644.288-1.512s.517331-.909331.976-1.368l.816.64c-.256001.2773347-.453333.5333322-.592.768s-.229333.4746654-.272.72zm3.072 0v2.208h-2.24v-1.456c0-.5546694.095999-1.0586644.288-1.512s.517331-.909331.976-1.368l.816.64c-.256001.2773347-.453333.5333322-.592.768s-.229333.4746654-.272.72zm9.456-2.016v11.28h-1.984v-1.264c-.234668.4373355-.573331.7786654-1.016 1.024s-.946664.368-1.512.368c-.672003 0-1.271997-.170665-1.8-.512s-.938665-.8239969-1.232-1.448-.44-1.3413293-.44-2.152.146665-1.519997.44-2.128.701331-1.0773317 1.224-1.408 1.12533-.496 1.808-.496c.565336 0 1.066664.1173322 1.504.352s.773332.5653312 1.008.992v-4.608zm-3.984 9.856c.640003 0 1.133332-.2186645 1.48-.656s.52-1.0613293.52-1.872-.173332-1.4319978-.52-1.864-.834664-.648-1.464-.648c-.640003 0-1.135998.2133312-1.488.64s-.528 1.039996-.528 1.84c0 .8106707.175998 1.4399978.528 1.888s.842664.672 1.472.672zm9.616 1.552c-.800004 0-1.50133-.1653317-2.104-.496s-1.069332-.8053302-1.4-1.424-.496-1.3386626-.496-2.16.165332-1.5386636.496-2.152.79733-1.0853317 1.4-1.416 1.303996-.496 2.104-.496 1.50133.1653317 2.104.496 1.066665.8026636 1.392 1.416.488 1.3306626.488 2.152-.162665 1.5413302-.488 2.16-.78933 1.0933317-1.392 1.424-1.303996.496-2.104.496zm-.016-1.552c.65067 0 1.146665-.2133312 1.488-.64s.512-1.0559958.512-1.888c0-.8213374-.170665-1.4479978-.512-1.88s-.831997-.648-1.472-.648-1.133332.2159978-1.48.648-.52 1.0586626-.52 1.88c0 .8320042.170665 1.4613312.512 1.888s.831997.64 1.472.64zm13.264-6.4v7.104c0 1.2266728-.338663 2.1546635-1.016 2.784s-1.677327.944-3 .944c-.68267 0-1.338664-.0879991-1.968-.264s-1.178664-.4239984-1.648-.744l.56-1.408c.970672.5866696 1.973328.88 3.008.88 1.386674 0 2.08-.6826598 2.08-2.048v-1.024c-.234668.4373355-.575998.7759988-1.024 1.016s-.959997.36-1.536.36c-.68267 0-1.287997-.162665-1.816-.488s-.941332-.7813304-1.24-1.368-.448-1.2639962-.448-2.032.146665-1.447997.44-2.04.706664-1.050665 1.24-1.376 1.14133-.488 1.824-.488c.576003 0 1.087998.1199988 1.536.36s.789332.5786645 1.024 1.016v-1.184zm-4.016 6.048c.640003 0 1.138665-.2079979 1.496-.624s.536-.986663.536-1.712c0-.7360037-.178665-1.3119979-.536-1.728s-.855997-.624-1.496-.624c-.629336 0-1.125332.2079979-1.488.624s-.544.9919963-.544 1.728c0 .7146702.181332 1.2826646.544 1.704s.858664.632 1.488.632zm8.96 1.904c-.693337 0-1.330664-.0853325-1.912-.256s-1.074665-.4159984-1.48-.736l.56-1.392c.832004.608003 1.786661.912 2.864.912.458669 0 .807999-.0746659 1.048-.224s.36-.3626653.36-.64c0-.2346678-.082666-.4159994-.248-.544s-.461331-.2453328-.888-.352l-1.28-.288c-.725337-.1600008-1.263998-.4213315-1.616-.784s-.528-.8319971-.528-1.408c0-.4800024.135999-.9039982.408-1.272s.650664-.6533323 1.136-.856 1.047997-.304 1.688-.304c.554669 0 1.090664.0853325 1.608.256s.973331.4106651 1.368.72l-.56 1.36c-.810671-.5866696-1.621329-.88-2.432-.88-.437336 0-.778665.0799992-1.024.24s-.368.3839986-.368.672c0 .2133344.077333.3893326.232.528s.402665.245333.744.32l1.328.304c.778671.1706675 1.349332.4399982 1.712.808s.544.8506637.544 1.448c0 .725337-.29333 1.3013312-.88 1.728s-1.381328.64-2.384.64zm6.944-11.408v1.456c0 .5653362-.095999 1.0746644-.288 1.528s-.517331.9039978-.976 1.352l-.816-.64c.256001-.2773347.453333-.5333322.592-.768s.229333-.4746654.272-.72h-1.024v-2.208zm3.072 0v1.456c0 .5653362-.095999 1.0746644-.288 1.528s-.517331.9039978-.976 1.352l-.816-.64c.256001-.2773347.453333-.5333322.592-.768s.229333-.4746654.272-.72h-1.024v-2.208z" fill="#fff"/><path d="m63.384 134v-11.28h2.064v9.584h5.264v1.696zm8.704 0v-7.824h2v7.824zm-.112-11.456h2.208v1.968h-2.208zm8.72 3.44c.9386714 0 1.637331.266664 2.096.8s.688 1.338661.688 2.416v4.8h-2v-4.688c0-.608003-.1146655-1.050665-.344-1.328s-.5893309-.416-1.08-.416c-.5760029 0-1.0373316.181332-1.384.544s-.52.847997-.52 1.456v4.432h-2v-7.824h1.952v1.168c.266668-.437336.6239978-.773332 1.072-1.008s.9546638-.352 1.52-.352zm12.656 8.016h-2.48l-3.36-3.568v3.568h-2v-11.28h2v6.88l3.152-3.408h2.432l-3.52 3.744zm.56-7.824h2.24v2.208h-2.24zm0 5.616h2.24v2.208h-2.24zm13.024-5.808c.938671 0 1.637331.266664 2.096.8s.688 1.338661.688 2.416v4.8h-2v-4.688c0-.608003-.114666-1.050665-.344-1.328s-.589331-.416-1.08-.416c-.576003 0-1.037332.181332-1.384.544s-.52.847997-.52 1.456v4.432h-2v-7.824h1.952v1.168c.266668-.437336.623998-.773332 1.072-1.008s.954664-.352 1.52-.352zm8.384 8.144c-.800004 0-1.50133-.165332-2.104-.496s-1.069332-.80533-1.4-1.424-.496-1.338663-.496-2.16.165332-1.538664.496-2.152.79733-1.085332 1.4-1.416 1.303996-.496 2.104-.496 1.50133.165332 2.104.496 1.066665.802664 1.392 1.416.488 1.330663.488 2.152-.162665 1.54133-.488 2.16-.78933 1.093332-1.392 1.424-1.303996.496-2.104.496zm-.016-1.552c.65067 0 1.146665-.213331 1.488-.64s.512-1.055996.512-1.888c0-.821337-.170665-1.447998-.512-1.88s-.831997-.648-1.472-.648-1.133332.215998-1.48.648-.52 1.058663-.52 1.88c0 .832004.170665 1.461331.512 1.888s.831997.64 1.472.64zm13.2-9.856v11.28h-1.984v-1.264c-.234668.437336-.573331.778665-1.016 1.024s-.946664.368-1.512.368c-.672003 0-1.271997-.170665-1.8-.512s-.938665-.823997-1.232-1.448-.44-1.341329-.44-2.152.146665-1.519997.44-2.128.701331-1.077332 1.224-1.408 1.12533-.496 1.808-.496c.565336 0 1.066664.117332 1.504.352s.773332.565331 1.008.992v-4.608zm-3.984 9.856c.640003 0 1.133332-.218664 1.48-.656s.52-1.061329.52-1.872-.173332-1.431998-.52-1.864-.834664-.648-1.464-.648c-.640003 0-1.135998.213331-1.488.64s-.528 1.039996-.528 1.84c0 .810671.175998 1.439998.528 1.888s.842664.672 1.472.672zm12.912-2.128h-5.328c.064.725337.282665 1.263998.656 1.616s.906663.528 1.6.528c.864004 0 1.65333-.277331 2.368-.832l.576 1.376c-.362668.298668-.818664.538666-1.368.72s-1.101331.272-1.656.272c-1.280006 0-2.290663-.362663-3.032-1.088s-1.112-1.717327-1.112-2.976c0-.800004.159998-1.50933.48-2.128s.770664-1.098665 1.352-1.44 1.239996-.512 1.976-.512c1.077339 0 1.927997.346663 2.552 1.04s.936 1.647994.936 2.864zm-3.44-3.056c-.533336 0-.962665.170665-1.288.512s-.525333.831997-.6 1.472h3.616c-.021333-.65067-.181332-1.143998-.48-1.48s-.714664-.504-1.248-.504zm4.224 7.808v-1.2h7.616v1.2zm12.416-1.072c-.821337 0-1.53333-.165332-2.136-.496s-1.063998-.799997-1.384-1.408-.48-1.317329-.48-2.128.167998-1.527997.504-2.152.81333-1.106665 1.432-1.448 1.333329-.512 2.144-.512c.554669 0 1.095997.087999 1.624.264s.951998.413332 1.272.712l-.576 1.408c-.330668-.266668-.679998-.469333-1.048-.608s-.733332-.208-1.096-.208c-.693337 0-1.231998.215998-1.616.648s-.576 1.053329-.576 1.864c0 .800004.191998 1.415998.576 1.848s.922663.648 1.616.648c.362668 0 .727998-.069333 1.096-.208s.717332-.341332 1.048-.608l.576 1.392c-.341335.309335-.778664.551999-1.312.728s-1.087997.264-1.664.264z" fill="#fff"/><g fill="#757f97"><path d="m194 85h-172v-62h172zm-2-60h-168v58h168z"/><path d="m217 184h-218v-185h218zm-2-183h-214v181h214z"/><path d="m194 159h-172v-62h172zm-2-60h-168v58h168z"/></g></g><g fill="#4c7ef3"><path d="m580.05 369.98c1.173339 0 2.046664.33333 2.62 1s.86 1.673327.86 3.02v6h-2.5v-5.86c0-.760004-.143332-1.313332-.43-1.66s-.736664-.52-1.35-.52c-.720004 0-1.296665.226664-1.73.68-.433336.453336-.65 1.059996-.65 1.82v5.54h-2.5v-9.78h2.44v1.46c.333335-.546669.779997-.966665 1.34-1.26s1.19333-.44 1.9-.44zm10.48 10.18c-1 0-1.876663-.206665-2.63-.62s-1.336665-1.006663-1.75-1.78-.62-1.673328-.62-2.7.206665-1.92333.62-2.69c.413335-.766671.996663-1.356665 1.75-1.77s1.63-.62 2.63-.62 1.876663.206665 2.63.62 1.333331 1.003329 1.74 1.77c.406669.76667.61 1.663328.61 2.69s-.203331 1.926663-.61 2.7-.986663 1.366665-1.74 1.78-1.63.62-2.63.62zm-.02-1.94c.813337 0 1.433331-.266664 1.86-.8s.64-1.319995.64-2.36c0-1.026672-.213331-1.809997-.64-2.35s-1.039996-.81-1.84-.81-1.416665.269997-1.85.81c-.433336.540003-.65 1.323328-.65 2.35 0 1.040005.213331 1.826664.64 2.36s1.039996.8 1.84.8zm16.5-12.32v14.1h-2.48v-1.58c-.293335.546669-.716664.973332-1.27 1.28s-1.18333.46-1.89.46c-.84 0-1.589997-.213331-2.25-.64s-1.173332-1.029996-1.54-1.81c-.366669-.780004-.55-1.676662-.55-2.69s.183331-1.899996.55-2.66c.366668-.760004.876663-1.346665 1.53-1.76s1.406662-.62 2.26-.62c.70667 0 1.333331.146665 1.88.44s.966665.706664 1.26 1.24v-5.76zm-4.98 12.32c.800004 0 1.416664-.273331 1.85-.82.433335-.546669.65-1.326662.65-2.34s-.216665-1.789997-.65-2.33c-.433336-.540003-1.043329-.81-1.83-.81-.800004 0-1.419998.266664-1.86.8s-.66 1.299995-.66 2.3c0 1.013338.219998 1.799997.66 2.36s1.053329.84 1.84.84zm16.14-2.66h-6.66c.08.906671.353331 1.579998.82 2.02s1.133329.66 2 .66c1.080005 0 2.066662-.346663 2.96-1.04l.72 1.72c-.453336.373335-1.02333.673332-1.71.9s-1.376663.34-2.07.34c-1.600008 0-2.863329-.453329-3.79-1.36s-1.39-2.146659-1.39-3.72c0-1.000005.199998-1.886663.6-2.66.4-.773337.96333-1.373331 1.69-1.8s1.549995-.64 2.47-.64c1.346673 0 2.409996.433329 3.19 1.3s1.17 2.059992 1.17 3.58zm-4.3-3.82c-.66667 0-1.203331.213331-1.61.64s-.656666 1.039996-.75 1.84h4.52c-.026667-.813337-.226665-1.429998-.6-1.85s-.89333-.63-1.56-.63zm5.28 9.76v-1.5h9.52v1.5z"/><path d="m632.71 365.9v5.74c.293335-.533336.713331-.943332 1.26-1.23s1.166663-.43 1.86-.43c.853338 0 1.606663.206665 2.26.62s1.163332.999996 1.53 1.76c.366669.760004.55 1.646662.55 2.66s-.183331 1.909996-.55 2.69c-.366668.780004-.879997 1.383331-1.54 1.81s-1.409996.64-2.25.64c-.70667 0-1.336664-.153332-1.89-.46s-.976665-.733331-1.27-1.28v1.58h-2.46v-14.1zm2.46 6.02c-.800004 0-1.416664.269997-1.85.81-.433335.540003-.65 1.316662-.65 2.33s.216665 1.793331.65 2.34c.433336.546669 1.049996.82 1.85.82.786671 0 1.399998-.279997 1.84-.84s.66-1.346662.66-2.36c0-1.000005-.216665-1.766664-.65-2.3-.433336-.533336-1.049996-.8-1.85-.8z"/><path d="m924.18 369.98c1.173339 0 2.046664.33333 2.62 1s.86 1.673327.86 3.02v6h-2.5v-5.86c0-.760004-.143332-1.313332-.43-1.66s-.736664-.52-1.35-.52c-.720004 0-1.296665.226664-1.73.68-.433336.453336-.65 1.059996-.65 1.82v5.54h-2.5v-9.78h2.44v1.46c.333335-.546669.779997-.966665 1.34-1.26s1.19333-.44 1.9-.44zm10.48 10.18c-1 0-1.876663-.206665-2.63-.62s-1.336665-1.006663-1.75-1.78-.62-1.673328-.62-2.7.206665-1.92333.62-2.69c.413335-.766671.996663-1.356665 1.75-1.77s1.63-.62 2.63-.62 1.876663.206665 2.63.62 1.333331 1.003329 1.74 1.77c.406669.76667.61 1.663328.61 2.69s-.203331 1.926663-.61 2.7-.986663 1.366665-1.74 1.78-1.63.62-2.63.62zm-.02-1.94c.813337 0 1.433331-.266664 1.86-.8s.64-1.319995.64-2.36c0-1.026672-.213331-1.809997-.64-2.35s-1.039996-.81-1.84-.81-1.416664.269997-1.85.81c-.433335.540003-.65 1.323328-.65 2.35 0 1.040005.213331 1.826664.64 2.36s1.039996.8 1.84.8zm16.5-12.32v14.1h-2.48v-1.58c-.293335.546669-.716664.973332-1.27 1.28s-1.18333.46-1.89.46c-.84 0-1.589997-.213331-2.25-.64s-1.173332-1.029996-1.54-1.81c-.366669-.780004-.55-1.676662-.55-2.69s.183331-1.899996.55-2.66c.366668-.760004.876663-1.346665 1.53-1.76s1.406662-.62 2.26-.62c.70667 0 1.333331.146665 1.88.44s.966665.706664 1.26 1.24v-5.76zm-4.98 12.32c.800004 0 1.416664-.273331 1.85-.82.433335-.546669.65-1.326662.65-2.34s-.216665-1.789997-.65-2.33c-.433336-.540003-1.043329-.81-1.83-.81-.800004 0-1.419998.266664-1.86.8s-.66 1.299995-.66 2.3c0 1.013338.219998 1.799997.66 2.36s1.053329.84 1.84.84zm16.14-2.66h-6.66c.08.906671.353331 1.579998.82 2.02s1.133329.66 2 .66c1.080005 0 2.066662-.346663 2.96-1.04l.72 1.72c-.453336.373335-1.02333.673332-1.71.9s-1.376663.34-2.07.34c-1.600008 0-2.863329-.453329-3.79-1.36s-1.39-2.146659-1.39-3.72c0-1.000005.199998-1.886663.6-2.66.4-.773337.96333-1.373331 1.69-1.8s1.549995-.64 2.47-.64c1.346673 0 2.409996.433329 3.19 1.3s1.17 2.059992 1.17 3.58zm-4.3-3.82c-.66667 0-1.203331.213331-1.61.64s-.656666 1.039996-.75 1.84h4.52c-.026667-.813337-.226665-1.429998-.6-1.85s-.89333-.63-1.56-.63zm5.28 9.76v-1.5h9.52v1.5zm15.52-1.34c-1.026672 0-1.916663-.206665-2.67-.62s-1.33-.999996-1.73-1.76c-.400002-.760004-.6-1.646662-.6-2.66s.209998-1.909996.63-2.69 1.016663-1.383331 1.79-1.81 1.666662-.64 2.68-.64c.693337 0 1.369997.109999 2.03.33s1.189998.516665 1.59.89l-.72 1.76c-.413335-.333335-.849998-.586666-1.31-.76s-.916664-.26-1.37-.26c-.866671 0-1.539998.269997-2.02.81s-.72 1.316662-.72 2.33c0 1.000005.239998 1.769997.72 2.31s1.153329.81 2.02.81c.453336 0 .909998-.086666 1.37-.26s.896665-.426665 1.31-.76l.72 1.74c-.426669.386669-.97333.689999-1.64.91s-1.359996.33-2.08.33z"/></g><path d="m481.01 111v-19.74h3.612v16.772h9.212v2.968zm15.232 0v-13.692h3.5v13.692zm-.196-20.048h3.864v3.444h-3.864zm15.26 6.02c1.642675 0 2.865329.466662 3.668 1.4s1.204 2.342657 1.204 4.228v8.4h-3.5v-8.204c0-1.064005-.200665-1.838664-.602-2.324-.401335-.4853358-1.031329-.728-1.89-.728-1.008005 0-1.81533.31733-2.422.952s-.91 1.483995-.91 2.548v7.756h-3.5v-13.692h3.416v2.044c.466669-.7653372 1.091996-1.3533313 1.876-1.764s1.670662-.616 2.66-.616zm22.148 14.028h-4.34l-5.88-6.244v6.244h-3.5v-19.74h3.5v12.04l5.516-5.964h4.256l-6.16 6.552zm13.3-6.216h-9.324c.112001 1.26934.494663 2.211997 1.148 2.828s1.586661.924 2.8.924c1.512008 0 2.893327-.485328 4.144-1.456l1.008 2.408c-.63467.522669-1.432662.942665-2.394 1.26s-1.927328.476-2.898.476c-2.240011 0-4.00866-.63466-5.306-1.904s-1.946-3.005322-1.946-5.208c0-1.400007.279997-2.641328.84-3.724.560003-1.0826721 1.348662-1.9226637 2.366-2.52s2.169994-.896 3.458-.896c1.885343 0 3.373995.6066606 4.466 1.82 1.092005 1.213339 1.638 2.883989 1.638 5.012zm-6.02-5.348c-.933338 0-1.684664.2986637-2.254.896-.569336.597336-.919333 1.455994-1.05 2.576h6.328c-.037334-1.138672-.317331-2.001997-.84-2.59-.522669-.5880029-1.250662-.882-2.184-.882zm22.092-8.176v19.74h-3.472v-2.212c-.410669.765337-1.003329 1.362665-1.778 1.792s-1.656662.644-2.646.644c-1.176006 0-2.225995-.298664-3.15-.896s-1.642664-1.441995-2.156-2.534-.77-2.347326-.77-3.766.256664-2.659995.77-3.724c.513336-1.0640053 1.227329-1.8853304 2.142-2.464s1.969327-.868 3.164-.868c.989338 0 1.866663.2053313 2.632.616s1.353331.9893296 1.764 1.736v-8.064zm-6.972 17.248c1.120006 0 1.98333-.382663 2.59-1.148s.91-1.857326.91-3.276-.30333-2.505996-.91-3.262-1.460661-1.134-2.562-1.134c-1.120006 0-1.987997.37333-2.604 1.12s-.924 1.819993-.924 3.22c0 1.418674.307997 2.519996.924 3.304s1.474661 1.176 2.576 1.176zm18.48 2.492v-19.74h3.612v16.772h9.212v2.968zm15.232 0v-13.692h3.5v13.692zm-.196-20.048h3.864v3.444h-3.864zm12.348 20.272c-1.213339 0-2.328662-.149332-3.346-.448s-1.880663-.727997-2.59-1.288l.98-2.436c1.456007 1.064005 3.126657 1.596 5.012 1.596.802671 0 1.413998-.130665 1.834-.392s.63-.634664.63-1.12c0-.410669-.144665-.727999-.434-.952s-.80733-.429332-1.554-.616l-2.24-.504c-1.26934-.280001-2.211997-.73733-2.828-1.372s-.924-1.455995-.924-2.464c0-.840004.237998-1.5819968.714-2.226s1.138662-1.1433316 1.988-1.498 1.833994-.532 2.954-.532c.970672 0 1.908662.1493318 2.814.448s1.70333.718664 2.394 1.26l-.98 2.38c-1.418674-1.026672-2.837326-1.54-4.256-1.54-.765337 0-1.362665.1399986-1.792.42-.429335.280001-.644.671997-.644 1.176 0 .373335.135332.681332.406.924s.704664.429333 1.302.56l2.324.532c1.362673.298668 2.36133.769997 2.996 1.414s.952 1.488661.952 2.534c0 1.26934-.513328 2.27733-1.54 3.024s-2.417325 1.12-4.172 1.12zm15.54-2.632c.410669 0 .839998-.028 1.288-.084l-.168 2.604c-.560003.056-1.073331.084-1.54.084-1.922676 0-3.341329-.443329-4.256-1.33s-1.372-2.207325-1.372-3.962v-5.964h-2.632v-2.632h2.632v-4.088h3.5v4.088h3.612v2.632h-3.612v5.908c0 1.829342.849325 2.744 2.548 2.744zm11.228 2.408v-19.74h13.216v2.856h-9.688v5.432h9.128v2.828h-9.128v5.768h9.688v2.856zm23.828-7.056 5.768 7.056h-4.144l-3.64-4.564-3.612 4.564h-4.144l5.74-7.056-5.432-6.636h4.172l3.276 4.172 3.276-4.172h4.172zm13.132-6.972c1.922676 0 3.350662.466662 4.284 1.4s1.4 2.370657 1.4 4.312v8.316h-3.332v-2.1c-.317335.728004-.816663 1.297331-1.498 1.708s-1.469996.616-2.366.616c-.914671 0-1.74533-.186665-2.492-.56s-1.334665-.886663-1.764-1.54-.644-1.381329-.644-2.184c0-1.008005.256664-1.80133.77-2.38s1.348661-.998665 2.506-1.26c1.074672-.242668 2.527563-.372667 4.358712-.39l1.129288-.002v-.644c0-.933338-.200665-1.605331-.602-2.016-.401335-.4106687-1.068662-.616-2.002-.616-.728004 0-1.488663.1259987-2.282.378-.793337.252001-1.572663.601998-2.338 1.05l-.98-2.408c.765337-.4853358 1.689328-.8866651 2.772-1.204s2.109328-.476 3.08-.476zm-.812 11.732c.933338 0 1.693997-.312664 2.282-.938s.882-1.432662.882-2.422v-.588h-.504c-1.250673 0-2.22133.055999-2.912.168s-1.185332.307999-1.484.588-.448.662664-.448 1.148c0 .597336.205331 1.087331.616 1.47s.93333.574 1.568.574zm26.32-11.732c1.549341 0 2.706663.4619954 3.472 1.386s1.148 2.33799 1.148 4.242v8.4h-3.5v-8.26c0-1.045339-.177332-1.805998-.532-2.282-.354668-.4760024-.923996-.714-1.708-.714-.933338 0-1.661331.31733-2.184.952s-.784 1.521328-.784 2.66v7.644h-3.5v-8.26c0-1.045339-.172665-1.805998-.518-2.282-.345335-.4760024-.919329-.714-1.722-.714-.914671 0-1.633331.31733-2.156.952s-.784 1.521328-.784 2.66v7.644h-3.5v-13.692h3.416v1.932c.410669-.7466704.979996-1.3113314 1.708-1.694s1.558662-.574 2.492-.574c2.07201 0 3.443997.8586581 4.116 2.576.429335-.8026707 1.045329-1.4326644 1.848-1.89s1.698662-.686 2.688-.686zm16.044 0c1.176006 0 2.225995.2986637 3.15.896s1.642664 1.4419945 2.156 2.534c.513336 1.092005.77 2.347326.77 3.766s-.256664 2.659995-.77 3.724-1.227329 1.88533-2.142 2.464-1.969327.868-3.164.868c-.970672 0-1.838663-.205331-2.604-.616s-1.353331-.979996-1.764-1.708v7.14h-3.5v-18.732h3.444v2.072c.410669-.7653372 1.003329-1.3579979 1.778-1.778s1.656662-.63 2.646-.63zm-.924 11.536c1.101339 0 1.959997-.377996 2.576-1.134s.924-1.82466.924-3.206c0-1.418674-.307997-2.519996-.924-3.304s-1.474661-1.176-2.576-1.176c-1.120006 0-1.98333.382663-2.59 1.148s-.91 1.857326-.91 3.276c0 1.400007.30333 2.482663.91 3.248s1.469994 1.148 2.59 1.148zm9.884 2.492v-19.74h3.5v19.74z" fill="#fff"/><path d="m6.664 0c1.88534276 0 3.3739945.6066606 4.466 1.82s1.638 2.88398936 1.638 5.012v.98h-9.324c.11200056 1.26933968.4946634 2.2119969 1.148 2.828s1.5866606.924 2.8.924c1.51200756 0 2.8933271-.4853285 4.144-1.456l1.008 2.408c-.6346698.5226693-1.4326619.9426651-2.394 1.26-.96133814.3173349-1.92732848.476-2.898.476-2.2400112 0-4.00866018-.6346603-5.306-1.904s-1.946-3.00532232-1.946-5.208c0-1.400007.2799972-2.64132792.84-3.724s1.34866158-1.92266368 2.366-2.52 2.16999356-.896 3.458-.896zm.084 2.464c-.933338 0-1.68466382.29866368-2.254.896s-.91933268 1.4559944-1.05 2.576h6.328c-.03733352-1.13867236-.31733072-2.00199706-.84-2.59s-1.250662-.882-2.184-.882z" fill="#fff" transform="translate(722.314 96.972)"/><g transform="translate(842 397)"><path d="m61.808 48.72h4.16c1.8453426 0 3.2773282.4933284 4.296 1.48s1.528 2.3706578 1.528 4.152-.5093282 3.167995-1.528 4.16-2.4506574 1.488-4.296 1.488h-4.16zm4.032 9.6c2.592013 0 3.888-1.3226534 3.888-3.968 0-2.6346798-1.295987-3.952-3.888-3.952h-1.968v7.92zm11.216-6.336c1.0986722 0 1.914664.266664 2.448.8s.8 1.3546611.8 2.464v4.752h-1.904v-1.2c-.1813342.4160021-.4666647.7413322-.856.976s-.8399974.352-1.352.352c-.5226693 0-.9973312-.1066656-1.424-.32s-.7626654-.5066648-1.008-.88-.368-.789331-.368-1.248c0-.5760029.1466652-1.0293317.44-1.36s.7706634-.5706659 1.432-.72c.595203-.1344007 1.3934359-.2083201 2.3947187-.22176l.7412813-.00224v-.368c0-.533336-.1146655-.9173322-.344-1.152s-.610664-.352-1.144-.352c-.4160021 0-.8506644.0719993-1.304.216s-.8986645.3439987-1.336.6l-.56-1.376c.4373355-.2773347.9653302-.5066658 1.584-.688s1.2053306-.272 1.76-.272zm-.464 6.704c.533336 0 .9679983-.1786649 1.304-.536s.504-.8186638.504-1.384v-.336h-.288c-.7146702 0-1.2693314.0319997-1.664.096s-.6773325.1759992-.848.336-.256.3786653-.256.656c0 .341335.1173322.6213322.352.84s.5333315.328.896.328zm9.744-.064c.2346678 0 .4799987-.0159998.736-.048l-.096 1.488c-.3200016.0320002-.613332.048-.88.048-1.0986722 0-1.9093307-.2533308-2.432-.76s-.784-1.2613283-.784-2.264v-3.408h-1.504v-1.504h1.504v-2.336h2v2.336h2.064v1.504h-2.064v3.376c0 1.0453386.4853285 1.568 1.456 1.568zm5.264-6.64c1.0986722 0 1.914664.266664 2.448.8s.8 1.3546611.8 2.464v4.752h-1.904v-1.2c-.1813342.4160021-.4666647.7413322-.856.976s-.8399974.352-1.352.352c-.5226693 0-.9973312-.1066656-1.424-.32s-.7626654-.5066648-1.008-.88-.368-.789331-.368-1.248c0-.5760029.1466652-1.0293317.44-1.36s.7706634-.5706659 1.432-.72c.595203-.1344007 1.3934359-.2083201 2.3947187-.22176l.7412813-.00224v-.368c0-.533336-.1146655-.9173322-.344-1.152s-.610664-.352-1.144-.352c-.4160021 0-.8506644.0719993-1.304.216s-.8986645.3439987-1.336.6l-.56-1.376c.4373355-.2773347.9653302-.5066658 1.584-.688s1.2053306-.272 1.76-.272zm-.464 6.704c.533336 0 .9679983-.1786649 1.304-.536s.504-.8186638.504-1.384v-.336h-.288c-.7146702 0-1.2693314.0319997-1.664.096s-.6773325.1759992-.848.336-.256.3786653-.256.656c0 .341335.1173322.6213322.352.84s.5333315.328.896.328zm5.568-6.512h2.24v2.208h-2.24zm0 5.616h2.24v2.208h-2.24zm10.544-7.056v2.208h-2.24v-1.456c0-.5546694.095999-1.0586644.288-1.512s.517331-.909331.976-1.368l.816.64c-.256001.2773347-.453333.5333322-.592.768s-.229333.4746654-.272.72zm3.072 0v2.208h-2.24v-1.456c0-.5546694.095999-1.0586644.288-1.512s.517331-.909331.976-1.368l.816.64c-.256001.2773347-.453333.5333322-.592.768s-.229333.4746654-.272.72zm6.4 1.248c.68267 0 1.285331.1653317 1.808.496s.930665.799997 1.224 1.408.44 1.3173293.44 2.128-.146665 1.5279969-.44 2.152-.703997 1.106665-1.232 1.448-1.127997.512-1.8.512c-.565336 0-1.069331-.1226654-1.512-.368s-.781332-.5866645-1.016-1.024v1.264h-1.968v-11.28h2v4.592c.234668-.4266688.570664-.7546655 1.008-.984s.933331-.344 1.488-.344zm-.528 6.592c.629336 0 1.119998-.2239978 1.472-.672s.528-1.0773293.528-1.888c0-.800004-.173332-1.4133312-.52-1.84s-.839997-.64-1.48-.64-1.133332.2159978-1.48.648-.52 1.0533293-.52 1.864.173332 1.4346645.52 1.872.839997.656 1.48.656zm5.648 1.424v-7.824h2v7.824zm-.112-11.456h2.208v1.968h-2.208zm9.328 5.104-1.168.112c-1.322673.1386674-1.984.8106606-1.984 2.016v4.224h-2v-7.824h1.904v1.376c.405335-.9386714 1.24266-1.4506662 2.512-1.536l.608-.048zm8.528-4.928v11.28h-1.984v-1.264c-.234668.4373355-.573331.7786654-1.016 1.024s-.946664.368-1.512.368c-.672003 0-1.271997-.170665-1.8-.512s-.938665-.8239969-1.232-1.448-.44-1.3413293-.44-2.152.146665-1.519997.44-2.128.701331-1.0773317 1.224-1.408 1.12533-.496 1.808-.496c.565336 0 1.066664.1173322 1.504.352s.773332.5653312 1.008.992v-4.608zm-3.984 9.856c.640003 0 1.133332-.2186645 1.48-.656s.52-1.0613293.52-1.872-.173332-1.4319978-.52-1.864-.834664-.648-1.464-.648c-.640003 0-1.135998.2133312-1.488.64s-.528 1.039996-.528 1.84c0 .8106707.175998 1.4399978.528 1.888s.842664.672 1.472.672zm8.928 1.552c-.693337 0-1.330664-.0853325-1.912-.256s-1.074665-.4159984-1.48-.736l.56-1.392c.832004.608003 1.786661.912 2.864.912.458669 0 .807999-.0746659 1.048-.224s.36-.3626653.36-.64c0-.2346678-.082666-.4159994-.248-.544s-.461331-.2453328-.888-.352l-1.28-.288c-.725337-.1600008-1.263998-.4213315-1.616-.784s-.528-.8319971-.528-1.408c0-.4800024.135999-.9039982.408-1.272s.650664-.6533323 1.136-.856 1.047997-.304 1.688-.304c.554669 0 1.090664.0853325 1.608.256s.973331.4106651 1.368.72l-.56 1.36c-.810671-.5866696-1.621329-.88-2.432-.88-.437336 0-.778665.0799992-1.024.24s-.368.3839986-.368.672c0 .2133344.077333.3893326.232.528s.402665.245333.744.32l1.328.304c.778671.1706675 1.349332.4399982 1.712.808s.544.8506637.544 1.448c0 .725337-.29333 1.3013312-.88 1.728s-1.381328.64-2.384.64zm6.944-11.408v1.456c0 .5653362-.095999 1.0746644-.288 1.528s-.517331.9039978-.976 1.352l-.816-.64c.256001-.2773347.453333-.5333322.592-.768s.229333-.4746654.272-.72h-1.024v-2.208zm3.072 0v1.456c0 .5653362-.095999 1.0746644-.288 1.528s-.517331.9039978-.976 1.352l-.816-.64c.256001-.2773347.453333-.5333322.592-.768s.229333-.4746654.272-.72h-1.024v-2.208z" fill="#fff"/><path d="m69.968 134v-11.28h2.064v9.584h5.264v1.696zm8.704 0v-7.824h2v7.824zm-.112-11.456h2.208v1.968h-2.208zm8.72 3.44c.9386714 0 1.637331.266664 2.096.8s.688 1.338661.688 2.416v4.8h-2v-4.688c0-.608003-.1146655-1.050665-.344-1.328s-.5893309-.416-1.08-.416c-.5760029 0-1.0373316.181332-1.384.544s-.52.847997-.52 1.456v4.432h-2v-7.824h1.952v1.168c.266668-.437336.6239978-.773332 1.072-1.008s.9546638-.352 1.52-.352zm12.656 8.016h-2.48l-3.36-3.568v3.568h-2v-11.28h2v6.88l3.152-3.408h2.432l-3.52 3.744zm12.736-6.88v1.408h-7.808v-1.408zm0 3.2v1.408h-7.808v-1.408zm14.032-7.6h1.936v11.28h-1.552l-6.048-7.872v7.872h-1.92v-11.28h1.536l6.048 7.856zm11.376 3.456v7.824h-1.952v-1.2c-.245335.426669-.575998.754666-.992.984s-.885331.344-1.408.344c-1.92001 0-2.88-1.077323-2.88-3.232v-4.72h2v4.736c0 .554669.111999.965332.336 1.232s.575998.4 1.056.4c.554669 0 .999998-.183998 1.336-.552s.504-.855997.504-1.464v-4.352zm2.08 7.824v-11.28h2v11.28zm4.064 0v-11.28h2v11.28z" fill="#fff"/><g fill="#757f97"><path d="m194 85h-172v-62h172zm-2-60h-168v58h168z"/><path d="m217 184h-218v-185h218zm-2-183h-214v181h214z"/><path d="m194 159h-172v-62h172zm-2-60h-168v58h168z"/></g></g><path d="m484.625 444 14 7-14 7v-6h-57.156097v73h-97.843903v-2h95.843903v-73h59.156097z" fill="#4c7ef3"/><path d="m828 444 14 7-14 7v-6h-57.156097v73h-97.843903v-2h95.843903v-73h59.156097z" fill="#4c7ef3"/><path d="m268.63 148.9h2.46l-4.98 14.1h-2.1l-3.54-10.14-3.56 10.14h-2.1l-4.96-14.1h2.6l3.5 10.5 3.68-10.5h1.82l3.58 10.56zm9.92 4.08c1.173339 0 2.046664.33333 2.62 1s.86 1.673327.86 3.02v6h-2.5v-5.86c0-.760004-.143332-1.313332-.43-1.66s-.736664-.52-1.35-.52c-.720004 0-1.296665.226664-1.73.68-.433336.453336-.65 1.059996-.65 1.82v5.54h-2.5v-14.1h2.5v5.68c.333335-.520003.776664-.916665 1.33-1.19s1.17-.41 1.85-.41zm10.22 0c1.37334 0 2.39333.33333 3.06 1s1 1.693326 1 3.08v5.94h-2.38v-1.5c-.226668.520003-.583331.926665-1.07 1.22s-1.049997.44-1.69.44c-.653337 0-1.246664-.133332-1.78-.4s-.953332-.633331-1.26-1.1-.46-.986664-.46-1.56c0-.720004.183332-1.286665.55-1.7.366669-.413335.963329-.713332 1.79-.9.757782-.171112 1.778837-.263796 3.063193-.278056l.856807-.001944v-.46c0-.66667-.143332-1.146665-.43-1.44s-.76333-.44-1.43-.44c-.520003 0-1.06333.089999-1.63.27s-1.123331.429998-1.67.75l-.7-1.72c.546669-.346668 1.206663-.633332 1.98-.86s1.506663-.34 2.2-.34zm-.58 8.38c.66667 0 1.209998-.223331 1.63-.67s.63-1.02333.63-1.73v-.42h-.36c-.893338 0-1.586664.04-2.08.12s-.846666.219999-1.06.42-.32.473332-.32.82c0 .426669.146665.776665.44 1.05s.666664.41 1.12.41zm12.18-.08c.293335 0 .599998-.02.92-.06l-.12 1.86c-.400002.04-.766665.06-1.1.06-1.37334 0-2.386663-.316664-3.04-.95s-.98-1.57666-.98-2.83v-4.26h-1.88v-1.88h1.88v-2.92h2.5v2.92h2.58v1.88h-2.58v4.22c0 1.306673.606661 1.96 1.82 1.96zm7.8 1.72v-14.1h2.5v14.1zm5.08 0v-9.78h2.5v9.78zm-.14-14.32h2.76v2.46h-2.76zm10.9 4.3c1.173339 0 2.046664.33333 2.62 1s.86 1.673327.86 3.02v6h-2.5v-5.86c0-.760004-.143332-1.313332-.43-1.66s-.736664-.52-1.35-.52c-.720004 0-1.296664.226664-1.73.68-.433335.453336-.65 1.059996-.65 1.82v5.54h-2.5v-9.78h2.44v1.46c.333335-.546669.779997-.966665 1.34-1.26s1.19333-.44 1.9-.44zm15.82 10.02h-3.1l-4.2-4.46v4.46h-2.5v-14.1h2.5v8.6l3.94-4.26h3.04l-4.4 4.68zm4.52.16c-.866671 0-1.66333-.106666-2.39-.32s-1.343331-.519998-1.85-.92l.7-1.74c1.040005.760004 2.233327 1.14 3.58 1.14.573336 0 1.009999-.093332 1.31-.28s.45-.453332.45-.8c0-.293335-.103332-.519999-.31-.68s-.576664-.306666-1.11-.44l-1.6-.36c-.906671-.200001-1.579998-.526664-2.02-.98s-.66-1.039996-.66-1.76c0-.600003.169998-1.129998.51-1.59s.81333-.816665 1.42-1.07 1.309996-.38 2.11-.38c.693337 0 1.36333.106666 2.01.32s1.216664.513331 1.71.9l-.7 1.7c-1.013338-.733337-2.026662-1.1-3.04-1.1-.546669 0-.973332.099999-1.28.3s-.46.479998-.46.84c0 .266668.096666.486666.29.66s.503331.306666.93.4l1.66.38c.973338.213334 1.686664.549998 2.14 1.01s.68 1.06333.68 1.81c0 .906671-.366663 1.626664-1.1 2.16s-1.72666.8-2.98.8zm24.72-9.94h2.44l-3.84 9.78h-2.18l-2.4-6.3-2.34 6.3h-2.16l-3.86-9.78h2.56l2.5 6.8 2.5-6.8h1.8l2.5 6.84zm8.38 9.94c-1 0-1.876663-.206665-2.63-.62s-1.336665-1.006663-1.75-1.78-.62-1.673328-.62-2.7.206665-1.92333.62-2.69.996663-1.356665 1.75-1.77 1.63-.62 2.63-.62 1.876663.206665 2.63.62 1.333331 1.00333 1.74 1.77.61 1.663328.61 2.69-.203331 1.926663-.61 2.7-.986663 1.366665-1.74 1.78-1.63.62-2.63.62zm-.02-1.94c.813337 0 1.433331-.266664 1.86-.8s.64-1.319995.64-2.36c0-1.026672-.213331-1.809997-.64-2.35s-1.039996-.81-1.84-.81-1.416664.269997-1.85.81c-.433335.540003-.65 1.323328-.65 2.35 0 1.040005.213331 1.826664.64 2.36s1.039996.8 1.84.8zm16.04-8v9.78h-2.44v-1.5c-.306668.533336-.719997.943332-1.24 1.23s-1.106663.43-1.76.43c-2.400012 0-3.6-1.346653-3.6-4.04v-5.9h2.5v5.92c0 .693337.139999 1.206665.42 1.54s.719997.5 1.32.5c.693337 0 1.249998-.229998 1.67-.69s.63-1.069996.63-1.83v-5.44zm2.6 9.78v-14.1h2.5v14.1zm14.52-14.1v14.1h-2.48v-1.58c-.293335.546669-.716664.973332-1.27 1.28s-1.18333.46-1.89.46c-.84 0-1.589997-.213331-2.25-.64s-1.173331-1.029996-1.54-1.81c-.366668-.780004-.55-1.676662-.55-2.69s.183332-1.899996.55-2.66c.366669-.760004.876663-1.346665 1.53-1.76s1.406662-.62 2.26-.62c.70667 0 1.333331.146665 1.88.44s.966665.706664 1.26 1.24v-5.76zm-4.98 12.32c.800004 0 1.416665-.273331 1.85-.82.433336-.546669.65-1.326662.65-2.34s-.216664-1.789997-.65-2.33c-.433335-.540003-1.043329-.81-1.83-.81-.800004 0-1.419998.266664-1.86.8s-.66 1.299995-.66 2.3c0 1.013338.219998 1.799997.66 2.36s1.053329.84 1.84.84zm18.66-8.24c1.173339 0 2.046664.33333 2.62 1s.86 1.673327.86 3.02v6h-2.5v-5.86c0-.760004-.143332-1.313332-.43-1.66s-.736664-.52-1.35-.52c-.720004 0-1.296664.226664-1.73.68-.433335.453336-.65 1.059996-.65 1.82v5.54h-2.5v-9.78h2.44v1.46c.333335-.546669.779997-.966665 1.34-1.26s1.19333-.44 1.9-.44zm14.6 5.58h-6.66c.08.906671.353331 1.579998.82 2.02s1.133329.66 2 .66c1.080005 0 2.066662-.346663 2.96-1.04l.72 1.72c-.453336.373335-1.02333.673332-1.71.9s-1.376663.34-2.07.34c-1.600008 0-2.863329-.453329-3.79-1.36s-1.39-2.146659-1.39-3.72c0-1.000005.199998-1.886663.6-2.66.4-.773337.96333-1.373331 1.69-1.8s1.549995-.64 2.47-.64c1.346673 0 2.409996.433329 3.19 1.3s1.17 2.059992 1.17 3.58zm-4.3-3.82c-.66667 0-1.203331.213331-1.61.64s-.656666 1.039996-.75 1.84h4.52c-.026667-.813337-.226665-1.429998-.6-1.85s-.89333-.63-1.56-.63zm14.92 3.82h-6.66c.08.906671.353331 1.579998.82 2.02s1.133329.66 2 .66c1.080005 0 2.066662-.346663 2.96-1.04l.72 1.72c-.453336.373335-1.02333.673332-1.71.9s-1.376663.34-2.07.34c-1.600008 0-2.863329-.453329-3.79-1.36s-1.39-2.146659-1.39-3.72c0-1.000005.199998-1.886663.6-2.66.4-.773337.96333-1.373331 1.69-1.8s1.549995-.64 2.47-.64c1.346673 0 2.409996.433329 3.19 1.3s1.17 2.059992 1.17 3.58zm-4.3-3.82c-.66667 0-1.203331.213331-1.61.64s-.656666 1.039996-.75 1.84h4.52c-.026667-.813337-.226665-1.429998-.6-1.85s-.89333-.63-1.56-.63zm15.78-5.84v14.1h-2.48v-1.58c-.293335.546669-.716664.973332-1.27 1.28s-1.18333.46-1.89.46c-.84 0-1.589997-.213331-2.25-.64s-1.173331-1.029996-1.54-1.81c-.366668-.780004-.55-1.676662-.55-2.69s.183332-1.899996.55-2.66c.366669-.760004.876663-1.346665 1.53-1.76s1.406662-.62 2.26-.62c.70667 0 1.333331.146665 1.88.44s.966665.706664 1.26 1.24v-5.76zm-4.98 12.32c.800004 0 1.416665-.273331 1.85-.82.433336-.546669.65-1.326662.65-2.34s-.216664-1.789997-.65-2.33c-.433335-.540003-1.043329-.81-1.83-.81-.800004 0-1.419998.266664-1.86.8s-.66 1.299995-.66 2.3c0 1.013338.219998 1.799997.66 2.36s1.053329.84 1.84.84zm17.98.06c.293335 0 .599998-.02.92-.06l-.12 1.86c-.400002.04-.766665.06-1.1.06-1.37334 0-2.386663-.316664-3.04-.95s-.98-1.57666-.98-2.83v-4.26h-1.88v-1.88h1.88v-2.92h2.5v2.92h2.58v1.88h-2.58v4.22c0 1.306673.606661 1.96 1.82 1.96zm6.84 1.88c-1 0-1.876663-.206665-2.63-.62s-1.336665-1.006663-1.75-1.78-.62-1.673328-.62-2.7.206665-1.92333.62-2.69.996663-1.356665 1.75-1.77 1.63-.62 2.63-.62 1.876663.206665 2.63.62 1.333331 1.00333 1.74 1.77.61 1.663328.61 2.69-.203331 1.926663-.61 2.7-.986663 1.366665-1.74 1.78-1.63.62-2.63.62zm-.02-1.94c.813337 0 1.433331-.266664 1.86-.8s.64-1.319995.64-2.36c0-1.026672-.213331-1.809997-.64-2.35s-1.039996-.81-1.84-.81-1.416664.269997-1.85.81-.65 1.323328-.65 2.35c0 1.040005.213331 1.826664.64 2.36s1.039996.8 1.84.8zm18.1-8.24c.853338 0 1.606663.206665 2.26.62s1.163332.999996 1.53 1.76.55 1.646662.55 2.66-.183332 1.909996-.55 2.69-.879997 1.383331-1.54 1.81-1.409996.64-2.25.64c-.70667 0-1.336664-.153332-1.89-.46s-.976665-.733331-1.27-1.28v1.58h-2.46v-14.1h2.5v5.74c.293335-.533336.713331-.943332 1.26-1.23s1.166663-.43 1.86-.43zm-.66 8.24c.786671 0 1.399998-.279997 1.84-.84s.66-1.346662.66-2.36c0-1.000005-.216664-1.766664-.65-2.3-.433335-.533336-1.049996-.8-1.85-.8s-1.416665.269997-1.85.81c-.433336.540003-.65 1.316662-.65 2.33s.216664 1.793331.65 2.34c.433335.546669 1.049996.82 1.85.82zm15.64-2.66h-6.66c.08.906671.353331 1.579998.82 2.02s1.133329.66 2 .66c1.080005 0 2.066662-.346663 2.96-1.04l.72 1.72c-.453336.373335-1.02333.673332-1.71.9s-1.376663.34-2.07.34c-1.600008 0-2.863329-.453329-3.79-1.36s-1.39-2.146659-1.39-3.72c0-1.000005.199998-1.886663.6-2.66.4-.773337.96333-1.373331 1.69-1.8s1.549995-.64 2.47-.64c1.346673 0 2.409996.433329 3.19 1.3s1.17 2.059992 1.17 3.58zm-4.3-3.82c-.66667 0-1.203331.213331-1.61.64s-.656666 1.039996-.75 1.84h4.52c-.026667-.813337-.226665-1.429998-.6-1.85s-.89333-.63-1.56-.63zm20.34 3.82h-6.66c.08.906671.353331 1.579998.82 2.02s1.133329.66 2 .66c1.080005 0 2.066662-.346663 2.96-1.04l.72 1.72c-.453336.373335-1.02333.673332-1.71.9s-1.376663.34-2.07.34c-1.600008 0-2.863329-.453329-3.79-1.36s-1.39-2.146659-1.39-3.72c0-1.000005.199998-1.886663.6-2.66.4-.773337.96333-1.373331 1.69-1.8s1.549995-.64 2.47-.64c1.346673 0 2.409996.433329 3.19 1.3s1.17 2.059992 1.17 3.58zm-4.3-3.82c-.66667 0-1.203331.213331-1.61.64s-.656666 1.039996-.75 1.84h4.52c-.026667-.813337-.226665-1.429998-.6-1.85s-.89333-.63-1.56-.63zm9.94 8.42c-.866671 0-1.66333-.106666-2.39-.32s-1.343331-.519998-1.85-.92l.7-1.74c1.040005.760004 2.233327 1.14 3.58 1.14.573336 0 1.009998-.093332 1.31-.28.300001-.186668.45-.453332.45-.8 0-.293335-.103332-.519999-.31-.68s-.576664-.306666-1.11-.44l-1.6-.36c-.906671-.200001-1.579998-.526664-2.02-.98s-.66-1.039996-.66-1.76c0-.600003.169998-1.129998.51-1.59s.81333-.816665 1.42-1.07 1.309996-.38 2.11-.38c.693337 0 1.36333.106666 2.01.32s1.216664.513331 1.71.9l-.7 1.7c-1.013338-.733337-2.026662-1.1-3.04-1.1-.546669 0-.973332.099999-1.28.3s-.46.479998-.46.84c0 .266668.096666.486666.29.66s.503331.306666.93.4l1.66.38c.973338.213334 1.686664.549998 2.14 1.01s.68 1.06333.68 1.81c0 .906671-.366663 1.626664-1.1 2.16s-1.72666.8-2.98.8zm11.1-1.88c.293335 0 .599998-.02.92-.06l-.12 1.86c-.400002.04-.766665.06-1.1.06-1.37334 0-2.386663-.316664-3.04-.95s-.98-1.57666-.98-2.83v-4.26h-1.88v-1.88h1.88v-2.92h2.5v2.92h2.58v1.88h-2.58v4.22c0 1.306673.606661 1.96 1.82 1.96zm6.58-8.3c1.37334 0 2.39333.33333 3.06 1s1 1.693326 1 3.08v5.94h-2.38v-1.5c-.226668.520003-.583331.926665-1.07 1.22s-1.049997.44-1.69.44c-.653337 0-1.246664-.133332-1.78-.4s-.953332-.633331-1.26-1.1-.46-.986664-.46-1.56c0-.720004.183331-1.286665.55-1.7.366668-.413335.963329-.713332 1.79-.9.757782-.171112 1.778837-.263796 3.063193-.278056l.856807-.001944v-.46c0-.66667-.143332-1.146665-.43-1.44s-.76333-.44-1.43-.44c-.520003 0-1.06333.089999-1.63.27s-1.123331.429998-1.67.75l-.7-1.72c.546669-.346668 1.206663-.633332 1.98-.86s1.506663-.34 2.2-.34zm-.58 8.38c.66667 0 1.209998-.223331 1.63-.67s.63-1.02333.63-1.73v-.42h-.36c-.893338 0-1.586664.04-2.08.12s-.846666.219999-1.06.42-.32.473332-.32.82c0 .426669.146665.776665.44 1.05s.666664.41 1.12.41zm12.8-8.38c.853338 0 1.606663.206665 2.26.62s1.163332.999996 1.53 1.76c.366669.760004.55 1.646662.55 2.66s-.183331 1.909996-.55 2.69c-.366668.780004-.879997 1.383331-1.54 1.81s-1.409996.64-2.25.64c-.70667 0-1.336664-.153332-1.89-.46s-.976665-.733331-1.27-1.28v1.58h-2.46v-14.1h2.5v5.74c.293335-.533336.713331-.943332 1.26-1.23s1.166663-.43 1.86-.43zm-.66 8.24c.786671 0 1.399998-.279997 1.84-.84s.66-1.346662.66-2.36c0-1.000005-.216665-1.766664-.65-2.3-.433336-.533336-1.049996-.8-1.85-.8s-1.416665.269997-1.85.81c-.433336.540003-.65 1.316662-.65 2.33s.216664 1.793331.65 2.34c.433335.546669 1.049996.82 1.85.82zm7.06 1.78v-14.1h2.5v14.1zm5.08 0v-9.78h2.5v9.78zm-.14-14.32h2.76v2.46h-2.76zm8.82 14.48c-.866671 0-1.66333-.106666-2.39-.32s-1.343331-.519998-1.85-.92l.7-1.74c1.040005.760004 2.233327 1.14 3.58 1.14.573336 0 1.009999-.093332 1.31-.28s.45-.453332.45-.8c0-.293335-.103332-.519999-.31-.68s-.576664-.306666-1.11-.44l-1.6-.36c-.906671-.200001-1.579998-.526664-2.02-.98s-.66-1.039996-.66-1.76c0-.600003.169998-1.129998.51-1.59s.81333-.816665 1.42-1.07 1.309996-.38 2.11-.38c.693337 0 1.36333.106666 2.01.32s1.216664.513331 1.71.9l-.7 1.7c-1.013338-.733337-2.026662-1.1-3.04-1.1-.546669 0-.973332.099999-1.28.3s-.46.479998-.46.84c0 .266668.096666.486666.29.66s.503331.306666.93.4l1.66.38c.973338.213334 1.686664.549998 2.14 1.01s.68 1.06333.68 1.81c0 .906671-.366663 1.626664-1.1 2.16s-1.72666.8-2.98.8zm11.78-10.18c1.173339 0 2.046664.33333 2.62 1s.86 1.673327.86 3.02v6h-2.5v-5.86c0-.760004-.143332-1.313332-.43-1.66s-.736664-.52-1.35-.52c-.720004 0-1.296664.226664-1.73.68-.433335.453336-.65 1.059996-.65 1.82v5.54h-2.5v-14.1h2.5v5.68c.333335-.520003.776664-.916665 1.33-1.19s1.17-.41 1.85-.41zm14.6 5.58h-6.66c.08.906671.353331 1.579998.82 2.02s1.133329.66 2 .66c1.080005 0 2.066662-.346663 2.96-1.04l.72 1.72c-.453336.373335-1.02333.673332-1.71.9s-1.376663.34-2.07.34c-1.600008 0-2.863329-.453329-3.79-1.36s-1.39-2.146659-1.39-3.72c0-1.000005.199998-1.886663.6-2.66.4-.773337.96333-1.373331 1.69-1.8s1.549995-.64 2.47-.64c1.346673 0 2.409996.433329 3.19 1.3s1.17 2.059992 1.17 3.58zm-4.3-3.82c-.66667 0-1.203331.213331-1.61.64s-.656666 1.039996-.75 1.84h4.52c-.026667-.813337-.226665-1.429998-.6-1.85s-.89333-.63-1.56-.63zm15.78-5.84v14.1h-2.48v-1.58c-.293335.546669-.716664.973332-1.27 1.28s-1.18333.46-1.89.46c-.84 0-1.589997-.213331-2.25-.64s-1.173331-1.029996-1.54-1.81-.55-1.676662-.55-2.69.183331-1.899996.55-2.66.876663-1.346665 1.53-1.76 1.406662-.62 2.26-.62c.70667 0 1.333331.146665 1.88.44s.966665.706664 1.26 1.24v-5.76zm-4.98 12.32c.800004 0 1.416664-.273331 1.85-.82.433335-.546669.65-1.326662.65-2.34s-.216665-1.789997-.65-2.33c-.433336-.540003-1.043329-.81-1.83-.81-.800004 0-1.419998.266664-1.86.8s-.66 1.299995-.66 2.3c0 1.013338.219998 1.799997.66 2.36s1.053329.84 1.84.84zm17.98.06c.293335 0 .599998-.02.92-.06l-.12 1.86c-.400002.04-.766665.06-1.1.06-1.37334 0-2.386663-.316664-3.04-.95s-.98-1.57666-.98-2.83v-4.26h-1.88v-1.88h1.88v-2.92h2.5v2.92h2.58v1.88h-2.58v4.22c0 1.306673.606661 1.96 1.82 1.96zm6.84 1.88c-1 0-1.876663-.206665-2.63-.62s-1.336665-1.006663-1.75-1.78-.62-1.673328-.62-2.7.206665-1.92333.62-2.69.996663-1.356665 1.75-1.77 1.63-.62 2.63-.62 1.876663.206665 2.63.62 1.333331 1.00333 1.74 1.77.61 1.663328.61 2.69-.203331 1.926663-.61 2.7-.986663 1.366665-1.74 1.78-1.63.62-2.63.62zm-.02-1.94c.813337 0 1.433331-.266664 1.86-.8s.64-1.319995.64-2.36c0-1.026672-.213331-1.809997-.64-2.35s-1.039996-.81-1.84-.81-1.416665.269997-1.85.81c-.433336.540003-.65 1.323328-.65 2.35 0 1.040005.213331 1.826664.64 2.36s1.039996.8 1.84.8zm16.68-8.24c1.37334 0 2.39333.33333 3.06 1s1 1.693326 1 3.08v5.94h-2.38v-1.5c-.226668.520003-.583331.926665-1.07 1.22s-1.049997.44-1.69.44c-.653337 0-1.246664-.133332-1.78-.4s-.953332-.633331-1.26-1.1-.46-.986664-.46-1.56c0-.720004.183331-1.286665.55-1.7s.963329-.713332 1.79-.9c.757782-.171112 1.778837-.263796 3.063193-.278056l.856807-.001944v-.46c0-.66667-.143332-1.146665-.43-1.44s-.76333-.44-1.43-.44c-.520003 0-1.063331.089999-1.63.27-.56667.180001-1.123331.429998-1.67.75l-.7-1.72c.546669-.346668 1.206663-.633332 1.98-.86s1.506663-.34 2.2-.34zm-.58 8.38c.66667 0 1.209998-.223331 1.63-.67s.63-1.02333.63-1.73v-.42h-.36c-.893338 0-1.586664.04-2.08.12s-.846666.219999-1.06.42-.32.473332-.32.82c0 .426669.146665.776665.44 1.05s.666664.41 1.12.41zm16.62-12.46v14.1h-2.48v-1.58c-.293335.546669-.716664.973332-1.27 1.28s-1.18333.46-1.89.46c-.84 0-1.589997-.213331-2.25-.64s-1.173332-1.029996-1.54-1.81c-.366669-.780004-.55-1.676662-.55-2.69s.183331-1.899996.55-2.66c.366668-.760004.876663-1.346665 1.53-1.76s1.406662-.62 2.26-.62c.70667 0 1.333331.146665 1.88.44s.966665.706664 1.26 1.24v-5.76zm-4.98 12.32c.800004 0 1.416664-.273331 1.85-.82.433335-.546669.65-1.326662.65-2.34s-.216665-1.789997-.65-2.33c-.433336-.540003-1.043329-.81-1.83-.81-.800004 0-1.419998.266664-1.86.8s-.66 1.299995-.66 2.3c0 1.013338.219998 1.799997.66 2.36s1.053329.84 1.84.84zm17-12.32v14.1h-2.48v-1.58c-.293335.546669-.716664.973332-1.27 1.28s-1.18333.46-1.89.46c-.84 0-1.589997-.213331-2.25-.64s-1.173332-1.029996-1.54-1.81c-.366669-.780004-.55-1.676662-.55-2.69s.183331-1.899996.55-2.66c.366668-.760004.876663-1.346665 1.53-1.76s1.406662-.62 2.26-.62c.70667 0 1.333331.146665 1.88.44s.966665.706664 1.26 1.24v-5.76zm-4.98 12.32c.800004 0 1.416664-.273331 1.85-.82.433335-.546669.65-1.326662.65-2.34s-.216665-1.789997-.65-2.33c-.433336-.540003-1.043329-.81-1.83-.81-.800004 0-1.419998.266664-1.86.8s-.66 1.299995-.66 2.3c0 1.013338.219998 1.799997.66 2.36s1.053329.84 1.84.84zm17.18-8.24c1.37334 0 2.39333.33333 3.06 1s1 1.693326 1 3.08v5.94h-2.38v-1.5c-.226668.520003-.583331.926665-1.07 1.22s-1.049997.44-1.69.44c-.653337 0-1.246664-.133332-1.78-.4s-.953332-.633331-1.26-1.1-.46-.986664-.46-1.56c0-.720004.183331-1.286665.55-1.7.366668-.413335.963329-.713332 1.79-.9.757782-.171112 1.778837-.263796 3.063193-.278056l.856807-.001944v-.46c0-.66667-.143332-1.146665-.43-1.44s-.76333-.44-1.43-.44c-.520003 0-1.063331.089999-1.63.27-.56667.180001-1.123331.429998-1.67.75l-.7-1.72c.546669-.346668 1.206663-.633332 1.98-.86s1.506663-.34 2.2-.34zm-.58 8.38c.66667 0 1.209998-.223331 1.63-.67s.63-1.02333.63-1.73v-.42h-.36c-.893338 0-1.586664.04-2.08.12s-.846666.219999-1.06.42-.32.473332-.32.82c0 .426669.146665.776665.44 1.05s.666664.41 1.12.41zm18.28-8.38c1.173339 0 2.046664.33333 2.62 1s.86 1.673327.86 3.02v6h-2.5v-5.86c0-.760004-.143332-1.313332-.43-1.66s-.736664-.52-1.35-.52c-.720004 0-1.296665.226664-1.73.68-.433336.453336-.65 1.059996-.65 1.82v5.54h-2.5v-9.78h2.44v1.46c.333335-.546669.779997-.966665 1.34-1.26s1.19333-.44 1.9-.44zm14.6 5.58h-6.66c.08.906671.353331 1.579998.82 2.02s1.133329.66 2 .66c1.080005 0 2.066662-.346663 2.96-1.04l.72 1.72c-.453336.373335-1.02333.673332-1.71.9s-1.376663.34-2.07.34c-1.600008 0-2.863329-.453329-3.79-1.36s-1.39-2.146659-1.39-3.72c0-1.000005.199998-1.886663.6-2.66.4-.773337.96333-1.373331 1.69-1.8s1.549995-.64 2.47-.64c1.346673 0 2.409996.433329 3.19 1.3s1.17 2.059992 1.17 3.58zm-4.3-3.82c-.66667 0-1.203331.213331-1.61.64s-.656666 1.039996-.75 1.84h4.52c-.026667-.813337-.226665-1.429998-.6-1.85s-.89333-.63-1.56-.63zm19.54-1.52h2.44l-3.84 9.78h-2.18l-2.4-6.3-2.34 6.3h-2.16l-3.86-9.78h2.56l2.5 6.8 2.5-6.8h1.8l2.5 6.84zm15.02-.24c1.173339 0 2.046664.33333 2.62 1s.86 1.673327.86 3.02v6h-2.5v-5.86c0-.760004-.143332-1.313332-.43-1.66s-.736664-.52-1.35-.52c-.720004 0-1.296665.226664-1.73.68-.433336.453336-.65 1.059996-.65 1.82v5.54h-2.5v-14.1h2.5v5.68c.333335-.520003.776664-.916665 1.33-1.19s1.17-.41 1.85-.41zm14.6 5.58h-6.66c.08.906671.353331 1.579998.82 2.02s1.133329.66 2 .66c1.080005 0 2.066662-.346663 2.96-1.04l.72 1.72c-.453336.373335-1.02333.673332-1.71.9s-1.376663.34-2.07.34c-1.600008 0-2.863329-.453329-3.79-1.36s-1.39-2.146659-1.39-3.72c0-1.000005.199998-1.886663.6-2.66.4-.773337.96333-1.373331 1.69-1.8s1.549995-.64 2.47-.64c1.346673 0 2.409996.433329 3.19 1.3s1.17 2.059992 1.17 3.58zm-4.3-3.82c-.66667 0-1.203331.213331-1.61.64s-.656666 1.039996-.75 1.84h4.52c-.026667-.813337-.226665-1.429998-.6-1.85s-.89333-.63-1.56-.63zm10.54-1.76c1.37334 0 2.39333.33333 3.06 1s1 1.693326 1 3.08v5.94h-2.38v-1.5c-.226668.520003-.583331.926665-1.07 1.22s-1.049997.44-1.69.44c-.653337 0-1.246664-.133332-1.78-.4s-.953332-.633331-1.26-1.1-.46-.986664-.46-1.56c0-.720004.183332-1.286665.55-1.7.366669-.413335.963329-.713332 1.79-.9.757782-.171112 1.778837-.263796 3.063193-.278056l.856807-.001944v-.46c0-.66667-.143332-1.146665-.43-1.44s-.76333-.44-1.43-.44c-.520003 0-1.06333.089999-1.63.27-.566669.180001-1.123331.429998-1.67.75l-.7-1.72c.546669-.346668 1.206663-.633332 1.98-.86s1.506663-.34 2.2-.34zm-.58 8.38c.66667 0 1.209998-.223331 1.63-.67s.63-1.02333.63-1.73v-.42h-.36c-.893338 0-1.586664.04-2.08.12s-.846666.219999-1.06.42-.32.473332-.32.82c0 .426669.146665.776665.44 1.05s.666664.41 1.12.41zm16.62-12.46v14.1h-2.48v-1.58c-.293335.546669-.716664.973332-1.27 1.28s-1.18333.46-1.89.46c-.84 0-1.589997-.213331-2.25-.64s-1.173332-1.029996-1.54-1.81c-.366669-.780004-.55-1.676662-.55-2.69s.183331-1.899996.55-2.66c.366668-.760004.876663-1.346665 1.53-1.76s1.406662-.62 2.26-.62c.70667 0 1.333331.146665 1.88.44s.966665.706664 1.26 1.24v-5.76zm-4.98 12.32c.800004 0 1.416664-.273331 1.85-.82.433335-.546669.65-1.326662.65-2.34s-.216665-1.789997-.65-2.33c-.433336-.540003-1.043329-.81-1.83-.81-.800004 0-1.419998.266664-1.86.8s-.66 1.299995-.66 2.3c0 1.013338.219998 1.799997.66 2.36s1.053329.84 1.84.84zm18.66-8.24c1.173339 0 2.046664.33333 2.62 1s.86 1.673327.86 3.02v6h-2.5v-5.86c0-.760004-.143332-1.313332-.43-1.66s-.736664-.52-1.35-.52c-.720004 0-1.296665.226664-1.73.68-.433336.453336-.65 1.059996-.65 1.82v5.54h-2.5v-9.78h2.44v1.46c.333335-.546669.779997-.966665 1.34-1.26s1.19333-.44 1.9-.44zm10.48 10.18c-1 0-1.876663-.206665-2.63-.62s-1.336665-1.006663-1.75-1.78-.62-1.673328-.62-2.7.206665-1.92333.62-2.69.996663-1.356665 1.75-1.77 1.63-.62 2.63-.62 1.876663.206665 2.63.62 1.333331 1.00333 1.74 1.77.61 1.663328.61 2.69-.203331 1.926663-.61 2.7-.986663 1.366665-1.74 1.78-1.63.62-2.63.62zm-.02-1.94c.813337 0 1.433331-.266664 1.86-.8s.64-1.319995.64-2.36c0-1.026672-.213331-1.809997-.64-2.35s-1.039996-.81-1.84-.81-1.416665.269997-1.85.81c-.433336.540003-.65 1.323328-.65 2.35 0 1.040005.213331 1.826664.64 2.36s1.039996.8 1.84.8zm16.5-12.32v14.1h-2.48v-1.58c-.293335.546669-.716664.973332-1.27 1.28s-1.18333.46-1.89.46c-.84 0-1.589997-.213331-2.25-.64s-1.173332-1.029996-1.54-1.81c-.366669-.780004-.55-1.676662-.55-2.69s.183331-1.899996.55-2.66c.366668-.760004.876663-1.346665 1.53-1.76s1.406662-.62 2.26-.62c.70667 0 1.333331.146665 1.88.44s.966665.706664 1.26 1.24v-5.76zm-4.98 12.32c.800004 0 1.416664-.273331 1.85-.82.433335-.546669.65-1.326662.65-2.34s-.216665-1.789997-.65-2.33c-.433336-.540003-1.043329-.81-1.83-.81-.800004 0-1.419998.266664-1.86.8s-.66 1.299995-.66 2.3c0 1.013338.219998 1.799997.66 2.36s1.053329.84 1.84.84zm16.14-2.66h-6.66c.08.906671.353331 1.579998.82 2.02s1.133329.66 2 .66c1.080005 0 2.066662-.346663 2.96-1.04l.72 1.72c-.453336.373335-1.02333.673332-1.71.9s-1.376663.34-2.07.34c-1.600008 0-2.863329-.453329-3.79-1.36s-1.39-2.146659-1.39-3.72c0-1.000005.199998-1.886663.6-2.66.4-.773337.96333-1.373331 1.69-1.8s1.549995-.64 2.47-.64c1.346673 0 2.409996.433329 3.19 1.3s1.17 2.059992 1.17 3.58zm-4.3-3.82c-.66667 0-1.203331.213331-1.61.64s-.656666 1.039996-.75 1.84h4.52c-.026667-.813337-.226665-1.429998-.6-1.85s-.89333-.63-1.56-.63zm16.76 6.54c.293335 0 .599998-.02.92-.06l-.12 1.86c-.400002.04-.766665.06-1.1.06-1.37334 0-2.386663-.316664-3.04-.95s-.98-1.57666-.98-2.83v-4.26h-1.88v-1.88h1.88v-2.92h2.5v2.92h2.58v1.88h-2.58v4.22c0 1.306673.606661 1.96 1.82 1.96zm6.84 1.88c-1 0-1.876663-.206665-2.63-.62s-1.336665-1.006663-1.75-1.78-.62-1.673328-.62-2.7.206665-1.92333.62-2.69.996663-1.356665 1.75-1.77 1.63-.62 2.63-.62 1.876663.206665 2.63.62 1.333331 1.00333 1.74 1.77.61 1.663328.61 2.69-.203331 1.926663-.61 2.7-.986663 1.366665-1.74 1.78-1.63.62-2.63.62zm-.02-1.94c.813337 0 1.433331-.266664 1.86-.8s.64-1.319995.64-2.36c0-1.026672-.213331-1.809997-.64-2.35s-1.039996-.81-1.84-.81-1.416665.269997-1.85.81c-.433336.540003-.65 1.323328-.65 2.35 0 1.040005.213331 1.826664.64 2.36s1.039996.8 1.84.8zm17.48.06c.293335 0 .599998-.02.92-.06l-.12 1.86c-.400002.04-.766665.06-1.1.06-1.37334 0-2.386663-.316664-3.04-.95s-.98-1.57666-.98-2.83v-4.26h-1.88v-1.88h1.88v-2.92h2.5v2.92h2.58v1.88h-2.58v4.22c0 1.306673.606661 1.96 1.82 1.96zm8.06-8.3c1.173339 0 2.046664.33333 2.62 1s.86 1.673327.86 3.02v6h-2.5v-5.86c0-.760004-.143332-1.313332-.43-1.66s-.736664-.52-1.35-.52c-.720004 0-1.296665.226664-1.73.68-.433336.453336-.65 1.059996-.65 1.82v5.54h-2.5v-14.1h2.5v5.68c.333335-.520003.776664-.916665 1.33-1.19s1.17-.41 1.85-.41zm6.02 10.02v-9.78h2.5v9.78zm-.14-14.32h2.76v2.46h-2.76zm8.82 14.48c-.866671 0-1.66333-.106666-2.39-.32s-1.343331-.519998-1.85-.92l.7-1.74c1.040005.760004 2.233327 1.14 3.58 1.14.573336 0 1.009998-.093332 1.31-.28.300001-.186668.45-.453332.45-.8 0-.293335-.103332-.519999-.31-.68s-.576664-.306666-1.11-.44l-1.6-.36c-.906671-.200001-1.579998-.526664-2.02-.98s-.66-1.039996-.66-1.76c0-.600003.169998-1.129998.51-1.59s.81333-.816665 1.42-1.07 1.309996-.38 2.11-.38c.693337 0 1.36333.106666 2.01.32s1.216664.513331 1.71.9l-.7 1.7c-1.013338-.733337-2.026662-1.1-3.04-1.1-.546669 0-.973332.099999-1.28.3s-.46.479998-.46.84c0 .266668.096666.486666.29.66s.503331.306666.93.4l1.66.38c.973338.213334 1.686664.549998 2.14 1.01s.68 1.06333.68 1.81c0 .906671-.366663 1.626664-1.1 2.16s-1.72666.8-2.98.8zm11.52-.16v-14.1h2.5v14.1zm5.08 0v-9.78h2.5v9.78zm-.14-14.32h2.76v2.46h-2.76zm8.82 14.48c-.866671 0-1.66333-.106666-2.39-.32s-1.343331-.519998-1.85-.92l.7-1.74c1.040005.760004 2.233327 1.14 3.58 1.14.573336 0 1.009998-.093332 1.31-.28.300001-.186668.45-.453332.45-.8 0-.293335-.103332-.519999-.31-.68s-.576664-.306666-1.11-.44l-1.6-.36c-.906671-.200001-1.579998-.526664-2.02-.98s-.66-1.039996-.66-1.76c0-.600003.169998-1.129998.51-1.59s.81333-.816665 1.42-1.07 1.309996-.38 2.11-.38c.693337 0 1.36333.106666 2.01.32s1.216664.513331 1.71.9l-.7 1.7c-1.013338-.733337-2.026662-1.1-3.04-1.1-.546669 0-.973332.099999-1.28.3s-.46.479998-.46.84c0 .266668.096666.486666.29.66s.503331.306666.93.4l1.66.38c.973338.213334 1.686664.549998 2.14 1.01s.68 1.06333.68 1.81c0 .906671-.366663 1.626664-1.1 2.16s-1.72666.8-2.98.8zm11.1-1.88c.293335 0 .599998-.02.92-.06l-.12 1.86c-.400002.04-.766665.06-1.1.06-1.37334 0-2.386663-.316664-3.04-.95s-.98-1.57666-.98-2.83v-4.26h-1.88v-1.88h1.88v-2.92h2.5v2.92h2.58v1.88h-2.58v4.22c0 1.306673.606661 1.96 1.82 1.96zm4.72-3.26c0-.733337.133332-1.353331.4-1.86.228573-.434288.545305-.902856.950203-1.405713l.209797-.254287c.386669-.466669.673332-.859998.86-1.18s.28-.679998.28-1.08c0-.453336-.159998-.809999-.48-1.07s-.766664-.39-1.34-.39-1.176664.126665-1.81.38c-.633337.253335-1.256664.613331-1.87 1.08l-.84-1.88c.546669-.493336 1.253329-.886665 2.12-1.18s1.733329-.44 2.6-.44c.813337 0 1.53333.136665 2.16.41s1.116665.659998 1.47 1.16.53 1.069997.53 1.71c0 .693337-.166665 1.299997-.5 1.82s-.81333 1.09333-1.44 1.72l-.384376.420001c-.35875.4-.640623.739998-.845624 1.019999-.273335.373335-.443333.799998-.51 1.28l-.08.54h-1.48zm-.62 4.98v-2.76h2.8v2.76zm-423.13 17.9h2.46l-4.98 14.1h-2.1l-3.54-10.14-3.56 10.14h-2.1l-4.96-14.1h2.6l3.5 10.5 3.68-10.5h1.82l3.58 10.56zm9.92 4.08c1.173339 0 2.046664.33333 2.62 1s.86 1.673327.86 3.02v6h-2.5v-5.86c0-.760004-.143332-1.313332-.43-1.66s-.736664-.52-1.35-.52c-.720004 0-1.296664.226664-1.73.68-.433335.453336-.65 1.059996-.65 1.82v5.54h-2.5v-14.1h2.5v5.68c.333335-.520003.776664-.916665 1.33-1.19s1.17-.41 1.85-.41zm10.22 0c1.37334 0 2.39333.33333 3.06 1s1 1.693326 1 3.08v5.94h-2.38v-1.5c-.226668.520003-.583331.926665-1.07 1.22s-1.049997.44-1.69.44c-.653337 0-1.246664-.133332-1.78-.4s-.953332-.633331-1.26-1.1-.46-.986664-.46-1.56c0-.720004.183331-1.286665.55-1.7.366668-.413335.963329-.713332 1.79-.9.757782-.171112 1.778837-.263796 3.063193-.278056l.856807-.001944v-.46c0-.66667-.143332-1.146665-.43-1.44s-.76333-.44-1.43-.44c-.520003 0-1.063331.089999-1.63.27-.56667.180001-1.123331.429998-1.67.75l-.7-1.72c.546669-.346668 1.206663-.633332 1.98-.86s1.506663-.34 2.2-.34zm-.58 8.38c.66667 0 1.209998-.223331 1.63-.67s.63-1.02333.63-1.73v-.42h-.36c-.893338 0-1.586664.04-2.08.12s-.846666.219999-1.06.42-.32.473332-.32.82c0 .426669.146665.776665.44 1.05s.666664.41 1.12.41zm12.18-.08c.293335 0 .599998-.02.92-.06l-.12 1.86c-.400002.04-.766665.06-1.1.06-1.37334 0-2.386663-.316664-3.04-.95s-.98-1.57666-.98-2.83v-4.26h-1.88v-1.88h1.88v-2.92h2.5v2.92h2.58v1.88h-2.58v4.22c0 1.306673.606661 1.96 1.82 1.96zm12-8.3c1.37334 0 2.39333.33333 3.06 1s1 1.693326 1 3.08v5.94h-2.38v-1.5c-.226668.520003-.583331.926665-1.07 1.22s-1.049997.44-1.69.44c-.653337 0-1.246664-.133332-1.78-.4s-.953332-.633331-1.26-1.1-.46-.986664-.46-1.56c0-.720004.183332-1.286665.55-1.7.366669-.413335.963329-.713332 1.79-.9.757782-.171112 1.778837-.263796 3.063193-.278056l.856807-.001944v-.46c0-.66667-.143332-1.146665-.43-1.44s-.76333-.44-1.43-.44c-.520003 0-1.063331.089999-1.63.27-.56667.180001-1.123331.429998-1.67.75l-.7-1.72c.546669-.346668 1.206663-.633332 1.98-.86s1.506663-.34 2.2-.34zm-.58 8.38c.66667 0 1.209998-.223331 1.63-.67s.63-1.02333.63-1.73v-.42h-.36c-.893338 0-1.586664.04-2.08.12s-.846666.219999-1.06.42-.32.473332-.32.82c0 .426669.146665.776665.44 1.05s.666664.41 1.12.41zm12.8-8.38c.853338 0 1.606663.206665 2.26.62s1.163331.999996 1.53 1.76c.366668.760004.55 1.646662.55 2.66s-.183332 1.909996-.55 2.69c-.366669.780004-.879997 1.383331-1.54 1.81s-1.409996.64-2.25.64c-.70667 0-1.336664-.153332-1.89-.46s-.976665-.733331-1.27-1.28v1.58h-2.46v-14.1h2.5v5.74c.293335-.533336.713331-.943332 1.26-1.23s1.166663-.43 1.86-.43zm-.66 8.24c.786671 0 1.399998-.279997 1.84-.84s.66-1.346662.66-2.36c0-1.000005-.216664-1.766664-.65-2.3-.433335-.533336-1.049996-.8-1.85-.8s-1.416664.269997-1.85.81-.65 1.316662-.65 2.33.216664 1.793331.65 2.34 1.049996.82 1.85.82zm11.52 1.94c-1 0-1.876663-.206665-2.63-.62s-1.336665-1.006663-1.75-1.78-.62-1.673328-.62-2.7.206665-1.923329.62-2.69c.413335-.76667.996663-1.356665 1.75-1.77s1.63-.62 2.63-.62 1.876663.206665 2.63.62 1.333331 1.00333 1.74 1.77c.406669.766671.61 1.663328.61 2.69s-.203331 1.926663-.61 2.7-.986663 1.366665-1.74 1.78-1.63.62-2.63.62zm-.02-1.94c.813337 0 1.433331-.266664 1.86-.8s.64-1.319995.64-2.36c0-1.026672-.213331-1.809997-.64-2.35s-1.039996-.81-1.84-.81-1.416665.269997-1.85.81c-.433336.540003-.65 1.323328-.65 2.35 0 1.040005.213331 1.826664.64 2.36s1.039996.8 1.84.8zm16.04-8v9.78h-2.44v-1.5c-.306668.533336-.719997.943332-1.24 1.23s-1.106663.43-1.76.43c-2.400012 0-3.6-1.346653-3.6-4.04v-5.9h2.5v5.92c0 .693337.139999 1.206665.42 1.54s.719997.5 1.32.5c.693337 0 1.249998-.229998 1.67-.69s.63-1.069996.63-1.83v-5.44zm7.6 8.06c.293335 0 .599998-.02.92-.06l-.12 1.86c-.400002.04-.766665.06-1.1.06-1.37334 0-2.386663-.316664-3.04-.95s-.98-1.57666-.98-2.83v-4.26h-1.88v-1.88h1.88v-2.92h2.5v2.92h2.58v1.88h-2.58v4.22c0 1.306673.606661 1.96 1.82 1.96zm12.8 0c.293335 0 .599998-.02.92-.06l-.12 1.86c-.400002.04-.766665.06-1.1.06-1.37334 0-2.386663-.316664-3.04-.95s-.98-1.57666-.98-2.83v-4.26h-1.88v-1.88h1.88v-2.92h2.5v2.92h2.58v1.88h-2.58v4.22c0 1.306673.606661 1.96 1.82 1.96zm8.06-8.3c1.173339 0 2.046664.33333 2.62 1s.86 1.673327.86 3.02v6h-2.5v-5.86c0-.760004-.143332-1.313332-.43-1.66s-.736664-.52-1.35-.52c-.720004 0-1.296664.226664-1.73.68-.433335.453336-.65 1.059996-.65 1.82v5.54h-2.5v-14.1h2.5v5.68c.333335-.520003.776664-.916665 1.33-1.19s1.17-.41 1.85-.41zm14.6 5.58h-6.66c.08.906671.353331 1.579998.82 2.02s1.133329.66 2 .66c1.080005 0 2.066662-.346663 2.96-1.04l.72 1.72c-.453336.373335-1.02333.673332-1.71.9s-1.376663.34-2.07.34c-1.600008 0-2.863329-.453329-3.79-1.36s-1.39-2.146659-1.39-3.72c0-1.000005.199998-1.886663.6-2.66.4-.773337.96333-1.373331 1.69-1.8s1.549995-.64 2.47-.64c1.346673 0 2.409996.433329 3.19 1.3s1.17 2.059992 1.17 3.58zm-4.3-3.82c-.66667 0-1.203331.213331-1.61.64s-.656666 1.039996-.75 1.84h4.52c-.026667-.813337-.226665-1.429998-.6-1.85s-.89333-.63-1.56-.63zm16.76 6.54c.293335 0 .599998-.02.92-.06l-.12 1.86c-.400002.04-.766665.06-1.1.06-1.37334 0-2.386663-.316664-3.04-.95s-.98-1.57666-.98-2.83v-4.26h-1.88v-1.88h1.88v-2.92h2.5v2.92h2.58v1.88h-2.58v4.22c0 1.306673.606661 1.96 1.82 1.96zm6.58-8.3c1.37334 0 2.39333.33333 3.06 1s1 1.693326 1 3.08v5.94h-2.38v-1.5c-.226668.520003-.583331.926665-1.07 1.22s-1.049997.44-1.69.44c-.653337 0-1.246664-.133332-1.78-.4s-.953332-.633331-1.26-1.1-.46-.986664-.46-1.56c0-.720004.183331-1.286665.55-1.7.366668-.413335.963329-.713332 1.79-.9.757782-.171112 1.778837-.263796 3.063193-.278056l.856807-.001944v-.46c0-.66667-.143332-1.146665-.43-1.44s-.76333-.44-1.43-.44c-.520003 0-1.06333.089999-1.63.27s-1.123331.429998-1.67.75l-.7-1.72c.546669-.346668 1.206663-.633332 1.98-.86s1.506663-.34 2.2-.34zm-.58 8.38c.66667 0 1.209998-.223331 1.63-.67s.63-1.02333.63-1.73v-.42h-.36c-.893338 0-1.586664.04-2.08.12s-.846666.219999-1.06.42-.32.473332-.32.82c0 .426669.146665.776665.44 1.05s.666664.41 1.12.41zm7.18 1.64v-9.78h2.5v9.78zm-.14-14.32h2.76v2.46h-2.76zm5.22 14.32v-14.1h2.5v14.1zm7.42-4.98c0-.733337.133332-1.353331.4-1.86.228573-.434288.545305-.902856.950203-1.405713l.209797-.254287c.386669-.466669.673332-.859998.86-1.18s.28-.679998.28-1.08c0-.453336-.159998-.809999-.48-1.07s-.766664-.39-1.34-.39-1.176664.126665-1.81.38-1.256664.613331-1.87 1.08l-.84-1.88c.546669-.493336 1.253329-.886665 2.12-1.18s1.733329-.44 2.6-.44c.813337 0 1.53333.136665 2.16.41s1.116665.659998 1.47 1.16.53 1.069997.53 1.71c0 .693337-.166665 1.299997-.5 1.82s-.81333 1.09333-1.44 1.72l-.384376.420001c-.35875.4-.640623.739998-.845624 1.019999-.273335.373335-.443333.799998-.51 1.28l-.08.54h-1.48zm-.62 4.98v-2.76h2.8v2.76z" fill="#fff"/></g></svg>