<svg height="941" viewBox="0 0 1214 941" width="1214" xmlns="http://www.w3.org/2000/svg"><g fill="none"><g transform="translate(155 365)"><path d="m92.592 80.72h4.16c1.8453426 0 3.277328.4933284 4.296 1.48s1.528 2.3706578 1.528 4.152-.509328 3.167995-1.528 4.16-2.4506574 1.488-4.296 1.488h-4.16zm4.032 9.6c2.592013 0 3.888-1.3226534 3.888-3.968 0-2.6346798-1.295987-3.952-3.888-3.952h-1.968v7.92zm11.216-6.336c1.098672 0 1.914664.266664 2.448.8s.8 1.3546611.8 2.464v4.752h-1.904v-1.2c-.181334.4160021-.466665.7413322-.856.976s-.839997.352-1.352.352c-.522669 0-.997331-.1066656-1.424-.32s-.762665-.5066648-1.008-.88-.368-.789331-.368-1.248c0-.5760029.146665-1.0293317.44-1.36s.770663-.5706659 1.432-.72c.595203-.1344007 1.393436-.2083201 2.394719-.22176l.741281-.00224v-.368c0-.533336-.114666-.9173322-.344-1.152s-.610664-.352-1.144-.352c-.416002 0-.850664.0719993-1.304.216s-.898664.3439987-1.336.6l-.56-1.376c.437336-.2773347.96533-.5066658 1.584-.688s1.205331-.272 1.76-.272zm-.464 6.704c.533336 0 .967998-.1786649 1.304-.536s.504-.8186638.504-1.384v-.336h-.288c-.71467 0-1.269331.0319997-1.664.096s-.677332.1759992-.848.336-.256.3786653-.256.656c0 .341335.117332.6213322.352.84s.533332.328.896.328zm9.744-.064c.234668 0 .479999-.0159998.736-.048l-.096 1.488c-.320002.0320002-.613332.048-.88.048-1.098672 0-1.909331-.2533308-2.432-.76s-.784-1.2613283-.784-2.264v-3.408h-1.504v-1.504h1.504v-2.336h2v2.336h2.064v1.504h-2.064v3.376c0 1.0453386.485328 1.568 1.456 1.568z" fill="#fff"/><path d="m3.664 0c1.09867216 0 1.914664.266664 2.448.8s.8 1.35466112.8 2.464v4.752h-1.904v-1.2c-.18133424.41600208-.46666472.74133216-.856.976s-.83999744.352-1.352.352c-.52266928 0-.9973312-.1066656-1.424-.32s-.76266544-.5066648-1.008-.88-.368-.78933104-.368-1.248c0-.57600288.1466652-1.02933168.44-1.36s.77066336-.57066592 1.432-.72c.59520298-.13440067 1.39343589-.20832013 2.39471868-.22176002l.74128132-.00223998v-.368c0-.533336-.11466552-.91733216-.344-1.152s-.610664-.352-1.144-.352c-.41600208 0-.8506644.07199928-1.304.216s-.89866448.34399872-1.336.6l-.56-1.376c.43733552-.27733472.96533024-.50666576 1.584-.688s1.20533056-.272 1.76-.272zm1.344 4.448-.54850095.00149999c-.59033469.00699994-1.05816399.03849973-1.40349905.09450001-.39466864.06400032-.67733248.1759992-.848.336s-.256.37866528-.256.656c0 .34133504.11733216.62133224.352.84s.53333152.328.896.328c.533336 0 .96799832-.17866488 1.304-.536s.504-.81866384.504-1.384z" fill="#fff" transform="translate(118.72 83.984)"/><path d="m93.06 4.98c1.1733392 0 2.0466638.33333 2.62 1s.86 1.6733266.86 3.02v6h-2.5v-5.86c0-.7600038-.1433319-1.3133316-.43-1.66s-.7366636-.52-1.35-.52c-.7200036 0-1.2966645.2266644-1.73.68s-.65 1.0599962-.65 1.82v5.54h-2.5v-9.78h2.44v1.46c.333335-.5466694.7799972-.9666652 1.34-1.26s1.1933298-.44 1.9-.44zm10.48 10.18c-1 0-1.876663-.2066646-2.63-.62s-1.3366646-1.0066628-1.75-1.78-.62-1.6733282-.62-2.7.2066646-1.9233295.62-2.69.996663-1.3566646 1.75-1.77 1.63-.62 2.63-.62 1.876663.2066646 2.63.62 1.333331 1.0033295 1.74 1.77.61 1.6633282.61 2.69-.203331 1.9266628-.61 2.7-.986663 1.3666646-1.74 1.78-1.63.62-2.63.62zm-.02-1.94c.813337 0 1.433331-.266664 1.86-.8s.64-1.3199948.64-2.36c0-1.0266718-.213331-1.8099973-.64-2.35s-1.039996-.81-1.84-.81-1.416664.2699973-1.85.81c-.433335.5400027-.65 1.3233282-.65 2.35 0 1.0400052.213331 1.826664.64 2.36s1.039996.8 1.84.8zm16.5-12.32v14.1h-2.48v-1.58c-.293335.5466694-.716664.9733318-1.27 1.28s-1.18333.46-1.89.46c-.84 0-1.589997-.2133312-2.25-.64s-1.173331-1.0299961-1.54-1.81c-.366668-.7800039-.55-1.6766616-.55-2.69s.183332-1.8999962.55-2.66c.366669-.7600038.876663-1.3466646 1.53-1.76s1.406662-.62 2.26-.62c.70667 0 1.333331.1466652 1.88.44s.966665.706664 1.26 1.24v-5.76zm-4.98 12.32c.800004 0 1.416665-.2733306 1.85-.82.433336-.5466694.65-1.3266616.65-2.34s-.216664-1.7899973-.65-2.33c-.433335-.5400027-1.043329-.81-1.83-.81-.800004 0-1.419998.266664-1.86.8s-.66 1.299995-.66 2.3c0 1.0133384.219998 1.7999972.66 2.36s1.053329.84 1.84.84z" fill="#4c7ef3"/><path d="m4.76 0c1.3466734 0 2.4099961.433329 3.19 1.3s1.17 2.0599924 1.17 3.58v.7h-6.66c.0800004.9066712.353331 1.5799978.82 2.02s1.133329.66 2 .66c1.0800054 0 2.0666622-.3466632 2.96-1.04l.72 1.72c-.4533356.3733352-1.0233299.6733322-1.71.9s-1.3766632.34-2.07.34c-1.600008 0-2.8633287-.4533288-3.79-1.36s-1.39-2.1466588-1.39-3.72c0-1.000005.199998-1.8866628.6-2.66.4-.7733372.9633297-1.3733312 1.69-1.8s1.5499954-.64 2.47-.64zm.06 1.76c-.66667 0-1.2033313.2133312-1.61.64s-.6566662 1.039996-.75 1.84h4.52c-.0266668-.8133374-.2266648-1.4299979-.6-1.85s-.89333-.63-1.56-.63z" fill="#4c7ef3" transform="translate(122.06 4.98)"/><path d="m94.776 166v-11.28h2.064v9.584h5.264v1.696zm8.704 0v-7.824h2v7.824zm-.112-11.456h2.208v1.968h-2.208zm8.72 3.44c.938671 0 1.637331.266664 2.096.8s.688 1.338661.688 2.416v4.8h-2v-4.688c0-.608003-.114666-1.050665-.344-1.328s-.589331-.416-1.08-.416c-.576003 0-1.037332.181332-1.384.544s-.52.847997-.52 1.456v4.432h-2v-7.824h1.952v1.168c.266668-.437336.623998-.773332 1.072-1.008s.954664-.352 1.52-.352zm12.656 8.016h-2.48l-3.36-3.568v3.568h-2v-11.28h2v6.88l3.152-3.408h2.432l-3.52 3.744z" fill="#fff"/><g fill="#757f97"><path d="m195 117h-172v-62h172zm-2-60h-168v58h168z"/><path d="m218 216h-218v-185h218zm-2-183h-214v181h214z"/><path d="m195 191h-172v-62h172zm-2-60h-168v58h168z"/></g></g><g transform="translate(498 396)"><g fill="#fff"><path d="m92.592 49.72h4.16c1.8453426 0 3.277328.4933284 4.296 1.48s1.528 2.3706578 1.528 4.152-.509328 3.167995-1.528 4.16-2.4506574 1.488-4.296 1.488h-4.16zm4.032 9.6c2.592013 0 3.888-1.3226534 3.888-3.968 0-2.6346798-1.295987-3.952-3.888-3.952h-1.968v7.92zm11.216-6.336c1.098672 0 1.914664.266664 2.448.8s.8 1.3546611.8 2.464v4.752h-1.904v-1.2c-.181334.4160021-.466665.7413322-.856.976s-.839997.352-1.352.352c-.522669 0-.997331-.1066656-1.424-.32s-.762665-.5066648-1.008-.88-.368-.789331-.368-1.248c0-.5760029.146665-1.0293317.44-1.36s.770663-.5706659 1.432-.72c.595203-.1344007 1.393436-.2083201 2.394719-.22176l.741281-.00224v-.368c0-.533336-.114666-.9173322-.344-1.152s-.610664-.352-1.144-.352c-.416002 0-.850664.0719993-1.304.216s-.898664.3439987-1.336.6l-.56-1.376c.437336-.2773347.96533-.5066658 1.584-.688s1.205331-.272 1.76-.272zm-.464 6.704c.533336 0 .967998-.1786649 1.304-.536s.504-.8186638.504-1.384v-.336h-.288c-.71467 0-1.269331.0319997-1.664.096s-.677332.1759992-.848.336-.256.3786653-.256.656c0 .341335.117332.6213322.352.84s.533332.328.896.328zm9.744-.064c.234668 0 .479999-.0159998.736-.048l-.096 1.488c-.320002.0320002-.613332.048-.88.048-1.098672 0-1.909331-.2533308-2.432-.76s-.784-1.2613283-.784-2.264v-3.408h-1.504v-1.504h1.504v-2.336h2v2.336h2.064v1.504h-2.064v3.376c0 1.0453386.485328 1.568 1.456 1.568z"/><path d="m3.664 0c1.09867216 0 1.914664.266664 2.448.8s.8 1.35466112.8 2.464v4.752h-1.904v-1.2c-.18133424.41600208-.46666472.74133216-.856.976s-.83999744.352-1.352.352c-.52266928 0-.9973312-.1066656-1.424-.32s-.76266544-.5066648-1.008-.88-.368-.78933104-.368-1.248c0-.57600288.1466652-1.02933168.44-1.36s.77066336-.57066592 1.432-.72c.59520298-.13440067 1.39343589-.20832013 2.39471868-.22176002l.74128132-.00223998v-.368c0-.533336-.11466552-.91733216-.344-1.152s-.610664-.352-1.144-.352c-.41600208 0-.8506644.07199928-1.304.216s-.89866448.34399872-1.336.6l-.56-1.376c.43733552-.27733472.96533024-.50666576 1.584-.688s1.20533056-.272 1.76-.272zm1.344 4.448-.54850095.00149999c-.59033469.00699994-1.05816399.03849973-1.40349905.09450001-.39466864.06400032-.67733248.1759992-.848.336s-.256.37866528-.256.656c0 .34133504.11733216.62133224.352.84s.53333152.328.896.328c.533336 0 .96799832-.17866488 1.304-.536s.504-.81866384.504-1.384z" transform="translate(118.72 52.984)"/><path d="m94.776 135v-11.28h2.064v9.584h5.264v1.696zm8.704 0v-7.824h2v7.824zm-.112-11.456h2.208v1.968h-2.208zm8.72 3.44c.938671 0 1.637331.266664 2.096.8s.688 1.338661.688 2.416v4.8h-2v-4.688c0-.608003-.114666-1.050665-.344-1.328s-.589331-.416-1.08-.416c-.576003 0-1.037332.181332-1.384.544s-.52.847997-.52 1.456v4.432h-2v-7.824h1.952v1.168c.266668-.437336.623998-.773332 1.072-1.008s.954664-.352 1.52-.352zm12.656 8.016h-2.48l-3.36-3.568v3.568h-2v-11.28h2v6.88l3.152-3.408h2.432l-3.52 3.744z"/></g><g fill="#757f97"><path d="m195 86h-172v-62h172zm-2-60h-168v58h168z"/><path d="m218 185h-218v-185h218zm-2-183h-214v181h214z"/><path d="m195 160h-172v-62h172zm-2-60h-168v58h168z"/></g></g><g fill="#4c7ef3"><path d="m591.06 369.98c1.173339 0 2.046664.33333 2.62 1s.86 1.673327.86 3.02v6h-2.5v-5.86c0-.760004-.143332-1.313332-.43-1.66s-.736664-.52-1.35-.52c-.720004 0-1.296665.226664-1.73.68-.433336.453336-.65 1.059996-.65 1.82v5.54h-2.5v-9.78h2.44v1.46c.333335-.546669.779997-.966665 1.34-1.26s1.19333-.44 1.9-.44zm10.48 10.18c-1 0-1.876663-.206665-2.63-.62s-1.336665-1.006663-1.75-1.78-.62-1.673328-.62-2.7.206665-1.92333.62-2.69c.413335-.766671.996663-1.356665 1.75-1.77s1.63-.62 2.63-.62 1.876663.206665 2.63.62 1.333331 1.003329 1.74 1.77c.406669.76667.61 1.663328.61 2.69s-.203331 1.926663-.61 2.7-.986663 1.366665-1.74 1.78-1.63.62-2.63.62zm-.02-1.94c.813337 0 1.433331-.266664 1.86-.8s.64-1.319995.64-2.36c0-1.026672-.213331-1.809997-.64-2.35s-1.039996-.81-1.84-.81-1.416664.269997-1.85.81-.65 1.323328-.65 2.35c0 1.040005.213331 1.826664.64 2.36s1.039996.8 1.84.8zm16.5-12.32v14.1h-2.48v-1.58c-.293335.546669-.716664.973332-1.27 1.28s-1.18333.46-1.89.46c-.84 0-1.589997-.213331-2.25-.64s-1.173332-1.029996-1.54-1.81c-.366669-.780004-.55-1.676662-.55-2.69s.183331-1.899996.55-2.66c.366668-.760004.876663-1.346665 1.53-1.76s1.406662-.62 2.26-.62c.70667 0 1.333331.146665 1.88.44s.966665.706664 1.26 1.24v-5.76zm-4.98 12.32c.800004 0 1.416664-.273331 1.85-.82.433335-.546669.65-1.326662.65-2.34s-.216665-1.789997-.65-2.33c-.433336-.540003-1.043329-.81-1.83-.81-.800004 0-1.419998.266664-1.86.8s-.66 1.299995-.66 2.3c0 1.013338.219998 1.799997.66 2.36s1.053329.84 1.84.84z"/><path d="m4.76 0c1.3466734 0 2.4099961.433329 3.19 1.3s1.17 2.0599924 1.17 3.58v.7h-6.66c.0800004.9066712.353331 1.5799978.82 2.02s1.133329.66 2 .66c1.0800054 0 2.0666622-.3466632 2.96-1.04l.72 1.72c-.4533356.3733352-1.0233299.6733322-1.71.9s-1.3766632.34-2.07.34c-1.600008 0-2.8633287-.4533288-3.79-1.36s-1.39-2.1466588-1.39-3.72c0-1.000005.199998-1.8866628.6-2.66.4-.7733372.9633297-1.3733312 1.69-1.8s1.5499954-.64 2.47-.64zm.06 1.76c-.66667 0-1.2033313.2133312-1.61.64s-.6566662 1.039996-.75 1.84h4.52c-.0266668-.8133374-.2266648-1.4299979-.6-1.85s-.89333-.63-1.56-.63z" transform="translate(620.06 369.98)"/><path d="m934.06 369.98c1.173339 0 2.046664.33333 2.62 1s.86 1.673327.86 3.02v6h-2.5v-5.86c0-.760004-.143332-1.313332-.43-1.66s-.736664-.52-1.35-.52c-.720004 0-1.296665.226664-1.73.68-.433336.453336-.65 1.059996-.65 1.82v5.54h-2.5v-9.78h2.44v1.46c.333335-.546669.779997-.966665 1.34-1.26s1.19333-.44 1.9-.44zm10.48 10.18c-1 0-1.876663-.206665-2.63-.62s-1.336665-1.006663-1.75-1.78-.62-1.673328-.62-2.7.206665-1.92333.62-2.69c.413335-.766671.996663-1.356665 1.75-1.77s1.63-.62 2.63-.62 1.876663.206665 2.63.62 1.333331 1.003329 1.74 1.77c.406669.76667.61 1.663328.61 2.69s-.203331 1.926663-.61 2.7-.986663 1.366665-1.74 1.78-1.63.62-2.63.62zm-.02-1.94c.813337 0 1.433331-.266664 1.86-.8s.64-1.319995.64-2.36c0-1.026672-.213331-1.809997-.64-2.35s-1.039996-.81-1.84-.81-1.416664.269997-1.85.81-.65 1.323328-.65 2.35c0 1.040005.213331 1.826664.64 2.36s1.039996.8 1.84.8zm16.5-12.32v14.1h-2.48v-1.58c-.293335.546669-.716664.973332-1.27 1.28s-1.18333.46-1.89.46c-.84 0-1.589997-.213331-2.25-.64s-1.173332-1.029996-1.54-1.81c-.366669-.780004-.55-1.676662-.55-2.69s.183331-1.899996.55-2.66c.366668-.760004.876663-1.346665 1.53-1.76s1.406662-.62 2.26-.62c.70667 0 1.333331.146665 1.88.44s.966665.706664 1.26 1.24v-5.76zm-4.98 12.32c.800004 0 1.416664-.273331 1.85-.82.433335-.546669.65-1.326662.65-2.34s-.216665-1.789997-.65-2.33c-.433336-.540003-1.043329-.81-1.83-.81-.800004 0-1.419998.266664-1.86.8s-.66 1.299995-.66 2.3c0 1.013338.219998 1.799997.66 2.36s1.053329.84 1.84.84z"/><path d="m4.76 0c1.3466734 0 2.4099961.433329 3.19 1.3s1.17 2.0599924 1.17 3.58v.7h-6.66c.0800004.9066712.353331 1.5799978.82 2.02s1.133329.66 2 .66c1.0800054 0 2.0666622-.3466632 2.96-1.04l.72 1.72c-.4533356.3733352-1.0233299.6733322-1.71.9s-1.3766632.34-2.07.34c-1.600008 0-2.8633287-.4533288-3.79-1.36s-1.39-2.1466588-1.39-3.72c0-1.000005.199998-1.8866628.6-2.66.4-.7733372.9633297-1.3733312 1.69-1.8s1.5499954-.64 2.47-.64zm.06 1.76c-.66667 0-1.2033313.2133312-1.61.64s-.6566662 1.039996-.75 1.84h4.52c-.0266668-.8133374-.2266648-1.4299979-.6-1.85s-.89333-.63-1.56-.63z" transform="translate(963.06 369.98)"/></g><path d="m539.684 111v-19.74h3.612v16.772h9.212v2.968zm15.232 0v-13.692h3.5v13.692zm-.196-20.048h3.864v3.444h-3.864zm15.26 6.02c1.642675 0 2.865329.466662 3.668 1.4s1.204 2.342657 1.204 4.228v8.4h-3.5v-8.204c0-1.064005-.200665-1.838664-.602-2.324-.401335-.4853358-1.031329-.728-1.89-.728-1.008005 0-1.81533.31733-2.422.952s-.91 1.483995-.91 2.548v7.756h-3.5v-13.692h3.416v2.044c.466669-.7653372 1.091996-1.3533313 1.876-1.764s1.670662-.616 2.66-.616zm22.148 14.028h-4.34l-5.88-6.244v6.244h-3.5v-19.74h3.5v12.04l5.516-5.964h4.256l-6.16 6.552zm13.3-6.216h-9.324c.112001 1.26934.494663 2.211997 1.148 2.828s1.586661.924 2.8.924c1.512008 0 2.893327-.485328 4.144-1.456l1.008 2.408c-.63467.522669-1.432662.942665-2.394 1.26s-1.927328.476-2.898.476c-2.240011 0-4.00866-.63466-5.306-1.904s-1.946-3.005322-1.946-5.208c0-1.400007.279997-2.641328.84-3.724.560003-1.0826721 1.348662-1.9226637 2.366-2.52s2.169994-.896 3.458-.896c1.885343 0 3.373995.6066606 4.466 1.82 1.092005 1.213339 1.638 2.883989 1.638 5.012zm-6.02-5.348c-.933338 0-1.684664.2986637-2.254.896-.569336.597336-.919333 1.455994-1.05 2.576h6.328c-.037334-1.138672-.317331-2.001997-.84-2.59-.522669-.5880029-1.250662-.882-2.184-.882zm22.092-8.176v19.74h-3.472v-2.212c-.410669.765337-1.003329 1.362665-1.778 1.792s-1.656662.644-2.646.644c-1.176006 0-2.225995-.298664-3.15-.896s-1.642664-1.441995-2.156-2.534-.77-2.347326-.77-3.766.256664-2.659995.77-3.724c.513336-1.0640053 1.227329-1.8853304 2.142-2.464s1.969327-.868 3.164-.868c.989338 0 1.866663.2053313 2.632.616s1.353331.9893296 1.764 1.736v-8.064zm-6.972 17.248c1.120006 0 1.98333-.382663 2.59-1.148s.91-1.857326.91-3.276-.30333-2.505996-.91-3.262-1.460661-1.134-2.562-1.134c-1.120006 0-1.987997.37333-2.604 1.12s-.924 1.819993-.924 3.22c0 1.418674.307997 2.519996.924 3.304s1.474661 1.176 2.576 1.176zm18.48 2.492v-19.74h3.612v16.772h9.212v2.968zm15.232 0v-13.692h3.5v13.692zm-.196-20.048h3.864v3.444h-3.864zm12.348 20.272c-1.213339 0-2.328662-.149332-3.346-.448s-1.880663-.727997-2.59-1.288l.98-2.436c1.456007 1.064005 3.126657 1.596 5.012 1.596.802671 0 1.413998-.130665 1.834-.392s.63-.634664.63-1.12c0-.410669-.144665-.727999-.434-.952s-.80733-.429332-1.554-.616l-2.24-.504c-1.26934-.280001-2.211997-.73733-2.828-1.372s-.924-1.455995-.924-2.464c0-.840004.237998-1.5819968.714-2.226s1.138662-1.1433316 1.988-1.498 1.833994-.532 2.954-.532c.970672 0 1.908662.1493318 2.814.448s1.70333.718664 2.394 1.26l-.98 2.38c-1.418674-1.026672-2.837326-1.54-4.256-1.54-.765337 0-1.362665.1399986-1.792.42-.429335.280001-.644.671997-.644 1.176 0 .373335.135332.681332.406.924s.704664.429333 1.302.56l2.324.532c1.362673.298668 2.36133.769997 2.996 1.414s.952 1.488661.952 2.534c0 1.26934-.513328 2.27733-1.54 3.024s-2.417325 1.12-4.172 1.12zm15.54-2.632c.410669 0 .839998-.028 1.288-.084l-.168 2.604c-.560003.056-1.073331.084-1.54.084-1.922676 0-3.341329-.443329-4.256-1.33s-1.372-2.207325-1.372-3.962v-5.964h-2.632v-2.632h2.632v-4.088h3.5v4.088h3.612v2.632h-3.612v5.908c0 1.829342.849325 2.744 2.548 2.744z" fill="#fff"/><g transform="translate(841 396)"><g fill="#fff"><path d="m92.592 49.72h4.16c1.8453426 0 3.277328.4933284 4.296 1.48s1.528 2.3706578 1.528 4.152-.509328 3.167995-1.528 4.16-2.4506574 1.488-4.296 1.488h-4.16zm4.032 9.6c2.592013 0 3.888-1.3226534 3.888-3.968 0-2.6346798-1.295987-3.952-3.888-3.952h-1.968v7.92zm11.216-6.336c1.098672 0 1.914664.266664 2.448.8s.8 1.3546611.8 2.464v4.752h-1.904v-1.2c-.181334.4160021-.466665.7413322-.856.976s-.839997.352-1.352.352c-.522669 0-.997331-.1066656-1.424-.32s-.762665-.5066648-1.008-.88-.368-.789331-.368-1.248c0-.5760029.146665-1.0293317.44-1.36s.770663-.5706659 1.432-.72c.595203-.1344007 1.393436-.2083201 2.394719-.22176l.741281-.00224v-.368c0-.533336-.114666-.9173322-.344-1.152s-.610664-.352-1.144-.352c-.416002 0-.850664.0719993-1.304.216s-.898664.3439987-1.336.6l-.56-1.376c.437336-.2773347.96533-.5066658 1.584-.688s1.205331-.272 1.76-.272zm-.464 6.704c.533336 0 .967998-.1786649 1.304-.536s.504-.8186638.504-1.384v-.336h-.288c-.71467 0-1.269331.0319997-1.664.096s-.677332.1759992-.848.336-.256.3786653-.256.656c0 .341335.117332.6213322.352.84s.533332.328.896.328zm9.744-.064c.234668 0 .479999-.0159998.736-.048l-.096 1.488c-.320002.0320002-.613332.048-.88.048-1.098672 0-1.909331-.2533308-2.432-.76s-.784-1.2613283-.784-2.264v-3.408h-1.504v-1.504h1.504v-2.336h2v2.336h2.064v1.504h-2.064v3.376c0 1.0453386.485328 1.568 1.456 1.568z"/><path d="m3.664 0c1.09867216 0 1.914664.266664 2.448.8s.8 1.35466112.8 2.464v4.752h-1.904v-1.2c-.18133424.41600208-.46666472.74133216-.856.976s-.83999744.352-1.352.352c-.52266928 0-.9973312-.1066656-1.424-.32s-.76266544-.5066648-1.008-.88-.368-.78933104-.368-1.248c0-.57600288.1466652-1.02933168.44-1.36s.77066336-.57066592 1.432-.72c.59520298-.13440067 1.39343589-.20832013 2.39471868-.22176002l.74128132-.00223998v-.368c0-.533336-.11466552-.91733216-.344-1.152s-.610664-.352-1.144-.352c-.41600208 0-.8506644.07199928-1.304.216s-.89866448.34399872-1.336.6l-.56-1.376c.43733552-.27733472.96533024-.50666576 1.584-.688s1.20533056-.272 1.76-.272zm1.344 4.448-.54850094.00149999c-.5903347.00699994-1.058164.03849973-1.40349906.09450001-.39466864.06400032-.67733248.1759992-.848.336s-.256.37866528-.256.656c0 .34133504.11733216.62133224.352.84s.53333152.328.896.328c.533336 0 .96799832-.17866488 1.304-.536s.504-.81866384.504-1.384z" transform="translate(118.72 52.984)"/><path d="m94.776 135v-11.28h2.064v9.584h5.264v1.696zm8.704 0v-7.824h2v7.824zm-.112-11.456h2.208v1.968h-2.208zm8.72 3.44c.938671 0 1.637331.266664 2.096.8s.688 1.338661.688 2.416v4.8h-2v-4.688c0-.608003-.114666-1.050665-.344-1.328s-.589331-.416-1.08-.416c-.576003 0-1.037332.181332-1.384.544s-.52.847997-.52 1.456v4.432h-2v-7.824h1.952v1.168c.266668-.437336.623998-.773332 1.072-1.008s.954664-.352 1.52-.352zm12.656 8.016h-2.48l-3.36-3.568v3.568h-2v-11.28h2v6.88l3.152-3.408h2.432l-3.52 3.744z"/></g><g fill="#757f97"><path d="m195 86h-172v-62h172zm-2-60h-168v58h168z"/><path d="m218 185h-218v-185h218zm-2-183h-214v181h214z"/><path d="m195 160h-172v-62h172zm-2-60h-168v58h168z"/></g></g><path d="m484.625 444 14 7-14 7v-6h-57.156097v73h-97.843903v-2h95.843903v-73h59.156097z" fill="#4c7ef3"/><path d="m828 444 14 7-14 7v-6h-57.156097v73h-97.843903v-2h95.843903v-73h59.156097z" fill="#4c7ef3"/><path d="m321.38 163.18c-1.386674 0-2.596661-.296664-3.63-.89-1.033338-.593336-1.826664-1.436661-2.38-2.53s-.83-2.366659-.83-3.82.276664-2.723328.83-3.81 1.346662-1.926664 2.38-2.52c1.033339-.593336 2.243326-.89 3.63-.89.946671 0 1.839996.146665 2.68.44s1.546664.706664 2.12 1.24l-.86 1.88c-.640003-.506669-1.27333-.876666-1.9-1.11s-1.29333-.35-2-.35c-1.360007 0-2.409996.439996-3.15 1.32s-1.11 2.146658-1.11 3.8c0 1.666675.369996 2.939996 1.11 3.82s1.789993 1.32 3.15 1.32c.70667 0 1.37333-.116665 2-.35.62667-.233334 1.259997-.603331 1.9-1.11l.86 1.88c-.573336.533336-1.279996.946665-2.12 1.24s-1.733329.44-2.68.44zm11.14-10.2c1.37334 0 2.39333.33333 3.06 1s1 1.693326 1 3.08v5.94h-2.38v-1.5c-.226668.520003-.583331.926665-1.07 1.22s-1.049997.44-1.69.44c-.653337 0-1.246664-.133332-1.78-.4s-.953332-.633331-1.26-1.1-.46-.986664-.46-1.56c0-.720004.183332-1.286665.55-1.7.366669-.413335.963329-.713332 1.79-.9.757782-.171112 1.778837-.263796 3.063193-.278056l.856807-.001944v-.46c0-.66667-.143332-1.146665-.43-1.44s-.76333-.44-1.43-.44c-.520003 0-1.06333.089999-1.63.27-.566669.180001-1.123331.429998-1.67.75l-.7-1.72c.546669-.346668 1.206663-.633332 1.98-.86s1.506663-.34 2.2-.34zm-.58 8.38c.66667 0 1.209998-.223331 1.63-.67s.63-1.02333.63-1.73v-.42h-.36c-.893338 0-1.586664.04-2.08.12s-.846666.219999-1.06.42-.32.473332-.32.82c0 .426669.146665.776665.44 1.05s.666664.41 1.12.41zm12.86-8.38c1.173339 0 2.046664.33333 2.62 1s.86 1.673327.86 3.02v6h-2.5v-5.86c0-.760004-.143332-1.313332-.43-1.66s-.736664-.52-1.35-.52c-.720004 0-1.296664.226664-1.73.68-.433335.453336-.65 1.059996-.65 1.82v5.54h-2.5v-9.78h2.44v1.46c.333335-.546669.779997-.966665 1.34-1.26s1.19333-.44 1.9-.44zm18.3.26h2.46l-5.88 13.36h-2.52l1.78-3.98-4.08-9.38h2.64l2.76 6.9zm8.12 9.92c-1 0-1.876663-.206665-2.63-.62s-1.336665-1.006663-1.75-1.78-.62-1.673328-.62-2.7.206665-1.923329.62-2.69c.413335-.76667.996663-1.356665 1.75-1.77s1.63-.62 2.63-.62 1.876663.206665 2.63.62 1.333331 1.00333 1.74 1.77c.406669.766671.61 1.663328.61 2.69s-.203331 1.926663-.61 2.7-.986663 1.366665-1.74 1.78-1.63.62-2.63.62zm-.02-1.94c.813337 0 1.433331-.266664 1.86-.8s.64-1.319995.64-2.36c0-1.026672-.213331-1.809997-.64-2.35s-1.039996-.81-1.84-.81-1.416664.269997-1.85.81c-.433335.540003-.65 1.323328-.65 2.35 0 1.040005.213331 1.826664.64 2.36s1.039996.8 1.84.8zm16.04-8v9.78h-2.44v-1.5c-.306668.533336-.719997.943332-1.24 1.23s-1.106663.43-1.76.43c-2.400012 0-3.6-1.346653-3.6-4.04v-5.9h2.5v5.92c0 .693337.139999 1.206665.42 1.54s.719997.5 1.32.5c.693337 0 1.249998-.229998 1.67-.69s.63-1.069996.63-1.83v-5.44zm13.02 8.06c.293335 0 .599998-.02.92-.06l-.12 1.86c-.400002.04-.766665.06-1.1.06-1.37334 0-2.386663-.316663-3.04-.95-.653337-.633336-.98-1.57666-.98-2.83v-4.26h-1.88v-1.88h1.88v-2.92h2.5v2.92h2.58v1.88h-2.58v4.22c0 1.306673.606661 1.96 1.82 1.96zm8.06-8.3c1.173339 0 2.046664.33333 2.62 1s.86 1.673327.86 3.02v6h-2.5v-5.86c0-.760004-.143332-1.313332-.43-1.66s-.736664-.52-1.35-.52c-.720004 0-1.296664.226664-1.73.68-.433335.453336-.65 1.059996-.65 1.82v5.54h-2.5v-14.1h2.5v5.68c.333335-.520003.776664-.916665 1.33-1.19s1.17-.41 1.85-.41zm6.02 10.02v-9.78h2.5v9.78zm-.14-14.32h2.76v2.46h-2.76zm10.9 4.3c1.173339 0 2.046664.33333 2.62 1s.86 1.673327.86 3.02v6h-2.5v-5.86c0-.760004-.143332-1.313332-.43-1.66s-.736664-.52-1.35-.52c-.720004 0-1.296664.226664-1.73.68-.433335.453336-.65 1.059996-.65 1.82v5.54h-2.5v-9.78h2.44v1.46c.333335-.546669.779997-.966665 1.34-1.26s1.19333-.44 1.9-.44zm15.82 10.02h-3.1l-4.2-4.46v4.46h-2.5v-14.1h2.5v8.6l3.94-4.26h3.04l-4.4 4.68zm10.8.16c-1 0-1.876663-.206665-2.63-.62s-1.336665-1.006663-1.75-1.78-.62-1.673328-.62-2.7.206665-1.923329.62-2.69c.413335-.76667.996663-1.356665 1.75-1.77s1.63-.62 2.63-.62 1.876663.206665 2.63.62 1.333331 1.00333 1.74 1.77c.406669.766671.61 1.663328.61 2.69s-.203331 1.926663-.61 2.7-.986663 1.366665-1.74 1.78-1.63.62-2.63.62zm-.02-1.94c.813337 0 1.433331-.266664 1.86-.8s.64-1.319995.64-2.36c0-1.026672-.213331-1.809997-.64-2.35s-1.039996-.81-1.84-.81-1.416664.269997-1.85.81c-.433335.540003-.65 1.323328-.65 2.35 0 1.040005.213331 1.826664.64 2.36s1.039996.8 1.84.8zm10.24-8h2.58v1.88h-2.58v7.9h-2.5v-7.9h-1.88v-1.88h1.88c0-1.4.36333-2.45333 1.09-3.16.678226-.659559 1.707786-1.046163 3.08871-1.159822l1.28129-.080178.16 1.86-.94.04c-.786671.04-1.346665.216665-1.68.53s-.5.816663-.5 1.51zm13.6-.24c1.37334 0 2.39333.33333 3.06 1s1 1.693326 1 3.08v5.94h-2.38v-1.5c-.226668.520003-.583331.926665-1.07 1.22s-1.049997.44-1.69.44c-.653337 0-1.246664-.133332-1.78-.4s-.953332-.633331-1.26-1.1-.46-.986664-.46-1.56c0-.720004.183332-1.286665.55-1.7.366669-.413335.963329-.713332 1.79-.9.757782-.171112 1.778837-.263796 3.063193-.278056l.856807-.001944v-.46c0-.66667-.143332-1.146665-.43-1.44s-.76333-.44-1.43-.44c-.520003 0-1.06333.089999-1.63.27-.566669.180001-1.123331.429998-1.67.75l-.7-1.72c.546669-.346668 1.206663-.633332 1.98-.86s1.506663-.34 2.2-.34zm-.58 8.38c.66667 0 1.209998-.223331 1.63-.67s.63-1.02333.63-1.73v-.42h-.36c-.893338 0-1.586664.04-2.08.12s-.846666.219999-1.06.42-.32.473332-.32.82c0 .426669.146665.776665.44 1.05s.666664.41 1.12.41zm19.04-6.3-1.46.14c-1.653342.173334-2.48 1.013326-2.48 2.52v5.28h-2.5v-9.78h2.38v1.72c.478521-1.108154 1.438697-1.740576 2.880554-1.897284l1.019446-.082716zm9.8 3.5h-6.66c.08.906671.353331 1.579998.82 2.02s1.133329.66 2 .66c1.080005 0 2.066662-.346663 2.96-1.04l.72 1.72c-.453336.373335-1.02333.673332-1.71.9s-1.376663.34-2.07.34c-1.600008 0-2.863329-.453329-3.79-1.36s-1.39-2.146659-1.39-3.72c0-1.000005.199998-1.886663.6-2.66.4-.773337.96333-1.373331 1.69-1.8s1.549995-.64 2.47-.64c1.346673 0 2.409996.433329 3.19 1.3s1.17 2.059992 1.17 3.58zm-4.3-3.82c-.66667 0-1.203331.213331-1.61.64s-.656666 1.039996-.75 1.84h4.52c-.026667-.813337-.226665-1.429998-.6-1.85s-.89333-.63-1.56-.63zm10.54-1.76c1.37334 0 2.39333.33333 3.06 1s1 1.693326 1 3.08v5.94h-2.38v-1.5c-.226668.520003-.583331.926665-1.07 1.22s-1.049997.44-1.69.44c-.653337 0-1.246664-.133332-1.78-.4s-.953332-.633331-1.26-1.1-.46-.986664-.46-1.56c0-.720004.183332-1.286665.55-1.7s.963329-.713332 1.79-.9c.757782-.171112 1.778837-.263796 3.063193-.278056l.856807-.001944v-.46c0-.66667-.143332-1.146665-.43-1.44s-.76333-.44-1.43-.44c-.520003 0-1.06333.089999-1.63.27-.566669.180001-1.123331.429998-1.67.75l-.7-1.72c.546669-.346668 1.206663-.633332 1.98-.86s1.506663-.34 2.2-.34zm-.58 8.38c.66667 0 1.209998-.223331 1.63-.67s.63-1.02333.63-1.73v-.42h-.36c-.893338 0-1.586664.04-2.08.12s-.846666.219999-1.06.42-.32.473332-.32.82c0 .426669.146665.776665.44 1.05s.666664.41 1.12.41zm7.18 1.64v-14.1h2.5v14.1zm23.7-9.78h2.44l-3.84 9.78h-2.18l-2.4-6.3-2.34 6.3h-2.16l-3.86-9.78h2.56l2.5 6.8 2.5-6.8h1.8l2.5 6.84zm8.38 9.94c-1 0-1.876663-.206665-2.63-.62s-1.336665-1.006663-1.75-1.78-.62-1.673328-.62-2.7.206665-1.923329.62-2.69c.413335-.76667.996663-1.356665 1.75-1.77s1.63-.62 2.63-.62 1.876663.206665 2.63.62 1.333331 1.00333 1.74 1.77c.406669.766671.61 1.663328.61 2.69s-.203331 1.926663-.61 2.7-.986663 1.366665-1.74 1.78-1.63.62-2.63.62zm-.02-1.94c.813337 0 1.433331-.266664 1.86-.8s.64-1.319995.64-2.36c0-1.026672-.213331-1.809997-.64-2.35s-1.039996-.81-1.84-.81-1.416664.269997-1.85.81c-.433335.540003-.65 1.323328-.65 2.35 0 1.040005.213331 1.826664.64 2.36s1.039996.8 1.84.8zm13.5-6.16-1.46.14c-1.653342.173334-2.48 1.013326-2.48 2.52v5.28h-2.5v-9.78h2.38v1.72c.478521-1.108154 1.438697-1.740576 2.880554-1.897284l1.019446-.082716zm1.22 7.94v-14.1h2.5v14.1zm14.52-14.1v14.1h-2.48v-1.58c-.293335.546669-.716664.973332-1.27 1.28s-1.18333.46-1.89.46c-.84 0-1.589997-.213331-2.25-.64s-1.173331-1.029996-1.54-1.81-.55-1.676662-.55-2.69.183331-1.899996.55-2.66.876663-1.346665 1.53-1.76 1.406662-.62 2.26-.62c.70667 0 1.333331.146665 1.88.44s.966665.706664 1.26 1.24v-5.76zm-4.98 12.32c.800004 0 1.416665-.273331 1.85-.82.433336-.546669.65-1.326662.65-2.34s-.216664-1.789997-.65-2.33c-.433335-.540003-1.043329-.81-1.83-.81-.800004 0-1.419998.266664-1.86.8s-.66 1.299995-.66 2.3c0 1.013338.219998 1.799997.66 2.36s1.053329.84 1.84.84zm21.56-2.66h-6.66c.08.906671.353331 1.579998.82 2.02s1.133329.66 2 .66c1.080005 0 2.066662-.346663 2.96-1.04l.72 1.72c-.453336.373335-1.02333.673332-1.71.9s-1.376663.34-2.07.34c-1.600008 0-2.863329-.453329-3.79-1.36s-1.39-2.146659-1.39-3.72c0-1.000005.199998-1.886663.6-2.66.4-.773337.96333-1.373331 1.69-1.8s1.549995-.64 2.47-.64c1.346673 0 2.409996.433329 3.19 1.3s1.17 2.059992 1.17 3.58zm-4.3-3.82c-.66667 0-1.203331.213331-1.61.64s-.656666 1.039996-.75 1.84h4.52c-.026667-.813337-.226665-1.429998-.6-1.85s-.89333-.63-1.56-.63zm11.8 3.22 4.12 5.04h-2.96l-2.6-3.26-2.58 3.26h-2.96l4.1-5.04-3.88-4.74h2.98l2.34 2.98 2.34-2.98h2.98zm9.38-4.98c1.37334 0 2.39333.33333 3.06 1s1 1.693326 1 3.08v5.94h-2.38v-1.5c-.226668.520003-.583331.926665-1.07 1.22s-1.049997.44-1.69.44c-.653337 0-1.246664-.133332-1.78-.4s-.953332-.633331-1.26-1.1-.46-.986664-.46-1.56c0-.720004.183332-1.286665.55-1.7s.963329-.713332 1.79-.9c.757782-.171112 1.778837-.263796 3.063193-.278056l.856807-.001944v-.46c0-.66667-.143332-1.146665-.43-1.44s-.76333-.44-1.43-.44c-.520003 0-1.06333.089999-1.63.27s-1.123331.429998-1.67.75l-.7-1.72c.546669-.346668 1.206663-.633332 1.98-.86s1.506663-.34 2.2-.34zm-.58 8.38c.66667 0 1.209998-.223331 1.63-.67s.63-1.02333.63-1.73v-.42h-.36c-.893338 0-1.586664.04-2.08.12s-.846666.219999-1.06.42-.32.473332-.32.82c0 .426669.146665.776665.44 1.05s.666664.41 1.12.41zm18.8-8.38c1.106672 0 1.933331.329997 2.48.99s.82 1.669993.82 3.03v6h-2.5v-5.9c0-.74667-.126665-1.289998-.38-1.63s-.659997-.51-1.22-.51c-.66667 0-1.186665.226664-1.56.68s-.56 1.086663-.56 1.9v5.46h-2.5v-5.9c0-.74667-.123332-1.289998-.37-1.63s-.656664-.51-1.23-.51c-.653337 0-1.166665.226664-1.54.68s-.56 1.086663-.56 1.9v5.46h-2.5v-9.78h2.44v1.38c.293335-.533336.699997-.936665 1.22-1.21s1.11333-.41 1.78-.41c1.480007 0 2.459998.613327 2.94 1.84.306668-.573336.746664-1.023332 1.32-1.35s1.21333-.49 1.92-.49zm11.46 0c.840004 0 1.589997.213331 2.25.64s1.173332 1.029996 1.54 1.81c.366669.780004.55 1.676662.55 2.69s-.183331 1.899996-.55 2.66c-.366668.760004-.876663 1.346665-1.53 1.76s-1.406662.62-2.26.62c-.693337 0-1.313331-.146665-1.86-.44s-.966665-.699997-1.26-1.22v5.1h-2.5v-13.38h2.46v1.48c.293335-.546669.716664-.969998 1.27-1.27s1.18333-.45 1.89-.45zm-.66 8.24c.786671 0 1.399998-.269997 1.84-.81s.66-1.303328.66-2.29c0-1.013338-.219998-1.799997-.66-2.36s-1.053329-.84-1.84-.84c-.800004 0-1.416664.273331-1.85.82-.433335.546669-.65 1.326662-.65 2.34 0 1.000005.216665 1.773331.65 2.32.433336.546669 1.049996.82 1.85.82zm7.06 1.78v-14.1h2.5v14.1zm13.66-4.44h-6.66c.08.906671.353331 1.579998.82 2.02s1.133329.66 2 .66c1.080005 0 2.066662-.346663 2.96-1.04l.72 1.72c-.453336.373335-1.02333.673332-1.71.9s-1.376663.34-2.07.34c-1.600008 0-2.863329-.453329-3.79-1.36s-1.39-2.146659-1.39-3.72c0-1.000005.199998-1.886663.6-2.66.4-.773337.96333-1.373331 1.69-1.8s1.549995-.64 2.47-.64c1.346673 0 2.409996.433329 3.19 1.3s1.17 2.059992 1.17 3.58zm-4.3-3.82c-.66667 0-1.203331.213331-1.61.64s-.656666 1.039996-.75 1.84h4.52c-.026667-.813337-.226665-1.429998-.6-1.85s-.89333-.63-1.56-.63zm20.74-1.52v9.78h-2.44v-1.5c-.306668.533336-.719997.943332-1.24 1.23s-1.106663.43-1.76.43c-2.400012 0-3.6-1.346653-3.6-4.04v-5.9h2.5v5.92c0 .693337.139999 1.206665.42 1.54s.719997.5 1.32.5c.693337 0 1.249998-.229998 1.67-.69s.63-1.069996.63-1.83v-5.44zm6.2 9.94c-.866671 0-1.66333-.106666-2.39-.32s-1.343331-.519998-1.85-.92l.7-1.74c1.040005.760004 2.233327 1.14 3.58 1.14.573336 0 1.009998-.093332 1.31-.28.300001-.186668.45-.453332.45-.8 0-.293335-.103332-.519999-.31-.68s-.576664-.306666-1.11-.44l-1.6-.36c-.906671-.200001-1.579998-.526664-2.02-.98s-.66-1.039996-.66-1.76c0-.600003.169998-1.129998.51-1.59s.81333-.816665 1.42-1.07 1.309996-.38 2.11-.38c.693337 0 1.36333.106666 2.01.32s1.216664.513331 1.71.9l-.7 1.7c-1.013338-.733337-2.026662-1.1-3.04-1.1-.546669 0-.973332.099999-1.28.3s-.46.479998-.46.84c0 .266668.096666.486666.29.66s.503331.306666.93.4l1.66.38c.973338.213334 1.686664.549998 2.14 1.01s.68 1.06333.68 1.81c0 .906671-.366663 1.626664-1.1 2.16s-1.72666.8-2.98.8zm6.1-.16v-9.78h2.5v9.78zm-.14-14.32h2.76v2.46h-2.76zm10.9 4.3c1.173339 0 2.046664.33333 2.62 1s.86 1.673327.86 3.02v6h-2.5v-5.86c0-.760004-.143332-1.313332-.43-1.66s-.736664-.52-1.35-.52c-.720004 0-1.296664.226664-1.73.68-.433335.453336-.65 1.059996-.65 1.82v5.54h-2.5v-9.78h2.44v1.46c.333335-.546669.779997-.966665 1.34-1.26s1.19333-.44 1.9-.44zm15.54.24v8.88c0 1.533341-.423329 2.693329-1.27 3.48s-2.096658 1.18-3.75 1.18c-.853338 0-1.673329-.109999-2.46-.33s-1.47333-.529998-2.06-.93l.7-1.76c1.213339.733337 2.46666 1.1 3.76 1.1 1.733342 0 2.6-.853325 2.6-2.56v-1.28c-.293335.546669-.719997.969999-1.28 1.27s-1.199996.45-1.92.45c-.853338 0-1.609997-.203331-2.27-.61s-1.176665-.976663-1.55-1.71-.56-1.579995-.56-2.54.183332-1.809996.55-2.55c.366669-.740004.88333-1.313331 1.55-1.72s1.426662-.61 2.28-.61c.720004 0 1.359997.149998 1.92.45s.986665.723331 1.28 1.27v-1.48zm-5.02 7.56c.800004 0 1.423331-.259997 1.87-.78s.67-1.233329.67-2.14c0-.920005-.223331-1.639997-.67-2.16s-1.069996-.78-1.87-.78c-.786671 0-1.406664.259997-1.86.78s-.68 1.239995-.68 2.16c0 .893338.226664 1.603331.68 2.13s1.073329.79 1.86.79zm18.64-7.8c.853338 0 1.606663.206665 2.26.62s1.163332.999996 1.53 1.76.55 1.646662.55 2.66-.183332 1.909996-.55 2.69-.879997 1.383331-1.54 1.81-1.409996.64-2.25.64c-.70667 0-1.336664-.153332-1.89-.46s-.976665-.733331-1.27-1.28v1.58h-2.46v-14.1h2.5v5.74c.293335-.533336.713331-.943332 1.26-1.23s1.166663-.43 1.86-.43zm-.66 8.24c.786671 0 1.399998-.279997 1.84-.84s.66-1.346662.66-2.36c0-1.000005-.216664-1.766664-.65-2.3-.433335-.533336-1.049996-.8-1.85-.8s-1.416664.269997-1.85.81c-.433335.540003-.65 1.316662-.65 2.33s.216665 1.793331.65 2.34c.433336.546669 1.049996.82 1.85.82zm7.06 1.78v-9.78h2.5v9.78zm-.14-14.32h2.76v2.46h-2.76zm14.66.22v14.1h-2.48v-1.58c-.293335.546669-.716664.973332-1.27 1.28s-1.18333.46-1.89.46c-.84 0-1.589997-.213331-2.25-.64s-1.173332-1.029996-1.54-1.81-.55-1.676662-.55-2.69.183332-1.899996.55-2.66.876663-1.346665 1.53-1.76 1.406662-.62 2.26-.62c.70667 0 1.333331.146665 1.88.44s.966665.706664 1.26 1.24v-5.76zm-4.98 12.32c.800004 0 1.416664-.273331 1.85-.82s.65-1.326662.65-2.34-.216664-1.789997-.65-2.33-1.043329-.81-1.83-.81c-.800004 0-1.419998.266664-1.86.8s-.66 1.299995-.66 2.3c0 1.013338.219998 1.799997.66 2.36s1.053329.84 1.84.84zm7.56 1.78v-9.78h2.5v9.78zm-.14-14.32h2.76v2.46h-2.76zm11.66 6.38-1.46.14c-1.653342.173334-2.48 1.013326-2.48 2.52v5.28h-2.5v-9.78h2.38v1.72c.478521-1.108154 1.438697-1.740576 2.880554-1.897284l1.019446-.082716zm9.8 3.5h-6.66c.08.906671.353331 1.579998.82 2.02s1.133329.66 2 .66c1.080005 0 2.066662-.346663 2.96-1.04l.72 1.72c-.453336.373335-1.02333.673332-1.71.9s-1.376663.34-2.07.34c-1.600008 0-2.863329-.453329-3.79-1.36s-1.39-2.146659-1.39-3.72c0-1.000005.199998-1.886663.6-2.66.4-.773337.96333-1.373331 1.69-1.8s1.549995-.64 2.47-.64c1.346673 0 2.409996.433329 3.19 1.3s1.17 2.059992 1.17 3.58zm-4.3-3.82c-.66667 0-1.203331.213331-1.61.64s-.656666 1.039996-.75 1.84h4.52c-.026667-.813337-.226665-1.429998-.6-1.85s-.89333-.63-1.56-.63zm10.8 8.42c-1.026672 0-1.916663-.206665-2.67-.62s-1.33-.999996-1.73-1.76c-.400002-.760004-.6-1.646662-.6-2.66s.209998-1.909996.63-2.69 1.016663-1.383331 1.79-1.81 1.666662-.64 2.68-.64c.693337 0 1.369997.109999 2.03.33s1.189998.516665 1.59.89l-.72 1.76c-.413335-.333335-.849998-.586666-1.31-.76s-.916664-.26-1.37-.26c-.866671 0-1.539998.269997-2.02.81s-.72 1.316662-.72 2.33c0 1.000005.239998 1.769997.72 2.31s1.153329.81 2.02.81c.453336 0 .909998-.086666 1.37-.26s.896665-.426665 1.31-.76l.72 1.74c-.426669.386669-.97333.689999-1.64.91s-1.359996.33-2.08.33zm10.3-1.88c.293335 0 .599998-.02.92-.06l-.12 1.86c-.400002.04-.766665.06-1.1.06-1.37334 0-2.386663-.316663-3.04-.95-.653337-.633336-.98-1.57666-.98-2.83v-4.26h-1.88v-1.88h1.88v-2.92h2.5v2.92h2.58v1.88h-2.58v4.22c0 1.306673.606661 1.96 1.82 1.96zm2.38 1.72v-9.78h2.5v9.78zm-.14-14.32h2.76v2.46h-2.76zm9.68 14.48c-1 0-1.876663-.206665-2.63-.62s-1.336665-1.006663-1.75-1.78-.62-1.673328-.62-2.7.206665-1.923329.62-2.69c.413335-.76667.996663-1.356665 1.75-1.77s1.63-.62 2.63-.62 1.876663.206665 2.63.62 1.333331 1.00333 1.74 1.77c.406669.766671.61 1.663328.61 2.69s-.203331 1.926663-.61 2.7-.986663 1.366665-1.74 1.78-1.63.62-2.63.62zm-.02-1.94c.813337 0 1.433331-.266664 1.86-.8s.64-1.319995.64-2.36c0-1.026672-.213331-1.809997-.64-2.35s-1.039996-.81-1.84-.81-1.416664.269997-1.85.81c-.433335.540003-.65 1.323328-.65 2.35 0 1.040005.213331 1.826664.64 2.36s1.039996.8 1.84.8zm12.74-8.24c1.173339 0 2.046664.33333 2.62 1s.86 1.673327.86 3.02v6h-2.5v-5.86c0-.760004-.143332-1.313332-.43-1.66s-.736664-.52-1.35-.52c-.720004 0-1.296664.226664-1.73.68-.433335.453336-.65 1.059996-.65 1.82v5.54h-2.5v-9.78h2.44v1.46c.333335-.546669.779997-.966665 1.34-1.26s1.19333-.44 1.9-.44zm10.22 0c1.37334 0 2.39333.33333 3.06 1s1 1.693326 1 3.08v5.94h-2.38v-1.5c-.226668.520003-.583331.926665-1.07 1.22s-1.049997.44-1.69.44c-.653337 0-1.246664-.133332-1.78-.4s-.953332-.633331-1.26-1.1-.46-.986664-.46-1.56c0-.720004.183332-1.286665.55-1.7.366669-.413335.963329-.713332 1.79-.9.757782-.171112 1.778837-.263796 3.063193-.278056l.856807-.001944v-.46c0-.66667-.143332-1.146665-.43-1.44s-.76333-.44-1.43-.44c-.520003 0-1.06333.089999-1.63.27-.566669.180001-1.123331.429998-1.67.75l-.7-1.72c.546669-.346668 1.206663-.633332 1.98-.86s1.506663-.34 2.2-.34zm-.58 8.38c.66667 0 1.209998-.223331 1.63-.67s.63-1.02333.63-1.73v-.42h-.36c-.893338 0-1.586664.04-2.08.12s-.846666.219999-1.06.42-.32.473332-.32.82c0 .426669.146665.776665.44 1.05s.666664.41 1.12.41zm7.18 1.64v-14.1h2.5v14.1zm10.5 0v-14.1h2.5v14.1zm5.08 0v-9.78h2.5v9.78zm-.14-14.32h2.76v2.46h-2.76zm10.9 4.3c1.173339 0 2.046664.33333 2.62 1s.86 1.673327.86 3.02v6h-2.5v-5.86c0-.760004-.143332-1.313332-.43-1.66s-.736664-.52-1.35-.52c-.720004 0-1.296664.226664-1.73.68-.433335.453336-.65 1.059996-.65 1.82v5.54h-2.5v-9.78h2.44v1.46c.333335-.546669.779997-.966665 1.34-1.26s1.19333-.44 1.9-.44zm15.82 10.02h-3.1l-4.2-4.46v4.46h-2.5v-14.1h2.5v8.6l3.94-4.26h3.04l-4.4 4.68zm4.52.16c-.866671 0-1.66333-.106666-2.39-.32s-1.343331-.519998-1.85-.92l.7-1.74c1.040005.760004 2.233327 1.14 3.58 1.14.573336 0 1.009999-.093332 1.31-.28.300002-.186668.45-.453332.45-.8 0-.293335-.103332-.519999-.31-.68s-.576664-.306666-1.11-.44l-1.6-.36c-.906671-.200001-1.579998-.526664-2.02-.98s-.66-1.039996-.66-1.76c0-.600003.169998-1.129998.51-1.59s.81333-.816665 1.42-1.07 1.309996-.38 2.11-.38c.693337 0 1.36333.106666 2.01.32s1.216664.513331 1.71.9l-.7 1.7c-1.013338-.733337-2.026662-1.1-3.04-1.1-.546669 0-.973332.099999-1.28.3s-.46.479998-.46.84c0 .266668.096666.486666.29.66s.503331.306666.93.4l1.66.38c.973338.213334 1.686664.549998 2.14 1.01s.68 1.06333.68 1.81c0 .906671-.366663 1.626664-1.1 2.16s-1.72666.8-2.98.8zm8.44-5.14c0-.733337.133332-1.353331.4-1.86.228573-.434288.545305-.902856.950203-1.405713l.209797-.254287c.386669-.466669.673332-.859998.86-1.18s.28-.679998.28-1.08c0-.453336-.159998-.809999-.48-1.07s-.766664-.39-1.34-.39-1.176663.126665-1.81.38c-.633336.253335-1.256664.613331-1.87 1.08l-.84-1.88c.546669-.493336 1.253329-.886665 2.12-1.18s1.733329-.44 2.6-.44c.813337 0 1.53333.136665 2.16.41s1.116665.659998 1.47 1.16.53 1.069997.53 1.71c0 .693337-.166665 1.299997-.5 1.82s-.81333 1.09333-1.44 1.72l-.384376.420001c-.35875.4-.640623.739998-.845624 1.019999-.273335.373335-.443333.799998-.51 1.28l-.08.54h-1.48zm-.62 4.98v-2.76h2.8v2.76z" fill="#fff"/></g></svg>