<?xml version="1.0" encoding="UTF-8"?>
<svg width="1214px" height="941px" viewBox="0 0 1214 941" version="1.1" xmlns="http://www.w3.org/2000/svg" xmlns:xlink="http://www.w3.org/1999/xlink">
    <title>Heap Example</title>
    <g id="Heap-Example" stroke="none" stroke-width="1" fill="none" fill-rule="evenodd">
        <path d="M741.388,302.144 C742.145333,302.144 742.86,302.026667 743.532,301.792 C744.204,301.557333 744.769333,301.226667 745.228,300.8 L745.228,300.8 L744.54,299.296 C744.028,299.701333 743.521333,299.997333 743.02,300.184 C742.518667,300.370667 741.985333,300.464 741.42,300.464 C740.332,300.464 739.492,300.112 738.9,299.408 C738.308,298.704 738.012,297.685333 738.012,296.352 C738.012,295.029333 738.308,294.016 738.9,293.312 C739.492,292.608 740.332,292.256 741.42,292.256 C741.985333,292.256 742.518667,292.349333 743.02,292.536 C743.521333,292.722667 744.028,293.018667 744.54,293.424 L744.54,293.424 L745.228,291.92 C744.769333,291.493333 744.204,291.162667 743.532,290.928 C742.86,290.693333 742.145333,290.576 741.388,290.576 C740.278667,290.576 739.310667,290.813333 738.484,291.288 C737.657333,291.762667 737.022667,292.434667 736.58,293.304 C736.137333,294.173333 735.916,295.189333 735.916,296.352 C735.916,297.514667 736.137333,298.533333 736.58,299.408 C737.022667,300.282667 737.657333,300.957333 738.484,301.432 C739.310667,301.906667 740.278667,302.144 741.388,302.144 Z M748.94,302 L748.94,297.568 C748.94,296.96 749.113333,296.474667 749.46,296.112 C749.806667,295.749333 750.268,295.568 750.844,295.568 C751.334667,295.568 751.694667,295.706667 751.924,295.984 C752.153333,296.261333 752.268,296.704 752.268,297.312 L752.268,297.312 L752.268,302 L754.268,302 L754.268,297.2 C754.268,296.122667 754.038667,295.317333 753.58,294.784 C753.121333,294.250667 752.422667,293.984 751.484,293.984 C750.94,293.984 750.446667,294.093333 750.004,294.312 C749.561333,294.530667 749.206667,294.848 748.94,295.264 L748.94,295.264 L748.94,290.72 L746.94,290.72 L746.94,302 L748.94,302 Z M758.396,292.512 L758.396,290.544 L756.188,290.544 L756.188,292.512 L758.396,292.512 Z M758.3,302 L758.3,294.176 L756.3,294.176 L756.3,302 L758.3,302 Z M762.364,302 L762.364,290.72 L760.364,290.72 L760.364,302 L762.364,302 Z M767.468,302.128 C768.033333,302.128 768.537333,302.005333 768.98,301.76 C769.422667,301.514667 769.761333,301.173333 769.996,300.736 L769.996,300.736 L769.996,302 L771.98,302 L771.98,290.72 L769.98,290.72 L769.98,295.328 C769.745333,294.901333 769.409333,294.570667 768.972,294.336 C768.534667,294.101333 768.033333,293.984 767.468,293.984 C766.785333,293.984 766.182667,294.149333 765.66,294.48 C765.137333,294.810667 764.729333,295.28 764.436,295.888 C764.142667,296.496 763.996,297.205333 763.996,298.016 C763.996,298.826667 764.142667,299.544 764.436,300.168 C764.729333,300.792 765.14,301.274667 765.668,301.616 C766.196,301.957333 766.796,302.128 767.468,302.128 Z M767.996,300.576 C767.366667,300.576 766.876,300.352 766.524,299.904 C766.172,299.456 765.996,298.826667 765.996,298.016 C765.996,297.216 766.172,296.602667 766.524,296.176 C766.876,295.749333 767.372,295.536 768.012,295.536 C768.641333,295.536 769.129333,295.752 769.476,296.184 C769.822667,296.616 769.996,297.237333 769.996,298.048 C769.996,298.858667 769.822667,299.482667 769.476,299.92 C769.129333,300.357333 768.636,300.576 767.996,300.576 Z M776.044,302 L776.044,297.776 C776.044,296.570667 776.705333,295.898667 778.028,295.76 L778.028,295.76 L779.196,295.648 L779.068,293.968 L778.46,294.016 C777.190667,294.101333 776.353333,294.613333 775.948,295.552 L775.948,295.552 L775.948,294.176 L774.044,294.176 L774.044,302 L776.044,302 Z M783.884,302.128 C784.438667,302.128 784.990667,302.037333 785.54,301.856 C786.089333,301.674667 786.545333,301.434667 786.908,301.136 L786.908,301.136 L786.332,299.76 C785.617333,300.314667 784.828,300.592 783.964,300.592 C783.270667,300.592 782.737333,300.416 782.364,300.064 C781.990667,299.712 781.772,299.173333 781.708,298.448 L781.708,298.448 L787.036,298.448 L787.036,297.888 C787.036,296.672 786.724,295.717333 786.1,295.024 C785.476,294.330667 784.625333,293.984 783.548,293.984 C782.812,293.984 782.153333,294.154667 781.572,294.496 C780.990667,294.837333 780.54,295.317333 780.22,295.936 C779.9,296.554667 779.74,297.264 779.74,298.064 C779.74,299.322667 780.110667,300.314667 780.852,301.04 C781.593333,301.765333 782.604,302.128 783.884,302.128 Z M785.324,297.376 L781.708,297.376 C781.782667,296.736 781.982667,296.245333 782.308,295.904 C782.633333,295.562667 783.062667,295.392 783.596,295.392 C784.129333,295.392 784.545333,295.56 784.844,295.896 C785.142667,296.232 785.302667,296.725333 785.324,297.376 L785.324,297.376 Z M790.668,302 L790.668,297.568 C790.668,296.96 790.841333,296.474667 791.188,296.112 C791.534667,295.749333 791.996,295.568 792.572,295.568 C793.062667,295.568 793.422667,295.706667 793.652,295.984 C793.881333,296.261333 793.996,296.704 793.996,297.312 L793.996,297.312 L793.996,302 L795.996,302 L795.996,297.2 C795.996,296.122667 795.766667,295.317333 795.308,294.784 C794.849333,294.250667 794.150667,293.984 793.212,293.984 C792.646667,293.984 792.14,294.101333 791.692,294.336 C791.244,294.570667 790.886667,294.906667 790.62,295.344 L790.62,295.344 L790.62,294.176 L788.668,294.176 L788.668,302 L790.668,302 Z M804.86,302.128 C805.372,302.128 805.822667,302.010667 806.212,301.776 C806.601333,301.541333 806.886667,301.216 807.068,300.8 L807.068,300.8 L807.068,302 L808.972,302 L808.972,297.248 C808.972,296.138667 808.705333,295.317333 808.172,294.784 C807.638667,294.250667 806.822667,293.984 805.724,293.984 C805.169333,293.984 804.582667,294.074667 803.964,294.256 C803.345333,294.437333 802.817333,294.666667 802.38,294.944 L802.38,294.944 L802.94,296.32 C803.377333,296.064 803.822667,295.864 804.276,295.72 C804.729333,295.576 805.164,295.504 805.58,295.504 C806.113333,295.504 806.494667,295.621333 806.724,295.856 C806.953333,296.090667 807.068,296.474667 807.068,297.008 L807.068,297.008 L807.068,297.376 L806.668,297.376 C805.505333,297.376 804.593333,297.450667 803.932,297.6 C803.270667,297.749333 802.793333,297.989333 802.5,298.32 C802.206667,298.650667 802.06,299.104 802.06,299.68 C802.06,300.138667 802.182667,300.554667 802.428,300.928 C802.673333,301.301333 803.009333,301.594667 803.436,301.808 C803.862667,302.021333 804.337333,302.128 804.86,302.128 Z M805.26,300.688 C804.897333,300.688 804.598667,300.578667 804.364,300.36 C804.129333,300.141333 804.012,299.861333 804.012,299.52 C804.012,299.242667 804.097333,299.024 804.268,298.864 C804.438667,298.704 804.721333,298.592 805.116,298.528 C805.510667,298.464 806.065333,298.432 806.78,298.432 L806.78,298.432 L807.068,298.432 L807.068,298.768 C807.068,299.333333 806.9,299.794667 806.564,300.152 C806.228,300.509333 805.793333,300.688 805.26,300.688 Z M813.004,302 L813.004,297.776 C813.004,296.570667 813.665333,295.898667 814.988,295.76 L814.988,295.76 L816.156,295.648 L816.028,293.968 L815.42,294.016 C814.150667,294.101333 813.313333,294.613333 812.908,295.552 L812.908,295.552 L812.908,294.176 L811.004,294.176 L811.004,302 L813.004,302 Z M820.844,302.128 C821.398667,302.128 821.950667,302.037333 822.5,301.856 C823.049333,301.674667 823.505333,301.434667 823.868,301.136 L823.868,301.136 L823.292,299.76 C822.577333,300.314667 821.788,300.592 820.924,300.592 C820.230667,300.592 819.697333,300.416 819.324,300.064 C818.950667,299.712 818.732,299.173333 818.668,298.448 L818.668,298.448 L823.996,298.448 L823.996,297.888 C823.996,296.672 823.684,295.717333 823.06,295.024 C822.436,294.330667 821.585333,293.984 820.508,293.984 C819.772,293.984 819.113333,294.154667 818.532,294.496 C817.950667,294.837333 817.5,295.317333 817.18,295.936 C816.86,296.554667 816.7,297.264 816.7,298.064 C816.7,299.322667 817.070667,300.314667 817.812,301.04 C818.553333,301.765333 819.564,302.128 820.844,302.128 Z M822.284,297.376 L818.668,297.376 C818.742667,296.736 818.942667,296.245333 819.268,295.904 C819.593333,295.562667 820.022667,295.392 820.556,295.392 C821.089333,295.392 821.505333,295.56 821.804,295.896 C822.102667,296.232 822.262667,296.725333 822.284,297.376 L822.284,297.376 Z M832.46,302.128 C832.972,302.128 833.422667,302.010667 833.812,301.776 C834.201333,301.541333 834.486667,301.216 834.668,300.8 L834.668,300.8 L834.668,302 L836.572,302 L836.572,297.248 C836.572,296.138667 836.305333,295.317333 835.772,294.784 C835.238667,294.250667 834.422667,293.984 833.324,293.984 C832.769333,293.984 832.182667,294.074667 831.564,294.256 C830.945333,294.437333 830.417333,294.666667 829.98,294.944 L829.98,294.944 L830.54,296.32 C830.977333,296.064 831.422667,295.864 831.876,295.72 C832.329333,295.576 832.764,295.504 833.18,295.504 C833.713333,295.504 834.094667,295.621333 834.324,295.856 C834.553333,296.090667 834.668,296.474667 834.668,297.008 L834.668,297.008 L834.668,297.376 L834.268,297.376 C833.105333,297.376 832.193333,297.450667 831.532,297.6 C830.870667,297.749333 830.393333,297.989333 830.1,298.32 C829.806667,298.650667 829.66,299.104 829.66,299.68 C829.66,300.138667 829.782667,300.554667 830.028,300.928 C830.273333,301.301333 830.609333,301.594667 831.036,301.808 C831.462667,302.021333 831.937333,302.128 832.46,302.128 Z M832.86,300.688 C832.497333,300.688 832.198667,300.578667 831.964,300.36 C831.729333,300.141333 831.612,299.861333 831.612,299.52 C831.612,299.242667 831.697333,299.024 831.868,298.864 C832.038667,298.704 832.321333,298.592 832.716,298.528 C833.110667,298.464 833.665333,298.432 834.38,298.432 L834.38,298.432 L834.668,298.432 L834.668,298.768 C834.668,299.333333 834.5,299.794667 834.164,300.152 C833.828,300.509333 833.393333,300.688 832.86,300.688 Z M840.604,302 L840.604,290.72 L838.604,290.72 L838.604,302 L840.604,302 Z M846.572,302 L848.444,296.96 L850.364,302 L852.108,302 L855.18,294.176 L853.228,294.176 L851.244,299.648 L849.244,294.176 L847.804,294.176 L845.804,299.616 L843.804,294.176 L841.756,294.176 L844.844,302 L846.572,302 Z M858.86,302.128 C859.372,302.128 859.822667,302.010667 860.212,301.776 C860.601333,301.541333 860.886667,301.216 861.068,300.8 L861.068,300.8 L861.068,302 L862.972,302 L862.972,297.248 C862.972,296.138667 862.705333,295.317333 862.172,294.784 C861.638667,294.250667 860.822667,293.984 859.724,293.984 C859.169333,293.984 858.582667,294.074667 857.964,294.256 C857.345333,294.437333 856.817333,294.666667 856.38,294.944 L856.38,294.944 L856.94,296.32 C857.377333,296.064 857.822667,295.864 858.276,295.72 C858.729333,295.576 859.164,295.504 859.58,295.504 C860.113333,295.504 860.494667,295.621333 860.724,295.856 C860.953333,296.090667 861.068,296.474667 861.068,297.008 L861.068,297.008 L861.068,297.376 L860.668,297.376 C859.505333,297.376 858.593333,297.450667 857.932,297.6 C857.270667,297.749333 856.793333,297.989333 856.5,298.32 C856.206667,298.650667 856.06,299.104 856.06,299.68 C856.06,300.138667 856.182667,300.554667 856.428,300.928 C856.673333,301.301333 857.009333,301.594667 857.436,301.808 C857.862667,302.021333 858.337333,302.128 858.86,302.128 Z M859.26,300.688 C858.897333,300.688 858.598667,300.578667 858.364,300.36 C858.129333,300.141333 858.012,299.861333 858.012,299.52 C858.012,299.242667 858.097333,299.024 858.268,298.864 C858.438667,298.704 858.721333,298.592 859.116,298.528 C859.510667,298.464 860.065333,298.432 860.78,298.432 L860.78,298.432 L861.068,298.432 L861.068,298.768 C861.068,299.333333 860.9,299.794667 860.564,300.152 C860.228,300.509333 859.793333,300.688 859.26,300.688 Z M867.756,304.88 L872.46,294.192 L870.492,294.192 L868.22,299.712 L866.012,294.192 L863.9,294.192 L867.164,301.696 L865.74,304.88 L867.756,304.88 Z M876.3,302.128 C877.302667,302.128 878.097333,301.914667 878.684,301.488 C879.270667,301.061333 879.564,300.485333 879.564,299.76 C879.564,299.162667 879.382667,298.68 879.02,298.312 C878.657333,297.944 878.086667,297.674667 877.308,297.504 L877.308,297.504 L875.98,297.2 C875.638667,297.125333 875.390667,297.018667 875.236,296.88 C875.081333,296.741333 875.004,296.565333 875.004,296.352 C875.004,296.064 875.126667,295.84 875.372,295.68 C875.617333,295.52 875.958667,295.44 876.396,295.44 C877.206667,295.44 878.017333,295.733333 878.828,296.32 L878.828,296.32 L879.388,294.96 C878.993333,294.650667 878.537333,294.410667 878.02,294.24 C877.502667,294.069333 876.966667,293.984 876.412,293.984 C875.772,293.984 875.209333,294.085333 874.724,294.288 C874.238667,294.490667 873.86,294.776 873.588,295.144 C873.316,295.512 873.18,295.936 873.18,296.416 C873.18,296.992 873.356,297.461333 873.708,297.824 C874.06,298.186667 874.598667,298.448 875.324,298.608 L875.324,298.608 L876.604,298.896 C877.030667,299.002667 877.326667,299.12 877.492,299.248 C877.657333,299.376 877.74,299.557333 877.74,299.792 C877.74,300.069333 877.62,300.282667 877.38,300.432 C877.14,300.581333 876.790667,300.656 876.332,300.656 C875.254667,300.656 874.3,300.352 873.468,299.744 L873.468,299.744 L872.908,301.136 C873.313333,301.456 873.806667,301.701333 874.388,301.872 C874.969333,302.042667 875.606667,302.128 876.3,302.128 Z M889.116,305.008 C890.438667,305.008 891.438667,304.693333 892.116,304.064 C892.793333,303.434667 893.132,302.506667 893.132,301.28 L893.132,301.28 L893.132,294.176 L891.148,294.176 L891.148,295.36 C890.913333,294.922667 890.572,294.584 890.124,294.344 C889.676,294.104 889.164,293.984 888.588,293.984 C887.905333,293.984 887.297333,294.146667 886.764,294.472 C886.230667,294.797333 885.817333,295.256 885.524,295.848 C885.230667,296.44 885.084,297.12 885.084,297.888 C885.084,298.656 885.233333,299.333333 885.532,299.92 C885.830667,300.506667 886.244,300.962667 886.772,301.288 C887.3,301.613333 887.905333,301.776 888.588,301.776 C889.164,301.776 889.676,301.656 890.124,301.416 C890.572,301.176 890.913333,300.837333 891.148,300.4 L891.148,300.4 L891.148,301.424 C891.148,302.789333 890.454667,303.472 889.068,303.472 C888.033333,303.472 887.030667,303.178667 886.06,302.592 L886.06,302.592 L885.5,304 C885.969333,304.32 886.518667,304.568 887.148,304.744 C887.777333,304.92 888.433333,305.008 889.116,305.008 Z M889.116,300.224 C888.486667,300.224 887.990667,300.013333 887.628,299.592 C887.265333,299.170667 887.084,298.602667 887.084,297.888 C887.084,297.152 887.265333,296.576 887.628,296.16 C887.990667,295.744 888.486667,295.536 889.116,295.536 C889.756,295.536 890.254667,295.744 890.612,296.16 C890.969333,296.576 891.148,297.152 891.148,297.888 C891.148,298.613333 890.969333,299.184 890.612,299.6 C890.254667,300.016 889.756,300.224 889.116,300.224 Z M897.196,302 L897.196,297.776 C897.196,296.570667 897.857333,295.898667 899.18,295.76 L899.18,295.76 L900.348,295.648 L900.22,293.968 L899.612,294.016 C898.342667,294.101333 897.505333,294.613333 897.1,295.552 L897.1,295.552 L897.1,294.176 L895.196,294.176 L895.196,302 L897.196,302 Z M905.036,302.128 C905.590667,302.128 906.142667,302.037333 906.692,301.856 C907.241333,301.674667 907.697333,301.434667 908.06,301.136 L908.06,301.136 L907.484,299.76 C906.769333,300.314667 905.98,300.592 905.116,300.592 C904.422667,300.592 903.889333,300.416 903.516,300.064 C903.142667,299.712 902.924,299.173333 902.86,298.448 L902.86,298.448 L908.188,298.448 L908.188,297.888 C908.188,296.672 907.876,295.717333 907.252,295.024 C906.628,294.330667 905.777333,293.984 904.7,293.984 C903.964,293.984 903.305333,294.154667 902.724,294.496 C902.142667,294.837333 901.692,295.317333 901.372,295.936 C901.052,296.554667 900.892,297.264 900.892,298.064 C900.892,299.322667 901.262667,300.314667 902.004,301.04 C902.745333,301.765333 903.756,302.128 905.036,302.128 Z M906.476,297.376 L902.86,297.376 C902.934667,296.736 903.134667,296.245333 903.46,295.904 C903.785333,295.562667 904.214667,295.392 904.748,295.392 C905.281333,295.392 905.697333,295.56 905.996,295.896 C906.294667,296.232 906.454667,296.725333 906.476,297.376 L906.476,297.376 Z M912.316,302.128 C912.828,302.128 913.278667,302.010667 913.668,301.776 C914.057333,301.541333 914.342667,301.216 914.524,300.8 L914.524,300.8 L914.524,302 L916.428,302 L916.428,297.248 C916.428,296.138667 916.161333,295.317333 915.628,294.784 C915.094667,294.250667 914.278667,293.984 913.18,293.984 C912.625333,293.984 912.038667,294.074667 911.42,294.256 C910.801333,294.437333 910.273333,294.666667 909.836,294.944 L909.836,294.944 L910.396,296.32 C910.833333,296.064 911.278667,295.864 911.732,295.72 C912.185333,295.576 912.62,295.504 913.036,295.504 C913.569333,295.504 913.950667,295.621333 914.18,295.856 C914.409333,296.090667 914.524,296.474667 914.524,297.008 L914.524,297.008 L914.524,297.376 L914.124,297.376 C912.961333,297.376 912.049333,297.450667 911.388,297.6 C910.726667,297.749333 910.249333,297.989333 909.956,298.32 C909.662667,298.650667 909.516,299.104 909.516,299.68 C909.516,300.138667 909.638667,300.554667 909.884,300.928 C910.129333,301.301333 910.465333,301.594667 910.892,301.808 C911.318667,302.021333 911.793333,302.128 912.316,302.128 Z M912.716,300.688 C912.353333,300.688 912.054667,300.578667 911.82,300.36 C911.585333,300.141333 911.468,299.861333 911.468,299.52 C911.468,299.242667 911.553333,299.024 911.724,298.864 C911.894667,298.704 912.177333,298.592 912.572,298.528 C912.966667,298.464 913.521333,298.432 914.236,298.432 L914.236,298.432 L914.524,298.432 L914.524,298.768 C914.524,299.333333 914.356,299.794667 914.02,300.152 C913.684,300.509333 913.249333,300.688 912.716,300.688 Z M922.22,302.112 C922.486667,302.112 922.78,302.096 923.1,302.064 L923.1,302.064 L923.196,300.576 C922.94,300.608 922.694667,300.624 922.46,300.624 C921.489333,300.624 921.004,300.101333 921.004,299.056 L921.004,299.056 L921.004,295.68 L923.068,295.68 L923.068,294.176 L921.004,294.176 L921.004,291.84 L919.004,291.84 L919.004,294.176 L917.5,294.176 L917.5,295.68 L919.004,295.68 L919.004,299.088 C919.004,300.090667 919.265333,300.845333 919.788,301.352 C920.310667,301.858667 921.121333,302.112 922.22,302.112 Z M928.076,302.128 C928.630667,302.128 929.182667,302.037333 929.732,301.856 C930.281333,301.674667 930.737333,301.434667 931.1,301.136 L931.1,301.136 L930.524,299.76 C929.809333,300.314667 929.02,300.592 928.156,300.592 C927.462667,300.592 926.929333,300.416 926.556,300.064 C926.182667,299.712 925.964,299.173333 925.9,298.448 L925.9,298.448 L931.228,298.448 L931.228,297.888 C931.228,296.672 930.916,295.717333 930.292,295.024 C929.668,294.330667 928.817333,293.984 927.74,293.984 C927.004,293.984 926.345333,294.154667 925.764,294.496 C925.182667,294.837333 924.732,295.317333 924.412,295.936 C924.092,296.554667 923.932,297.264 923.932,298.064 C923.932,299.322667 924.302667,300.314667 925.044,301.04 C925.785333,301.765333 926.796,302.128 928.076,302.128 Z M929.516,297.376 L925.9,297.376 C925.974667,296.736 926.174667,296.245333 926.5,295.904 C926.825333,295.562667 927.254667,295.392 927.788,295.392 C928.321333,295.392 928.737333,295.56 929.036,295.896 C929.334667,296.232 929.494667,296.725333 929.516,297.376 L929.516,297.376 Z M934.86,302 L934.86,297.776 C934.86,296.570667 935.521333,295.898667 936.844,295.76 L936.844,295.76 L938.012,295.648 L937.884,293.968 L937.276,294.016 C936.006667,294.101333 935.169333,294.613333 934.764,295.552 L934.764,295.552 L934.764,294.176 L932.86,294.176 L932.86,302 L934.86,302 Z M756.668,324.112 C756.934667,324.112 757.228,324.096 757.548,324.064 L757.548,324.064 L757.644,322.576 C757.388,322.608 757.142667,322.624 756.908,322.624 C755.937333,322.624 755.452,322.101333 755.452,321.056 L755.452,321.056 L755.452,317.68 L757.516,317.68 L757.516,316.176 L755.452,316.176 L755.452,313.84 L753.452,313.84 L753.452,316.176 L751.948,316.176 L751.948,317.68 L753.452,317.68 L753.452,321.088 C753.452,322.090667 753.713333,322.845333 754.236,323.352 C754.758667,323.858667 755.569333,324.112 756.668,324.112 Z M760.812,324 L760.812,319.568 C760.812,318.96 760.985333,318.474667 761.332,318.112 C761.678667,317.749333 762.14,317.568 762.716,317.568 C763.206667,317.568 763.566667,317.706667 763.796,317.984 C764.025333,318.261333 764.14,318.704 764.14,319.312 L764.14,319.312 L764.14,324 L766.14,324 L766.14,319.2 C766.14,318.122667 765.910667,317.317333 765.452,316.784 C764.993333,316.250667 764.294667,315.984 763.356,315.984 C762.812,315.984 762.318667,316.093333 761.876,316.312 C761.433333,316.530667 761.078667,316.848 760.812,317.264 L760.812,317.264 L760.812,312.72 L758.812,312.72 L758.812,324 L760.812,324 Z M770.668,324.128 C771.18,324.128 771.630667,324.010667 772.02,323.776 C772.409333,323.541333 772.694667,323.216 772.876,322.8 L772.876,322.8 L772.876,324 L774.78,324 L774.78,319.248 C774.78,318.138667 774.513333,317.317333 773.98,316.784 C773.446667,316.250667 772.630667,315.984 771.532,315.984 C770.977333,315.984 770.390667,316.074667 769.772,316.256 C769.153333,316.437333 768.625333,316.666667 768.188,316.944 L768.188,316.944 L768.748,318.32 C769.185333,318.064 769.630667,317.864 770.084,317.72 C770.537333,317.576 770.972,317.504 771.388,317.504 C771.921333,317.504 772.302667,317.621333 772.532,317.856 C772.761333,318.090667 772.876,318.474667 772.876,319.008 L772.876,319.008 L772.876,319.376 L772.476,319.376 C771.313333,319.376 770.401333,319.450667 769.74,319.6 C769.078667,319.749333 768.601333,319.989333 768.308,320.32 C768.014667,320.650667 767.868,321.104 767.868,321.68 C767.868,322.138667 767.990667,322.554667 768.236,322.928 C768.481333,323.301333 768.817333,323.594667 769.244,323.808 C769.670667,324.021333 770.145333,324.128 770.668,324.128 Z M771.068,322.688 C770.705333,322.688 770.406667,322.578667 770.172,322.36 C769.937333,322.141333 769.82,321.861333 769.82,321.52 C769.82,321.242667 769.905333,321.024 770.076,320.864 C770.246667,320.704 770.529333,320.592 770.924,320.528 C771.318667,320.464 771.873333,320.432 772.588,320.432 L772.588,320.432 L772.876,320.432 L772.876,320.768 C772.876,321.333333 772.708,321.794667 772.372,322.152 C772.036,322.509333 771.601333,322.688 771.068,322.688 Z M778.812,324 L778.812,319.568 C778.812,318.96 778.985333,318.474667 779.332,318.112 C779.678667,317.749333 780.14,317.568 780.716,317.568 C781.206667,317.568 781.566667,317.706667 781.796,317.984 C782.025333,318.261333 782.14,318.704 782.14,319.312 L782.14,319.312 L782.14,324 L784.14,324 L784.14,319.2 C784.14,318.122667 783.910667,317.317333 783.452,316.784 C782.993333,316.250667 782.294667,315.984 781.356,315.984 C780.790667,315.984 780.284,316.101333 779.836,316.336 C779.388,316.570667 779.030667,316.906667 778.764,317.344 L778.764,317.344 L778.764,316.176 L776.812,316.176 L776.812,324 L778.812,324 Z M794.076,324.128 C794.876,324.128 795.577333,323.962667 796.18,323.632 C796.782667,323.301333 797.246667,322.826667 797.572,322.208 C797.897333,321.589333 798.06,320.869333 798.06,320.048 C798.06,319.226667 797.897333,318.509333 797.572,317.896 C797.246667,317.282667 796.782667,316.810667 796.18,316.48 C795.577333,316.149333 794.876,315.984 794.076,315.984 C793.276,315.984 792.574667,316.149333 791.972,316.48 C791.369333,316.810667 790.902667,317.282667 790.572,317.896 C790.241333,318.509333 790.076,319.226667 790.076,320.048 C790.076,320.869333 790.241333,321.589333 790.572,322.208 C790.902667,322.826667 791.369333,323.301333 791.972,323.632 C792.574667,323.962667 793.276,324.128 794.076,324.128 Z M794.06,322.576 C793.42,322.576 792.929333,322.362667 792.588,321.936 C792.246667,321.509333 792.076,320.88 792.076,320.048 C792.076,319.226667 792.249333,318.6 792.596,318.168 C792.942667,317.736 793.436,317.52 794.076,317.52 C794.716,317.52 795.206667,317.736 795.548,318.168 C795.889333,318.6 796.06,319.226667 796.06,320.048 C796.06,320.88 795.889333,321.509333 795.548,321.936 C795.206667,322.362667 794.710667,322.576 794.06,322.576 Z M801.708,324 L801.708,319.776 C801.708,318.570667 802.369333,317.898667 803.692,317.76 L803.692,317.76 L804.86,317.648 L804.732,315.968 L804.124,316.016 C802.854667,316.101333 802.017333,316.613333 801.612,317.552 L801.612,317.552 L801.612,316.176 L799.708,316.176 L799.708,324 L801.708,324 Z M813.884,324.128 C814.438667,324.128 814.990667,324.037333 815.54,323.856 C816.089333,323.674667 816.545333,323.434667 816.908,323.136 L816.908,323.136 L816.332,321.76 C815.617333,322.314667 814.828,322.592 813.964,322.592 C813.270667,322.592 812.737333,322.416 812.364,322.064 C811.990667,321.712 811.772,321.173333 811.708,320.448 L811.708,320.448 L817.036,320.448 L817.036,319.888 C817.036,318.672 816.724,317.717333 816.1,317.024 C815.476,316.330667 814.625333,315.984 813.548,315.984 C812.812,315.984 812.153333,316.154667 811.572,316.496 C810.990667,316.837333 810.54,317.317333 810.22,317.936 C809.9,318.554667 809.74,319.264 809.74,320.064 C809.74,321.322667 810.110667,322.314667 810.852,323.04 C811.593333,323.765333 812.604,324.128 813.884,324.128 Z M815.324,319.376 L811.708,319.376 C811.782667,318.736 811.982667,318.245333 812.308,317.904 C812.633333,317.562667 813.062667,317.392 813.596,317.392 C814.129333,317.392 814.545333,317.56 814.844,317.896 C815.142667,318.232 815.302667,318.725333 815.324,319.376 L815.324,319.376 Z M826.22,326.88 L826.22,316.176 L824.236,316.176 L824.236,317.36 C824.001333,316.922667 823.662667,316.584 823.22,316.344 C822.777333,316.104 822.273333,315.984 821.708,315.984 C821.036,315.984 820.436,316.154667 819.908,316.496 C819.38,316.837333 818.969333,317.32 818.676,317.944 C818.382667,318.568 818.236,319.285333 818.236,320.096 C818.236,320.906667 818.382667,321.616 818.676,322.224 C818.969333,322.832 819.377333,323.301333 819.9,323.632 C820.422667,323.962667 821.025333,324.128 821.708,324.128 C822.262667,324.128 822.761333,324.008 823.204,323.768 C823.646667,323.528 823.985333,323.194667 824.22,322.768 L824.22,322.768 L824.22,326.88 L826.22,326.88 Z M822.252,322.576 C821.612,322.576 821.116,322.36 820.764,321.928 C820.412,321.496 820.236,320.885333 820.236,320.096 C820.236,319.285333 820.412,318.656 820.764,318.208 C821.116,317.76 821.606667,317.536 822.236,317.536 C822.876,317.536 823.369333,317.754667 823.716,318.192 C824.062667,318.629333 824.236,319.253333 824.236,320.064 C824.236,320.864 824.062667,321.482667 823.716,321.92 C823.369333,322.357333 822.881333,322.576 822.252,322.576 Z M831.116,324.128 C831.638667,324.128 832.108,324.013333 832.524,323.784 C832.94,323.554667 833.270667,323.226667 833.516,322.8 L833.516,322.8 L833.516,324 L835.468,324 L835.468,316.176 L833.468,316.176 L833.468,320.528 C833.468,321.136 833.3,321.624 832.964,321.992 C832.628,322.36 832.182667,322.544 831.628,322.544 C831.148,322.544 830.796,322.410667 830.572,322.144 C830.348,321.877333 830.236,321.466667 830.236,320.912 L830.236,320.912 L830.236,316.176 L828.236,316.176 L828.236,320.896 C828.236,323.050667 829.196,324.128 831.116,324.128 Z M840.044,324.128 C840.556,324.128 841.006667,324.010667 841.396,323.776 C841.785333,323.541333 842.070667,323.216 842.252,322.8 L842.252,322.8 L842.252,324 L844.156,324 L844.156,319.248 C844.156,318.138667 843.889333,317.317333 843.356,316.784 C842.822667,316.250667 842.006667,315.984 840.908,315.984 C840.353333,315.984 839.766667,316.074667 839.148,316.256 C838.529333,316.437333 838.001333,316.666667 837.564,316.944 L837.564,316.944 L838.124,318.32 C838.561333,318.064 839.006667,317.864 839.46,317.72 C839.913333,317.576 840.348,317.504 840.764,317.504 C841.297333,317.504 841.678667,317.621333 841.908,317.856 C842.137333,318.090667 842.252,318.474667 842.252,319.008 L842.252,319.008 L842.252,319.376 L841.852,319.376 C840.689333,319.376 839.777333,319.450667 839.116,319.6 C838.454667,319.749333 837.977333,319.989333 837.684,320.32 C837.390667,320.650667 837.244,321.104 837.244,321.68 C837.244,322.138667 837.366667,322.554667 837.612,322.928 C837.857333,323.301333 838.193333,323.594667 838.62,323.808 C839.046667,324.021333 839.521333,324.128 840.044,324.128 Z M840.444,322.688 C840.081333,322.688 839.782667,322.578667 839.548,322.36 C839.313333,322.141333 839.196,321.861333 839.196,321.52 C839.196,321.242667 839.281333,321.024 839.452,320.864 C839.622667,320.704 839.905333,320.592 840.3,320.528 C840.694667,320.464 841.249333,320.432 841.964,320.432 L841.964,320.432 L842.252,320.432 L842.252,320.768 C842.252,321.333333 842.084,321.794667 841.748,322.152 C841.412,322.509333 840.977333,322.688 840.444,322.688 Z M848.188,324 L848.188,312.72 L846.188,312.72 L846.188,324 L848.188,324 Z M858.348,324.112 C858.614667,324.112 858.908,324.096 859.228,324.064 L859.228,324.064 L859.324,322.576 C859.068,322.608 858.822667,322.624 858.588,322.624 C857.617333,322.624 857.132,322.101333 857.132,321.056 L857.132,321.056 L857.132,317.68 L859.196,317.68 L859.196,316.176 L857.132,316.176 L857.132,313.84 L855.132,313.84 L855.132,316.176 L853.628,316.176 L853.628,317.68 L855.132,317.68 L855.132,321.088 C855.132,322.090667 855.393333,322.845333 855.916,323.352 C856.438667,323.858667 857.249333,324.112 858.348,324.112 Z M864.06,324.128 C864.86,324.128 865.561333,323.962667 866.164,323.632 C866.766667,323.301333 867.230667,322.826667 867.556,322.208 C867.881333,321.589333 868.044,320.869333 868.044,320.048 C868.044,319.226667 867.881333,318.509333 867.556,317.896 C867.230667,317.282667 866.766667,316.810667 866.164,316.48 C865.561333,316.149333 864.86,315.984 864.06,315.984 C863.26,315.984 862.558667,316.149333 861.956,316.48 C861.353333,316.810667 860.886667,317.282667 860.556,317.896 C860.225333,318.509333 860.06,319.226667 860.06,320.048 C860.06,320.869333 860.225333,321.589333 860.556,322.208 C860.886667,322.826667 861.353333,323.301333 861.956,323.632 C862.558667,323.962667 863.26,324.128 864.06,324.128 Z M864.044,322.576 C863.404,322.576 862.913333,322.362667 862.572,321.936 C862.230667,321.509333 862.06,320.88 862.06,320.048 C862.06,319.226667 862.233333,318.6 862.58,318.168 C862.926667,317.736 863.42,317.52 864.06,317.52 C864.7,317.52 865.190667,317.736 865.532,318.168 C865.873333,318.6 866.044,319.226667 866.044,320.048 C866.044,320.88 865.873333,321.509333 865.532,321.936 C865.190667,322.362667 864.694667,322.576 864.044,322.576 Z M876.028,326.88 L876.028,322.8 C876.262667,323.216 876.598667,323.541333 877.036,323.776 C877.473333,324.010667 877.969333,324.128 878.524,324.128 C879.206667,324.128 879.809333,323.962667 880.332,323.632 C880.854667,323.301333 881.262667,322.832 881.556,322.224 C881.849333,321.616 881.996,320.906667 881.996,320.096 C881.996,319.285333 881.849333,318.568 881.556,317.944 C881.262667,317.32 880.852,316.837333 880.324,316.496 C879.796,316.154667 879.196,315.984 878.524,315.984 C877.958667,315.984 877.454667,316.104 877.012,316.344 C876.569333,316.584 876.230667,316.922667 875.996,317.36 L875.996,317.36 L875.996,316.176 L874.028,316.176 L874.028,326.88 L876.028,326.88 Z M877.996,322.576 C877.356,322.576 876.862667,322.357333 876.516,321.92 C876.169333,321.482667 875.996,320.864 875.996,320.064 C875.996,319.253333 876.169333,318.629333 876.516,318.192 C876.862667,317.754667 877.356,317.536 877.996,317.536 C878.625333,317.536 879.116,317.76 879.468,318.208 C879.82,318.656 879.996,319.285333 879.996,320.096 C879.996,320.885333 879.82,321.496 879.468,321.928 C879.116,322.36 878.625333,322.576 877.996,322.576 Z M886.14,324.128 C886.652,324.128 887.102667,324.010667 887.492,323.776 C887.881333,323.541333 888.166667,323.216 888.348,322.8 L888.348,322.8 L888.348,324 L890.252,324 L890.252,319.248 C890.252,318.138667 889.985333,317.317333 889.452,316.784 C888.918667,316.250667 888.102667,315.984 887.004,315.984 C886.449333,315.984 885.862667,316.074667 885.244,316.256 C884.625333,316.437333 884.097333,316.666667 883.66,316.944 L883.66,316.944 L884.22,318.32 C884.657333,318.064 885.102667,317.864 885.556,317.72 C886.009333,317.576 886.444,317.504 886.86,317.504 C887.393333,317.504 887.774667,317.621333 888.004,317.856 C888.233333,318.090667 888.348,318.474667 888.348,319.008 L888.348,319.008 L888.348,319.376 L887.948,319.376 C886.785333,319.376 885.873333,319.450667 885.212,319.6 C884.550667,319.749333 884.073333,319.989333 883.78,320.32 C883.486667,320.650667 883.34,321.104 883.34,321.68 C883.34,322.138667 883.462667,322.554667 883.708,322.928 C883.953333,323.301333 884.289333,323.594667 884.716,323.808 C885.142667,324.021333 885.617333,324.128 886.14,324.128 Z M886.54,322.688 C886.177333,322.688 885.878667,322.578667 885.644,322.36 C885.409333,322.141333 885.292,321.861333 885.292,321.52 C885.292,321.242667 885.377333,321.024 885.548,320.864 C885.718667,320.704 886.001333,320.592 886.396,320.528 C886.790667,320.464 887.345333,320.432 888.06,320.432 L888.06,320.432 L888.348,320.432 L888.348,320.768 C888.348,321.333333 888.18,321.794667 887.844,322.152 C887.508,322.509333 887.073333,322.688 886.54,322.688 Z M894.284,324 L894.284,319.776 C894.284,318.570667 894.945333,317.898667 896.268,317.76 L896.268,317.76 L897.436,317.648 L897.308,315.968 L896.7,316.016 C895.430667,316.101333 894.593333,316.613333 894.188,317.552 L894.188,317.552 L894.188,316.176 L892.284,316.176 L892.284,324 L894.284,324 Z M902.124,324.128 C902.678667,324.128 903.230667,324.037333 903.78,323.856 C904.329333,323.674667 904.785333,323.434667 905.148,323.136 L905.148,323.136 L904.572,321.76 C903.857333,322.314667 903.068,322.592 902.204,322.592 C901.510667,322.592 900.977333,322.416 900.604,322.064 C900.230667,321.712 900.012,321.173333 899.948,320.448 L899.948,320.448 L905.276,320.448 L905.276,319.888 C905.276,318.672 904.964,317.717333 904.34,317.024 C903.716,316.330667 902.865333,315.984 901.788,315.984 C901.052,315.984 900.393333,316.154667 899.812,316.496 C899.230667,316.837333 898.78,317.317333 898.46,317.936 C898.14,318.554667 897.98,319.264 897.98,320.064 C897.98,321.322667 898.350667,322.314667 899.092,323.04 C899.833333,323.765333 900.844,324.128 902.124,324.128 Z M903.564,319.376 L899.948,319.376 C900.022667,318.736 900.222667,318.245333 900.548,317.904 C900.873333,317.562667 901.302667,317.392 901.836,317.392 C902.369333,317.392 902.785333,317.56 903.084,317.896 C903.382667,318.232 903.542667,318.725333 903.564,319.376 L903.564,319.376 Z M908.908,324 L908.908,319.568 C908.908,318.96 909.081333,318.474667 909.428,318.112 C909.774667,317.749333 910.236,317.568 910.812,317.568 C911.302667,317.568 911.662667,317.706667 911.892,317.984 C912.121333,318.261333 912.236,318.704 912.236,319.312 L912.236,319.312 L912.236,324 L914.236,324 L914.236,319.2 C914.236,318.122667 914.006667,317.317333 913.548,316.784 C913.089333,316.250667 912.390667,315.984 911.452,315.984 C910.886667,315.984 910.38,316.101333 909.932,316.336 C909.484,316.570667 909.126667,316.906667 908.86,317.344 L908.86,317.344 L908.86,316.176 L906.908,316.176 L906.908,324 L908.908,324 Z M920.028,324.112 C920.294667,324.112 920.588,324.096 920.908,324.064 L920.908,324.064 L921.004,322.576 C920.748,322.608 920.502667,322.624 920.268,322.624 C919.297333,322.624 918.812,322.101333 918.812,321.056 L918.812,321.056 L918.812,317.68 L920.876,317.68 L920.876,316.176 L918.812,316.176 L918.812,313.84 L916.812,313.84 L916.812,316.176 L915.308,316.176 L915.308,317.68 L916.812,317.68 L916.812,321.088 C916.812,322.090667 917.073333,322.845333 917.596,323.352 C918.118667,323.858667 918.929333,324.112 920.028,324.112 Z" id="Childrenarealwaysgreaterthanorequaltoparent" fill="#4C7EF3" fill-rule="nonzero"></path>
        <path d="M232.216,310.72 L237.144,310.72 C238.349339,310.72 239.287997,311.02133 239.96,311.624 C240.632003,312.22667 240.968,313.071995 240.968,314.16 C240.968,315.248005 240.632003,316.095997 239.96,316.704 C239.287997,317.312003 238.349339,317.616 237.144,317.616 L234.28,317.616 L234.28,322 L232.216,322 L232.216,310.72 Z M236.888,316.032 C238.306674,316.032 239.016,315.41334 239.016,314.176 C239.016,313.546664 238.840002,313.080002 238.488,312.776 C238.135998,312.471998 237.60267,312.32 236.888,312.32 L234.28,312.32 L234.28,316.032 L236.888,316.032 Z M245.96,313.984 C247.058672,313.984 247.874664,314.250664 248.408,314.784 C248.941336,315.317336 249.208,316.138661 249.208,317.248 L249.208,322 L247.304,322 L247.304,320.8 C247.122666,321.216002 246.837335,321.541332 246.448,321.776 C246.058665,322.010668 245.608003,322.128 245.096,322.128 C244.573331,322.128 244.098669,322.021334 243.672,321.808 C243.245331,321.594666 242.909335,321.301335 242.664,320.928 C242.418665,320.554665 242.296,320.138669 242.296,319.68 C242.296,319.103997 242.442665,318.650668 242.736,318.32 C243.029335,317.989332 243.506663,317.749334 244.168,317.6 C244.763203,317.465599 245.561436,317.39168 246.562719,317.37824 L247.304,317.376 L247.304,317.008 C247.304,316.474664 247.189334,316.090668 246.96,315.856 C246.730666,315.621332 246.349336,315.504 245.816,315.504 C245.399998,315.504 244.965336,315.575999 244.512,315.72 C244.058664,315.864001 243.613336,316.063999 243.176,316.32 L242.616,314.944 C243.053336,314.666665 243.58133,314.437334 244.2,314.256 C244.81867,314.074666 245.405331,313.984 245.96,313.984 Z M245.496,320.688 C246.029336,320.688 246.463998,320.509335 246.8,320.152 C247.136002,319.794665 247.304,319.333336 247.304,318.768 L247.304,318.432 L247.016,318.432 C246.30133,318.432 245.746669,318.464 245.352,318.528 C244.957331,318.592 244.674668,318.703999 244.504,318.864 C244.333332,319.024001 244.248,319.242665 244.248,319.52 C244.248,319.861335 244.365332,320.141332 244.6,320.36 C244.834668,320.578668 245.133332,320.688 245.496,320.688 Z M256.392,315.648 L255.224,315.76 C253.901327,315.898667 253.24,316.570661 253.24,317.776 L253.24,322 L251.24,322 L251.24,314.176 L253.144,314.176 L253.144,315.552 C253.549335,314.613329 254.38666,314.101334 255.656,314.016 L256.264,313.968 L256.392,315.648 Z M264.232,318.448 L258.904,318.448 C258.968,319.173337 259.186665,319.711998 259.56,320.064 C259.933335,320.416002 260.466663,320.592 261.16,320.592 C262.024004,320.592 262.81333,320.314669 263.528,319.76 L264.104,321.136 C263.741332,321.434668 263.285336,321.674666 262.736,321.856 C262.186664,322.037334 261.634669,322.128 261.08,322.128 C259.799994,322.128 258.789337,321.765337 258.048,321.04 C257.306663,320.314663 256.936,319.322673 256.936,318.064 C256.936,317.263996 257.095998,316.55467 257.416,315.936 C257.736002,315.31733 258.186664,314.837335 258.768,314.496 C259.349336,314.154665 260.007996,313.984 260.744,313.984 C261.821339,313.984 262.671997,314.330663 263.296,315.024 C263.920003,315.717337 264.232,316.671994 264.232,317.888 L264.232,318.448 Z M260.792,315.392 C260.258664,315.392 259.829335,315.562665 259.504,315.904 C259.178665,316.245335 258.978667,316.735997 258.904,317.376 L262.52,317.376 C262.498667,316.72533 262.338668,316.232002 262.04,315.896 C261.741332,315.559998 261.325336,315.392 260.792,315.392 Z M270.408,313.984 C271.346671,313.984 272.045331,314.250664 272.504,314.784 C272.962669,315.317336 273.192,316.122661 273.192,317.2 L273.192,322 L271.192,322 L271.192,317.312 C271.192,316.703997 271.077334,316.261335 270.848,315.984 C270.618666,315.706665 270.258669,315.568 269.768,315.568 C269.191997,315.568 268.730668,315.749332 268.384,316.112 C268.037332,316.474668 267.864,316.959997 267.864,317.568 L267.864,322 L265.864,322 L265.864,314.176 L267.816,314.176 L267.816,315.344 C268.082668,314.906664 268.439998,314.570668 268.888,314.336 C269.336002,314.101332 269.842664,313.984 270.408,313.984 Z M279.224,320.624 C279.458668,320.624 279.703999,320.608 279.96,320.576 L279.864,322.064 C279.543998,322.096 279.250668,322.112 278.984,322.112 C277.885328,322.112 277.074669,321.858669 276.552,321.352 C276.029331,320.845331 275.768,320.090672 275.768,319.088 L275.768,315.68 L274.264,315.68 L274.264,314.176 L275.768,314.176 L275.768,311.84 L277.768,311.84 L277.768,314.176 L279.832,314.176 L279.832,315.68 L277.768,315.68 L277.768,319.056 C277.768,320.101339 278.253328,320.624 279.224,320.624 Z M285.464,322 L285.464,314.176 L287.464,314.176 L287.464,322 L285.464,322 Z M285.352,310.544 L287.56,310.544 L287.56,312.512 L285.352,312.512 L285.352,310.544 Z M292.408,322.128 C291.714663,322.128 291.077336,322.042668 290.496,321.872 C289.914664,321.701332 289.421335,321.456002 289.016,321.136 L289.576,319.744 C290.408004,320.352003 291.362661,320.656 292.44,320.656 C292.898669,320.656 293.247999,320.581334 293.488,320.432 C293.728001,320.282666 293.848,320.069335 293.848,319.792 C293.848,319.557332 293.765334,319.376001 293.6,319.248 C293.434666,319.119999 293.138669,319.002667 292.712,318.896 L291.432,318.608 C290.706663,318.447999 290.168002,318.186668 289.816,317.824 C289.463998,317.461332 289.288,316.992003 289.288,316.416 C289.288,315.935998 289.423999,315.512002 289.696,315.144 C289.968001,314.775998 290.346664,314.490668 290.832,314.288 C291.317336,314.085332 291.879997,313.984 292.52,313.984 C293.074669,313.984 293.610664,314.069332 294.128,314.24 C294.645336,314.410668 295.101331,314.650665 295.496,314.96 L294.936,316.32 C294.125329,315.73333 293.314671,315.44 292.504,315.44 C292.066664,315.44 291.725335,315.519999 291.48,315.68 C291.234665,315.840001 291.112,316.063999 291.112,316.352 C291.112,316.565334 291.189333,316.741333 291.344,316.88 C291.498667,317.018667 291.746665,317.125333 292.088,317.2 L293.416,317.504 C294.194671,317.674668 294.765332,317.943998 295.128,318.312 C295.490668,318.680002 295.672,319.162664 295.672,319.76 C295.672,320.485337 295.37867,321.061331 294.792,321.488 C294.20533,321.914669 293.410672,322.128 292.408,322.128 Z M304.984,313.984 C306.082672,313.984 306.898664,314.250664 307.432,314.784 C307.965336,315.317336 308.232,316.138661 308.232,317.248 L308.232,322 L306.328,322 L306.328,320.8 C306.146666,321.216002 305.861335,321.541332 305.472,321.776 C305.082665,322.010668 304.632003,322.128 304.12,322.128 C303.597331,322.128 303.122669,322.021334 302.696,321.808 C302.269331,321.594666 301.933335,321.301335 301.688,320.928 C301.442665,320.554665 301.32,320.138669 301.32,319.68 C301.32,319.103997 301.466665,318.650668 301.76,318.32 C302.053335,317.989332 302.530663,317.749334 303.192,317.6 C303.787203,317.465599 304.585436,317.39168 305.586719,317.37824 L306.328,317.376 L306.328,317.008 C306.328,316.474664 306.213334,316.090668 305.984,315.856 C305.754666,315.621332 305.373336,315.504 304.84,315.504 C304.423998,315.504 303.989336,315.575999 303.536,315.72 C303.082664,315.864001 302.637336,316.063999 302.2,316.32 L301.64,314.944 C302.077336,314.666665 302.60533,314.437334 303.224,314.256 C303.84267,314.074666 304.429331,313.984 304.984,313.984 Z M304.52,320.688 C305.053336,320.688 305.487998,320.509335 305.824,320.152 C306.160002,319.794665 306.328,319.333336 306.328,318.768 L306.328,318.432 L306.04,318.432 C305.32533,318.432 304.770669,318.464 304.376,318.528 C303.981331,318.592 303.698668,318.703999 303.528,318.864 C303.357332,319.024001 303.272,319.242665 303.272,319.52 C303.272,319.861335 303.389332,320.141332 303.624,320.36 C303.858668,320.578668 304.157332,320.688 304.52,320.688 Z M310.264,322 L310.264,310.72 L312.264,310.72 L312.264,322 L310.264,322 Z M324.888,314.176 L326.84,314.176 L323.768,322 L322.024,322 L320.104,316.96 L318.232,322 L316.504,322 L313.416,314.176 L315.464,314.176 L317.464,319.616 L319.464,314.176 L320.904,314.176 L322.904,319.648 L324.888,314.176 Z M331.384,313.984 C332.482672,313.984 333.298664,314.250664 333.832,314.784 C334.365336,315.317336 334.632,316.138661 334.632,317.248 L334.632,322 L332.728,322 L332.728,320.8 C332.546666,321.216002 332.261335,321.541332 331.872,321.776 C331.482665,322.010668 331.032003,322.128 330.52,322.128 C329.997331,322.128 329.522669,322.021334 329.096,321.808 C328.669331,321.594666 328.333335,321.301335 328.088,320.928 C327.842665,320.554665 327.72,320.138669 327.72,319.68 C327.72,319.103997 327.866665,318.650668 328.16,318.32 C328.453335,317.989332 328.930663,317.749334 329.592,317.6 C330.187203,317.465599 330.985436,317.39168 331.986719,317.37824 L332.728,317.376 L332.728,317.008 C332.728,316.474664 332.613334,316.090668 332.384,315.856 C332.154666,315.621332 331.773336,315.504 331.24,315.504 C330.823998,315.504 330.389336,315.575999 329.936,315.72 C329.482664,315.864001 329.037336,316.063999 328.6,316.32 L328.04,314.944 C328.477336,314.666665 329.00533,314.437334 329.624,314.256 C330.24267,314.074666 330.829331,313.984 331.384,313.984 Z M330.92,320.688 C331.453336,320.688 331.887998,320.509335 332.224,320.152 C332.560002,319.794665 332.728,319.333336 332.728,318.768 L332.728,318.432 L332.44,318.432 C331.72533,318.432 331.170669,318.464 330.776,318.528 C330.381331,318.592 330.098668,318.703999 329.928,318.864 C329.757332,319.024001 329.672,319.242665 329.672,319.52 C329.672,319.861335 329.789332,320.141332 330.024,320.36 C330.258668,320.578668 330.557332,320.688 330.92,320.688 Z M342.152,314.192 L344.12,314.192 L339.416,324.88 L337.4,324.88 L338.824,321.696 L335.56,314.192 L337.672,314.192 L339.88,319.712 L342.152,314.192 Z M347.96,322.128 C347.266663,322.128 346.629336,322.042668 346.048,321.872 C345.466664,321.701332 344.973335,321.456002 344.568,321.136 L345.128,319.744 C345.960004,320.352003 346.914661,320.656 347.992,320.656 C348.450669,320.656 348.799999,320.581334 349.04,320.432 C349.280001,320.282666 349.4,320.069335 349.4,319.792 C349.4,319.557332 349.317334,319.376001 349.152,319.248 C348.986666,319.119999 348.690669,319.002667 348.264,318.896 L346.984,318.608 C346.258663,318.447999 345.720002,318.186668 345.368,317.824 C345.015998,317.461332 344.84,316.992003 344.84,316.416 C344.84,315.935998 344.975999,315.512002 345.248,315.144 C345.520001,314.775998 345.898664,314.490668 346.384,314.288 C346.869336,314.085332 347.431997,313.984 348.072,313.984 C348.626669,313.984 349.162664,314.069332 349.68,314.24 C350.197336,314.410668 350.653331,314.650665 351.048,314.96 L350.488,316.32 C349.677329,315.73333 348.866671,315.44 348.056,315.44 C347.618664,315.44 347.277335,315.519999 347.032,315.68 C346.786665,315.840001 346.664,316.063999 346.664,316.352 C346.664,316.565334 346.741333,316.741333 346.896,316.88 C347.050667,317.018667 347.298665,317.125333 347.64,317.2 L348.968,317.504 C349.746671,317.674668 350.317332,317.943998 350.68,318.312 C351.042668,318.680002 351.224,319.162664 351.224,319.76 C351.224,320.485337 350.93067,321.061331 350.344,321.488 C349.75733,321.914669 348.962672,322.128 347.96,322.128 Z M361.176,320.624 C361.410668,320.624 361.655999,320.608 361.912,320.576 L361.816,322.064 C361.495998,322.096 361.202668,322.112 360.936,322.112 C359.837328,322.112 359.026669,321.858669 358.504,321.352 C357.981331,320.845331 357.72,320.090672 357.72,319.088 L357.72,315.68 L356.216,315.68 L356.216,314.176 L357.72,314.176 L357.72,311.84 L359.72,311.84 L359.72,314.176 L361.784,314.176 L361.784,315.68 L359.72,315.68 L359.72,319.056 C359.72,320.101339 360.205328,320.624 361.176,320.624 Z M367.624,313.984 C368.562671,313.984 369.261331,314.250664 369.72,314.784 C370.178669,315.317336 370.408,316.122661 370.408,317.2 L370.408,322 L368.408,322 L368.408,317.312 C368.408,316.703997 368.293334,316.261335 368.064,315.984 C367.834666,315.706665 367.474669,315.568 366.984,315.568 C366.407997,315.568 365.946668,315.749332 365.6,316.112 C365.253332,316.474668 365.08,316.959997 365.08,317.568 L365.08,322 L363.08,322 L363.08,310.72 L365.08,310.72 L365.08,315.264 C365.346668,314.847998 365.701331,314.530668 366.144,314.312 C366.586669,314.093332 367.08,313.984 367.624,313.984 Z M379.304,318.448 L373.976,318.448 C374.04,319.173337 374.258665,319.711998 374.632,320.064 C375.005335,320.416002 375.538663,320.592 376.232,320.592 C377.096004,320.592 377.88533,320.314669 378.6,319.76 L379.176,321.136 C378.813332,321.434668 378.357336,321.674666 377.808,321.856 C377.258664,322.037334 376.706669,322.128 376.152,322.128 C374.871994,322.128 373.861337,321.765337 373.12,321.04 C372.378663,320.314663 372.008,319.322673 372.008,318.064 C372.008,317.263996 372.167998,316.55467 372.488,315.936 C372.808002,315.31733 373.258664,314.837335 373.84,314.496 C374.421336,314.154665 375.079996,313.984 375.816,313.984 C376.893339,313.984 377.743997,314.330663 378.368,315.024 C378.992003,315.717337 379.304,316.671994 379.304,317.888 L379.304,318.448 Z M375.864,315.392 C375.330664,315.392 374.901335,315.562665 374.576,315.904 C374.250665,316.245335 374.050667,316.735997 373.976,317.376 L377.592,317.376 C377.570667,316.72533 377.410668,316.232002 377.112,315.896 C376.813332,315.559998 376.397336,315.392 375.864,315.392 Z M394.568,313.984 C395.453338,313.984 396.114664,314.247997 396.552,314.776 C396.989336,315.304003 397.208,316.111995 397.208,317.2 L397.208,322 L395.208,322 L395.208,317.28 C395.208,316.682664 395.106668,316.248001 394.904,315.976 C394.701332,315.703999 394.376002,315.568 393.928,315.568 C393.394664,315.568 392.978668,315.749332 392.68,316.112 C392.381332,316.474668 392.232,316.98133 392.232,317.632 L392.232,322 L390.232,322 L390.232,317.28 C390.232,316.682664 390.133334,316.248001 389.936,315.976 C389.738666,315.703999 389.410669,315.568 388.952,315.568 C388.429331,315.568 388.018668,315.749332 387.72,316.112 C387.421332,316.474668 387.272,316.98133 387.272,317.632 L387.272,322 L385.272,322 L385.272,314.176 L387.224,314.176 L387.224,315.28 C387.458668,314.853331 387.783998,314.530668 388.2,314.312 C388.616002,314.093332 389.090664,313.984 389.624,313.984 C390.808006,313.984 391.591998,314.474662 391.976,315.456 C392.221335,314.997331 392.573331,314.637335 393.032,314.376 C393.490669,314.114665 394.002664,313.984 394.568,313.984 Z M399.24,322 L399.24,314.176 L401.24,314.176 L401.24,322 L399.24,322 Z M399.128,310.544 L401.336,310.544 L401.336,312.512 L399.128,312.512 L399.128,310.544 Z M407.848,313.984 C408.786671,313.984 409.485331,314.250664 409.944,314.784 C410.402669,315.317336 410.632,316.122661 410.632,317.2 L410.632,322 L408.632,322 L408.632,317.312 C408.632,316.703997 408.517334,316.261335 408.288,315.984 C408.058666,315.706665 407.698669,315.568 407.208,315.568 C406.631997,315.568 406.170668,315.749332 405.824,316.112 C405.477332,316.474668 405.304,316.959997 405.304,317.568 L405.304,322 L403.304,322 L403.304,314.176 L405.256,314.176 L405.256,315.344 C405.522668,314.906664 405.879998,314.570668 406.328,314.336 C406.776002,314.101332 407.282664,313.984 407.848,313.984 Z" id="Parentisalwaysthemin" fill="#4C7EF3" fill-rule="nonzero"></path>
        <path d="M593,277 C617.300529,277 637,296.699471 637,321 C637,345.300529 617.300529,365 593,365 C568.699471,365 549,345.300529 549,321 C549,296.699471 568.699471,277 593,277 Z M593,279 C569.804041,279 551,297.804041 551,321 C551,344.195959 569.804041,363 593,363 C616.195959,363 635,344.195959 635,321 C635,297.804041 616.195959,279 593,279 Z" id="Oval" fill="#757F97" fill-rule="nonzero"></path>
        <path d="M456,439.5 C480.300529,439.5 500,459.199471 500,483.5 C500,507.800529 480.300529,527.5 456,527.5 C431.699471,527.5 412,507.800529 412,483.5 C412,459.199471 431.699471,439.5 456,439.5 Z M456,441.5 C432.804041,441.5 414,460.304041 414,483.5 C414,506.695959 432.804041,525.5 456,525.5 C479.195959,525.5 498,506.695959 498,483.5 C498,460.304041 479.195959,441.5 456,441.5 Z" id="Oval-Copy" fill="#757F97" fill-rule="nonzero"></path>
        <path d="M381,575 C405.300529,575 425,594.699471 425,619 C425,643.300529 405.300529,663 381,663 C356.699471,663 337,643.300529 337,619 C337,594.699471 356.699471,575 381,575 Z M381,577 C357.804041,577 339,595.804041 339,619 C339,642.195959 357.804041,661 381,661 C404.195959,661 423,642.195959 423,619 C423,595.804041 404.195959,577 381,577 Z" id="Oval-Copy-3" fill="#757F97" fill-rule="nonzero"></path>
        <path d="M654,575 C678.300529,575 698,594.699471 698,619 C698,643.300529 678.300529,663 654,663 C629.699471,663 610,643.300529 610,619 C610,594.699471 629.699471,575 654,575 Z M654,577 C630.804041,577 612,595.804041 612,619 C612,642.195959 630.804041,661 654,661 C677.195959,661 696,642.195959 696,619 C696,595.804041 677.195959,577 654,577 Z" id="Oval-Copy-6" fill="#757F97" fill-rule="nonzero"></path>
        <path d="M728,440.5 C752.300529,440.5 772,460.199471 772,484.5 C772,508.800529 752.300529,528.5 728,528.5 C703.699471,528.5 684,508.800529 684,484.5 C684,460.199471 703.699471,440.5 728,440.5 Z M728,442.5 C704.804041,442.5 686,461.304041 686,484.5 C686,507.695959 704.804041,526.5 728,526.5 C751.195959,526.5 770,507.695959 770,484.5 C770,461.304041 751.195959,442.5 728,442.5 Z" id="Oval-Copy-2" fill="#757F97" fill-rule="nonzero"></path>
        <path d="M529,575 C553.300529,575 573,594.699471 573,619 C573,643.300529 553.300529,663 529,663 C504.699471,663 485,643.300529 485,619 C485,594.699471 504.699471,575 529,575 Z M529,577 C505.804041,577 487,595.804041 487,619 C487,642.195959 505.804041,661 529,661 C552.195959,661 571,642.195959 571,619 C571,595.804041 552.195959,577 529,577 Z" id="Oval-Copy-4" fill="#757F97" fill-rule="nonzero"></path>
        <path d="M802,575 C826.300529,575 846,594.699471 846,619 C846,643.300529 826.300529,663 802,663 C777.699471,663 758,643.300529 758,619 C758,594.699471 777.699471,575 802,575 Z M802,577 C778.804041,577 760,595.804041 760,619 C760,642.195959 778.804041,661 802,661 C825.195959,661 844,642.195959 844,619 C844,595.804041 825.195959,577 802,577 Z" id="Oval-Copy-7" fill="#757F97" fill-rule="nonzero"></path>
        <path d="M600.409,325.796 L600.409,328.5 L588.085,328.5 L588.085,326.03 L594.325,319.322 C595.053004,318.524663 595.585998,317.792337 595.924,317.125 C596.262002,316.457663 596.431,315.79467 596.431,315.136 C596.431,314.303996 596.192669,313.675669 595.716,313.251 C595.239331,312.826331 594.541671,312.614 593.623,312.614 C591.976325,312.614 590.321008,313.24666 588.657,314.512 L587.539,312.068 C588.267004,311.426663 589.198661,310.911002 590.334,310.521 C591.469339,310.130998 592.608994,309.936 593.753,309.936 C595.590343,309.936 597.046328,310.386662 598.121,311.288 C599.195672,312.189338 599.733,313.402659 599.733,314.928 C599.733,315.985339 599.507669,316.977662 599.057,317.905 C598.606331,318.832338 597.843672,319.867994 596.769,321.012 L592.271,325.796 L600.409,325.796 Z" id="2" fill="#FFFFFF" fill-rule="nonzero"></path>
        <path d="M457.988,481.274 C459.132006,481.274 460.141662,481.520998 461.017,482.015 C461.892338,482.509002 462.568331,483.197996 463.045,484.082 C463.521669,484.966004 463.76,485.979994 463.76,487.124 C463.76,488.337339 463.482669,489.403329 462.928,490.322 C462.373331,491.240671 461.589005,491.951331 460.575,492.454 C459.560995,492.956669 458.36934,493.208 457,493.208 C455.855994,493.208 454.725006,493.013002 453.607,492.623 C452.488994,492.232998 451.566004,491.717337 450.838,491.076 L451.956,488.632 C453.620008,489.89734 455.318658,490.53 457.052,490.53 C458.196006,490.53 459.07133,490.244003 459.678,489.672 C460.28467,489.099997 460.588,488.285339 460.588,487.228 C460.588,486.205328 460.280336,485.395003 459.665,484.797 C459.049664,484.198997 458.213339,483.9 457.156,483.9 C456.44533,483.9 455.77367,484.034332 455.141,484.303 C454.50833,484.571668 453.940669,484.957331 453.438,485.46 L451.436,485.46 L451.436,474.67 L462.928,474.67 L462.928,477.27 L454.712,477.27 L454.712,482.21 C455.596004,481.585997 456.687994,481.274 457.988,481.274 Z" id="5" fill="#FFFFFF" fill-rule="nonzero"></path>
        <path d="M382.988,616.774 C384.132006,616.774 385.141662,617.020998 386.017,617.515 C386.892338,618.009002 387.568331,618.697996 388.045,619.582 C388.521669,620.466004 388.76,621.479994 388.76,622.624 C388.76,623.837339 388.482669,624.903329 387.928,625.822 C387.373331,626.740671 386.589005,627.451331 385.575,627.954 C384.560995,628.456669 383.36934,628.708 382,628.708 C380.855994,628.708 379.725006,628.513002 378.607,628.123 C377.488994,627.732998 376.566004,627.217337 375.838,626.576 L376.956,624.132 C378.620008,625.39734 380.318658,626.03 382.052,626.03 C383.196006,626.03 384.07133,625.744003 384.678,625.172 C385.28467,624.599997 385.588,623.785339 385.588,622.728 C385.588,621.705328 385.280336,620.895003 384.665,620.297 C384.049664,619.698997 383.213339,619.4 382.156,619.4 C381.44533,619.4 380.77367,619.534332 380.141,619.803 C379.50833,620.071668 378.940669,620.457331 378.438,620.96 L376.436,620.96 L376.436,610.17 L387.928,610.17 L387.928,612.77 L379.712,612.77 L379.712,617.71 C380.596004,617.085997 381.687994,616.774 382.988,616.774 Z" id="5" fill="#FFFFFF" fill-rule="nonzero"></path>
        <path d="M728.988,481.774 C730.132006,481.774 731.141662,482.020998 732.017,482.515 C732.892338,483.009002 733.568331,483.697996 734.045,484.582 C734.521669,485.466004 734.76,486.479994 734.76,487.624 C734.76,488.837339 734.482669,489.903329 733.928,490.822 C733.373331,491.740671 732.589005,492.451331 731.575,492.954 C730.560995,493.456669 729.36934,493.708 728,493.708 C726.855994,493.708 725.725006,493.513002 724.607,493.123 C723.488994,492.732998 722.566004,492.217337 721.838,491.576 L722.956,489.132 C724.620008,490.39734 726.318658,491.03 728.052,491.03 C729.196006,491.03 730.07133,490.744003 730.678,490.172 C731.28467,489.599997 731.588,488.785339 731.588,487.728 C731.588,486.705328 731.280336,485.895003 730.665,485.297 C730.049664,484.698997 729.213339,484.4 728.156,484.4 C727.44533,484.4 726.77367,484.534332 726.141,484.803 C725.50833,485.071668 724.940669,485.457331 724.438,485.96 L722.436,485.96 L722.436,475.17 L733.928,475.17 L733.928,477.77 L725.712,477.77 L725.712,482.71 C726.596004,482.085997 727.687993,481.774 728.988,481.774 Z" id="5" fill="#FFFFFF" fill-rule="nonzero"></path>
        <g id="Group-2" transform="translate(639.870000, 609.488000)" fill="#FFFFFF" fill-rule="nonzero">
            <polygon id="10" points="7.826 15.808 11.804 15.808 11.804 18.512 0.494 18.512 0.494 15.808 4.472 15.808 4.472 4.004 1.326 5.902 5.68434189e-14 3.458 5.434 0.182 7.826 0.182"></polygon>
            <path d="M20.93,-2.84217094e-14 C23.0966775,-2.84217094e-14 24.7519943,0.79732536 25.896,2.392 C27.0400057,3.98667464 27.612,6.3006515 27.612,9.334 C27.612,12.3846819 27.0400057,14.7159919 25.896,16.328 C24.7519943,17.9400081 23.0966775,18.746 20.93,18.746 C18.7633225,18.746 17.1080057,17.9443413 15.964,16.341 C14.8199943,14.7376586 14.248,12.4020153 14.248,9.334 C14.248,6.3006515 14.8199943,3.98667464 15.964,2.392 C17.1080057,0.79732536 18.7633225,-2.84217094e-14 20.93,-2.84217094e-14 Z M20.93,2.626 C19.7513274,2.626 18.893336,3.15899467 18.356,4.225 C17.818664,5.29100533 17.55,6.9939883 17.55,9.334 C17.55,11.6913451 17.818664,13.4116612 18.356,14.495 C18.893336,15.5783387 19.7513274,16.12 20.93,16.12 C22.1086726,16.12 22.966664,15.5783387 23.504,14.495 C24.041336,13.4116612 24.31,11.6913451 24.31,9.334 C24.31,6.9939883 24.041336,5.29100533 23.504,4.225 C22.966664,3.15899467 22.1086726,2.626 20.93,2.626 Z" id="Combined-Shape"></path>
        </g>
        <polygon id="10" fill="#FFFFFF" fill-rule="nonzero" points="523.696 625.796 527.674 625.796 527.674 628.5 516.364 628.5 516.364 625.796 520.342 625.796 520.342 613.992 517.196 615.89 515.87 613.446 521.304 610.17 523.696 610.17"></polygon>
        <path d="M536.8,609.988 C538.966677,609.988 540.621994,610.785325 541.766,612.38 C542.910006,613.974675 543.482,616.288652 543.482,619.322 C543.482,622.372682 542.910006,624.703992 541.766,626.316 C540.621994,627.928008 538.966677,628.734 536.8,628.734 C534.633322,628.734 532.978006,627.932341 531.834,626.329 C530.689994,624.725659 530.118,622.390015 530.118,619.322 C530.118,616.288652 530.689994,613.974675 531.834,612.38 C532.978006,610.785325 534.633322,609.988 536.8,609.988 Z M536.8,612.614 C535.621327,612.614 534.763336,613.146995 534.226,614.213 C533.688664,615.279005 533.42,616.981988 533.42,619.322 C533.42,621.679345 533.688664,623.399661 534.226,624.483 C534.763336,625.566339 535.621327,626.108 536.8,626.108 C537.978673,626.108 538.836664,625.566339 539.374,624.483 C539.911336,623.399661 540.18,621.679345 540.18,619.322 C540.18,616.981988 539.911336,615.279005 539.374,614.213 C538.836664,613.146995 537.978673,612.614 536.8,612.614 Z" id="Combined-Shape" fill="#FFFFFF" fill-rule="nonzero"></path>
        <polygon id="10" fill="#FFFFFF" fill-rule="nonzero" points="796.696 625.796 800.674 625.796 800.674 628.5 789.364 628.5 789.364 625.796 793.342 625.796 793.342 613.992 790.196 615.89 788.87 613.446 794.304 610.17 796.696 610.17"></polygon>
        <path d="M809.8,609.988 C811.966677,609.988 813.621994,610.785325 814.766,612.38 C815.910006,613.974675 816.482,616.288652 816.482,619.322 C816.482,622.372682 815.910006,624.703992 814.766,626.316 C813.621994,627.928008 811.966677,628.734 809.8,628.734 C807.633322,628.734 805.978006,627.932341 804.834,626.329 C803.689994,624.725659 803.118,622.390015 803.118,619.322 C803.118,616.288652 803.689994,613.974675 804.834,612.38 C805.978006,610.785325 807.633322,609.988 809.8,609.988 Z M809.8,612.614 C808.621327,612.614 807.763336,613.146995 807.226,614.213 C806.688664,615.279005 806.42,616.981988 806.42,619.322 C806.42,621.679345 806.688664,623.399661 807.226,624.483 C807.763336,625.566339 808.621327,626.108 809.8,626.108 C810.978673,626.108 811.836664,625.566339 812.374,624.483 C812.911336,623.399661 813.18,621.679345 813.18,619.322 C813.18,616.981988 812.911336,615.279005 812.374,614.213 C811.836664,613.146995 810.978673,612.614 809.8,612.614 Z" id="Combined-Shape" fill="#FFFFFF" fill-rule="nonzero"></path>
        <polygon id="Line" fill="#757F97" fill-rule="nonzero" points="565.401424 353.310234 563.810234 352.098576 486.020424 454.254751 487.611614 455.466409"></polygon>
        <polygon id="Line-Copy-2" fill="#757F97" fill-rule="nonzero" points="434.401424 520.810234 432.810234 519.598576 389.552678 576.405843 391.143868 577.617501"></polygon>
        <polygon id="Line-Copy-4" fill="#757F97" fill-rule="nonzero" points="707.401424 521.810234 705.810234 520.598576 663.158507 576.610248 664.749697 577.821906"></polygon>
        <polygon id="Line-Copy" fill="#757F97" fill-rule="nonzero" transform="translate(659.986161, 403.384695) scale(-1, 1) translate(-659.986161, -403.384695) " points="699.373747 353.310234 697.782557 352.098576 620.598576 453.459156 622.189766 454.670814"></polygon>
        <polygon id="Line-Copy-3" fill="#757F97" fill-rule="nonzero" transform="translate(498.720035, 549.210241) scale(-1, 1) translate(-498.720035, -549.210241) " points="520.841493 521.810234 519.250303 520.598576 476.598576 576.610248 478.189766 577.821906"></polygon>
        <polygon id="Line-Copy-5" fill="#757F97" fill-rule="nonzero" transform="translate(771.720035, 549.210241) scale(-1, 1) translate(-771.720035, -549.210241) " points="793.841493 521.810234 792.250303 520.598576 749.598576 576.610248 751.189766 577.821906"></polygon>
        <polygon id="Line-Copy-5" fill="#4C7EF3" fill-rule="nonzero" points="837.835792 337.328961 837.97 401.666 843.970639 401.654303 837 415.668945 829.97067 401.683649 835.97 401.671 835.835797 337.333153"></polygon>
        <polygon id="Line-Copy-6" fill="#4C7EF3" fill-rule="nonzero" points="486.323249 309.029361 500.337891 316 486.352594 323.02933 486.34 317.029 422.002098 317.164203 421.997906 315.164208 486.335 315.029"></polygon>
        <path d="M488.612,111 L488.612,91.26 L501.828,91.26 L501.828,94.116 L492.14,94.116 L492.14,99.548 L501.268,99.548 L501.268,102.376 L492.14,102.376 L492.14,108.144 L501.828,108.144 L501.828,111 L488.612,111 Z M512.44,103.944 L518.208,111 L514.064,111 L510.424,106.436 L506.812,111 L502.668,111 L508.408,103.944 L502.976,97.308 L507.148,97.308 L510.424,101.48 L513.7,97.308 L517.872,97.308 L512.44,103.944 Z M525.572,96.972 C527.494676,96.972 528.922662,97.438662 529.856,98.372 C530.789338,99.305338 531.256,100.742657 531.256,102.684 L531.256,111 L527.924,111 L527.924,108.9 C527.606665,109.628004 527.107337,110.197331 526.426,110.608 C525.744663,111.018669 524.956004,111.224 524.06,111.224 C523.145329,111.224 522.31467,111.037335 521.568,110.664 C520.82133,110.290665 520.233335,109.777337 519.804,109.124 C519.374665,108.470663 519.16,107.742671 519.16,106.94 C519.16,105.931995 519.416664,105.13867 519.93,104.56 C520.443336,103.98133 521.278661,103.561335 522.436,103.3 C523.510672,103.057332 524.963563,102.927333 526.794712,102.91 L527.924,102.908 L527.924,102.264 C527.924,101.330662 527.723335,100.658669 527.322,100.248 C526.920665,99.8373313 526.253338,99.632 525.32,99.632 C524.591996,99.632 523.831337,99.7579987 523.038,100.01 C522.244663,100.262001 521.465337,100.611998 520.7,101.06 L519.72,98.652 C520.485337,98.1666642 521.409328,97.7653349 522.492,97.448 C523.574672,97.1306651 524.601328,96.972 525.572,96.972 Z M524.76,108.704 C525.693338,108.704 526.453997,108.391336 527.042,107.766 C527.630003,107.140664 527.924,106.333338 527.924,105.344 L527.924,104.756 L527.42,104.756 C526.169327,104.756 525.19867,104.811999 524.508,104.924 C523.81733,105.036001 523.322668,105.231999 523.024,105.512 C522.725332,105.792001 522.576,106.174664 522.576,106.66 C522.576,107.257336 522.781331,107.747331 523.192,108.13 C523.602669,108.512669 524.12533,108.704 524.76,108.704 Z M551.08,96.972 C552.629341,96.972 553.786663,97.4339954 554.552,98.358 C555.317337,99.2820046 555.7,100.69599 555.7,102.6 L555.7,111 L552.2,111 L552.2,102.74 C552.2,101.694661 552.022668,100.934002 551.668,100.458 C551.313332,99.9819976 550.744004,99.744 549.96,99.744 C549.026662,99.744 548.298669,100.06133 547.776,100.696 C547.253331,101.33067 546.992,102.217328 546.992,103.356 L546.992,111 L543.492,111 L543.492,102.74 C543.492,101.694661 543.319335,100.934002 542.974,100.458 C542.628665,99.9819976 542.054671,99.744 541.252,99.744 C540.337329,99.744 539.618669,100.06133 539.096,100.696 C538.573331,101.33067 538.312,102.217328 538.312,103.356 L538.312,111 L534.812,111 L534.812,97.308 L538.228,97.308 L538.228,99.24 C538.638669,98.4933296 539.207996,97.9286686 539.936,97.546 C540.664004,97.1633314 541.494662,96.972 542.428,96.972 C544.50001,96.972 545.871997,97.8306581 546.544,99.548 C546.973335,98.7453293 547.589329,98.1153356 548.392,97.658 C549.194671,97.2006644 550.090662,96.972 551.08,96.972 Z M567.124,96.972 C568.300006,96.972 569.349995,97.2706637 570.274,97.868 C571.198005,98.4653363 571.916664,99.3099945 572.43,100.402 C572.943336,101.494005 573.2,102.749326 573.2,104.168 C573.2,105.586674 572.943336,106.827995 572.43,107.892 C571.916664,108.956005 571.202671,109.77733 570.288,110.356 C569.373329,110.93467 568.318673,111.224 567.124,111.224 C566.153328,111.224 565.285337,111.018669 564.52,110.608 C563.754663,110.197331 563.166669,109.628004 562.756,108.9 L562.756,116.04 L559.256,116.04 L559.256,97.308 L562.7,97.308 L562.7,99.38 C563.110669,98.6146628 563.703329,98.0220021 564.478,97.602 C565.252671,97.1819979 566.134662,96.972 567.124,96.972 Z M566.2,108.508 C567.301339,108.508 568.159997,108.130004 568.776,107.374 C569.392003,106.617996 569.7,105.54934 569.7,104.168 C569.7,102.749326 569.392003,101.648004 568.776,100.864 C568.159997,100.079996 567.301339,99.688 566.2,99.688 C565.079994,99.688 564.21667,100.070663 563.61,100.836 C563.00333,101.601337 562.7,102.693326 562.7,104.112 C562.7,105.512007 563.00333,106.594663 563.61,107.36 C564.21667,108.125337 565.079994,108.508 566.2,108.508 Z M576.084,111 L576.084,91.26 L579.584,91.26 L579.584,111 L576.084,111 Z M595.208,104.784 L585.884,104.784 C585.996001,106.05334 586.378663,106.995997 587.032,107.612 C587.685337,108.228003 588.618661,108.536 589.832,108.536 C591.344008,108.536 592.725327,108.050672 593.976,107.08 L594.984,109.488 C594.34933,110.010669 593.551338,110.430665 592.59,110.748 C591.628662,111.065335 590.662672,111.224 589.692,111.224 C587.451989,111.224 585.68334,110.58934 584.386,109.32 C583.08866,108.05066 582.44,106.314678 582.44,104.112 C582.44,102.711993 582.719997,101.470672 583.28,100.388 C583.840003,99.3053279 584.628662,98.4653363 585.646,97.868 C586.663338,97.2706637 587.815994,96.972 589.104,96.972 C590.989343,96.972 592.477995,97.5786606 593.57,98.792 C594.662005,100.005339 595.208,101.675989 595.208,103.804 L595.208,104.784 Z M589.188,99.436 C588.254662,99.436 587.503336,99.7346637 586.934,100.332 C586.364664,100.929336 586.014667,101.787994 585.884,102.908 L592.212,102.908 C592.174666,101.769328 591.894669,100.906003 591.372,100.318 C590.849331,99.7299971 590.121338,99.436 589.188,99.436 Z M611.896,111.224 C610.495993,111.224 609.268672,110.93467 608.214,110.356 C607.159328,109.77733 606.34267,108.946672 605.764,107.864 C605.18533,106.781328 604.896,105.521341 604.896,104.084 C604.896,102.646659 605.18533,101.391339 605.764,100.318 C606.34267,99.2446613 607.159328,98.4186696 608.214,97.84 C609.268672,97.2613304 610.495993,96.972 611.896,96.972 C613.296007,96.972 614.523328,97.2613304 615.578,97.84 C616.632672,98.4186696 617.444664,99.2446613 618.014,100.318 C618.583336,101.391339 618.868,102.646659 618.868,104.084 C618.868,105.521341 618.583336,106.781328 618.014,107.864 C617.444664,108.946672 616.632672,109.77733 615.578,110.356 C614.523328,110.93467 613.296007,111.224 611.896,111.224 Z M611.868,108.508 C613.006672,108.508 613.874664,108.13467 614.472,107.388 C615.069336,106.64133 615.368,105.540007 615.368,104.084 C615.368,102.646659 615.069336,101.550004 614.472,100.794 C613.874664,100.037996 613.016006,99.66 611.896,99.66 C610.775994,99.66 609.91267,100.037996 609.306,100.794 C608.69933,101.550004 608.396,102.646659 608.396,104.084 C608.396,105.540007 608.694664,106.64133 609.292,107.388 C609.889336,108.13467 610.747994,108.508 611.868,108.508 Z M626.204,97.308 L629.816,97.308 L629.816,99.94 L626.204,99.94 L626.204,111 L622.704,111 L622.704,99.94 L620.072,99.94 L620.072,97.308 L622.704,97.308 C622.704,95.3479902 623.212662,93.8733383 624.23,92.884 C625.19082,91.949625 626.655289,91.4065391 628.623449,91.2547284 L630.348,91.148 L630.572,93.752 L629.256,93.808 C628.154661,93.8640003 627.370669,94.1113311 626.904,94.55 C626.437331,94.9886689 626.204,95.6933285 626.204,96.664 L626.204,97.308 Z M645.244,96.972 C647.166676,96.972 648.594662,97.438662 649.528,98.372 C650.461338,99.305338 650.928,100.742657 650.928,102.684 L650.928,111 L647.596,111 L647.596,108.9 C647.278665,109.628004 646.779337,110.197331 646.098,110.608 C645.416663,111.018669 644.628004,111.224 643.732,111.224 C642.817329,111.224 641.98667,111.037335 641.24,110.664 C640.49333,110.290665 639.905335,109.777337 639.476,109.124 C639.046665,108.470663 638.832,107.742671 638.832,106.94 C638.832,105.931995 639.088664,105.13867 639.602,104.56 C640.115336,103.98133 640.950661,103.561335 642.108,103.3 C643.182672,103.057332 644.635563,102.927333 646.466712,102.91 L647.596,102.908 L647.596,102.264 C647.596,101.330662 647.395335,100.658669 646.994,100.248 C646.592665,99.8373313 645.925338,99.632 644.992,99.632 C644.263996,99.632 643.503337,99.7579987 642.71,100.01 C641.916663,100.262001 641.137337,100.611998 640.372,101.06 L639.392,98.652 C640.157337,98.1666642 641.081328,97.7653349 642.164,97.448 C643.246672,97.1306651 644.273328,96.972 645.244,96.972 Z M644.432,108.704 C645.365338,108.704 646.125997,108.391336 646.714,107.766 C647.302003,107.140664 647.596,106.333338 647.596,105.344 L647.596,104.756 L647.092,104.756 C645.841327,104.756 644.87067,104.811999 644.18,104.924 C643.48933,105.036001 642.994668,105.231999 642.696,105.512 C642.397332,105.792001 642.248,106.174664 642.248,106.66 C642.248,107.257336 642.453331,107.747331 642.864,108.13 C643.274669,108.512669 643.79733,108.704 644.432,108.704 Z M676.044,91.26 L679.572,91.26 L679.572,111 L676.044,111 L676.044,102.432 L665.936,102.432 L665.936,111 L662.38,111 L662.38,91.26 L665.936,91.26 L665.936,99.52 L676.044,99.52 L676.044,91.26 Z M695.532,104.784 L686.208,104.784 C686.320001,106.05334 686.702663,106.995997 687.356,107.612 C688.009337,108.228003 688.942661,108.536 690.156,108.536 C691.668008,108.536 693.049327,108.050672 694.3,107.08 L695.308,109.488 C694.67333,110.010669 693.875338,110.430665 692.914,110.748 C691.952662,111.065335 690.986672,111.224 690.016,111.224 C687.775989,111.224 686.00734,110.58934 684.71,109.32 C683.41266,108.05066 682.764,106.314678 682.764,104.112 C682.764,102.711993 683.043997,101.470672 683.604,100.388 C684.164003,99.3053279 684.952662,98.4653363 685.97,97.868 C686.987338,97.2706637 688.139994,96.972 689.428,96.972 C691.313343,96.972 692.801995,97.5786606 693.894,98.792 C694.986005,100.005339 695.532,101.675989 695.532,103.804 L695.532,104.784 Z M689.512,99.436 C688.578662,99.436 687.827336,99.7346637 687.258,100.332 C686.688664,100.929336 686.338667,101.787994 686.208,102.908 L692.536,102.908 C692.498666,101.769328 692.218669,100.906003 691.696,100.318 C691.173331,99.7299971 690.445338,99.436 689.512,99.436 Z M704.268,96.972 C706.190676,96.972 707.618662,97.438662 708.552,98.372 C709.485338,99.305338 709.952,100.742657 709.952,102.684 L709.952,111 L706.62,111 L706.62,108.9 C706.302665,109.628004 705.803337,110.197331 705.122,110.608 C704.440663,111.018669 703.652004,111.224 702.756,111.224 C701.841329,111.224 701.01067,111.037335 700.264,110.664 C699.51733,110.290665 698.929335,109.777337 698.5,109.124 C698.070665,108.470663 697.856,107.742671 697.856,106.94 C697.856,105.931995 698.112664,105.13867 698.626,104.56 C699.139336,103.98133 699.974661,103.561335 701.132,103.3 C702.206672,103.057332 703.659563,102.927333 705.490712,102.91 L706.62,102.908 L706.62,102.264 C706.62,101.330662 706.419335,100.658669 706.018,100.248 C705.616665,99.8373313 704.949338,99.632 704.016,99.632 C703.287996,99.632 702.527337,99.7579987 701.734,100.01 C700.940663,100.262001 700.161337,100.611998 699.396,101.06 L698.416,98.652 C699.181337,98.1666642 700.105328,97.7653349 701.188,97.448 C702.270672,97.1306651 703.297328,96.972 704.268,96.972 Z M703.456,108.704 C704.389338,108.704 705.149997,108.391336 705.738,107.766 C706.326003,107.140664 706.62,106.333338 706.62,105.344 L706.62,104.756 L706.116,104.756 C704.865327,104.756 703.89467,104.811999 703.204,104.924 C702.51333,105.036001 702.018668,105.231999 701.72,105.512 C701.421332,105.792001 701.272,106.174664 701.272,106.66 C701.272,107.257336 701.477331,107.747331 701.888,108.13 C702.298669,108.512669 702.82133,108.704 703.456,108.704 Z" id="ExampleofaHeap" fill="#FFFFFF" fill-rule="nonzero"></path>
        <path d="M721.376,96.972 C722.552006,96.972 723.601995,97.2706637 724.526,97.868 C725.450005,98.4653363 726.168664,99.3099945 726.682,100.402 C727.195336,101.494005 727.452,102.749326 727.452,104.168 C727.452,105.586674 727.195336,106.827995 726.682,107.892 C726.168664,108.956005 725.454671,109.77733 724.54,110.356 C723.625329,110.93467 722.570673,111.224 721.376,111.224 C720.405328,111.224 719.537337,111.018669 718.772,110.608 C718.006663,110.197331 717.418669,109.628004 717.008,108.9 L717.008,116.04 L713.508,116.04 L713.508,97.308 L716.952,97.308 L716.952,99.38 C717.362669,98.6146628 717.955329,98.0220021 718.73,97.602 C719.504671,97.1819979 720.386662,96.972 721.376,96.972 Z M720.452,99.688 C719.331994,99.688 718.46867,100.070663 717.862,100.836 C717.25533,101.601337 716.952,102.693326 716.952,104.112 C716.952,105.512007 717.25533,106.594663 717.862,107.36 C718.46867,108.125337 719.331994,108.508 720.452,108.508 C721.553339,108.508 722.411997,108.130004 723.028,107.374 C723.644003,106.617996 723.952,105.54934 723.952,104.168 C723.952,102.749326 723.644003,101.648004 723.028,100.864 C722.411997,100.079996 721.553339,99.688 720.452,99.688 Z" id="Combined-Shape" fill="#FFFFFF" fill-rule="nonzero"></path>
    </g>
</svg>