<?xml version="1.0" encoding="UTF-8"?>
<svg width="1214px" height="941px" viewBox="0 0 1214 941" version="1.1" xmlns="http://www.w3.org/2000/svg" xmlns:xlink="http://www.w3.org/1999/xlink">
    <!-- Generator: Sketch 59.1 (86144) - https://sketch.com -->
    <title>Node Example</title>
    <desc>Created with Sketch.</desc>
    <g id="Node-Example" stroke="none" stroke-width="1" fill="none" fill-rule="evenodd">
        <g id="Group-3" transform="translate(498.000000, 365.000000)" fill-rule="nonzero">
            <path d="M83.64,80.72 L87.8,80.72 C89.6453426,80.72 91.0773282,81.2133284 92.096,82.2 C93.1146718,83.1866716 93.624,84.5706578 93.624,86.352 C93.624,88.1333422 93.1146718,89.519995 92.096,90.512 C91.0773282,91.504005 89.6453426,92 87.8,92 L83.64,92 L83.64,80.72 Z M87.672,90.32 C90.264013,90.32 91.56,88.9973466 91.56,86.352 C91.56,83.7173202 90.264013,82.4 87.672,82.4 L85.704,82.4 L85.704,90.32 L87.672,90.32 Z M98.888,83.984 C99.9866722,83.984 100.802664,84.250664 101.336,84.784 C101.869336,85.317336 102.136,86.1386611 102.136,87.248 L102.136,92 L100.232,92 L100.232,90.8 C100.050666,91.2160021 99.7653353,91.5413322 99.376,91.776 C98.9866647,92.0106678 98.5360026,92.128 98.024,92.128 C97.5013307,92.128 97.0266688,92.0213344 96.6,91.808 C96.1733312,91.5946656 95.8373346,91.3013352 95.592,90.928 C95.3466654,90.5546648 95.224,90.138669 95.224,89.68 C95.224,89.1039971 95.3706652,88.6506683 95.664,88.32 C95.9573348,87.9893317 96.4346634,87.7493341 97.096,87.6 C97.691203,87.4655993 98.4894359,87.3916799 99.4907187,87.37824 L100.232,87.376 L100.232,87.008 C100.232,86.474664 100.117334,86.0906678 99.888,85.856 C99.6586655,85.6213322 99.277336,85.504 98.744,85.504 C98.3279979,85.504 97.8933356,85.5759993 97.44,85.72 C96.9866644,85.8640007 96.5413355,86.0639987 96.104,86.32 L95.544,84.944 C95.9813355,84.6666653 96.5093302,84.4373342 97.128,84.256 C97.7466698,84.0746658 98.3333306,83.984 98.888,83.984 Z M98.424,90.688 C98.957336,90.688 99.3919983,90.5093351 99.728,90.152 C100.064002,89.7946649 100.232,89.3333362 100.232,88.768 L100.232,88.432 L99.944,88.432 C99.2293298,88.432 98.6746686,88.4639997 98.28,88.528 C97.8853314,88.5920003 97.6026675,88.7039992 97.432,88.864 C97.2613325,89.0240008 97.176,89.2426653 97.176,89.52 C97.176,89.861335 97.2933322,90.1413322 97.528,90.36 C97.7626678,90.5786678 98.0613315,90.688 98.424,90.688 Z M108.168,90.624 C108.402668,90.624 108.647999,90.6080002 108.904,90.576 L108.808,92.064 C108.487998,92.0960002 108.194668,92.112 107.928,92.112 C106.829328,92.112 106.018669,91.8586692 105.496,91.352 C104.973331,90.8453308 104.712,90.0906717 104.712,89.088 L104.712,85.68 L103.208,85.68 L103.208,84.176 L104.712,84.176 L104.712,81.84 L106.712,81.84 L106.712,84.176 L108.776,84.176 L108.776,85.68 L106.712,85.68 L106.712,89.056 C106.712,90.1013386 107.197328,90.624 108.168,90.624 Z M113.432,83.984 C114.530672,83.984 115.346664,84.250664 115.88,84.784 C116.413336,85.317336 116.68,86.1386611 116.68,87.248 L116.68,92 L114.776,92 L114.776,90.8 C114.594666,91.2160021 114.309335,91.5413322 113.92,91.776 C113.530665,92.0106678 113.080003,92.128 112.568,92.128 C112.045331,92.128 111.570669,92.0213344 111.144,91.808 C110.717331,91.5946656 110.381335,91.3013352 110.136,90.928 C109.890665,90.5546648 109.768,90.138669 109.768,89.68 C109.768,89.1039971 109.914665,88.6506683 110.208,88.32 C110.501335,87.9893317 110.978663,87.7493341 111.64,87.6 C112.235203,87.4655993 113.033436,87.3916799 114.034719,87.37824 L114.776,87.376 L114.776,87.008 C114.776,86.474664 114.661334,86.0906678 114.432,85.856 C114.202666,85.6213322 113.821336,85.504 113.288,85.504 C112.871998,85.504 112.437336,85.5759993 111.984,85.72 C111.530664,85.8640007 111.085336,86.0639987 110.648,86.32 L110.088,84.944 C110.525336,84.6666653 111.05333,84.4373342 111.672,84.256 C112.29067,84.0746658 112.877331,83.984 113.432,83.984 Z M112.968,90.688 C113.501336,90.688 113.935998,90.5093351 114.272,90.152 C114.608002,89.7946649 114.776,89.3333362 114.776,88.768 L114.776,88.432 L114.488,88.432 C113.77333,88.432 113.218669,88.4639997 112.824,88.528 C112.429331,88.5920003 112.146668,88.7039992 111.976,88.864 C111.805332,89.0240008 111.72,89.2426653 111.72,89.52 C111.72,89.861335 111.837332,90.1413322 112.072,90.36 C112.306668,90.5786678 112.605332,90.688 112.968,90.688 Z M118.536,84.176 L120.776,84.176 L120.776,86.384 L118.536,86.384 L118.536,84.176 Z M118.536,89.792 L120.776,89.792 L120.776,92 L118.536,92 L118.536,89.792 Z M131.384,84.784 C132.088004,84.784 132.709331,84.9359985 133.248,85.24 C133.786669,85.5440015 134.202665,85.9679973 134.496,86.512 C134.789335,87.0560027 134.936,87.6799965 134.936,88.384 C134.936,89.1306704 134.765335,89.7866638 134.424,90.352 C134.082665,90.9173362 133.600003,91.3546651 132.976,91.664 C132.351997,91.9733349 131.618671,92.128 130.776,92.128 C130.071996,92.128 129.376003,92.0080012 128.688,91.768 C127.999997,91.5279988 127.432002,91.2106686 126.984,90.816 L127.672,89.312 C128.696005,90.0906706 129.741328,90.48 130.808,90.48 C131.512004,90.48 132.050665,90.3040018 132.424,89.952 C132.797335,89.5999982 132.984,89.0986699 132.984,88.448 C132.984,87.8186635 132.794669,87.3200018 132.416,86.952 C132.037331,86.5839982 131.52267,86.4 130.872,86.4 C130.434664,86.4 130.021335,86.4826658 129.632,86.648 C129.242665,86.8133342 128.893335,87.0506651 128.584,87.36 L127.352,87.36 L127.352,80.72 L134.424,80.72 L134.424,82.32 L129.368,82.32 L129.368,85.36 C129.912003,84.9759981 130.583996,84.784 131.384,84.784 Z" id="Data:5" fill="#FFFFFF"></path>
            <path d="M82.66,4.98 C83.8333392,4.98 84.7066638,5.31333 85.28,5.98 C85.8533362,6.64667 86.14,7.6533266 86.14,9 L86.14,15 L83.64,15 L83.64,9.14 C83.64,8.3799962 83.4966681,7.8266684 83.21,7.48 C82.9233319,7.1333316 82.4733364,6.96 81.86,6.96 C81.1399964,6.96 80.5633355,7.1866644 80.13,7.64 C79.6966645,8.0933356 79.48,8.6999962 79.48,9.46 L79.48,15 L76.98,15 L76.98,5.22 L79.42,5.22 L79.42,6.68 C79.753335,6.1333306 80.1999972,5.7133348 80.76,5.42 C81.3200028,5.1266652 81.9533298,4.98 82.66,4.98 Z M93.14,15.16 C92.14,15.16 91.2633371,14.9533354 90.51,14.54 C89.7566629,14.1266646 89.1733354,13.5333372 88.76,12.76 C88.3466646,11.9866628 88.14,11.0866718 88.14,10.06 C88.14,9.0333282 88.3466646,8.1366705 88.76,7.37 C89.1733354,6.6033295 89.7566629,6.0133354 90.51,5.6 C91.2633371,5.1866646 92.14,4.98 93.14,4.98 C94.14,4.98 95.0166629,5.1866646 95.77,5.6 C96.5233371,6.0133354 97.1033313,6.6033295 97.51,7.37 C97.9166687,8.1366705 98.12,9.0333282 98.12,10.06 C98.12,11.0866718 97.9166687,11.9866628 97.51,12.76 C97.1033313,13.5333372 96.5233371,14.1266646 95.77,14.54 C95.0166629,14.9533354 94.14,15.16 93.14,15.16 Z M93.12,13.22 C93.9333374,13.22 94.5533312,12.953336 94.98,12.42 C95.4066688,11.886664 95.62,11.1000052 95.62,10.06 C95.62,9.0333282 95.4066688,8.2500027 94.98,7.71 C94.5533312,7.1699973 93.940004,6.9 93.14,6.9 C92.339996,6.9 91.7233355,7.1699973 91.29,7.71 C90.8566645,8.2500027 90.64,9.0333282 90.64,10.06 C90.64,11.1000052 90.8533312,11.886664 91.28,12.42 C91.7066688,12.953336 92.319996,13.22 93.12,13.22 Z M109.62,0.9 L109.62,15 L107.14,15 L107.14,13.42 C106.846665,13.9666694 106.423336,14.3933318 105.87,14.7 C105.316664,15.0066682 104.68667,15.16 103.98,15.16 C103.14,15.16 102.390003,14.9466688 101.73,14.52 C101.069997,14.0933312 100.556669,13.4900039 100.19,12.71 C99.8233315,11.9299961 99.64,11.0333384 99.64,10.02 C99.64,9.0066616 99.8233315,8.1200038 100.19,7.36 C100.556669,6.5999962 101.066663,6.0133354 101.72,5.6 C102.373337,5.1866646 103.126662,4.98 103.98,4.98 C104.68667,4.98 105.313331,5.1266652 105.86,5.42 C106.406669,5.7133348 106.826665,6.126664 107.12,6.66 L107.12,0.9 L109.62,0.9 Z M104.64,13.22 C105.440004,13.22 106.056665,12.9466694 106.49,12.4 C106.923336,11.8533306 107.14,11.0733384 107.14,10.06 C107.14,9.0466616 106.923336,8.2700027 106.49,7.73 C106.056665,7.1899973 105.446671,6.92 104.66,6.92 C103.859996,6.92 103.240002,7.186664 102.8,7.72 C102.359998,8.253336 102.14,9.019995 102.14,10.02 C102.14,11.0333384 102.359998,11.8199972 102.8,12.38 C103.240002,12.9400028 103.853329,13.22 104.64,13.22 Z M120.78,10.56 L114.12,10.56 C114.2,11.4666712 114.473331,12.1399978 114.94,12.58 C115.406669,13.0200022 116.073329,13.24 116.94,13.24 C118.020005,13.24 119.006662,12.8933368 119.9,12.2 L120.62,13.92 C120.166664,14.2933352 119.59667,14.5933322 118.91,14.82 C118.22333,15.0466678 117.533337,15.16 116.84,15.16 C115.239992,15.16 113.976671,14.7066712 113.05,13.8 C112.123329,12.8933288 111.66,11.6533412 111.66,10.08 C111.66,9.079995 111.859998,8.1933372 112.26,7.42 C112.66,6.6466628 113.22333,6.0466688 113.95,5.62 C114.67667,5.1933312 115.499995,4.98 116.42,4.98 C117.766673,4.98 118.829996,5.413329 119.61,6.28 C120.390004,7.146671 120.78,8.3399924 120.78,9.86 L120.78,10.56 Z M116.48,6.74 C115.81333,6.74 115.276669,6.9533312 114.87,7.38 C114.463331,7.8066688 114.213334,8.419996 114.12,9.22 L118.64,9.22 C118.613333,8.4066626 118.413335,7.7900021 118.04,7.37 C117.666665,6.9499979 117.14667,6.74 116.48,6.74 Z M121.76,16.5 L121.76,15 L131.28,15 L131.28,16.5 L121.76,16.5 Z" id="node_a" fill="#4C7EF3"></path>
            <path d="M137.02,4.98 C138.39334,4.98 139.41333,5.31333 140.08,5.98 C140.74667,6.64667 141.08,7.6733264 141.08,9.06 L141.08,15 L138.7,15 L138.7,13.5 C138.473332,14.0200026 138.116669,14.4266652 137.63,14.72 C137.143331,15.0133348 136.580003,15.16 135.94,15.16 C135.286663,15.16 134.693336,15.026668 134.16,14.76 C133.626664,14.493332 133.206668,14.126669 132.9,13.66 C132.593332,13.193331 132.44,12.6733362 132.44,12.1 C132.44,11.3799964 132.623332,10.8133354 132.99,10.4 C133.356669,9.9866646 133.953329,9.6866676 134.78,9.5 C135.537782,9.32888803 136.558837,9.23620356 137.843193,9.22194443 L138.7,9.22 L138.7,8.76 C138.7,8.09333 138.556668,7.6133348 138.27,7.32 C137.983332,7.0266652 137.50667,6.88 136.84,6.88 C136.319997,6.88 135.77667,6.9699991 135.21,7.15 C134.64333,7.3300009 134.086669,7.5799984 133.54,7.9 L132.84,6.18 C133.386669,5.8333316 134.046663,5.5466678 134.82,5.32 C135.593337,5.0933322 136.326663,4.98 137.02,4.98 Z M138.7,10.54 L138.049629,10.5414815 C137.295059,10.5493826 136.698521,10.5888885 136.26,10.66 C135.766664,10.7400004 135.413334,10.879999 135.2,11.08 C134.986666,11.280001 134.88,11.5533316 134.88,11.9 C134.88,12.3266688 135.026665,12.6766653 135.32,12.95 C135.613335,13.2233347 135.986664,13.36 136.44,13.36 C137.10667,13.36 137.649998,13.1366689 138.07,12.69 C138.490002,12.2433311 138.7,11.6666702 138.7,10.96 L138.7,10.96 L138.7,10.54 Z" id="Combined-Shape" fill="#4C7EF3"></path>
            <path d="M63.48,166 L63.48,154.72 L65.544,154.72 L65.544,164.304 L70.808,164.304 L70.808,166 L63.48,166 Z M72.184,166 L72.184,158.176 L74.184,158.176 L74.184,166 L72.184,166 Z M72.072,154.544 L74.28,154.544 L74.28,156.512 L72.072,156.512 L72.072,154.544 Z M80.792,157.984 C81.7306714,157.984 82.429331,158.250664 82.888,158.784 C83.346669,159.317336 83.576,160.122661 83.576,161.2 L83.576,166 L81.576,166 L81.576,161.312 C81.576,160.703997 81.4613345,160.261335 81.232,159.984 C81.0026655,159.706665 80.6426691,159.568 80.152,159.568 C79.5759971,159.568 79.1146684,159.749332 78.768,160.112 C78.4213316,160.474668 78.248,160.959997 78.248,161.568 L78.248,166 L76.248,166 L76.248,158.176 L78.2,158.176 L78.2,159.344 C78.466668,158.906664 78.8239978,158.570668 79.272,158.336 C79.7200022,158.101332 80.2266638,157.984 80.792,157.984 Z M93.448,166 L90.968,166 L87.608,162.432 L87.608,166 L85.608,166 L85.608,154.72 L87.608,154.72 L87.608,161.6 L90.76,158.192 L93.192,158.192 L89.672,161.936 L93.448,166 Z M94.008,158.176 L96.248,158.176 L96.248,160.384 L94.008,160.384 L94.008,158.176 Z M94.008,163.792 L96.248,163.792 L96.248,166 L94.008,166 L94.008,163.792 Z M107.032,157.984 C107.970671,157.984 108.669331,158.250664 109.128,158.784 C109.586669,159.317336 109.816,160.122661 109.816,161.2 L109.816,166 L107.816,166 L107.816,161.312 C107.816,160.703997 107.701334,160.261335 107.472,159.984 C107.242666,159.706665 106.882669,159.568 106.392,159.568 C105.815997,159.568 105.354668,159.749332 105.008,160.112 C104.661332,160.474668 104.488,160.959997 104.488,161.568 L104.488,166 L102.488,166 L102.488,158.176 L104.44,158.176 L104.44,159.344 C104.706668,158.906664 105.063998,158.570668 105.512,158.336 C105.960002,158.101332 106.466664,157.984 107.032,157.984 Z M115.416,166.128 C114.615996,166.128 113.91467,165.962668 113.312,165.632 C112.70933,165.301332 112.242668,164.82667 111.912,164.208 C111.581332,163.58933 111.416,162.869337 111.416,162.048 C111.416,161.226663 111.581332,160.509336 111.912,159.896 C112.242668,159.282664 112.70933,158.810668 113.312,158.48 C113.91467,158.149332 114.615996,157.984 115.416,157.984 C116.216004,157.984 116.91733,158.149332 117.52,158.48 C118.12267,158.810668 118.586665,159.282664 118.912,159.896 C119.237335,160.509336 119.4,161.226663 119.4,162.048 C119.4,162.869337 119.237335,163.58933 118.912,164.208 C118.586665,164.82667 118.12267,165.301332 117.52,165.632 C116.91733,165.962668 116.216004,166.128 115.416,166.128 Z M115.4,164.576 C116.05067,164.576 116.546665,164.362669 116.888,163.936 C117.229335,163.509331 117.4,162.880004 117.4,162.048 C117.4,161.226663 117.229335,160.600002 116.888,160.168 C116.546665,159.735998 116.056003,159.52 115.416,159.52 C114.775997,159.52 114.282668,159.735998 113.936,160.168 C113.589332,160.600002 113.416,161.226663 113.416,162.048 C113.416,162.880004 113.586665,163.509331 113.928,163.936 C114.269335,164.362669 114.759997,164.576 115.4,164.576 Z M128.6,154.72 L128.6,166 L126.616,166 L126.616,164.736 C126.381332,165.173336 126.042669,165.514665 125.6,165.76 C125.157331,166.005335 124.653336,166.128 124.088,166.128 C123.415997,166.128 122.816003,165.957335 122.288,165.616 C121.759997,165.274665 121.349335,164.792003 121.056,164.168 C120.762665,163.543997 120.616,162.826671 120.616,162.016 C120.616,161.205329 120.762665,160.496003 121.056,159.888 C121.349335,159.279997 121.757331,158.810668 122.28,158.48 C122.802669,158.149332 123.40533,157.984 124.088,157.984 C124.653336,157.984 125.154664,158.101332 125.592,158.336 C126.029336,158.570668 126.365332,158.901331 126.6,159.328 L126.6,154.72 L128.6,154.72 Z M124.616,164.576 C125.256003,164.576 125.749332,164.357336 126.096,163.92 C126.442668,163.482664 126.616,162.858671 126.616,162.048 C126.616,161.237329 126.442668,160.616002 126.096,160.184 C125.749332,159.751998 125.261336,159.536 124.632,159.536 C123.991997,159.536 123.496002,159.749331 123.144,160.176 C122.791998,160.602669 122.616,161.215996 122.616,162.016 C122.616,162.826671 122.791998,163.455998 123.144,163.904 C123.496002,164.352002 123.986664,164.576 124.616,164.576 Z M137.528,162.448 L132.2,162.448 C132.264,163.173337 132.482665,163.711998 132.856,164.064 C133.229335,164.416002 133.762663,164.592 134.456,164.592 C135.320004,164.592 136.10933,164.314669 136.824,163.76 L137.4,165.136 C137.037332,165.434668 136.581336,165.674666 136.032,165.856 C135.482664,166.037334 134.930669,166.128 134.376,166.128 C133.095994,166.128 132.085337,165.765337 131.344,165.04 C130.602663,164.314663 130.232,163.322673 130.232,162.064 C130.232,161.263996 130.391998,160.55467 130.712,159.936 C131.032002,159.31733 131.482664,158.837335 132.064,158.496 C132.645336,158.154665 133.303996,157.984 134.04,157.984 C135.117339,157.984 135.967997,158.330663 136.592,159.024 C137.216003,159.717337 137.528,160.671994 137.528,161.888 L137.528,162.448 Z M134.088,159.392 C133.554664,159.392 133.125335,159.562665 132.8,159.904 C132.474665,160.245335 132.274667,160.735997 132.2,161.376 L135.816,161.376 C135.794667,160.72533 135.634668,160.232002 135.336,159.896 C135.037332,159.559998 134.621336,159.392 134.088,159.392 Z M138.312,167.2 L138.312,166 L145.928,166 L145.928,167.2 L138.312,167.2 Z" id="Link:node_b" fill="#FFFFFF"></path>
            <g id="Group" transform="translate(147.160000, 154.720000)" fill="#FFFFFF">
                <path d="M2,-8.8817842e-14 L2,4.592 C2.23466784,4.1653312 2.57066448,3.83733448 3.008,3.608 C3.44533552,3.37866552 3.94133056,3.264 4.496,3.264 C5.17867008,3.264 5.78133072,3.42933168 6.304,3.76 C6.82666928,4.09066832 7.2346652,4.55999696 7.528,5.168 C7.8213348,5.77600304 7.968,6.48532928 7.968,7.296 C7.968,8.10667072 7.8213348,8.82399688 7.528,9.448 C7.2346652,10.0720031 6.82400264,10.554665 6.296,10.896 C5.76799736,11.237335 5.16800336,11.408 4.496,11.408 C3.93066384,11.408 3.42666888,11.2853346 2.984,11.04 C2.54133112,10.7946654 2.20266784,10.4533355 1.968,10.016 L1.968,11.28 L-1.42108547e-13,11.28 L-1.42108547e-13,-8.8817842e-14 L2,-8.8817842e-14 Z M3.968,4.816 C3.3279968,4.816 2.8346684,5.03199784 2.488,5.464 C2.1413316,5.89600216 1.968,6.51732928 1.968,7.328 C1.968,8.13867072 2.1413316,8.76266448 2.488,9.2 C2.8346684,9.63733552 3.3279968,9.856 3.968,9.856 C4.59733648,9.856 5.08799824,9.63200224 5.44,9.184 C5.79200176,8.73599776 5.968,8.10667072 5.968,7.296 C5.968,6.495996 5.7946684,5.8826688 5.448,5.456 C5.1013316,5.0293312 4.6080032,4.816 3.968,4.816 Z" id="Combined-Shape"></path>
            </g>
            <path d="M195,117 L23,117 L23,55 L195,55 L195,117 Z M193,57 L25,57 L25,115 L193,115 L193,57 Z" id="Rectangle" fill="#757F97"></path>
            <path d="M218,216 L0,216 L0,31 L218,31 L218,216 Z M216,33 L2,33 L2,214 L216,214 L216,33 Z" id="Rectangle-Copy-2" fill="#757F97"></path>
            <path d="M195,191 L23,191 L23,129 L195,129 L195,191 Z M193,131 L25,131 L25,189 L193,189 L193,131 Z" id="Rectangle-Copy" fill="#757F97"></path>
        </g>
        <path d="M239.47,163 L239.47,151.02 L234.87,151.02 L234.87,148.9 L246.65,148.9 L246.65,151.02 L242.05,151.02 L242.05,163 L239.47,163 Z M253.87,152.98 C255.043339,152.98 255.916664,153.31333 256.49,153.98 C257.063336,154.64667 257.35,155.653327 257.35,157 L257.35,163 L254.85,163 L254.85,157.14 C254.85,156.379996 254.706668,155.826668 254.42,155.48 C254.133332,155.133332 253.683336,154.96 253.07,154.96 C252.349996,154.96 251.773336,155.186664 251.34,155.64 C250.906665,156.093336 250.69,156.699996 250.69,157.46 L250.69,163 L248.19,163 L248.19,148.9 L250.69,148.9 L250.69,154.58 C251.023335,154.059997 251.466664,153.663335 252.02,153.39 C252.573336,153.116665 253.19,152.98 253.87,152.98 Z M259.89,163 L259.89,153.22 L262.39,153.22 L262.39,163 L259.89,163 Z M259.75,148.68 L262.51,148.68 L262.51,151.14 L259.75,151.14 L259.75,148.68 Z M268.57,163.16 C267.703329,163.16 266.90667,163.053334 266.18,162.84 C265.45333,162.626666 264.836669,162.320002 264.33,161.92 L265.03,160.18 C266.070005,160.940004 267.263327,161.32 268.61,161.32 C269.183336,161.32 269.619999,161.226668 269.92,161.04 C270.220001,160.853332 270.37,160.586668 270.37,160.24 C270.37,159.946665 270.266668,159.720001 270.06,159.56 C269.853332,159.399999 269.483336,159.253334 268.95,159.12 L267.35,158.76 C266.443329,158.559999 265.770002,158.233336 265.33,157.78 C264.889998,157.326664 264.67,156.740004 264.67,156.02 C264.67,155.419997 264.839998,154.890002 265.18,154.43 C265.520002,153.969998 265.99333,153.613335 266.6,153.36 C267.20667,153.106665 267.909996,152.98 268.71,152.98 C269.403337,152.98 270.07333,153.086666 270.72,153.3 C271.36667,153.513334 271.936664,153.813331 272.43,154.2 L271.73,155.9 C270.716662,155.166663 269.703338,154.8 268.69,154.8 C268.143331,154.8 267.716668,154.899999 267.41,155.1 C267.103332,155.300001 266.95,155.579998 266.95,155.94 C266.95,156.206668 267.046666,156.426666 267.24,156.6 C267.433334,156.773334 267.743331,156.906666 268.17,157 L269.83,157.38 C270.803338,157.593334 271.516664,157.929998 271.97,158.39 C272.423336,158.850002 272.65,159.45333 272.65,160.2 C272.65,161.106671 272.283337,161.826664 271.55,162.36 C270.816663,162.893336 269.82334,163.16 268.57,163.16 Z M285.77,152.98 C286.943339,152.98 287.816664,153.31333 288.39,153.98 C288.963336,154.64667 289.25,155.653327 289.25,157 L289.25,163 L286.75,163 L286.75,157.14 C286.75,156.379996 286.606668,155.826668 286.32,155.48 C286.033332,155.133332 285.583336,154.96 284.97,154.96 C284.249996,154.96 283.673336,155.186664 283.24,155.64 C282.806665,156.093336 282.59,156.699996 282.59,157.46 L282.59,163 L280.09,163 L280.09,153.22 L282.53,153.22 L282.53,154.68 C282.863335,154.133331 283.309997,153.713335 283.87,153.42 C284.430003,153.126665 285.06333,152.98 285.77,152.98 Z M296.25,163.16 C295.25,163.16 294.373337,162.953335 293.62,162.54 C292.866663,162.126665 292.283335,161.533337 291.87,160.76 C291.456665,159.986663 291.25,159.086672 291.25,158.06 C291.25,157.033328 291.456665,156.136671 291.87,155.37 C292.283335,154.60333 292.866663,154.013335 293.62,153.6 C294.373337,153.186665 295.25,152.98 296.25,152.98 C297.25,152.98 298.126663,153.186665 298.88,153.6 C299.633337,154.013335 300.213331,154.60333 300.62,155.37 C301.026669,156.136671 301.23,157.033328 301.23,158.06 C301.23,159.086672 301.026669,159.986663 300.62,160.76 C300.213331,161.533337 299.633337,162.126665 298.88,162.54 C298.126663,162.953335 297.25,163.16 296.25,163.16 Z M296.23,161.22 C297.043337,161.22 297.663331,160.953336 298.09,160.42 C298.516669,159.886664 298.73,159.100005 298.73,158.06 C298.73,157.033328 298.516669,156.250003 298.09,155.71 C297.663331,155.169997 297.050004,154.9 296.25,154.9 C295.449996,154.9 294.833335,155.169997 294.4,155.71 C293.966664,156.250003 293.75,157.033328 293.75,158.06 C293.75,159.100005 293.963331,159.886664 294.39,160.42 C294.816669,160.953336 295.429996,161.22 296.23,161.22 Z M312.73,148.9 L312.73,163 L310.25,163 L310.25,161.42 C309.956665,161.966669 309.533336,162.393332 308.98,162.7 C308.426664,163.006668 307.79667,163.16 307.09,163.16 C306.25,163.16 305.500003,162.946669 304.84,162.52 C304.179997,162.093331 303.666669,161.490004 303.3,160.71 C302.933332,159.929996 302.75,159.033338 302.75,158.02 C302.75,157.006662 302.933332,156.120004 303.3,155.36 C303.666669,154.599996 304.176663,154.013335 304.83,153.6 C305.483337,153.186665 306.236662,152.98 307.09,152.98 C307.79667,152.98 308.423331,153.126665 308.97,153.42 C309.516669,153.713335 309.936665,154.126664 310.23,154.66 L310.23,148.9 L312.73,148.9 Z M307.75,161.22 C308.550004,161.22 309.166665,160.946669 309.6,160.4 C310.033336,159.853331 310.25,159.073338 310.25,158.06 C310.25,157.046662 310.033336,156.270003 309.6,155.73 C309.166665,155.189997 308.556671,154.92 307.77,154.92 C306.969996,154.92 306.350002,155.186664 305.91,155.72 C305.469998,156.253336 305.25,157.019995 305.25,158.02 C305.25,159.033338 305.469998,159.819997 305.91,160.38 C306.350002,160.940003 306.963329,161.22 307.75,161.22 Z M323.89,158.56 L317.23,158.56 C317.31,159.466671 317.583331,160.139998 318.05,160.58 C318.516669,161.020002 319.183329,161.24 320.05,161.24 C321.130005,161.24 322.116662,160.893337 323.01,160.2 L323.73,161.92 C323.276664,162.293335 322.70667,162.593332 322.02,162.82 C321.33333,163.046668 320.643337,163.16 319.95,163.16 C318.349992,163.16 317.086671,162.706671 316.16,161.8 C315.233329,160.893329 314.77,159.653341 314.77,158.08 C314.77,157.079995 314.969998,156.193337 315.37,155.42 C315.77,154.646663 316.33333,154.046669 317.06,153.62 C317.78667,153.193331 318.609995,152.98 319.53,152.98 C320.876673,152.98 321.939996,153.413329 322.72,154.28 C323.500004,155.146671 323.89,156.339992 323.89,157.86 L323.89,158.56 Z M319.59,154.74 C318.92333,154.74 318.386669,154.953331 317.98,155.38 C317.573331,155.806669 317.323334,156.419996 317.23,157.22 L321.75,157.22 C321.723333,156.406663 321.523335,155.790002 321.15,155.37 C320.776665,154.949998 320.25667,154.74 319.59,154.74 Z M334.73,166.9 C333.756662,165.246658 333.07,163.700007 332.67,162.26 C332.269998,160.819993 332.07,159.313341 332.07,157.74 C332.07,156.166659 332.269998,154.660007 332.67,153.22 C333.07,151.779993 333.756662,150.233342 334.73,148.58 L336.39,149.26 C335.736663,150.873341 335.280001,152.339993 335.02,153.66 C334.759999,154.980007 334.63,156.339993 334.63,157.74 C334.63,159.140007 334.759999,160.499993 335.02,161.82 C335.280001,163.140007 335.736663,164.606659 336.39,166.22 L334.73,166.9 Z M344.07,152.98 C345.243339,152.98 346.116664,153.31333 346.69,153.98 C347.263336,154.64667 347.55,155.653327 347.55,157 L347.55,163 L345.05,163 L345.05,157.14 C345.05,156.379996 344.906668,155.826668 344.62,155.48 C344.333332,155.133332 343.883336,154.96 343.27,154.96 C342.549996,154.96 341.973336,155.186664 341.54,155.64 C341.106665,156.093336 340.89,156.699996 340.89,157.46 L340.89,163 L338.39,163 L338.39,153.22 L340.83,153.22 L340.83,154.68 C341.163335,154.133331 341.609997,153.713335 342.17,153.42 C342.730003,153.126665 343.36333,152.98 344.07,152.98 Z M354.55,163.16 C353.55,163.16 352.673337,162.953335 351.92,162.54 C351.166663,162.126665 350.583335,161.533337 350.17,160.76 C349.756665,159.986663 349.55,159.086672 349.55,158.06 C349.55,157.033328 349.756665,156.136671 350.17,155.37 C350.583335,154.60333 351.166663,154.013335 351.92,153.6 C352.673337,153.186665 353.55,152.98 354.55,152.98 C355.55,152.98 356.426663,153.186665 357.18,153.6 C357.933337,154.013335 358.513331,154.60333 358.92,155.37 C359.326669,156.136671 359.53,157.033328 359.53,158.06 C359.53,159.086672 359.326669,159.986663 358.92,160.76 C358.513331,161.533337 357.933337,162.126665 357.18,162.54 C356.426663,162.953335 355.55,163.16 354.55,163.16 Z M354.53,161.22 C355.343337,161.22 355.963331,160.953336 356.39,160.42 C356.816669,159.886664 357.03,159.100005 357.03,158.06 C357.03,157.033328 356.816669,156.250003 356.39,155.71 C355.963331,155.169997 355.350004,154.9 354.55,154.9 C353.749996,154.9 353.133336,155.169997 352.7,155.71 C352.266665,156.250003 352.05,157.033328 352.05,158.06 C352.05,159.100005 352.263331,159.886664 352.69,160.42 C353.116669,160.953336 353.729996,161.22 354.53,161.22 Z M371.03,148.9 L371.03,163 L368.55,163 L368.55,161.42 C368.256665,161.966669 367.833336,162.393332 367.28,162.7 C366.726664,163.006668 366.09667,163.16 365.39,163.16 C364.55,163.16 363.800003,162.946669 363.14,162.52 C362.479997,162.093331 361.966669,161.490004 361.6,160.71 C361.233332,159.929996 361.05,159.033338 361.05,158.02 C361.05,157.006662 361.233332,156.120004 361.6,155.36 C361.966669,154.599996 362.476663,154.013335 363.13,153.6 C363.783337,153.186665 364.536662,152.98 365.39,152.98 C366.09667,152.98 366.723331,153.126665 367.27,153.42 C367.816669,153.713335 368.236665,154.126664 368.53,154.66 L368.53,148.9 L371.03,148.9 Z M366.05,161.22 C366.850004,161.22 367.466665,160.946669 367.9,160.4 C368.333335,159.853331 368.55,159.073338 368.55,158.06 C368.55,157.046662 368.333335,156.270003 367.9,155.73 C367.466665,155.189997 366.856671,154.92 366.07,154.92 C365.269996,154.92 364.650002,155.186664 364.21,155.72 C363.769998,156.253336 363.55,157.019995 363.55,158.02 C363.55,159.033338 363.769998,159.819997 364.21,160.38 C364.650002,160.940003 365.263329,161.22 366.05,161.22 Z M382.19,158.56 L375.53,158.56 C375.61,159.466671 375.883331,160.139998 376.35,160.58 C376.816669,161.020002 377.483329,161.24 378.35,161.24 C379.430005,161.24 380.416662,160.893337 381.31,160.2 L382.03,161.92 C381.576664,162.293335 381.00667,162.593332 380.32,162.82 C379.63333,163.046668 378.943337,163.16 378.25,163.16 C376.649992,163.16 375.386671,162.706671 374.46,161.8 C373.533329,160.893329 373.07,159.653341 373.07,158.08 C373.07,157.079995 373.269998,156.193337 373.67,155.42 C374.07,154.646663 374.63333,154.046669 375.36,153.62 C376.08667,153.193331 376.909995,152.98 377.83,152.98 C379.176673,152.98 380.239996,153.413329 381.02,154.28 C381.800004,155.146671 382.19,156.339992 382.19,157.86 L382.19,158.56 Z M377.89,154.74 C377.22333,154.74 376.686669,154.953331 376.28,155.38 C375.873331,155.806669 375.623334,156.419996 375.53,157.22 L380.05,157.22 C380.023333,156.406663 379.823335,155.790002 379.45,155.37 C379.076665,154.949998 378.55667,154.74 377.89,154.74 Z M383.17,164.5 L383.17,163 L392.69,163 L392.69,164.5 L383.17,164.5 Z M398.43,152.98 C399.80334,152.98 400.82333,153.31333 401.49,153.98 C402.15667,154.64667 402.49,155.673326 402.49,157.06 L402.49,163 L400.11,163 L400.11,161.5 C399.883332,162.020003 399.526669,162.426665 399.04,162.72 C398.553331,163.013335 397.990003,163.16 397.35,163.16 C396.696663,163.16 396.103336,163.026668 395.57,162.76 C395.036664,162.493332 394.616668,162.126669 394.31,161.66 C394.003332,161.193331 393.85,160.673336 393.85,160.1 C393.85,159.379996 394.033332,158.813335 394.4,158.4 C394.766669,157.986665 395.363329,157.686668 396.19,157.5 C396.947782,157.328888 397.968837,157.236204 399.253193,157.221944 L400.11,157.22 L400.11,156.76 C400.11,156.09333 399.966668,155.613335 399.68,155.32 C399.393332,155.026665 398.91667,154.88 398.25,154.88 C397.729997,154.88 397.186669,154.969999 396.62,155.15 C396.053331,155.330001 395.496669,155.579998 394.95,155.9 L394.25,154.18 C394.796669,153.833332 395.456663,153.546668 396.23,153.32 C397.003337,153.093332 397.736663,152.98 398.43,152.98 Z M397.85,161.36 C398.51667,161.36 399.059998,161.136669 399.48,160.69 C399.900002,160.243331 400.11,159.66667 400.11,158.96 L400.11,158.54 L399.75,158.54 C398.856662,158.54 398.163336,158.58 397.67,158.66 C397.176664,158.74 396.823334,158.879999 396.61,159.08 C396.396666,159.280001 396.29,159.553332 396.29,159.9 C396.29,160.326669 396.436665,160.676665 396.73,160.95 C397.023335,161.223335 397.396664,161.36 397.85,161.36 Z M404.43,166.22 C405.083337,164.606659 405.539999,163.140007 405.8,161.82 C406.060001,160.499993 406.19,159.140007 406.19,157.74 C406.19,156.339993 406.060001,154.980007 405.8,153.66 C405.539999,152.339993 405.083337,150.873341 404.43,149.26 L406.09,148.58 C407.063338,150.233342 407.749998,151.779993 408.15,153.22 C408.550002,154.660007 408.75,156.166659 408.75,157.74 C408.75,159.313341 408.550002,160.819993 408.15,162.26 C407.749998,163.700007 407.063338,165.246658 406.09,166.9 L404.43,166.22 Z M421.95,163.16 C420.923328,163.16 420.033337,162.953335 419.28,162.54 C418.526663,162.126665 417.95,161.540004 417.55,160.78 C417.149998,160.019996 416.95,159.133338 416.95,158.12 C416.95,157.106662 417.159998,156.210004 417.58,155.43 C418.000002,154.649996 418.596663,154.046669 419.37,153.62 C420.143337,153.193331 421.036662,152.98 422.05,152.98 C422.743337,152.98 423.419997,153.089999 424.08,153.31 C424.740003,153.530001 425.269998,153.826665 425.67,154.2 L424.95,155.96 C424.536665,155.626665 424.100002,155.373334 423.64,155.2 C423.179998,155.026666 422.723336,154.94 422.27,154.94 C421.403329,154.94 420.730002,155.209997 420.25,155.75 C419.769998,156.290003 419.53,157.066662 419.53,158.08 C419.53,159.080005 419.769998,159.849997 420.25,160.39 C420.730002,160.930003 421.403329,161.2 422.27,161.2 C422.723336,161.2 423.179998,161.113334 423.64,160.94 C424.100002,160.766666 424.536665,160.513335 424.95,160.18 L425.67,161.92 C425.243331,162.306669 424.69667,162.609999 424.03,162.83 C423.36333,163.050001 422.670004,163.16 421.95,163.16 Z M431.71,163.16 C430.71,163.16 429.833337,162.953335 429.08,162.54 C428.326663,162.126665 427.743335,161.533337 427.33,160.76 C426.916665,159.986663 426.71,159.086672 426.71,158.06 C426.71,157.033328 426.916665,156.136671 427.33,155.37 C427.743335,154.60333 428.326663,154.013335 429.08,153.6 C429.833337,153.186665 430.71,152.98 431.71,152.98 C432.71,152.98 433.586663,153.186665 434.34,153.6 C435.093337,154.013335 435.673331,154.60333 436.08,155.37 C436.486669,156.136671 436.69,157.033328 436.69,158.06 C436.69,159.086672 436.486669,159.986663 436.08,160.76 C435.673331,161.533337 435.093337,162.126665 434.34,162.54 C433.586663,162.953335 432.71,163.16 431.71,163.16 Z M431.69,161.22 C432.503337,161.22 433.123331,160.953336 433.55,160.42 C433.976669,159.886664 434.19,159.100005 434.19,158.06 C434.19,157.033328 433.976669,156.250003 433.55,155.71 C433.123331,155.169997 432.510004,154.9 431.71,154.9 C430.909996,154.9 430.293336,155.169997 429.86,155.71 C429.426665,156.250003 429.21,157.033328 429.21,158.06 C429.21,159.100005 429.423331,159.886664 429.85,160.42 C430.276669,160.953336 430.889996,161.22 431.69,161.22 Z M444.43,152.98 C445.603339,152.98 446.476664,153.31333 447.05,153.98 C447.623336,154.64667 447.91,155.653327 447.91,157 L447.91,163 L445.41,163 L445.41,157.14 C445.41,156.379996 445.266668,155.826668 444.98,155.48 C444.693332,155.133332 444.243336,154.96 443.63,154.96 C442.909996,154.96 442.333336,155.186664 441.9,155.64 C441.466665,156.093336 441.25,156.699996 441.25,157.46 L441.25,163 L438.75,163 L438.75,153.22 L441.19,153.22 L441.19,154.68 C441.523335,154.133331 441.969997,153.713335 442.53,153.42 C443.090003,153.126665 443.72333,152.98 444.43,152.98 Z M455.45,161.28 C455.743335,161.28 456.049998,161.26 456.37,161.22 L456.25,163.08 C455.849998,163.12 455.483335,163.14 455.15,163.14 C453.77666,163.14 452.763337,162.823337 452.11,162.19 C451.456663,161.556664 451.13,160.61334 451.13,159.36 L451.13,155.1 L449.25,155.1 L449.25,153.22 L451.13,153.22 L451.13,150.3 L453.63,150.3 L453.63,153.22 L456.21,153.22 L456.21,155.1 L453.63,155.1 L453.63,159.32 C453.63,160.626673 454.236661,161.28 455.45,161.28 Z M462.03,152.98 C463.40334,152.98 464.42333,153.31333 465.09,153.98 C465.75667,154.64667 466.09,155.673326 466.09,157.06 L466.09,163 L463.71,163 L463.71,161.5 C463.483332,162.020003 463.126669,162.426665 462.64,162.72 C462.153331,163.013335 461.590003,163.16 460.95,163.16 C460.296663,163.16 459.703336,163.026668 459.17,162.76 C458.636664,162.493332 458.216668,162.126669 457.91,161.66 C457.603332,161.193331 457.45,160.673336 457.45,160.1 C457.45,159.379996 457.633332,158.813335 458,158.4 C458.366669,157.986665 458.963329,157.686668 459.79,157.5 C460.547782,157.328888 461.568837,157.236204 462.853193,157.221944 L463.71,157.22 L463.71,156.76 C463.71,156.09333 463.566668,155.613335 463.28,155.32 C462.993332,155.026665 462.51667,154.88 461.85,154.88 C461.329997,154.88 460.78667,154.969999 460.22,155.15 C459.653331,155.330001 459.096669,155.579998 458.55,155.9 L457.85,154.18 C458.396669,153.833332 459.056663,153.546668 459.83,153.32 C460.603337,153.093332 461.336663,152.98 462.03,152.98 Z M461.45,161.36 C462.11667,161.36 462.659998,161.136669 463.08,160.69 C463.500002,160.243331 463.71,159.66667 463.71,158.96 L463.71,158.54 L463.35,158.54 C462.456662,158.54 461.763336,158.58 461.27,158.66 C460.776664,158.74 460.423334,158.879999 460.21,159.08 C459.996666,159.280001 459.89,159.553332 459.89,159.9 C459.89,160.326669 460.036665,160.676665 460.33,160.95 C460.623335,161.223335 460.996664,161.36 461.45,161.36 Z M468.63,163 L468.63,153.22 L471.13,153.22 L471.13,163 L468.63,163 Z M468.49,148.68 L471.25,148.68 L471.25,151.14 L468.49,151.14 L468.49,148.68 Z M479.39,152.98 C480.563339,152.98 481.436664,153.31333 482.01,153.98 C482.583336,154.64667 482.87,155.653327 482.87,157 L482.87,163 L480.37,163 L480.37,157.14 C480.37,156.379996 480.226668,155.826668 479.94,155.48 C479.653332,155.133332 479.203336,154.96 478.59,154.96 C477.869996,154.96 477.293336,155.186664 476.86,155.64 C476.426665,156.093336 476.21,156.699996 476.21,157.46 L476.21,163 L473.71,163 L473.71,153.22 L476.15,153.22 L476.15,154.68 C476.483335,154.133331 476.929997,153.713335 477.49,153.42 C478.050003,153.126665 478.68333,152.98 479.39,152.98 Z M489.01,163.16 C488.143329,163.16 487.34667,163.053334 486.62,162.84 C485.89333,162.626666 485.276669,162.320002 484.77,161.92 L485.47,160.18 C486.510005,160.940004 487.703327,161.32 489.05,161.32 C489.623336,161.32 490.059999,161.226668 490.36,161.04 C490.660002,160.853332 490.81,160.586668 490.81,160.24 C490.81,159.946665 490.706668,159.720001 490.5,159.56 C490.293332,159.399999 489.923336,159.253334 489.39,159.12 L487.79,158.76 C486.883329,158.559999 486.210002,158.233336 485.77,157.78 C485.329998,157.326664 485.11,156.740004 485.11,156.02 C485.11,155.419997 485.279998,154.890002 485.62,154.43 C485.960002,153.969998 486.43333,153.613335 487.04,153.36 C487.64667,153.106665 488.349996,152.98 489.15,152.98 C489.843337,152.98 490.51333,153.086666 491.16,153.3 C491.80667,153.513334 492.376664,153.813331 492.87,154.2 L492.17,155.9 C491.156662,155.166663 490.143338,154.8 489.13,154.8 C488.583331,154.8 488.156668,154.899999 487.85,155.1 C487.543332,155.300001 487.39,155.579998 487.39,155.94 C487.39,156.206668 487.486666,156.426666 487.68,156.6 C487.873334,156.773334 488.183331,156.906666 488.61,157 L490.27,157.38 C491.243338,157.593334 491.956664,157.929998 492.41,158.39 C492.863336,158.850002 493.09,159.45333 493.09,160.2 C493.09,161.106671 492.723337,161.826664 491.99,162.36 C491.256663,162.893336 490.26334,163.16 489.01,163.16 Z M504.73,152.98 C506.10334,152.98 507.12333,153.31333 507.79,153.98 C508.45667,154.64667 508.79,155.673326 508.79,157.06 L508.79,163 L506.41,163 L506.41,161.5 C506.183332,162.020003 505.826669,162.426665 505.34,162.72 C504.853331,163.013335 504.290003,163.16 503.65,163.16 C502.996663,163.16 502.403336,163.026668 501.87,162.76 C501.336664,162.493332 500.916668,162.126669 500.61,161.66 C500.303332,161.193331 500.15,160.673336 500.15,160.1 C500.15,159.379996 500.333331,158.813335 500.7,158.4 C501.066668,157.986665 501.663329,157.686668 502.49,157.5 C503.247782,157.328888 504.268837,157.236204 505.553193,157.221944 L506.41,157.22 L506.41,156.76 C506.41,156.09333 506.266668,155.613335 505.98,155.32 C505.693332,155.026665 505.21667,154.88 504.55,154.88 C504.029997,154.88 503.486669,154.969999 502.92,155.15 C502.35333,155.330001 501.796669,155.579998 501.25,155.9 L500.55,154.18 C501.096669,153.833332 501.756663,153.546668 502.53,153.32 C503.303337,153.093332 504.036663,152.98 504.73,152.98 Z M504.15,161.36 C504.81667,161.36 505.359998,161.136669 505.78,160.69 C506.200002,160.243331 506.41,159.66667 506.41,158.96 L506.41,158.54 L506.05,158.54 C505.156662,158.54 504.463336,158.58 503.97,158.66 C503.476664,158.74 503.123334,158.879999 502.91,159.08 C502.696666,159.280001 502.59,159.553332 502.59,159.9 C502.59,160.326669 502.736665,160.676665 503.03,160.95 C503.323335,161.223335 503.696664,161.36 504.15,161.36 Z M522.37,152.98 C523.210004,152.98 523.959997,153.193331 524.62,153.62 C525.280003,154.046669 525.793332,154.649996 526.16,155.43 C526.526669,156.210004 526.71,157.106662 526.71,158.12 C526.71,159.133338 526.526669,160.019996 526.16,160.78 C525.793332,161.540004 525.283337,162.126665 524.63,162.54 C523.976663,162.953335 523.223338,163.16 522.37,163.16 C521.676663,163.16 521.056669,163.013335 520.51,162.72 C519.963331,162.426665 519.543335,162.020003 519.25,161.5 L519.25,166.6 L516.75,166.6 L516.75,153.22 L519.21,153.22 L519.21,154.7 C519.503335,154.153331 519.926664,153.730002 520.48,153.43 C521.033336,153.129999 521.66333,152.98 522.37,152.98 Z M521.71,161.22 C522.496671,161.22 523.109998,160.950003 523.55,160.41 C523.990002,159.869997 524.21,159.106672 524.21,158.12 C524.21,157.106662 523.990002,156.320003 523.55,155.76 C523.109998,155.199997 522.496671,154.92 521.71,154.92 C520.909996,154.92 520.293336,155.193331 519.86,155.74 C519.426665,156.286669 519.21,157.066662 519.21,158.08 C519.21,159.080005 519.426665,159.853331 519.86,160.4 C520.293336,160.946669 520.909996,161.22 521.71,161.22 Z M528.77,163 L528.77,153.22 L531.27,153.22 L531.27,163 L528.77,163 Z M528.63,148.68 L531.39,148.68 L531.39,151.14 L528.63,151.14 L528.63,148.68 Z M542.43,158.56 L535.77,158.56 C535.85,159.466671 536.123331,160.139998 536.59,160.58 C537.056669,161.020002 537.723329,161.24 538.59,161.24 C539.670005,161.24 540.656662,160.893337 541.55,160.2 L542.27,161.92 C541.816664,162.293335 541.24667,162.593332 540.56,162.82 C539.87333,163.046668 539.183337,163.16 538.49,163.16 C536.889992,163.16 535.626671,162.706671 534.7,161.8 C533.773329,160.893329 533.31,159.653341 533.31,158.08 C533.31,157.079995 533.509998,156.193337 533.91,155.42 C534.31,154.646663 534.87333,154.046669 535.6,153.62 C536.32667,153.193331 537.149995,152.98 538.07,152.98 C539.416673,152.98 540.479996,153.413329 541.26,154.28 C542.040004,155.146671 542.43,156.339992 542.43,157.86 L542.43,158.56 Z M538.13,154.74 C537.46333,154.74 536.926669,154.953331 536.52,155.38 C536.113331,155.806669 535.863334,156.419996 535.77,157.22 L540.29,157.22 C540.263333,156.406663 540.063335,155.790002 539.69,155.37 C539.316665,154.949998 538.79667,154.74 538.13,154.74 Z M548.93,163.16 C547.903328,163.16 547.013337,162.953335 546.26,162.54 C545.506663,162.126665 544.93,161.540004 544.53,160.78 C544.129998,160.019996 543.93,159.133338 543.93,158.12 C543.93,157.106662 544.139998,156.210004 544.56,155.43 C544.980002,154.649996 545.576663,154.046669 546.35,153.62 C547.123337,153.193331 548.016662,152.98 549.03,152.98 C549.723337,152.98 550.399997,153.089999 551.06,153.31 C551.720003,153.530001 552.249998,153.826665 552.65,154.2 L551.93,155.96 C551.516665,155.626665 551.080002,155.373334 550.62,155.2 C550.159998,155.026666 549.703336,154.94 549.25,154.94 C548.383329,154.94 547.710002,155.209997 547.23,155.75 C546.749998,156.290003 546.51,157.066662 546.51,158.08 C546.51,159.080005 546.749998,159.849997 547.23,160.39 C547.710002,160.930003 548.383329,161.2 549.25,161.2 C549.703336,161.2 550.159998,161.113334 550.62,160.94 C551.080002,160.766666 551.516665,160.513335 551.93,160.18 L552.65,161.92 C552.223331,162.306669 551.67667,162.609999 551.01,162.83 C550.34333,163.050001 549.650004,163.16 548.93,163.16 Z M562.81,158.56 L556.15,158.56 C556.23,159.466671 556.503331,160.139998 556.97,160.58 C557.436669,161.020002 558.103329,161.24 558.97,161.24 C560.050005,161.24 561.036662,160.893337 561.93,160.2 L562.65,161.92 C562.196664,162.293335 561.62667,162.593332 560.94,162.82 C560.25333,163.046668 559.563337,163.16 558.87,163.16 C557.269992,163.16 556.006671,162.706671 555.08,161.8 C554.153329,160.893329 553.69,159.653341 553.69,158.08 C553.69,157.079995 553.889998,156.193337 554.29,155.42 C554.69,154.646663 555.25333,154.046669 555.98,153.62 C556.70667,153.193331 557.529995,152.98 558.45,152.98 C559.796673,152.98 560.859996,153.413329 561.64,154.28 C562.420004,155.146671 562.81,156.339992 562.81,157.86 L562.81,158.56 Z M558.51,154.74 C557.84333,154.74 557.306669,154.953331 556.9,155.38 C556.493331,155.806669 556.243334,156.419996 556.15,157.22 L560.67,157.22 C560.643333,156.406663 560.443335,155.790002 560.07,155.37 C559.696665,154.949998 559.17667,154.74 558.51,154.74 Z M574.73,163.16 C573.73,163.16 572.853337,162.953335 572.1,162.54 C571.346663,162.126665 570.763335,161.533337 570.35,160.76 C569.936665,159.986663 569.73,159.086672 569.73,158.06 C569.73,157.033328 569.936665,156.136671 570.35,155.37 C570.763335,154.60333 571.346663,154.013335 572.1,153.6 C572.853337,153.186665 573.73,152.98 574.73,152.98 C575.73,152.98 576.606663,153.186665 577.36,153.6 C578.113337,154.013335 578.693331,154.60333 579.1,155.37 C579.506669,156.136671 579.71,157.033328 579.71,158.06 C579.71,159.086672 579.506669,159.986663 579.1,160.76 C578.693331,161.533337 578.113337,162.126665 577.36,162.54 C576.606663,162.953335 575.73,163.16 574.73,163.16 Z M574.71,161.22 C575.523337,161.22 576.143331,160.953336 576.57,160.42 C576.996669,159.886664 577.21,159.100005 577.21,158.06 C577.21,157.033328 576.996669,156.250003 576.57,155.71 C576.143331,155.169997 575.530004,154.9 574.73,154.9 C573.929996,154.9 573.313335,155.169997 572.88,155.71 C572.446664,156.250003 572.23,157.033328 572.23,158.06 C572.23,159.100005 572.443331,159.886664 572.87,160.42 C573.296669,160.953336 573.909996,161.22 574.71,161.22 Z M584.95,153.22 L587.53,153.22 L587.53,155.1 L584.95,155.1 L584.95,163 L582.45,163 L582.45,155.1 L580.57,155.1 L580.57,153.22 L582.45,153.22 C582.45,151.82 582.81333,150.76667 583.54,150.06 C584.218226,149.400441 585.247786,149.013837 586.62871,148.900178 L587.91,148.82 L588.07,150.68 L587.13,150.72 C586.343329,150.76 585.783335,150.936665 585.45,151.25 C585.116665,151.563335 584.95,152.066663 584.95,152.76 L584.95,153.22 Z M603.79,148.9 L603.79,163 L601.31,163 L601.31,161.42 C601.016665,161.966669 600.593336,162.393332 600.04,162.7 C599.486664,163.006668 598.85667,163.16 598.15,163.16 C597.31,163.16 596.560003,162.946669 595.9,162.52 C595.239997,162.093331 594.726669,161.490004 594.36,160.71 C593.993332,159.929996 593.81,159.033338 593.81,158.02 C593.81,157.006662 593.993332,156.120004 594.36,155.36 C594.726669,154.599996 595.236663,154.013335 595.89,153.6 C596.543337,153.186665 597.296662,152.98 598.15,152.98 C598.85667,152.98 599.483331,153.126665 600.03,153.42 C600.576669,153.713335 600.996665,154.126664 601.29,154.66 L601.29,148.9 L603.79,148.9 Z M598.81,161.22 C599.610004,161.22 600.226665,160.946669 600.66,160.4 C601.093336,159.853331 601.31,159.073338 601.31,158.06 C601.31,157.046662 601.093336,156.270003 600.66,155.73 C600.226665,155.189997 599.616671,154.92 598.83,154.92 C598.029996,154.92 597.410002,155.186664 596.97,155.72 C596.529998,156.253336 596.31,157.019995 596.31,158.02 C596.31,159.033338 596.529998,159.819997 596.97,160.38 C597.410002,160.940003 598.023329,161.22 598.81,161.22 Z M610.57,152.98 C611.94334,152.98 612.96333,153.31333 613.63,153.98 C614.29667,154.64667 614.63,155.673326 614.63,157.06 L614.63,163 L612.25,163 L612.25,161.5 C612.023332,162.020003 611.666669,162.426665 611.18,162.72 C610.693331,163.013335 610.130003,163.16 609.49,163.16 C608.836663,163.16 608.243336,163.026668 607.71,162.76 C607.176664,162.493332 606.756668,162.126669 606.45,161.66 C606.143332,161.193331 605.99,160.673336 605.99,160.1 C605.99,159.379996 606.173332,158.813335 606.54,158.4 C606.906669,157.986665 607.503329,157.686668 608.33,157.5 C609.087782,157.328888 610.108837,157.236204 611.393193,157.221944 L612.25,157.22 L612.25,156.76 C612.25,156.09333 612.106668,155.613335 611.82,155.32 C611.533332,155.026665 611.05667,154.88 610.39,154.88 C609.869997,154.88 609.32667,154.969999 608.76,155.15 C608.193331,155.330001 607.636669,155.579998 607.09,155.9 L606.39,154.18 C606.936669,153.833332 607.596663,153.546668 608.37,153.32 C609.143337,153.093332 609.876663,152.98 610.57,152.98 Z M609.99,161.36 C610.65667,161.36 611.199998,161.136669 611.62,160.69 C612.040002,160.243331 612.25,159.66667 612.25,158.96 L612.25,158.54 L611.89,158.54 C610.996662,158.54 610.303336,158.58 609.81,158.66 C609.316664,158.74 608.963334,158.879999 608.75,159.08 C608.536666,159.280001 608.43,159.553332 608.43,159.9 C608.43,160.326669 608.576665,160.676665 608.87,160.95 C609.163335,161.223335 609.536664,161.36 609.99,161.36 Z M622.17,161.28 C622.463335,161.28 622.769998,161.26 623.09,161.22 L622.97,163.08 C622.569998,163.12 622.203335,163.14 621.87,163.14 C620.49666,163.14 619.483337,162.823337 618.83,162.19 C618.176663,161.556664 617.85,160.61334 617.85,159.36 L617.85,155.1 L615.97,155.1 L615.97,153.22 L617.85,153.22 L617.85,150.3 L620.35,150.3 L620.35,153.22 L622.93,153.22 L622.93,155.1 L620.35,155.1 L620.35,159.32 C620.35,160.626673 620.956661,161.28 622.17,161.28 Z M628.75,152.98 C630.12334,152.98 631.14333,153.31333 631.81,153.98 C632.47667,154.64667 632.81,155.673326 632.81,157.06 L632.81,163 L630.43,163 L630.43,161.5 C630.203332,162.020003 629.846669,162.426665 629.36,162.72 C628.873331,163.013335 628.310003,163.16 627.67,163.16 C627.016663,163.16 626.423336,163.026668 625.89,162.76 C625.356664,162.493332 624.936668,162.126669 624.63,161.66 C624.323332,161.193331 624.17,160.673336 624.17,160.1 C624.17,159.379996 624.353332,158.813335 624.72,158.4 C625.086669,157.986665 625.683329,157.686668 626.51,157.5 C627.267782,157.328888 628.288837,157.236204 629.573193,157.221944 L630.43,157.22 L630.43,156.76 C630.43,156.09333 630.286668,155.613335 630,155.32 C629.713332,155.026665 629.23667,154.88 628.57,154.88 C628.049997,154.88 627.50667,154.969999 626.94,155.15 C626.373331,155.330001 625.816669,155.579998 625.27,155.9 L624.57,154.18 C625.116669,153.833332 625.776663,153.546668 626.55,153.32 C627.323337,153.093332 628.056663,152.98 628.75,152.98 Z M628.17,161.36 C628.83667,161.36 629.379998,161.136669 629.8,160.69 C630.220002,160.243331 630.43,159.66667 630.43,158.96 L630.43,158.54 L630.07,158.54 C629.176662,158.54 628.483336,158.58 627.99,158.66 C627.496664,158.74 627.143334,158.879999 626.93,159.08 C626.716666,159.280001 626.61,159.553332 626.61,159.9 C626.61,160.326669 626.756665,160.676665 627.05,160.95 C627.343335,161.223335 627.716664,161.36 628.17,161.36 Z M644.15,166.9 C643.176662,165.246658 642.49,163.700007 642.09,162.26 C641.689998,160.819993 641.49,159.313341 641.49,157.74 C641.49,156.166659 641.689998,154.660007 642.09,153.22 C642.49,151.779993 643.176662,150.233342 644.15,148.58 L645.81,149.26 C645.156663,150.873341 644.700001,152.339993 644.44,153.66 C644.179999,154.980007 644.05,156.339993 644.05,157.74 C644.05,159.140007 644.179999,160.499993 644.44,161.82 C644.700001,163.140007 645.156663,164.606659 645.81,166.22 L644.15,166.9 Z M652.81,161.28 C653.103335,161.28 653.409998,161.26 653.73,161.22 L653.61,163.08 C653.209998,163.12 652.843335,163.14 652.51,163.14 C651.13666,163.14 650.123337,162.823337 649.47,162.19 C648.816663,161.556664 648.49,160.61334 648.49,159.36 L648.49,155.1 L646.61,155.1 L646.61,153.22 L648.49,153.22 L648.49,150.3 L650.99,150.3 L650.99,153.22 L653.57,153.22 L653.57,155.1 L650.99,155.1 L650.99,159.32 C650.99,160.626673 651.596661,161.28 652.81,161.28 Z M660.87,152.98 C662.043339,152.98 662.916664,153.31333 663.49,153.98 C664.063336,154.64667 664.35,155.653327 664.35,157 L664.35,163 L661.85,163 L661.85,157.14 C661.85,156.379996 661.706668,155.826668 661.42,155.48 C661.133332,155.133332 660.683336,154.96 660.07,154.96 C659.349996,154.96 658.773336,155.186664 658.34,155.64 C657.906665,156.093336 657.69,156.699996 657.69,157.46 L657.69,163 L655.19,163 L655.19,148.9 L657.69,148.9 L657.69,154.58 C658.023335,154.059997 658.466664,153.663335 659.02,153.39 C659.573336,153.116665 660.19,152.98 660.87,152.98 Z M675.47,158.56 L668.81,158.56 C668.89,159.466671 669.163331,160.139998 669.63,160.58 C670.096669,161.020002 670.763329,161.24 671.63,161.24 C672.710005,161.24 673.696662,160.893337 674.59,160.2 L675.31,161.92 C674.856664,162.293335 674.28667,162.593332 673.6,162.82 C672.91333,163.046668 672.223337,163.16 671.53,163.16 C669.929992,163.16 668.666671,162.706671 667.74,161.8 C666.813329,160.893329 666.35,159.653341 666.35,158.08 C666.35,157.079995 666.549998,156.193337 666.95,155.42 C667.35,154.646663 667.91333,154.046669 668.64,153.62 C669.36667,153.193331 670.189995,152.98 671.11,152.98 C672.456673,152.98 673.519996,153.413329 674.3,154.28 C675.080004,155.146671 675.47,156.339992 675.47,157.86 L675.47,158.56 Z M671.17,154.74 C670.50333,154.74 669.966669,154.953331 669.56,155.38 C669.153331,155.806669 668.903334,156.419996 668.81,157.22 L673.33,157.22 C673.303333,156.406663 673.103335,155.790002 672.73,155.37 C672.356665,154.949998 671.83667,154.74 671.17,154.74 Z M688.61,152.98 C689.783339,152.98 690.656664,153.31333 691.23,153.98 C691.803336,154.64667 692.09,155.653327 692.09,157 L692.09,163 L689.59,163 L689.59,157.14 C689.59,156.379996 689.446668,155.826668 689.16,155.48 C688.873332,155.133332 688.423336,154.96 687.81,154.96 C687.089996,154.96 686.513336,155.186664 686.08,155.64 C685.646665,156.093336 685.43,156.699996 685.43,157.46 L685.43,163 L682.93,163 L682.93,153.22 L685.37,153.22 L685.37,154.68 C685.703335,154.133331 686.149997,153.713335 686.71,153.42 C687.270003,153.126665 687.90333,152.98 688.61,152.98 Z M703.61,153.22 L703.61,163 L701.17,163 L701.17,161.5 C700.863332,162.033336 700.450003,162.443332 699.93,162.73 C699.409997,163.016668 698.823337,163.16 698.17,163.16 C695.769988,163.16 694.57,161.813347 694.57,159.12 L694.57,153.22 L697.07,153.22 L697.07,159.14 C697.07,159.833337 697.209999,160.346665 697.49,160.68 C697.770001,161.013335 698.209997,161.18 698.81,161.18 C699.503337,161.18 700.059998,160.950002 700.48,160.49 C700.900002,160.029998 701.11,159.420004 701.11,158.66 L701.11,153.22 L703.61,153.22 Z M717.83,152.98 C718.936672,152.98 719.763331,153.309997 720.31,153.97 C720.856669,154.630003 721.13,155.639993 721.13,157 L721.13,163 L718.63,163 L718.63,157.1 C718.63,156.35333 718.503335,155.810002 718.25,155.47 C717.996665,155.129998 717.590003,154.96 717.03,154.96 C716.36333,154.96 715.843335,155.186664 715.47,155.64 C715.096665,156.093336 714.91,156.726663 714.91,157.54 L714.91,163 L712.41,163 L712.41,157.1 C712.41,156.35333 712.286668,155.810002 712.04,155.47 C711.793332,155.129998 711.383336,154.96 710.81,154.96 C710.156663,154.96 709.643335,155.186664 709.27,155.64 C708.896665,156.093336 708.71,156.726663 708.71,157.54 L708.71,163 L706.21,163 L706.21,153.22 L708.65,153.22 L708.65,154.6 C708.943335,154.066664 709.349997,153.663335 709.87,153.39 C710.390003,153.116665 710.98333,152.98 711.65,152.98 C713.130007,152.98 714.109998,153.593327 714.59,154.82 C714.896668,154.246664 715.336664,153.796668 715.91,153.47 C716.483336,153.143332 717.12333,152.98 717.83,152.98 Z M729.29,152.98 C730.143338,152.98 730.896663,153.186665 731.55,153.6 C732.203337,154.013335 732.713332,154.599996 733.08,155.36 C733.446668,156.120004 733.63,157.006662 733.63,158.02 C733.63,159.033338 733.446668,159.929996 733.08,160.71 C732.713332,161.490004 732.200003,162.093331 731.54,162.52 C730.879997,162.946669 730.130004,163.16 729.29,163.16 C728.58333,163.16 727.953336,163.006668 727.4,162.7 C726.846664,162.393332 726.423335,161.966669 726.13,161.42 L726.13,163 L723.67,163 L723.67,148.9 L726.17,148.9 L726.17,154.64 C726.463335,154.106664 726.883331,153.696668 727.43,153.41 C727.976669,153.123332 728.596663,152.98 729.29,152.98 Z M728.63,161.22 C729.416671,161.22 730.029998,160.940003 730.47,160.38 C730.910002,159.819997 731.13,159.033338 731.13,158.02 C731.13,157.019995 730.913336,156.253336 730.48,155.72 C730.046665,155.186664 729.430004,154.92 728.63,154.92 C727.829996,154.92 727.213336,155.189997 726.78,155.73 C726.346665,156.270003 726.13,157.046662 726.13,158.06 C726.13,159.073338 726.346665,159.853331 726.78,160.4 C727.213336,160.946669 727.829996,161.22 728.63,161.22 Z M744.27,158.56 L737.61,158.56 C737.69,159.466671 737.963331,160.139998 738.43,160.58 C738.896669,161.020002 739.563329,161.24 740.43,161.24 C741.510005,161.24 742.496662,160.893337 743.39,160.2 L744.11,161.92 C743.656664,162.293335 743.08667,162.593332 742.4,162.82 C741.71333,163.046668 741.023337,163.16 740.33,163.16 C738.729992,163.16 737.466671,162.706671 736.54,161.8 C735.613329,160.893329 735.15,159.653341 735.15,158.08 C735.15,157.079995 735.349998,156.193337 735.75,155.42 C736.15,154.646663 736.71333,154.046669 737.44,153.62 C738.16667,153.193331 738.989995,152.98 739.91,152.98 C741.256673,152.98 742.319996,153.413329 743.1,154.28 C743.880004,155.146671 744.27,156.339992 744.27,157.86 L744.27,158.56 Z M739.97,154.74 C739.30333,154.74 738.766669,154.953331 738.36,155.38 C737.953331,155.806669 737.703334,156.419996 737.61,157.22 L742.13,157.22 C742.103333,156.406663 741.903335,155.790002 741.53,155.37 C741.156665,154.949998 740.63667,154.74 739.97,154.74 Z M752.75,155.06 L751.29,155.2 C749.636658,155.373334 748.81,156.213326 748.81,157.72 L748.81,163 L746.31,163 L746.31,153.22 L748.69,153.22 L748.69,154.94 C749.196669,153.766661 750.243325,153.126667 751.83,153.02 L752.59,152.96 L752.75,155.06 Z M764.85,153.98 C765.730004,153.98 766.506663,154.169998 767.18,154.55 C767.853337,154.930002 768.373331,155.459997 768.74,156.14 C769.106668,156.820003 769.29,157.599996 769.29,158.48 C769.29,159.413338 769.076669,160.23333 768.65,160.94 C768.223331,161.64667 767.620004,162.193331 766.84,162.58 C766.059996,162.966669 765.143339,163.16 764.09,163.16 C763.209996,163.16 762.340004,163.010002 761.48,162.71 C760.619996,162.409999 759.910003,162.013336 759.35,161.52 L760.21,159.64 C761.490006,160.613338 762.79666,161.1 764.13,161.1 C765.010004,161.1 765.683331,160.880002 766.15,160.44 C766.616669,159.999998 766.85,159.373337 766.85,158.56 C766.85,157.773329 766.613336,157.150002 766.14,156.69 C765.666664,156.229998 765.023337,156 764.21,156 C763.663331,156 763.146669,156.103332 762.66,156.31 C762.173331,156.516668 761.736669,156.813331 761.35,157.2 L759.81,157.2 L759.81,148.9 L768.65,148.9 L768.65,150.9 L762.33,150.9 L762.33,154.7 C763.010003,154.219998 763.85,153.98 764.85,153.98 Z M770.79,166.22 C771.443337,164.606659 771.899999,163.140007 772.16,161.82 C772.420001,160.499993 772.55,159.140007 772.55,157.74 C772.55,156.339993 772.420001,154.980007 772.16,153.66 C771.899999,152.339993 771.443337,150.873341 770.79,149.26 L772.45,148.58 C773.423338,150.233342 774.109998,151.779993 774.51,153.22 C774.910002,154.660007 775.11,156.166659 775.11,157.74 C775.11,159.313341 774.910002,160.819993 774.51,162.26 C774.109998,163.700007 773.423338,165.246658 772.45,166.9 L770.79,166.22 Z M788.05,152.98 C789.42334,152.98 790.44333,153.31333 791.11,153.98 C791.77667,154.64667 792.11,155.673326 792.11,157.06 L792.11,163 L789.73,163 L789.73,161.5 C789.503332,162.020003 789.146669,162.426665 788.66,162.72 C788.173331,163.013335 787.610003,163.16 786.97,163.16 C786.316663,163.16 785.723336,163.026668 785.19,162.76 C784.656664,162.493332 784.236668,162.126669 783.93,161.66 C783.623332,161.193331 783.47,160.673336 783.47,160.1 C783.47,159.379996 783.653331,158.813335 784.02,158.4 C784.386668,157.986665 784.983329,157.686668 785.81,157.5 C786.567782,157.328888 787.588837,157.236204 788.873193,157.221944 L789.73,157.22 L789.73,156.76 C789.73,156.09333 789.586668,155.613335 789.3,155.32 C789.013332,155.026665 788.53667,154.88 787.87,154.88 C787.349997,154.88 786.806669,154.969999 786.24,155.15 C785.673331,155.330001 785.116669,155.579998 784.57,155.9 L783.87,154.18 C784.416669,153.833332 785.076663,153.546668 785.85,153.32 C786.623337,153.093332 787.356663,152.98 788.05,152.98 Z M787.47,161.36 C788.13667,161.36 788.679998,161.136669 789.1,160.69 C789.520002,160.243331 789.73,159.66667 789.73,158.96 L789.73,158.54 L789.37,158.54 C788.476662,158.54 787.783336,158.58 787.29,158.66 C786.796664,158.74 786.443334,158.879999 786.23,159.08 C786.016666,159.280001 785.91,159.553332 785.91,159.9 C785.91,160.326669 786.056665,160.676665 786.35,160.95 C786.643335,161.223335 787.016664,161.36 787.47,161.36 Z M800.33,152.98 C801.503339,152.98 802.376664,153.31333 802.95,153.98 C803.523336,154.64667 803.81,155.653327 803.81,157 L803.81,163 L801.31,163 L801.31,157.14 C801.31,156.379996 801.166668,155.826668 800.88,155.48 C800.593332,155.133332 800.143336,154.96 799.53,154.96 C798.809996,154.96 798.233335,155.186664 797.8,155.64 C797.366664,156.093336 797.15,156.699996 797.15,157.46 L797.15,163 L794.65,163 L794.65,153.22 L797.09,153.22 L797.09,154.68 C797.423335,154.133331 797.869997,153.713335 798.43,153.42 C798.990003,153.126665 799.62333,152.98 800.33,152.98 Z M815.79,148.9 L815.79,163 L813.31,163 L813.31,161.42 C813.016665,161.966669 812.593336,162.393332 812.04,162.7 C811.486664,163.006668 810.85667,163.16 810.15,163.16 C809.31,163.16 808.560003,162.946669 807.9,162.52 C807.239997,162.093331 806.726668,161.490004 806.36,160.71 C805.993331,159.929996 805.81,159.033338 805.81,158.02 C805.81,157.006662 805.993331,156.120004 806.36,155.36 C806.726668,154.599996 807.236663,154.013335 807.89,153.6 C808.543337,153.186665 809.296662,152.98 810.15,152.98 C810.85667,152.98 811.483331,153.126665 812.03,153.42 C812.576669,153.713335 812.996665,154.126664 813.29,154.66 L813.29,148.9 L815.79,148.9 Z M810.81,161.22 C811.610004,161.22 812.226664,160.946669 812.66,160.4 C813.093335,159.853331 813.31,159.073338 813.31,158.06 C813.31,157.046662 813.093335,156.270003 812.66,155.73 C812.226664,155.189997 811.616671,154.92 810.83,154.92 C810.029996,154.92 809.410002,155.186664 808.97,155.72 C808.529998,156.253336 808.31,157.019995 808.31,158.02 C808.31,159.033338 808.529998,159.819997 808.97,160.38 C809.410002,160.940003 810.023329,161.22 810.81,161.22 Z M827.99,152.98 C829.36334,152.98 830.38333,153.31333 831.05,153.98 C831.71667,154.64667 832.05,155.673326 832.05,157.06 L832.05,163 L829.67,163 L829.67,161.5 C829.443332,162.020003 829.086669,162.426665 828.6,162.72 C828.113331,163.013335 827.550003,163.16 826.91,163.16 C826.256663,163.16 825.663336,163.026668 825.13,162.76 C824.596664,162.493332 824.176668,162.126669 823.87,161.66 C823.563332,161.193331 823.41,160.673336 823.41,160.1 C823.41,159.379996 823.593331,158.813335 823.96,158.4 C824.326668,157.986665 824.923329,157.686668 825.75,157.5 C826.507782,157.328888 827.528837,157.236204 828.813193,157.221944 L829.67,157.22 L829.67,156.76 C829.67,156.09333 829.526668,155.613335 829.24,155.32 C828.953332,155.026665 828.47667,154.88 827.81,154.88 C827.289997,154.88 826.746669,154.969999 826.18,155.15 C825.61333,155.330001 825.056669,155.579998 824.51,155.9 L823.81,154.18 C824.356669,153.833332 825.016663,153.546668 825.79,153.32 C826.563337,153.093332 827.296663,152.98 827.99,152.98 Z M827.41,161.36 C828.07667,161.36 828.619998,161.136669 829.04,160.69 C829.460002,160.243331 829.67,159.66667 829.67,158.96 L829.67,158.54 L829.31,158.54 C828.416662,158.54 827.723336,158.58 827.23,158.66 C826.736664,158.74 826.383334,158.879999 826.17,159.08 C825.956666,159.280001 825.85,159.553332 825.85,159.9 C825.85,160.326669 825.996665,160.676665 826.29,160.95 C826.583335,161.223335 826.956664,161.36 827.41,161.36 Z M840.01,163 L840.01,148.9 L842.51,148.9 L842.51,163 L840.01,163 Z M845.09,163 L845.09,153.22 L847.59,153.22 L847.59,163 L845.09,163 Z M844.95,148.68 L847.71,148.68 L847.71,151.14 L844.95,151.14 L844.95,148.68 Z M855.85,152.98 C857.023339,152.98 857.896664,153.31333 858.47,153.98 C859.043336,154.64667 859.33,155.653327 859.33,157 L859.33,163 L856.83,163 L856.83,157.14 C856.83,156.379996 856.686668,155.826668 856.4,155.48 C856.113332,155.133332 855.663336,154.96 855.05,154.96 C854.329996,154.96 853.753335,155.186664 853.32,155.64 C852.886664,156.093336 852.67,156.699996 852.67,157.46 L852.67,163 L850.17,163 L850.17,153.22 L852.61,153.22 L852.61,154.68 C852.943335,154.133331 853.389997,153.713335 853.95,153.42 C854.510003,153.126665 855.14333,152.98 855.85,152.98 Z M871.67,163 L868.57,163 L864.37,158.54 L864.37,163 L861.87,163 L861.87,148.9 L864.37,148.9 L864.37,157.5 L868.31,153.24 L871.35,153.24 L866.95,157.92 L871.67,163 Z M883.01,161.28 C883.303335,161.28 883.609998,161.26 883.93,161.22 L883.81,163.08 C883.409998,163.12 883.043335,163.14 882.71,163.14 C881.33666,163.14 880.323337,162.823337 879.67,162.19 C879.016663,161.556664 878.69,160.61334 878.69,159.36 L878.69,155.1 L876.81,155.1 L876.81,153.22 L878.69,153.22 L878.69,150.3 L881.19,150.3 L881.19,153.22 L883.77,153.22 L883.77,155.1 L881.19,155.1 L881.19,159.32 C881.19,160.626673 881.796661,161.28 883.01,161.28 Z M889.85,163.16 C888.85,163.16 887.973337,162.953335 887.22,162.54 C886.466663,162.126665 885.883335,161.533337 885.47,160.76 C885.056665,159.986663 884.85,159.086672 884.85,158.06 C884.85,157.033328 885.056665,156.136671 885.47,155.37 C885.883335,154.60333 886.466663,154.013335 887.22,153.6 C887.973337,153.186665 888.85,152.98 889.85,152.98 C890.85,152.98 891.726663,153.186665 892.48,153.6 C893.233337,154.013335 893.813331,154.60333 894.22,155.37 C894.626669,156.136671 894.83,157.033328 894.83,158.06 C894.83,159.086672 894.626669,159.986663 894.22,160.76 C893.813331,161.533337 893.233337,162.126665 892.48,162.54 C891.726663,162.953335 890.85,163.16 889.85,163.16 Z M889.83,161.22 C890.643337,161.22 891.263331,160.953336 891.69,160.42 C892.116669,159.886664 892.33,159.100005 892.33,158.06 C892.33,157.033328 892.116669,156.250003 891.69,155.71 C891.263331,155.169997 890.650004,154.9 889.85,154.9 C889.049996,154.9 888.433335,155.169997 888,155.71 C887.566664,156.250003 887.35,157.033328 887.35,158.06 C887.35,159.100005 887.563331,159.886664 887.99,160.42 C888.416669,160.953336 889.029996,161.22 889.83,161.22 Z M906.51,152.98 C907.88334,152.98 908.90333,153.31333 909.57,153.98 C910.23667,154.64667 910.57,155.673326 910.57,157.06 L910.57,163 L908.19,163 L908.19,161.5 C907.963332,162.020003 907.606669,162.426665 907.12,162.72 C906.633331,163.013335 906.070003,163.16 905.43,163.16 C904.776663,163.16 904.183336,163.026668 903.65,162.76 C903.116664,162.493332 902.696668,162.126669 902.39,161.66 C902.083332,161.193331 901.93,160.673336 901.93,160.1 C901.93,159.379996 902.113331,158.813335 902.48,158.4 C902.846668,157.986665 903.443329,157.686668 904.27,157.5 C905.027782,157.328888 906.048837,157.236204 907.333193,157.221944 L908.19,157.22 L908.19,156.76 C908.19,156.09333 908.046668,155.613335 907.76,155.32 C907.473332,155.026665 906.99667,154.88 906.33,154.88 C905.809997,154.88 905.266669,154.969999 904.7,155.15 C904.13333,155.330001 903.576669,155.579998 903.03,155.9 L902.33,154.18 C902.876669,153.833332 903.536663,153.546668 904.31,153.32 C905.083337,153.093332 905.816663,152.98 906.51,152.98 Z M905.93,161.36 C906.59667,161.36 907.139998,161.136669 907.56,160.69 C907.980002,160.243331 908.19,159.66667 908.19,158.96 L908.19,158.54 L907.83,158.54 C906.936662,158.54 906.243336,158.58 905.75,158.66 C905.256664,158.74 904.903334,158.879999 904.69,159.08 C904.476666,159.280001 904.37,159.553332 904.37,159.9 C904.37,160.326669 904.516665,160.676665 904.81,160.95 C905.103335,161.223335 905.476664,161.36 905.93,161.36 Z M918.79,152.98 C919.963339,152.98 920.836664,153.31333 921.41,153.98 C921.983336,154.64667 922.27,155.653327 922.27,157 L922.27,163 L919.77,163 L919.77,157.14 C919.77,156.379996 919.626668,155.826668 919.34,155.48 C919.053332,155.133332 918.603336,154.96 917.99,154.96 C917.269996,154.96 916.693335,155.186664 916.26,155.64 C915.826664,156.093336 915.61,156.699996 915.61,157.46 L915.61,163 L913.11,163 L913.11,153.22 L915.55,153.22 L915.55,154.68 C915.883335,154.133331 916.329997,153.713335 916.89,153.42 C917.450003,153.126665 918.08333,152.98 918.79,152.98 Z M929.27,163.16 C928.27,163.16 927.393337,162.953335 926.64,162.54 C925.886663,162.126665 925.303335,161.533337 924.89,160.76 C924.476665,159.986663 924.27,159.086672 924.27,158.06 C924.27,157.033328 924.476665,156.136671 924.89,155.37 C925.303335,154.60333 925.886663,154.013335 926.64,153.6 C927.393337,153.186665 928.27,152.98 929.27,152.98 C930.27,152.98 931.146663,153.186665 931.9,153.6 C932.653337,154.013335 933.233331,154.60333 933.64,155.37 C934.046669,156.136671 934.25,157.033328 934.25,158.06 C934.25,159.086672 934.046669,159.986663 933.64,160.76 C933.233331,161.533337 932.653337,162.126665 931.9,162.54 C931.146663,162.953335 930.27,163.16 929.27,163.16 Z M929.25,161.22 C930.063337,161.22 930.683331,160.953336 931.11,160.42 C931.536669,159.886664 931.75,159.100005 931.75,158.06 C931.75,157.033328 931.536669,156.250003 931.11,155.71 C930.683331,155.169997 930.070004,154.9 929.27,154.9 C928.469996,154.9 927.853335,155.169997 927.42,155.71 C926.986664,156.250003 926.77,157.033328 926.77,158.06 C926.77,159.100005 926.983331,159.886664 927.41,160.42 C927.836669,160.953336 928.449996,161.22 929.25,161.22 Z M941.31,161.28 C941.603335,161.28 941.909998,161.26 942.23,161.22 L942.11,163.08 C941.709998,163.12 941.343335,163.14 941.01,163.14 C939.63666,163.14 938.623337,162.823337 937.97,162.19 C937.316663,161.556664 936.99,160.61334 936.99,159.36 L936.99,155.1 L935.11,155.1 L935.11,153.22 L936.99,153.22 L936.99,150.3 L939.49,150.3 L939.49,153.22 L942.07,153.22 L942.07,155.1 L939.49,155.1 L939.49,159.32 C939.49,160.626673 940.096661,161.28 941.31,161.28 Z M949.37,152.98 C950.543339,152.98 951.416664,153.31333 951.99,153.98 C952.563336,154.64667 952.85,155.653327 952.85,157 L952.85,163 L950.35,163 L950.35,157.14 C950.35,156.379996 950.206668,155.826668 949.92,155.48 C949.633332,155.133332 949.183336,154.96 948.57,154.96 C947.849996,154.96 947.273335,155.186664 946.84,155.64 C946.406664,156.093336 946.19,156.699996 946.19,157.46 L946.19,163 L943.69,163 L943.69,148.9 L946.19,148.9 L946.19,154.58 C946.523335,154.059997 946.966664,153.663335 947.52,153.39 C948.073336,153.116665 948.69,152.98 949.37,152.98 Z M963.97,158.56 L957.31,158.56 C957.39,159.466671 957.663331,160.139998 958.13,160.58 C958.596669,161.020002 959.263329,161.24 960.13,161.24 C961.210005,161.24 962.196662,160.893337 963.09,160.2 L963.81,161.92 C963.356664,162.293335 962.78667,162.593332 962.1,162.82 C961.41333,163.046668 960.723337,163.16 960.03,163.16 C958.429992,163.16 957.166671,162.706671 956.24,161.8 C955.313329,160.893329 954.85,159.653341 954.85,158.08 C954.85,157.079995 955.049998,156.193337 955.45,155.42 C955.85,154.646663 956.41333,154.046669 957.14,153.62 C957.86667,153.193331 958.689995,152.98 959.61,152.98 C960.956673,152.98 962.019996,153.413329 962.8,154.28 C963.580004,155.146671 963.97,156.339992 963.97,157.86 L963.97,158.56 Z M959.67,154.74 C959.00333,154.74 958.466669,154.953331 958.06,155.38 C957.653331,155.806669 957.403334,156.419996 957.31,157.22 L961.83,157.22 C961.803333,156.406663 961.603335,155.790002 961.23,155.37 C960.856665,154.949998 960.33667,154.74 959.67,154.74 Z M972.45,155.06 L970.99,155.2 C969.336658,155.373334 968.51,156.213326 968.51,157.72 L968.51,163 L966.01,163 L966.01,153.22 L968.39,153.22 L968.39,154.94 C968.896669,153.766661 969.943325,153.126667 971.53,153.02 L972.29,152.96 L972.45,155.06 Z M541.4,184.98 C542.573339,184.98 543.446664,185.31333 544.02,185.98 C544.593336,186.64667 544.88,187.653327 544.88,189 L544.88,195 L542.38,195 L542.38,189.14 C542.38,188.379996 542.236668,187.826668 541.95,187.48 C541.663332,187.133332 541.213336,186.96 540.6,186.96 C539.879996,186.96 539.303336,187.186664 538.87,187.64 C538.436665,188.093336 538.22,188.699996 538.22,189.46 L538.22,195 L535.72,195 L535.72,185.22 L538.16,185.22 L538.16,186.68 C538.493335,186.133331 538.939997,185.713335 539.5,185.42 C540.060003,185.126665 540.69333,184.98 541.4,184.98 Z M551.88,195.16 C550.88,195.16 550.003337,194.953335 549.25,194.54 C548.496663,194.126665 547.913335,193.533337 547.5,192.76 C547.086665,191.986663 546.88,191.086672 546.88,190.06 C546.88,189.033328 547.086665,188.136671 547.5,187.37 C547.913335,186.60333 548.496663,186.013335 549.25,185.6 C550.003337,185.186665 550.88,184.98 551.88,184.98 C552.88,184.98 553.756663,185.186665 554.51,185.6 C555.263337,186.013335 555.843331,186.60333 556.25,187.37 C556.656669,188.136671 556.86,189.033328 556.86,190.06 C556.86,191.086672 556.656669,191.986663 556.25,192.76 C555.843331,193.533337 555.263337,194.126665 554.51,194.54 C553.756663,194.953335 552.88,195.16 551.88,195.16 Z M551.86,193.22 C552.673337,193.22 553.293331,192.953336 553.72,192.42 C554.146669,191.886664 554.36,191.100005 554.36,190.06 C554.36,189.033328 554.146669,188.250003 553.72,187.71 C553.293331,187.169997 552.680004,186.9 551.88,186.9 C551.079996,186.9 550.463336,187.169997 550.03,187.71 C549.596664,188.250003 549.38,189.033328 549.38,190.06 C549.38,191.100005 549.593331,191.886664 550.02,192.42 C550.446669,192.953336 551.059996,193.22 551.86,193.22 Z M568.36,180.9 L568.36,195 L565.88,195 L565.88,193.42 C565.586665,193.966669 565.163336,194.393332 564.61,194.7 C564.056664,195.006668 563.42667,195.16 562.72,195.16 C561.88,195.16 561.130003,194.946669 560.47,194.52 C559.809997,194.093331 559.296669,193.490004 558.93,192.71 C558.563332,191.929996 558.38,191.033338 558.38,190.02 C558.38,189.006662 558.563332,188.120004 558.93,187.36 C559.296669,186.599996 559.806663,186.013335 560.46,185.6 C561.113337,185.186665 561.866662,184.98 562.72,184.98 C563.42667,184.98 564.053331,185.126665 564.6,185.42 C565.146669,185.713335 565.566665,186.126664 565.86,186.66 L565.86,180.9 L568.36,180.9 Z M563.38,193.22 C564.180004,193.22 564.796665,192.946669 565.23,192.4 C565.663336,191.853331 565.88,191.073338 565.88,190.06 C565.88,189.046662 565.663336,188.270003 565.23,187.73 C564.796665,187.189997 564.186671,186.92 563.4,186.92 C562.599996,186.92 561.980002,187.186664 561.54,187.72 C561.099998,188.253336 560.88,189.019995 560.88,190.02 C560.88,191.033338 561.099998,191.819997 561.54,192.38 C561.980002,192.940003 562.593329,193.22 563.38,193.22 Z M579.52,190.56 L572.86,190.56 C572.94,191.466671 573.213331,192.139998 573.68,192.58 C574.146669,193.020002 574.813329,193.24 575.68,193.24 C576.760005,193.24 577.746662,192.893337 578.64,192.2 L579.36,193.92 C578.906664,194.293335 578.33667,194.593332 577.65,194.82 C576.96333,195.046668 576.273337,195.16 575.58,195.16 C573.979992,195.16 572.716671,194.706671 571.79,193.8 C570.863329,192.893329 570.4,191.653341 570.4,190.08 C570.4,189.079995 570.599998,188.193337 571,187.42 C571.4,186.646663 571.96333,186.046669 572.69,185.62 C573.41667,185.193331 574.239995,184.98 575.16,184.98 C576.506673,184.98 577.569996,185.413329 578.35,186.28 C579.130004,187.146671 579.52,188.339992 579.52,189.86 L579.52,190.56 Z M575.22,186.74 C574.55333,186.74 574.016669,186.953331 573.61,187.38 C573.203331,187.806669 572.953334,188.419996 572.86,189.22 L577.38,189.22 C577.353333,188.406663 577.153335,187.790002 576.78,187.37 C576.406665,186.949998 575.88667,186.74 575.22,186.74 Z M590.36,198.9 C589.386662,197.246658 588.7,195.700007 588.3,194.26 C587.899998,192.819993 587.7,191.313341 587.7,189.74 C587.7,188.166659 587.899998,186.660007 588.3,185.22 C588.7,183.779993 589.386662,182.233342 590.36,180.58 L592.02,181.26 C591.366663,182.873341 590.910001,184.339993 590.65,185.66 C590.389999,186.980007 590.26,188.339993 590.26,189.74 C590.26,191.140007 590.389999,192.499993 590.65,193.82 C590.910001,195.140007 591.366663,196.606659 592.02,198.22 L590.36,198.9 Z M599.7,184.98 C600.873339,184.98 601.746664,185.31333 602.32,185.98 C602.893336,186.64667 603.18,187.653327 603.18,189 L603.18,195 L600.68,195 L600.68,189.14 C600.68,188.379996 600.536668,187.826668 600.25,187.48 C599.963332,187.133332 599.513336,186.96 598.9,186.96 C598.179996,186.96 597.603336,187.186664 597.17,187.64 C596.736664,188.093336 596.52,188.699996 596.52,189.46 L596.52,195 L594.02,195 L594.02,185.22 L596.46,185.22 L596.46,186.68 C596.793335,186.133331 597.239997,185.713335 597.8,185.42 C598.360003,185.126665 598.99333,184.98 599.7,184.98 Z M610.18,195.16 C609.18,195.16 608.303337,194.953335 607.55,194.54 C606.796663,194.126665 606.213335,193.533337 605.8,192.76 C605.386665,191.986663 605.18,191.086672 605.18,190.06 C605.18,189.033328 605.386665,188.136671 605.8,187.37 C606.213335,186.60333 606.796663,186.013335 607.55,185.6 C608.303337,185.186665 609.18,184.98 610.18,184.98 C611.18,184.98 612.056663,185.186665 612.81,185.6 C613.563337,186.013335 614.143331,186.60333 614.55,187.37 C614.956669,188.136671 615.16,189.033328 615.16,190.06 C615.16,191.086672 614.956669,191.986663 614.55,192.76 C614.143331,193.533337 613.563337,194.126665 612.81,194.54 C612.056663,194.953335 611.18,195.16 610.18,195.16 Z M610.16,193.22 C610.973337,193.22 611.593331,192.953336 612.02,192.42 C612.446669,191.886664 612.66,191.100005 612.66,190.06 C612.66,189.033328 612.446669,188.250003 612.02,187.71 C611.593331,187.169997 610.980004,186.9 610.18,186.9 C609.379996,186.9 608.763336,187.169997 608.33,187.71 C607.896665,188.250003 607.68,189.033328 607.68,190.06 C607.68,191.100005 607.893331,191.886664 608.32,192.42 C608.746669,192.953336 609.359996,193.22 610.16,193.22 Z M626.66,180.9 L626.66,195 L624.18,195 L624.18,193.42 C623.886665,193.966669 623.463336,194.393332 622.91,194.7 C622.356664,195.006668 621.72667,195.16 621.02,195.16 C620.18,195.16 619.430003,194.946669 618.77,194.52 C618.109997,194.093331 617.596669,193.490004 617.23,192.71 C616.863331,191.929996 616.68,191.033338 616.68,190.02 C616.68,189.006662 616.863331,188.120004 617.23,187.36 C617.596669,186.599996 618.106663,186.013335 618.76,185.6 C619.413337,185.186665 620.166662,184.98 621.02,184.98 C621.72667,184.98 622.353331,185.126665 622.9,185.42 C623.446669,185.713335 623.866665,186.126664 624.16,186.66 L624.16,180.9 L626.66,180.9 Z M621.68,193.22 C622.480004,193.22 623.096665,192.946669 623.53,192.4 C623.963336,191.853331 624.18,191.073338 624.18,190.06 C624.18,189.046662 623.963336,188.270003 623.53,187.73 C623.096665,187.189997 622.486671,186.92 621.7,186.92 C620.899996,186.92 620.280002,187.186664 619.84,187.72 C619.399998,188.253336 619.18,189.019995 619.18,190.02 C619.18,191.033338 619.399998,191.819997 619.84,192.38 C620.280002,192.940003 620.893329,193.22 621.68,193.22 Z M637.82,190.56 L631.16,190.56 C631.24,191.466671 631.513331,192.139998 631.98,192.58 C632.446669,193.020002 633.113329,193.24 633.98,193.24 C635.060005,193.24 636.046662,192.893337 636.94,192.2 L637.66,193.92 C637.206664,194.293335 636.63667,194.593332 635.95,194.82 C635.26333,195.046668 634.573337,195.16 633.88,195.16 C632.279992,195.16 631.016671,194.706671 630.09,193.8 C629.163329,192.893329 628.7,191.653341 628.7,190.08 C628.7,189.079995 628.899998,188.193337 629.3,187.42 C629.7,186.646663 630.26333,186.046669 630.99,185.62 C631.71667,185.193331 632.539995,184.98 633.46,184.98 C634.806673,184.98 635.869996,185.413329 636.65,186.28 C637.430004,187.146671 637.82,188.339992 637.82,189.86 L637.82,190.56 Z M633.52,186.74 C632.85333,186.74 632.316669,186.953331 631.91,187.38 C631.503331,187.806669 631.253334,188.419996 631.16,189.22 L635.68,189.22 C635.653333,188.406663 635.453335,187.790002 635.08,187.37 C634.706665,186.949998 634.18667,186.74 633.52,186.74 Z M638.8,196.5 L638.8,195 L648.32,195 L648.32,196.5 L638.8,196.5 Z M655.48,184.98 C656.333338,184.98 657.086663,185.186665 657.74,185.6 C658.393337,186.013335 658.903332,186.599996 659.27,187.36 C659.636669,188.120004 659.82,189.006662 659.82,190.02 C659.82,191.033338 659.636669,191.929996 659.27,192.71 C658.903332,193.490004 658.390003,194.093331 657.73,194.52 C657.069997,194.946669 656.320004,195.16 655.48,195.16 C654.77333,195.16 654.143336,195.006668 653.59,194.7 C653.036664,194.393332 652.613335,193.966669 652.32,193.42 L652.32,195 L649.86,195 L649.86,180.9 L652.36,180.9 L652.36,186.64 C652.653335,186.106664 653.073331,185.696668 653.62,185.41 C654.166669,185.123332 654.786663,184.98 655.48,184.98 Z M654.82,193.22 C655.606671,193.22 656.219998,192.940003 656.66,192.38 C657.100002,191.819997 657.32,191.033338 657.32,190.02 C657.32,189.019995 657.103335,188.253336 656.67,187.72 C656.236664,187.186664 655.620004,186.92 654.82,186.92 C654.019996,186.92 653.403335,187.189997 652.97,187.73 C652.536664,188.270003 652.32,189.046662 652.32,190.06 C652.32,191.073338 652.536664,191.853331 652.97,192.4 C653.403335,192.946669 654.019996,193.22 654.82,193.22 Z M661.28,198.22 C661.933337,196.606659 662.389999,195.140007 662.65,193.82 C662.910001,192.499993 663.04,191.140007 663.04,189.74 C663.04,188.339993 662.910001,186.980007 662.65,185.66 C662.389999,184.339993 661.933337,182.873341 661.28,181.26 L662.94,180.58 C663.913338,182.233342 664.599998,183.779993 665,185.22 C665.400002,186.660007 665.6,188.166659 665.6,189.74 C665.6,191.313341 665.400002,192.819993 665,194.26 C664.599998,195.700007 663.913338,197.246658 662.94,198.9 L661.28,198.22 Z M668.7,192.24 L671.5,192.24 L671.5,195 L668.7,195 L668.7,192.24 Z" id="Thisnode(node_a)containsapieceofdata(thenumber5)andalinktoanothernode(node_b)." fill="#FFFFFF" fill-rule="nonzero"></path>
        <path d="M488.388,111 L488.388,91.26 L501.604,91.26 L501.604,94.116 L491.916,94.116 L491.916,99.548 L501.044,99.548 L501.044,102.376 L491.916,102.376 L491.916,108.144 L501.604,108.144 L501.604,111 L488.388,111 Z M512.216,103.944 L517.984,111 L513.84,111 L510.2,106.436 L506.588,111 L502.444,111 L508.184,103.944 L502.752,97.308 L506.924,97.308 L510.2,101.48 L513.476,97.308 L517.648,97.308 L512.216,103.944 Z M525.348,96.972 C527.270676,96.972 528.698662,97.438662 529.632,98.372 C530.565338,99.305338 531.032,100.742657 531.032,102.684 L531.032,111 L527.7,111 L527.7,108.9 C527.382665,109.628004 526.883337,110.197331 526.202,110.608 C525.520663,111.018669 524.732004,111.224 523.836,111.224 C522.921329,111.224 522.09067,111.037335 521.344,110.664 C520.59733,110.290665 520.009335,109.777337 519.58,109.124 C519.150665,108.470663 518.936,107.742671 518.936,106.94 C518.936,105.931995 519.192664,105.13867 519.706,104.56 C520.219336,103.98133 521.054661,103.561335 522.212,103.3 C523.286672,103.057332 524.739563,102.927333 526.570712,102.91 L527.7,102.908 L527.7,102.264 C527.7,101.330662 527.499335,100.658669 527.098,100.248 C526.696665,99.8373313 526.029338,99.632 525.096,99.632 C524.367996,99.632 523.607337,99.7579987 522.814,100.01 C522.020663,100.262001 521.241337,100.611998 520.476,101.06 L519.496,98.652 C520.261337,98.1666642 521.185328,97.7653349 522.268,97.448 C523.350672,97.1306651 524.377328,96.972 525.348,96.972 Z M524.536,108.704 C525.469338,108.704 526.229997,108.391336 526.818,107.766 C527.406003,107.140664 527.7,106.333338 527.7,105.344 L527.7,104.756 L527.196,104.756 C525.945327,104.756 524.97467,104.811999 524.284,104.924 C523.59333,105.036001 523.098668,105.231999 522.8,105.512 C522.501332,105.792001 522.352,106.174664 522.352,106.66 C522.352,107.257336 522.557331,107.747331 522.968,108.13 C523.378669,108.512669 523.90133,108.704 524.536,108.704 Z M550.856,96.972 C552.405341,96.972 553.562663,97.4339954 554.328,98.358 C555.093337,99.2820046 555.476,100.69599 555.476,102.6 L555.476,111 L551.976,111 L551.976,102.74 C551.976,101.694661 551.798668,100.934002 551.444,100.458 C551.089332,99.9819976 550.520004,99.744 549.736,99.744 C548.802662,99.744 548.074669,100.06133 547.552,100.696 C547.029331,101.33067 546.768,102.217328 546.768,103.356 L546.768,111 L543.268,111 L543.268,102.74 C543.268,101.694661 543.095335,100.934002 542.75,100.458 C542.404665,99.9819976 541.830671,99.744 541.028,99.744 C540.113329,99.744 539.394669,100.06133 538.872,100.696 C538.349331,101.33067 538.088,102.217328 538.088,103.356 L538.088,111 L534.588,111 L534.588,97.308 L538.004,97.308 L538.004,99.24 C538.414669,98.4933296 538.983996,97.9286686 539.712,97.546 C540.440004,97.1633314 541.270662,96.972 542.204,96.972 C544.27601,96.972 545.647997,97.8306581 546.32,99.548 C546.749335,98.7453293 547.365329,98.1153356 548.168,97.658 C548.970671,97.2006644 549.866662,96.972 550.856,96.972 Z M566.9,96.972 C568.076006,96.972 569.125995,97.2706637 570.05,97.868 C570.974005,98.4653363 571.692664,99.3099945 572.206,100.402 C572.719336,101.494005 572.976,102.749326 572.976,104.168 C572.976,105.586674 572.719336,106.827995 572.206,107.892 C571.692664,108.956005 570.978671,109.77733 570.064,110.356 C569.149329,110.93467 568.094673,111.224 566.9,111.224 C565.929328,111.224 565.061337,111.018669 564.296,110.608 C563.530663,110.197331 562.942669,109.628004 562.532,108.9 L562.532,116.04 L559.032,116.04 L559.032,97.308 L562.476,97.308 L562.476,99.38 C562.886669,98.6146628 563.479329,98.0220021 564.254,97.602 C565.028671,97.1819979 565.910662,96.972 566.9,96.972 Z M565.976,108.508 C567.077339,108.508 567.935997,108.130004 568.552,107.374 C569.168003,106.617996 569.476,105.54934 569.476,104.168 C569.476,102.749326 569.168003,101.648004 568.552,100.864 C567.935997,100.079996 567.077339,99.688 565.976,99.688 C564.855994,99.688 563.99267,100.070663 563.386,100.836 C562.77933,101.601337 562.476,102.693326 562.476,104.112 C562.476,105.512007 562.77933,106.594663 563.386,107.36 C563.99267,108.125337 564.855994,108.508 565.976,108.508 Z M575.86,111 L575.86,91.26 L579.36,91.26 L579.36,111 L575.86,111 Z M594.984,104.784 L585.66,104.784 C585.772001,106.05334 586.154663,106.995997 586.808,107.612 C587.461337,108.228003 588.394661,108.536 589.608,108.536 C591.120008,108.536 592.501327,108.050672 593.752,107.08 L594.76,109.488 C594.12533,110.010669 593.327338,110.430665 592.366,110.748 C591.404662,111.065335 590.438672,111.224 589.468,111.224 C587.227989,111.224 585.45934,110.58934 584.162,109.32 C582.86466,108.05066 582.216,106.314678 582.216,104.112 C582.216,102.711993 582.495997,101.470672 583.056,100.388 C583.616003,99.3053279 584.404662,98.4653363 585.422,97.868 C586.439338,97.2706637 587.591994,96.972 588.88,96.972 C590.765343,96.972 592.253995,97.5786606 593.346,98.792 C594.438005,100.005339 594.984,101.675989 594.984,103.804 L594.984,104.784 Z M588.964,99.436 C588.030662,99.436 587.279336,99.7346637 586.71,100.332 C586.140664,100.929336 585.790667,101.787994 585.66,102.908 L591.988,102.908 C591.950666,101.769328 591.670669,100.906003 591.148,100.318 C590.625331,99.7299971 589.897338,99.436 588.964,99.436 Z M611.672,111.224 C610.271993,111.224 609.044672,110.93467 607.99,110.356 C606.935328,109.77733 606.11867,108.946672 605.54,107.864 C604.96133,106.781328 604.672,105.521341 604.672,104.084 C604.672,102.646659 604.96133,101.391339 605.54,100.318 C606.11867,99.2446613 606.935328,98.4186696 607.99,97.84 C609.044672,97.2613304 610.271993,96.972 611.672,96.972 C613.072007,96.972 614.299328,97.2613304 615.354,97.84 C616.408672,98.4186696 617.220664,99.2446613 617.79,100.318 C618.359336,101.391339 618.644,102.646659 618.644,104.084 C618.644,105.521341 618.359336,106.781328 617.79,107.864 C617.220664,108.946672 616.408672,109.77733 615.354,110.356 C614.299328,110.93467 613.072007,111.224 611.672,111.224 Z M611.644,108.508 C612.782672,108.508 613.650664,108.13467 614.248,107.388 C614.845336,106.64133 615.144,105.540007 615.144,104.084 C615.144,102.646659 614.845336,101.550004 614.248,100.794 C613.650664,100.037996 612.792006,99.66 611.672,99.66 C610.551994,99.66 609.68867,100.037996 609.082,100.794 C608.47533,101.550004 608.172,102.646659 608.172,104.084 C608.172,105.540007 608.470664,106.64133 609.068,107.388 C609.665336,108.13467 610.523994,108.508 611.644,108.508 Z M625.98,97.308 L629.592,97.308 L629.592,99.94 L625.98,99.94 L625.98,111 L622.48,111 L622.48,99.94 L619.848,99.94 L619.848,97.308 L622.48,97.308 C622.48,95.3479902 622.988662,93.8733383 624.006,92.884 C624.96682,91.949625 626.431289,91.4065391 628.399449,91.2547284 L630.124,91.148 L630.348,93.752 L629.032,93.808 C627.930661,93.8640003 627.146669,94.1113311 626.68,94.55 C626.213331,94.9886689 625.98,95.6933285 625.98,96.664 L625.98,97.308 Z M645.02,96.972 C646.942676,96.972 648.370662,97.438662 649.304,98.372 C650.237338,99.305338 650.704,100.742657 650.704,102.684 L650.704,111 L647.372,111 L647.372,108.9 C647.054665,109.628004 646.555337,110.197331 645.874,110.608 C645.192663,111.018669 644.404004,111.224 643.508,111.224 C642.593329,111.224 641.76267,111.037335 641.016,110.664 C640.26933,110.290665 639.681335,109.777337 639.252,109.124 C638.822665,108.470663 638.608,107.742671 638.608,106.94 C638.608,105.931995 638.864664,105.13867 639.378,104.56 C639.891336,103.98133 640.726661,103.561335 641.884,103.3 C642.958672,103.057332 644.411563,102.927333 646.242712,102.91 L647.372,102.908 L647.372,102.264 C647.372,101.330662 647.171335,100.658669 646.77,100.248 C646.368665,99.8373313 645.701338,99.632 644.768,99.632 C644.039996,99.632 643.279337,99.7579987 642.486,100.01 C641.692663,100.262001 640.913337,100.611998 640.148,101.06 L639.168,98.652 C639.933337,98.1666642 640.857328,97.7653349 641.94,97.448 C643.022672,97.1306651 644.049328,96.972 645.02,96.972 Z M644.208,108.704 C645.141338,108.704 645.901997,108.391336 646.49,107.766 C647.078003,107.140664 647.372,106.333338 647.372,105.344 L647.372,104.756 L646.868,104.756 C645.617327,104.756 644.64667,104.811999 643.956,104.924 C643.26533,105.036001 642.770668,105.231999 642.472,105.512 C642.173332,105.792001 642.024,106.174664 642.024,106.66 C642.024,107.257336 642.229331,107.747331 642.64,108.13 C643.050669,108.512669 643.57333,108.704 644.208,108.704 Z M675.428,91.26 L678.816,91.26 L678.816,111 L676.1,111 L665.516,97.224 L665.516,111 L662.156,111 L662.156,91.26 L664.844,91.26 L675.428,105.008 L675.428,91.26 Z M689.008,111.224 C687.607993,111.224 686.380672,110.93467 685.326,110.356 C684.271328,109.77733 683.45467,108.946672 682.876,107.864 C682.29733,106.781328 682.008,105.521341 682.008,104.084 C682.008,102.646659 682.29733,101.391339 682.876,100.318 C683.45467,99.2446613 684.271328,98.4186696 685.326,97.84 C686.380672,97.2613304 687.607993,96.972 689.008,96.972 C690.408007,96.972 691.635328,97.2613304 692.69,97.84 C693.744672,98.4186696 694.556664,99.2446613 695.126,100.318 C695.695336,101.391339 695.98,102.646659 695.98,104.084 C695.98,105.521341 695.695336,106.781328 695.126,107.864 C694.556664,108.946672 693.744672,109.77733 692.69,110.356 C691.635328,110.93467 690.408007,111.224 689.008,111.224 Z M688.98,108.508 C690.118672,108.508 690.986664,108.13467 691.584,107.388 C692.181336,106.64133 692.48,105.540007 692.48,104.084 C692.48,102.646659 692.181336,101.550004 691.584,100.794 C690.986664,100.037996 690.128006,99.66 689.008,99.66 C687.887994,99.66 687.02467,100.037996 686.418,100.794 C685.81133,101.550004 685.508,102.646659 685.508,104.084 C685.508,105.540007 685.806664,106.64133 686.404,107.388 C687.001336,108.13467 687.859994,108.508 688.98,108.508 Z M712.08,91.26 L712.08,111 L708.608,111 L708.608,108.788 C708.197331,109.553337 707.604671,110.150665 706.83,110.58 C706.055329,111.009335 705.173338,111.224 704.184,111.224 C703.007994,111.224 701.958005,110.925336 701.034,110.328 C700.109995,109.730664 699.391336,108.886005 698.878,107.794 C698.364664,106.701995 698.108,105.446674 698.108,104.028 C698.108,102.609326 698.364664,101.368005 698.878,100.304 C699.391336,99.2399947 700.105329,98.4186696 701.02,97.84 C701.934671,97.2613304 702.989327,96.972 704.184,96.972 C705.173338,96.972 706.050663,97.1773313 706.816,97.588 C707.581337,97.9986687 708.169331,98.5773296 708.58,99.324 L708.58,91.26 L712.08,91.26 Z M705.108,108.508 C706.228006,108.508 707.09133,108.125337 707.698,107.36 C708.30467,106.594663 708.608,105.502674 708.608,104.084 C708.608,102.665326 708.30467,101.578004 707.698,100.822 C707.09133,100.065996 706.237339,99.688 705.136,99.688 C704.015994,99.688 703.148003,100.06133 702.532,100.808 C701.915997,101.55467 701.608,102.627993 701.608,104.028 C701.608,105.446674 701.915997,106.547996 702.532,107.332 C703.148003,108.116004 704.006661,108.508 705.108,108.508 Z" id="ExampleofaNode" fill="#FFFFFF" fill-rule="nonzero"></path>
        <path d="M721.6,96.972 C723.485343,96.972 724.973995,97.5786606 726.066,98.792 C727.158005,100.005339 727.704,101.675989 727.704,103.804 L727.704,104.784 L718.38,104.784 C718.492001,106.05334 718.874663,106.995997 719.528,107.612 C720.181337,108.228003 721.114661,108.536 722.328,108.536 C723.840008,108.536 725.221327,108.050672 726.472,107.08 L727.48,109.488 C726.84533,110.010669 726.047338,110.430665 725.086,110.748 C724.124662,111.065335 723.158672,111.224 722.188,111.224 C719.947989,111.224 718.17934,110.58934 716.882,109.32 C715.58466,108.05066 714.936,106.314678 714.936,104.112 C714.936,102.711993 715.215997,101.470672 715.776,100.388 C716.336003,99.3053279 717.124662,98.4653363 718.142,97.868 C719.159338,97.2706637 720.311994,96.972 721.6,96.972 Z M721.684,99.436 C720.750662,99.436 719.999336,99.7346637 719.43,100.332 C718.860664,100.929336 718.510667,101.787994 718.38,102.908 L718.38,102.908 L724.708,102.908 C724.670666,101.769328 724.390669,100.906003 723.868,100.318 C723.345331,99.7299971 722.617338,99.436 721.684,99.436 Z" id="Combined-Shape" fill="#FFFFFF" fill-rule="nonzero"></path>
    </g>
</svg>