<svg id="Layer_1" data-name="Layer 1" xmlns="http://www.w3.org/2000/svg" xmlns:xlink="http://www.w3.org/1999/xlink" viewBox="0 0 2735.92 1650.1"><defs><style>.cls-1,.cls-14,.cls-15,.cls-16,.cls-6{fill:none;}.cls-2{fill:#ffd500;}.cls-12,.cls-13,.cls-19,.cls-2,.cls-3,.cls-4,.cls-6,.cls-8,.cls-9{stroke:#000;}.cls-14,.cls-15,.cls-19,.cls-2,.cls-3{stroke-miterlimit:10;}.cls-12,.cls-13,.cls-16,.cls-19,.cls-2,.cls-3,.cls-4,.cls-6,.cls-8,.cls-9{stroke-width:6px;}.cls-3{fill:#d84841;}.cls-4{fill:#ff9052;}.cls-4,.cls-6,.cls-8,.cls-9{stroke-linecap:round;}.cls-12,.cls-13,.cls-16,.cls-4,.cls-6,.cls-8,.cls-9{stroke-linejoin:round;}.cls-5{clip-path:url(#clip-path);}.cls-7{clip-path:url(#clip-path-2);}.cls-8{fill:#7c462e;}.cls-9{fill:#cc7448;}.cls-10{clip-path:url(#clip-path-3);}.cls-11{clip-path:url(#clip-path-4);}.cls-12{fill:#2457bc;}.cls-13{fill:#3068f0;}.cls-14{stroke:#fd4e3e;}.cls-14,.cls-15{stroke-width:15px;}.cls-15{stroke:#4fe0b0;}.cls-16{stroke:#fff;}.cls-17{clip-path:url(#clip-path-5);}.cls-18{clip-path:url(#clip-path-6);}.cls-19{fill:#fd4e3e;}.cls-20{fill:#fff;}</style><clipPath id="clip-path"><polygon class="cls-1" points="512.9 910.02 223.4 757.49 223.4 467.98 512.9 620.52 512.9 910.02"/></clipPath><clipPath id="clip-path-2"><polygon class="cls-1" points="512.9 910.02 802.41 757.49 802.41 467.98 512.9 620.52 512.9 910.02"/></clipPath><clipPath id="clip-path-3"><polygon class="cls-1" points="2192.85 910.02 1903.35 757.49 1903.35 467.98 2192.85 620.52 2192.85 910.02"/></clipPath><clipPath id="clip-path-4"><polygon class="cls-1" points="2192.85 910.02 2482.36 757.49 2482.36 467.98 2192.85 620.52 2192.85 910.02"/></clipPath><clipPath id="clip-path-5"><polygon class="cls-1" points="1360.37 910.02 1070.86 757.49 1070.86 467.98 1360.37 620.52 1360.37 910.02"/></clipPath><clipPath id="clip-path-6"><polygon class="cls-1" points="1360.37 910.02 1649.87 757.49 1649.87 467.98 1360.37 620.52 1360.37 910.02"/></clipPath></defs><path class="cls-2" d="M382.31,1393.14H411a58.55,58.55,0,0,1,0,117.09H382.31"/><rect class="cls-3" x="362.51" y="1218.38" width="103.8" height="103.8"/><polygon class="cls-4" points="512.9 315.22 223.4 467.75 223.4 757.26 512.9 810.91 802.41 757.26 802.41 467.75 512.9 315.22"/><polygon class="cls-4" points="512.9 910.02 223.4 757.49 223.4 467.98 512.9 620.52 512.9 910.02"/><polygon class="cls-1" points="512.9 910.02 223.4 757.49 223.4 467.98 512.9 620.52 512.9 910.02"/><polygon class="cls-6" points="512.9 910.02 223.4 757.49 223.4 467.98 512.9 620.52 512.9 910.02"/><polygon class="cls-4" points="512.9 910.02 802.41 757.49 802.41 467.98 512.9 620.52 512.9 910.02"/><polygon class="cls-6" points="512.9 910.02 802.41 757.49 802.41 467.98 512.9 620.52 512.9 910.02"/><polygon class="cls-2" points="253.51 466.55 512.76 600.75 766.64 464.4 512.76 334.15 253.51 466.55"/><polygon class="cls-8" points="474.91 429.6 494.88 510.29 596.36 452.89 474.91 429.6"/><polygon class="cls-9" points="478.87 445.61 474.91 429.6 596.36 452.89 577.02 463.91 478.87 445.61"/><polygon class="cls-4" points="2192.85 315.22 1903.35 467.75 1903.35 757.26 2192.85 810.91 2482.36 757.26 2482.36 467.75 2192.85 315.22"/><polygon class="cls-4" points="2192.85 910.02 1903.35 757.49 1903.35 467.98 2192.85 620.52 2192.85 910.02"/><polygon class="cls-1" points="2192.85 910.02 1903.35 757.49 1903.35 467.98 2192.85 620.52 2192.85 910.02"/><polygon class="cls-6" points="2192.85 910.02 1903.35 757.49 1903.35 467.98 2192.85 620.52 2192.85 910.02"/><polygon class="cls-4" points="2192.85 910.02 2482.36 757.49 2482.36 467.98 2192.85 620.52 2192.85 910.02"/><polygon class="cls-6" points="2192.85 910.02 2482.36 757.49 2482.36 467.98 2192.85 620.52 2192.85 910.02"/><polygon class="cls-2" points="1933.46 466.55 2192.71 600.75 2446.59 464.4 2192.71 334.15 1933.46 466.55"/><polygon class="cls-12" points="415.25 1128.3 463.66 1128.3 410.21 1024.33 376.73 1024.33 415.25 1128.3"/><polygon class="cls-13" points="430.13 1128.3 326.15 1128.3 376.68 1024.33 430.13 1128.3"/><line class="cls-14" x1="664.26" y1="1230.13" x2="593.56" y2="1300.84"/><line class="cls-14" x1="592.73" y1="1230.13" x2="663.43" y2="1300.84"/><line class="cls-14" x1="664.26" y1="1409.81" x2="593.56" y2="1480.51"/><line class="cls-14" x1="592.73" y1="1409.81" x2="663.43" y2="1480.51"/><line class="cls-14" x1="1521.56" y1="1409.81" x2="1450.86" y2="1480.51"/><line class="cls-14" x1="1450.03" y1="1409.81" x2="1520.73" y2="1480.51"/><polyline class="cls-15" points="672.63 1045.94 623.99 1113.99 598.31 1084.97"/><polyline class="cls-15" points="2341 1045.94 2292.36 1113.99 2266.68 1084.97"/><polyline class="cls-15" points="2341 1235.71 2292.36 1303.76 2266.68 1274.74"/><polyline class="cls-15" points="2341 1414.32 2292.36 1482.37 2266.68 1453.34"/><polyline class="cls-15" points="1524.94 1045.94 1476.29 1113.99 1450.62 1084.97"/><polyline class="cls-15" points="1524.94 1231.25 1476.29 1299.3 1450.62 1270.27"/><line class="cls-16" x1="934.16" y1="235.26" x2="934.16" y2="1559.11"/><polygon class="cls-4" points="1360.37 315.22 1070.86 467.75 1070.86 757.26 1360.37 810.91 1649.87 757.26 1649.87 467.75 1360.37 315.22"/><polygon class="cls-4" points="1360.37 910.02 1070.86 757.49 1070.86 467.98 1360.37 620.52 1360.37 910.02"/><polygon class="cls-1" points="1360.37 910.02 1070.86 757.49 1070.86 467.98 1360.37 620.52 1360.37 910.02"/><polygon class="cls-6" points="1360.37 910.02 1070.86 757.49 1070.86 467.98 1360.37 620.52 1360.37 910.02"/><polygon class="cls-4" points="1360.37 910.02 1649.87 757.49 1649.87 467.98 1360.37 620.52 1360.37 910.02"/><polygon class="cls-6" points="1360.37 910.02 1649.87 757.49 1649.87 467.98 1360.37 620.52 1360.37 910.02"/><polygon class="cls-2" points="1100.97 466.55 1360.23 600.75 1614.1 464.4 1360.23 334.15 1100.97 466.55"/><polygon class="cls-8" points="1271.55 459.51 1290.12 534.56 1384.52 481.17 1271.55 459.51"/><polygon class="cls-9" points="1275.22 474.4 1271.55 459.51 1384.52 481.17 1366.53 491.42 1275.22 474.4"/><line class="cls-16" x1="1775.53" y1="235.93" x2="1775.53" y2="1559.78"/><rect class="cls-19" x="325.38" y="1218.38" width="103.8" height="103.8"/><circle class="cls-2" cx="384.21" cy="1451.68" r="58.54"/><path class="cls-2" d="M2046.22,1393.14h28.68a58.55,58.55,0,0,1,0,117.09h-28.68"/><rect class="cls-3" x="2026.41" y="1218.38" width="103.8" height="103.8"/><polygon class="cls-12" points="2079.15 1128.3 2127.56 1128.3 2074.12 1024.33 2040.64 1024.33 2079.15 1128.3"/><polygon class="cls-13" points="2094.03 1128.3 1990.06 1128.3 2040.59 1024.33 2094.03 1128.3"/><rect class="cls-19" x="1989.29" y="1218.38" width="103.8" height="103.8"/><circle class="cls-2" cx="2048.11" cy="1451.68" r="58.54"/><path class="cls-2" d="M1231.5,1393.14h28.68a58.55,58.55,0,0,1,0,117.09H1231.5"/><rect class="cls-3" x="1211.69" y="1218.38" width="103.8" height="103.8"/><polygon class="cls-12" points="1264.43 1128.3 1312.84 1128.3 1259.4 1024.33 1225.92 1024.33 1264.43 1128.3"/><polygon class="cls-13" points="1279.31 1128.3 1175.34 1128.3 1225.87 1024.33 1279.31 1128.3"/><rect class="cls-19" x="1174.57" y="1218.38" width="103.8" height="103.8"/><circle class="cls-2" cx="1233.39" cy="1451.68" r="58.54"/><path class="cls-20" d="M325.1,99v10.41H307.55V157.8H296V109.41H278.4V99Z"/><path class="cls-20" d="M336.36,157.8h-2.77L320.4,119.32h12.18l8.15,27.39L349,119.32H360.8l-15.37,44.52c-1.93,5.63-5,8.66-12,8.66h-7.56v-9.16h5.37a4,4,0,0,0,4.29-3Z"/><path class="cls-20" d="M377.27,172.5H366.35V119.32h10.92v1.85c0,1.85-.17,2.69-.17,3.11,1.85-3.28,6.38-6,12.18-6,10.58,0,18.65,8.48,18.65,20.24s-8.15,20.24-18.74,20.24c-5.46,0-10-2.6-11.92-5.88ZM377,138.56c0,5.88,4,10.58,9.83,10.58s9.83-4.7,9.83-10.58-4-10.5-9.83-10.5S377,132.59,377,138.56Z"/><path class="cls-20" d="M452.7,141.75H424.05a9.14,9.14,0,0,0,16.55,3.78l11.34,1.18c-3.44,8.23-10.67,12.09-19.23,12.09-11.51,0-20.16-8.48-20.16-20.24s8.48-20.24,20-20.24c10.58,0,20.16,6.88,20.16,23Zm-28.9-7.31H441a8.34,8.34,0,0,0-8.48-7A8.58,8.58,0,0,0,423.8,134.44Z"/><path class="cls-20" d="M507.63,114.62c-3.61-3.53-8.31-6.05-12.43-6.05-3.86,0-7.39,2-7.39,5.55,0,2.68,1.68,4.78,6.38,7l4.87,2.27c9.33,4.36,15,9.23,15,18.06s-7.48,17.38-20.42,17.38c-8.9,0-15.54-3.44-21.08-8.82l6.47-8.73c4.37,4.45,9.91,7,14.36,7,5,0,8.15-2.77,8.15-6.38,0-4-3.61-6.3-9.24-8.91L488.14,131c-7.89-3.7-12.85-9.07-12.85-16.46C475.29,104.2,484.53,98,495,98c6.8,0,13.77,3.36,19.4,8.23Z"/><path class="cls-20" d="M531.74,172.5H520.82V119.32h10.92v1.85c0,1.85-.17,2.69-.17,3.11,1.85-3.28,6.39-6,12.18-6,10.59,0,18.65,8.48,18.65,20.24s-8.15,20.24-18.73,20.24c-5.46,0-10-2.6-11.93-5.88Zm-.25-33.94c0,5.88,4,10.58,9.83,10.58s9.82-4.7,9.82-10.58-4-10.5-9.82-10.5S531.49,132.59,531.49,138.56Z"/><path class="cls-20" d="M607.17,141.75H578.53a9.14,9.14,0,0,0,16.55,3.78l11.34,1.18c-3.45,8.23-10.67,12.09-19.24,12.09-11.51,0-20.16-8.48-20.16-20.24s8.48-20.24,20-20.24c10.59,0,20.16,6.88,20.16,23Zm-28.89-7.31H595.5a8.35,8.35,0,0,0-8.49-7A8.57,8.57,0,0,0,578.28,134.44Z"/><path class="cls-20" d="M622.12,138.56c0,6.05,4,10.5,9.66,10.5a8.83,8.83,0,0,0,8.49-5.88l10.24,3.19C648,154,640.44,158.8,631.7,158.8c-11.43,0-20.5-8.48-20.5-20.24s9.07-20.24,20.5-20.24c8.74,0,16.3,4.87,18.81,12.51l-10.24,3.11a8.93,8.93,0,0,0-8.49-5.88C626.07,128.06,622.12,132.51,622.12,138.56Z"/><path class="cls-20" d="M670.17,157.8H659.25V128.56h-5.38v-9.24h16.3Zm-6-58.8a7,7,0,0,1,7,7,7,7,0,0,1-14,0A7,7,0,0,1,664.21,99Z"/><path class="cls-20" d="M717.71,157.8H706.79V128.56H693.1V157.8H682.18V128.56h-6v-9.24h6V108.4c0-7.56,5-10.16,10.92-10.16,2.94,0,8,.5,8,.5v10s-3.36-.42-4.53-.42c-2.1,0-3.45.5-3.45,3.19v7.81h24.61Zm-6-58.8a7,7,0,0,1,7.06,7,7,7,0,0,1-14,0A7,7,0,0,1,711.75,99Z"/><path class="cls-20" d="M735.44,138.56c0,6.05,3.95,10.5,9.66,10.5a8.81,8.81,0,0,0,8.48-5.88l10.25,3.19C761.31,154,753.75,158.8,745,158.8c-11.42,0-20.49-8.48-20.49-20.24s9.07-20.24,20.49-20.24c8.74,0,16.3,4.87,18.82,12.51l-10.25,3.11a8.92,8.92,0,0,0-8.48-5.88C739.39,128.06,735.44,132.51,735.44,138.56Z"/><path class="cls-20" d="M1298.8,137.22V99h11.42v39.31c0,11.42-7.47,20.49-22,20.49s-21.93-9.07-21.93-20.49V99H1278v38.22c0,6.38,3.53,10.83,10.41,10.83S1298.8,143.6,1298.8,137.22Z"/><path class="cls-20" d="M1342.23,118.32c8.32,0,14.28,5.29,14.28,14.27V157.8h-10.92V135.37c0-4.87-3.11-6.89-6.55-6.89a10.65,10.65,0,0,0-8.15,4.37v25H1320V119.32h10.67v1.52c0,1.34-.17,3-.17,3A15.14,15.14,0,0,1,1342.23,118.32Z"/><path class="cls-20" d="M1378.69,157.8h-10.92V128.56h-5.38v-9.24h16.3Zm-6-58.8a7,7,0,0,1,7.06,7,7,7,0,0,1-14,0A7,7,0,0,1,1372.72,99Z"/><path class="cls-20" d="M1385.66,138.56c0-11.76,9.15-20.24,20.58-20.24s20.58,8.48,20.58,20.24-9.16,20.24-20.58,20.24S1385.66,150.32,1385.66,138.56Zm10.92,0c0,6,3.94,10.5,9.66,10.5s9.57-4.54,9.57-10.5-3.94-10.5-9.57-10.5S1396.58,132.51,1396.58,138.56Z"/><path class="cls-20" d="M1456.05,118.32c8.31,0,14.28,5.29,14.28,14.27V157.8h-10.92V135.37c0-4.87-3.11-6.89-6.55-6.89a10.63,10.63,0,0,0-8.15,4.37v25h-10.92V119.32h10.67v1.52c0,1.34-.17,3-.17,3A15.14,15.14,0,0,1,1456.05,118.32Z"/><path class="cls-20" d="M2171.81,157.8h-12.6l-5-16.05h-17.73l-4.7,16.05h-12.27l19-58.8h13.94Zm-26.46-46.21h-.17l-6,20.17h12Z"/><path class="cls-20" d="M2199.44,118.32c8.32,0,14.28,5.29,14.28,14.27V157.8H2202.8V135.37c0-4.87-3.11-6.89-6.55-6.89a10.65,10.65,0,0,0-8.15,4.37v25h-10.92V119.32h10.67v1.52c0,1.34-.17,3-.17,3A15.14,15.14,0,0,1,2199.44,118.32Z"/><path class="cls-20" d="M2234.3,157.8h-2.77l-13.19-38.48h12.18l8.15,27.39,8.23-27.39h11.85l-15.38,44.52c-1.93,5.63-4.95,8.66-12,8.66h-7.56v-9.16h5.38a4,4,0,0,0,4.28-3Z"/><polygon class="cls-8" points="1340.7 428.18 1410.99 464.56 1479.82 427.59 1410.99 392.28 1340.7 428.18"/><polygon class="cls-9" points="1410.89 408.86 1463.36 435.93 1479.82 427.59 1410.99 392.28 1410.89 408.86"/><polygon class="cls-9" points="1355.64 435.65 1410.89 408.86 1410.99 392.28 1340.99 427.97 1355.64 435.65"/><polygon class="cls-8" points="2182.4 422.58 2229.59 381.79 2239.78 430.96 2325.56 421.77 2271.05 459.51 2345.16 487.3 2257.89 491.5 2276.91 539.99 2208.01 508.19 2160.8 548.98 2150.62 499.81 2064.84 509 2119.35 471.26 2045.24 443.47 2132.51 439.27 2113.49 390.78 2182.4 422.58"/><polygon class="cls-9" points="2239.43 430.96 2239.43 444.41 2302.31 437.34 2325.56 421.77 2239.43 430.96"/><polygon class="cls-9" points="2182.4 422.58 2182.4 438.46 2232.4 397.06 2229.59 381.79 2182.4 422.58"/><polygon class="cls-9" points="2182.4 438.46 2121.85 410.93 2113.49 390.78 2182.4 422.58 2182.4 438.46"/><polygon class="cls-9" points="2132.51 439.27 2132.51 454.83 2081.47 456.69 2045.24 443.47 2132.51 439.27"/><polygon class="cls-9" points="2119.35 471.26 2119.35 488.32 2095.06 505.44 2064.84 509 2119.35 471.26"/><polygon class="cls-9" points="2257.89 491.5 2257.89 511.39 2268.45 535.58 2276.91 539.99 2257.89 491.5"/><polygon class="cls-9" points="2271.05 459.51 2271.05 473.44 2321.29 488.32 2345.16 487.3 2271.05 459.51"/><line class="cls-9" x1="2239.43" y1="444.41" x2="2227.52" y2="385.06"/></svg>